<?xml version="1.0" encoding="utf-8"?>
<!-- Generator: Adobe Illustrator 23.1.0, SVG Export Plug-In . SVG Version: 6.00 Build 0)  -->
<svg version="1.1" id="Layer_1" xmlns="http://www.w3.org/2000/svg" xmlns:xlink="http://www.w3.org/1999/xlink" x="0px" y="0px"
	 viewBox="0 0 1920 1080" style="enable-background:new 0 0 1920 1080;" xml:space="preserve">
<style type="text/css">
	.st0{clip-path:url(#SVGID_2_);fill:url(#SVGID_3_);}
	.st1{clip-path:url(#SVGID_2_);fill:url(#SVGID_4_);}
	.st2{clip-path:url(#SVGID_2_);}
	.st3{fill:url(#SVGID_5_);}
	.st4{opacity:0.1;fill:#6988F9;}
	.st5{opacity:0.4;fill:#8FE2EA;}
	.st6{opacity:0.4;}
	.st7{fill:#E3D2B4;}
	.st8{fill:#3E1E7D;}
	.st9{opacity:0.2;}
	.st10{fill:#331D74;}
</style>
<g>
	<defs>
		<rect id="SVGID_1_" width="1920" height="1080"/>
	</defs>
	<clipPath id="SVGID_2_">
		<use xlink:href="#SVGID_1_"  style="overflow:visible;"/>
	</clipPath>
	<linearGradient id="SVGID_3_" gradientUnits="userSpaceOnUse" x1="1770.2557" y1="-229.9664" x2="605.3293" y2="877.0349">
		<stop  offset="2.423880e-03" style="stop-color:#A050FF"/>
		<stop  offset="0.2561" style="stop-color:#6989F8"/>
		<stop  offset="0.4957" style="stop-color:#3CB7F2"/>
		<stop  offset="0.7071" style="stop-color:#1CD8EE"/>
		<stop  offset="0.8825" style="stop-color:#08EDEB"/>
		<stop  offset="1" style="stop-color:#01F4EA"/>
	</linearGradient>
	<rect class="st0" width="1920" height="1080"/>
	<linearGradient id="SVGID_4_" gradientUnits="userSpaceOnUse" x1="197.3472" y1="-228.2115" x2="1722.6501" y2="1297.0914">
		<stop  offset="3.409785e-07" style="stop-color:#000444"/>
		<stop  offset="0.9285" style="stop-color:#984CF6"/>
		<stop  offset="0.929" style="stop-color:#994DF8"/>
		<stop  offset="0.932" style="stop-color:#A050FF"/>
	</linearGradient>
	<rect x="-19.7" y="-11.1" class="st1" width="1959.5" height="1091.1"/>
	<g class="st2">
		<linearGradient id="SVGID_5_" gradientUnits="userSpaceOnUse" x1="586.9956" y1="505.8946" x2="1939.7416" y2="505.8946">
			<stop  offset="0.4449" style="stop-color:#000959"/>
			<stop  offset="0.7252" style="stop-color:#00034B"/>
			<stop  offset="0.9883" style="stop-color:#000044"/>
		</linearGradient>
		<path class="st3" d="M1939.7,663v344.5c-4.5,1-9,2-13.5,3c-60.1,12.9-124.8,20.4-182-1.2c-122.2-46.3-156.4-200.9-270.1-263.2
			c-115.5-63.3-281.7-14.1-382.5-96.4c-112.9-92.1-67.4-288.9-188.3-371.6c-42.7-29.2-98.3-37.3-143-63.7
			c-48.9-28.9-80.4-77-108.1-124.4C632.2,55.3,612.7,19.7,587-11.1h637.5c11.3,20.7,24.5,40,42.1,56.5
			c74.1,69.4,198,63.6,285.7,117.6c88.9,54.8,123.6,158.5,157.1,252.9c33.6,94.3,81.7,196.9,180.4,234.4
			C1906.2,656.5,1922.8,660.6,1939.7,663z"/>
		<g>
			<path class="st4" d="M886.3,333.9c-0.8-6.6-15.6-7.3-40.9-0.1c1,1.2,1.9,2.6,2.8,3.9c10-1.2,16.6-0.5,17.8,2.4
				c1.1,2.8-3.2,7.4-11.4,12.6c-0.2-0.9-0.5-1.8-0.7-2.6c-0.1-0.2-0.1-0.4-0.2-0.5c-0.7-2.2-1.6-4.4-2.5-6.4c0-0.1-0.1-0.2-0.1-0.3
				c-7.6-15.6-23.2-27.2-41.9-30.1c0,0,0,0,0,0c-1.4-0.2-2.8-0.4-4.3-0.5c0,0-0.1,0-0.1,0c-1.4-0.1-2.9-0.2-4.4-0.2c0,0,0,0,0,0h0
				c-0.2,0-0.3,0-0.5,0c-2.8,0-5.5,0.2-8.2,0.6l0,0c0,0,0,0,0,0c-1.5,0.2-2.9,0.5-4.3,0.8c-0.2,0-0.3,0.1-0.5,0.1
				c-1.4,0.3-2.8,0.7-4.1,1.1c0,0-0.1,0-0.1,0c-1.4,0.4-2.7,0.9-4,1.4c-0.1,0-0.2,0.1-0.3,0.1c-1.3,0.5-2.5,1-3.7,1.6
				c-0.2,0.1-0.4,0.2-0.5,0.3c-1.2,0.6-2.4,1.2-3.6,1.9c0,0-0.1,0-0.1,0.1c-1.1,0.6-2.2,1.3-3.3,2.1c-0.2,0.1-0.3,0.2-0.5,0.3
				c-0.3,0.2-0.6,0.4-1,0.7c0,0,0,0,0,0c0,0,0,0,0,0c-0.7,0.5-1.4,1-2.1,1.6c-0.2,0.1-0.4,0.3-0.5,0.4c-0.7,0.6-1.4,1.1-2,1.7
				c-0.1,0.1-0.1,0.1-0.2,0.2c-0.7,0.6-1.4,1.3-2.1,2c0,0,0,0,0,0c-2.1,2.1-4.1,4.4-5.8,6.9c-0.1,0.1-0.2,0.2-0.2,0.3
				c-0.5,0.7-0.9,1.4-1.4,2c-0.1,0.2-0.2,0.4-0.3,0.5c-0.4,0.6-0.8,1.3-1.1,2c-0.1,0.2-0.2,0.4-0.3,0.6c-0.4,0.7-0.7,1.4-1.1,2.1
				c-0.1,0.2-0.2,0.3-0.2,0.5c-0.6,1.3-1.1,2.6-1.6,3.9c0,0,0,0.1,0,0.1c-0.2,0.5-0.3,0.9-0.5,1.4c-0.1,0.2-0.1,0.4-0.2,0.6
				c-0.2,0.7-0.4,1.4-0.6,2.1c-0.1,0.3-0.2,0.6-0.2,0.9c-0.2,0.6-0.3,1.2-0.4,1.9c-0.1,0.3-0.1,0.7-0.2,1c-0.1,0.6-0.2,1.2-0.3,1.8
				c0,0,0,0,0,0c0,0,0,0.1,0,0.1c0,0.4-0.1,0.7-0.1,1.1c-0.1,0.7-0.1,1.3-0.2,2c0,0.3-0.1,0.6-0.1,0.9c-0.1,1-0.1,2-0.1,3
				c0,1.8,0.1,3.5,0.3,5.2c-20.5,10.5-32.7,20.1-30.6,25.3c2.1,5.2,18.1,4.9,40.9,0.1c0,0,0,0,0,0c3.4,4.4,7.6,8.4,12.3,11.6l0,0
				c0,0,0,0,0,0c8.6,5.9,19.1,9.6,30.4,10.1c1,0,1.9,0.1,2.9,0.1c1.1,0,2.1,0,3.2-0.1c0.3,0,0.7,0,1-0.1c0.7,0,1.4-0.1,2.1-0.2
				c0.4,0,0.8-0.1,1.1-0.1c0.7-0.1,1.3-0.2,2-0.3c0.4-0.1,0.8-0.1,1.1-0.2c0.7-0.1,1.3-0.3,2-0.4c0.3-0.1,0.7-0.1,1-0.2
				c0.8-0.2,1.5-0.4,2.3-0.6c0.2-0.1,0.4-0.1,0.6-0.2c2-0.6,3.9-1.2,5.8-2c0.2-0.1,0.4-0.2,0.5-0.2c0.8-0.3,1.5-0.6,2.2-1
				c0.2-0.1,0.4-0.2,0.6-0.3c0.7-0.3,1.4-0.7,2.1-1.1c0.2-0.1,0.4-0.2,0.6-0.3c0.7-0.4,1.5-0.8,2.2-1.3c0.1-0.1,0.2-0.1,0.4-0.2
				c2.6-1.6,5.1-3.4,7.3-5.4c0,0,0,0,0,0c0.6-0.5,1.2-1.1,1.8-1.6c0.1-0.1,0.2-0.2,0.3-0.3c0,0,0,0,0,0c0.1-0.1,0.1-0.1,0.2-0.2
				c0.5-0.5,1-1,1.5-1.6c0.1-0.1,0.2-0.2,0.3-0.3c0,0,0.1-0.1,0.1-0.1c0.1-0.1,0.1-0.1,0.2-0.2c0.5-0.5,1-1.1,1.5-1.7
				c0-0.1,0.1-0.1,0.1-0.2c6.9-8.3,11.3-18.6,11.8-29.8c0-0.8,0.1-1.7,0.1-2.5c0,0,0,0,0,0c0-1.1-0.1-2.3-0.1-3.4
				c0-0.3,0-0.6-0.1-0.9c0-0.3,0-0.6-0.1-0.9c0,0,0,0,0,0C876.2,348.7,886.9,339.4,886.3,333.9z M744,372.1c0-0.3-0.1-0.5-0.1-0.8
				C744,371.6,744,371.9,744,372.1z M732.8,387.1c-1.2-2.9,3.3-7.4,11.6-12.7c0-0.1,0-0.1,0-0.2c0.3,1.4,0.6,2.7,1,4.1l0,0
				c0,0,0,0,0,0c0.3,1.2,0.7,2.3,1.2,3.5c0,0,0,0,0,0.1c0.9,2.3,1.9,4.5,3,6.6c0,0,0,0.1,0.1,0.1c0.2,0.3,0.4,0.7,0.6,1
				C740.4,390.6,734,389.9,732.8,387.1z"/>
			<path class="st4" d="M1689.4,534.9c-20.3-19-53.4-19-73.7,0c-20.3,19-20.3,49.8,0,68.7c20.3,19,53.4,19,73.7,0
				C1709.7,584.7,1709.7,553.8,1689.4,534.9z"/>
			<path class="st4" d="M1244.9,207.8c-20.3-19-53.4-19-73.7,0c-20.3,19-20.3,49.8,0,68.7c20.3,19,53.4,19,73.7,0
				C1265.2,257.6,1265.2,226.8,1244.9,207.8z"/>
			<path class="st4" d="M1261.5,179c-4.8-4.5-12.5-4.5-17.3,0c-4.8,4.5-4.8,11.7,0,16.1c4.8,4.5,12.5,4.5,17.3,0
				C1266.3,190.7,1266.3,183.5,1261.5,179z"/>
		</g>
	</g>
	<g class="st2">
		<g>
			<path class="st5" d="M1534.4,403.5c-0.5,0.5-1.4,0.5-2,0c-0.5-0.5-0.5-1.3,0-1.9c0.5-0.5,1.4-0.5,2,0
				C1535,402.2,1535,403,1534.4,403.5z M1540.9,397.5c-0.5,0.5-1.4,0.5-2,0c-0.5-0.5-0.5-1.3,0-1.9c0.5-0.5,1.4-0.5,2,0
				C1541.4,396.2,1541.4,397,1540.9,397.5z M1547.3,391.5c-0.5,0.5-1.4,0.5-2,0c-0.5-0.5-0.5-1.3,0-1.9c0.5-0.5,1.4-0.5,2,0
				C1547.9,390.2,1547.9,391,1547.3,391.5z M1553.8,385.5c-0.5,0.5-1.4,0.5-2,0s-0.5-1.3,0-1.9c0.5-0.5,1.4-0.5,2,0
				C1554.3,384.1,1554.3,385,1553.8,385.5z M1560.3,379.4c-0.5,0.5-1.4,0.5-2,0c-0.5-0.5-0.5-1.3,0-1.9s1.4-0.5,2,0
				S1560.8,378.9,1560.3,379.4z M1566.7,373.4c-0.5,0.5-1.4,0.5-2,0c-0.5-0.5-0.5-1.3,0-1.9c0.5-0.5,1.4-0.5,2,0
				C1567.3,372.1,1567.3,372.9,1566.7,373.4z M1573.2,367.4c-0.5,0.5-1.4,0.5-2,0c-0.5-0.5-0.5-1.3,0-1.9c0.5-0.5,1.4-0.5,2,0
				C1573.7,366.1,1573.7,366.9,1573.2,367.4z M1579.6,361.4c-0.5,0.5-1.4,0.5-2,0c-0.5-0.5-0.5-1.3,0-1.9c0.5-0.5,1.4-0.5,2,0
				C1580.2,360,1580.2,360.9,1579.6,361.4z M1586.1,355.4c-0.5,0.5-1.4,0.5-2,0c-0.5-0.5-0.5-1.3,0-1.9c0.5-0.5,1.4-0.5,2,0
				C1586.6,354,1586.6,354.8,1586.1,355.4z M1528,407.7c-0.5-0.5-1.4-0.5-2,0c-0.5,0.5-0.5,1.3,0,1.9c0.5,0.5,1.4,0.5,2,0
				C1528.5,409,1528.5,408.2,1528,407.7z M1521.5,413.7c-0.5-0.5-1.4-0.5-2,0c-0.5,0.5-0.5,1.3,0,1.9c0.5,0.5,1.4,0.5,2,0
				C1522.1,415.1,1522.1,414.2,1521.5,413.7z M1515.1,419.7c-0.5-0.5-1.4-0.5-2,0c-0.5,0.5-0.5,1.3,0,1.9c0.5,0.5,1.4,0.5,2,0
				C1515.6,421.1,1515.6,420.3,1515.1,419.7z M1398.6,530.3c-0.5,0.5-1.4,0.5-2,0c-0.5-0.5-0.5-1.3,0-1.9s1.4-0.5,2,0
				S1399.1,529.8,1398.6,530.3z M1405,524.3c-0.5,0.5-1.4,0.5-2,0s-0.5-1.3,0-1.9c0.5-0.5,1.4-0.5,2,0
				C1405.6,522.9,1405.6,523.7,1405,524.3z M1411.5,518.2c-0.5,0.5-1.4,0.5-2,0c-0.5-0.5-0.5-1.3,0-1.9c0.5-0.5,1.4-0.5,2,0
				C1412,516.9,1412,517.7,1411.5,518.2z M1417.9,512.2c-0.5,0.5-1.4,0.5-2,0c-0.5-0.5-0.5-1.3,0-1.9s1.4-0.5,2,0
				C1418.5,510.9,1418.5,511.7,1417.9,512.2z M1396.8,579.7c-0.5,0.5-1.4,0.5-2,0c-0.5-0.5-0.5-1.3,0-1.9c0.5-0.5,1.4-0.5,2,0
				C1397.4,578.3,1397.4,579.2,1396.8,579.7z M1403.3,573.7c-0.5,0.5-1.4,0.5-2,0c-0.5-0.5-0.5-1.3,0-1.9s1.4-0.5,2,0
				C1403.8,572.3,1403.8,573.2,1403.3,573.7z M1409.7,567.6c-0.5,0.5-1.4,0.5-2,0s-0.5-1.3,0-1.9c0.5-0.5,1.4-0.5,2,0
				C1410.3,566.3,1410.3,567.1,1409.7,567.6z M1416.2,561.6c-0.5,0.5-1.4,0.5-2,0c-0.5-0.5-0.5-1.3,0-1.9c0.5-0.5,1.4-0.5,2,0
				S1416.7,561.1,1416.2,561.6z M1480.3,339.9c-0.5-0.5-0.5-1.3,0-1.9c0.5-0.5,1.4-0.5,2,0c0.5,0.5,0.5,1.3,0,1.9
				C1481.8,340.4,1480.9,340.4,1480.3,339.9z M1526,316.4c-0.5-0.5-0.5-1.3,0-1.9c0.5-0.5,1.4-0.5,2,0c0.5,0.5,0.5,1.3,0,1.9
				C1527.4,316.9,1526.5,316.9,1526,316.4z M1528.8,319.1c-0.5-0.5-0.5-1.3,0-1.9c0.5-0.5,1.4-0.5,2,0c0.5,0.5,0.5,1.3,0,1.9
				C1530.3,319.6,1529.4,319.6,1528.8,319.1z"/>
			<g class="st6">
				<path class="st7" d="M1619,667.9L1619,667.9c-1,0-1.7-0.7-1.7-1.6v-4.6c0-0.9,0.8-1.6,1.7-1.6l0,0c1,0,1.7,0.7,1.7,1.6v4.6
					C1620.7,667.2,1619.9,667.9,1619,667.9z"/>
				<path class="st7" d="M1630.8,667.9L1630.8,667.9c-1,0-1.7-0.7-1.7-1.6v-4.6c0-0.9,0.8-1.6,1.7-1.6l0,0c1,0,1.7,0.7,1.7,1.6v4.6
					C1632.5,667.2,1631.8,667.9,1630.8,667.9z"/>
				<path class="st7" d="M1642.7,667.9L1642.7,667.9c-1,0-1.7-0.7-1.7-1.6v-4.6c0-0.9,0.8-1.6,1.7-1.6l0,0c1,0,1.7,0.7,1.7,1.6v4.6
					C1644.4,667.2,1643.6,667.9,1642.7,667.9z"/>
				<path class="st7" d="M1654.5,667.9L1654.5,667.9c-1,0-1.7-0.7-1.7-1.6v-4.6c0-0.9,0.8-1.6,1.7-1.6l0,0c1,0,1.7,0.7,1.7,1.6v4.6
					C1656.2,667.2,1655.5,667.9,1654.5,667.9z"/>
				<path class="st7" d="M1666.4,667.9L1666.4,667.9c-1,0-1.7-0.7-1.7-1.6v-4.6c0-0.9,0.8-1.6,1.7-1.6l0,0c1,0,1.7,0.7,1.7,1.6v4.6
					C1668.1,667.2,1667.3,667.9,1666.4,667.9z"/>
				<path class="st7" d="M1678.2,667.9L1678.2,667.9c-1,0-1.7-0.7-1.7-1.6v-4.6c0-0.9,0.8-1.6,1.7-1.6l0,0c1,0,1.7,0.7,1.7,1.6v4.6
					C1679.9,667.2,1679.2,667.9,1678.2,667.9z"/>
				<path class="st7" d="M1691.2,667.9h-2.3c-0.3,0-0.6-0.3-0.6-0.6v-6.6c0-0.3,0.3-0.6,0.6-0.6h2.3c0.3,0,0.6,0.3,0.6,0.6v6.6
					C1691.8,667.7,1691.5,667.9,1691.2,667.9z"/>
				<path class="st7" d="M1701.9,667.9L1701.9,667.9c-1,0-1.7-0.7-1.7-1.6v-4.6c0-0.9,0.8-1.6,1.7-1.6l0,0c1,0,1.7,0.7,1.7,1.6v4.6
					C1703.6,667.2,1702.9,667.9,1701.9,667.9z"/>
			</g>
			<g class="st6">
				<path class="st8" d="M1569.3,307.5L1569.3,307.5c-0.7-0.6-0.7-1.6,0-2.3l3.4-3.2c0.7-0.6,1.8-0.6,2.4,0l0,0
					c0.7,0.6,0.7,1.6,0,2.3l-3.5,3.2C1571.1,308.1,1570,308.1,1569.3,307.5z"/>
				<path class="st8" d="M1577.7,315.3L1577.7,315.3c-0.7-0.6-0.7-1.6,0-2.3l3.5-3.2c0.7-0.6,1.8-0.6,2.4,0l0,0
					c0.7,0.6,0.7,1.6,0,2.3l-3.5,3.2C1579.5,315.9,1578.4,315.9,1577.7,315.3z"/>
				<path class="st8" d="M1586.1,323.1L1586.1,323.1c-0.7-0.6-0.7-1.6,0-2.3l3.5-3.2c0.7-0.6,1.8-0.6,2.4,0l0,0
					c0.7,0.6,0.7,1.6,0,2.3l-3.5,3.2C1587.9,323.7,1586.8,323.7,1586.1,323.1z"/>
				<path class="st8" d="M1594.5,330.9L1594.5,330.9c-0.7-0.6-0.7-1.6,0-2.3l3.4-3.2c0.7-0.6,1.8-0.6,2.4,0l0,0
					c0.7,0.6,0.7,1.6,0,2.3l-3.5,3.2C1596.2,331.5,1595.2,331.5,1594.5,330.9z"/>
				<path class="st8" d="M1602.9,338.7L1602.9,338.7c-0.7-0.6-0.7-1.6,0-2.3l3.5-3.2c0.7-0.6,1.8-0.6,2.4,0l0,0
					c0.7,0.6,0.7,1.6,0,2.3l-3.5,3.2C1604.6,339.3,1603.5,339.3,1602.9,338.7z"/>
				<path class="st8" d="M1611.2,346.5L1611.2,346.5c-0.7-0.6-0.7-1.6,0-2.3l3.5-3.2c0.7-0.6,1.8-0.6,2.4,0l0,0
					c0.7,0.6,0.7,1.6,0,2.3l-3.5,3.2C1613,347.2,1611.9,347.2,1611.2,346.5z"/>
				<path class="st8" d="M1619.6,354.4L1619.6,354.4c-0.7-0.6-0.7-1.6,0-2.3l3.4-3.2c0.7-0.6,1.8-0.6,2.4,0l0,0
					c0.7,0.6,0.7,1.6,0,2.3l-3.5,3.2C1621.4,355,1620.3,355,1619.6,354.4z"/>
				<path class="st8" d="M1628,362.2L1628,362.2c-0.7-0.6-0.7-1.6,0-2.3l3.5-3.2c0.7-0.6,1.8-0.6,2.4,0l0,0c0.7,0.6,0.7,1.6,0,2.3
					l-3.5,3.2C1629.8,362.8,1628.7,362.8,1628,362.2z"/>
				<path class="st8" d="M1636.4,370L1636.4,370c-0.7-0.6-0.7-1.6,0-2.3l3.5-3.2c0.7-0.6,1.8-0.6,2.4,0l0,0c0.7,0.6,0.7,1.6,0,2.3
					l-3.5,3.2C1638.1,370.6,1637.1,370.6,1636.4,370z"/>
			</g>
			<g class="st9">
				<path class="st10" d="M1247.4,557.3l-68.1,5.3c-0.2,0-0.3,0.1-0.5,0.2l-16.9,15.8l2.2-0.2l15.5-14.5l65.9-5.2l-16.2,15.1
					l2.2-0.2l16.4-15.3c0.2-0.2,0.3-0.5,0.1-0.8C1248,557.4,1247.7,557.2,1247.4,557.3z"/>
			</g>
			<g class="st9">
				<path class="st10" d="M1454.9,606.2l-24.7,23.1c-0.1,0.1-0.2,0.3-0.2,0.5v58.1c-26.8,32.9-61.8,64.6-85.9,85l-0.2,2
					c23.8-20.1,58.9-51.7,86-84.7v15.8c0.5-0.6,1-1.2,1.5-1.7v-74.1l23.4-21.9C1454.8,607.6,1454.8,606.9,1454.9,606.2z"/>
				<path class="st10" d="M1346.2,746.2l-0.2,2.1l15.9-14.9c0.1-0.1,0.2-0.3,0.2-0.4l5.7-63.5c0.1-0.3-0.1-0.5-0.4-0.7
					c-0.3-0.1-0.6-0.1-0.8,0.1l-15.5,14.4l-0.2,2.1l15.2-14.2l-5.5,61.4L1346.2,746.2z"/>
			</g>
		</g>
	</g>
</g>
</svg>
