<?xml version="1.0" encoding="utf-8"?>
<!-- Generator: Adobe Illustrator 23.1.0, SVG Export Plug-In . SVG Version: 6.00 Build 0)  -->
<svg version="1.1" id="Layer_1" xmlns="http://www.w3.org/2000/svg" xmlns:xlink="http://www.w3.org/1999/xlink" x="0px" y="0px"
	 viewBox="0 0 1920 1080" style="enable-background:new 0 0 1920 1080;" xml:space="preserve">
<style type="text/css">
	.st0{clip-path:url(#SVGID_2_);}
	.st1{fill:url(#SVGID_3_);}
	.st2{opacity:0.1;fill:#6988F9;}
	.st3{fill:#6988F9;}
	.st4{fill:#CBFEFE;}
	.st5{opacity:0.6;fill:#CBFEFE;}
	.st6{opacity:0.5;fill:#FFFFFF;}
	.st7{opacity:0.6;fill:#FFFFFF;}
	.st8{opacity:0.4;fill:#8FE2EA;}
</style>
<g>
	<defs>
		<polyline id="SVGID_1_" points="1920,1080 0,1080 0,0 1920,0 		"/>
	</defs>
	<clipPath id="SVGID_2_">
		<use xlink:href="#SVGID_1_"  style="overflow:visible;"/>
	</clipPath>
	<g class="st0">
		<linearGradient id="SVGID_3_" gradientUnits="userSpaceOnUse" x1="-3222.8384" y1="1213.4807" x2="3962.3616" y2="1213.4807">
			<stop  offset="0.4449" style="stop-color:#000959"/>
			<stop  offset="0.7252" style="stop-color:#00034B"/>
			<stop  offset="0.9883" style="stop-color:#000044"/>
		</linearGradient>
		<path class="st1" d="M3962.4,1946.2v1607.2c-24,4.7-47.8,9.3-71.8,13.8c-319.1,60.2-663.1,95.1-966.5-5.8
			c-649.1-216-830.5-937.1-1434.4-1227.9c-613.7-295.3-1496-65.8-2031.8-449.7c-599.5-429.6-357.8-1347.4-999.9-1733.6
			C-1768.8,13.9-2064.2-23.6-2301.9-147c-259.6-134.8-427.1-359.1-573.9-580.3c-106.9-160.9-210.5-327.3-347-470.9H163.3
			c59.8,96.4,129.9,186.5,223.6,263.5C780.7-611,1438.6-637.8,1904.2-386.1c472.4,255.5,656.4,739.3,834.6,1179.5
			c178.3,440.1,434.2,918.3,958.2,1093.6C3783.9,1916,3872.5,1935,3962.4,1946.2z"/>
		<g>
			<path class="st2" d="M642.4,621.7c0-0.3-0.1-0.5-0.1-0.8C642.3,621.2,642.4,621.4,642.4,621.7z M631.2,636.6
				c-1.2-2.9,3.3-7.4,11.6-12.7c0-0.1,0-0.1,0-0.2c0.3,1.4,0.6,2.7,1,4.1l0,0c0,0,0,0,0,0c0.3,1.2,0.7,2.3,1.2,3.5c0,0,0,0,0,0.1
				c0.9,2.3,1.9,4.5,3,6.6c0,0,0,0.1,0.1,0.1c0.2,0.3,0.4,0.7,0.6,1C638.8,640.2,632.3,639.5,631.2,636.6z"/>
			<path class="st3" d="M1159.9,428.6c-4.8-4.5-12.5-4.5-17.3,0c-4.8,4.5-4.8,11.7,0,16.1c4.8,4.5,12.5,4.5,17.3,0
				C1164.6,440.3,1164.6,433,1159.9,428.6z"/>
		</g>
		<g>
			<ellipse class="st4" cx="29" cy="297" rx="3.3" ry="3.1"/>
			<path class="st5" d="M448,275.4c0,1.7-1.5,3.1-3.3,3.1c-1.8,0-3.3-1.4-3.3-3.1c0-1.7,1.5-3.1,3.3-3.1
				C446.5,272.3,448,273.7,448,275.4z"/>
			<path class="st5" d="M1384.7,514.6c0,1.7-1.5,3.1-3.3,3.1c-1.8,0-3.3-1.4-3.3-3.1c0-1.7,1.5-3.1,3.3-3.1
				C1383.3,511.5,1384.7,512.9,1384.7,514.6z"/>
			<path class="st4" d="M533.6,705.4c0,1.3-1.1,2.3-2.5,2.3c-1.4,0-2.5-1-2.5-2.3c0-1.3,1.1-2.3,2.5-2.3
				C532.5,703.1,533.6,704.2,533.6,705.4z"/>
			<path class="st4" d="M949.6,187c1,0.8,1.2,2.2,0.4,3.2c-0.8,1-2.3,1.1-3.3,0.4c-1-0.8-1.2-2.2-0.4-3.2
				C947.1,186.3,948.6,186.2,949.6,187z"/>
			<path class="st5" d="M1381.4,425.2c0,3.2-2.7,5.7-6.1,5.7c-3.4,0-6.1-2.6-6.1-5.7c0-3.2,2.8-5.7,6.1-5.7
				C1378.7,419.4,1381.4,422,1381.4,425.2z"/>
			<path class="st5" d="M464,293.9c0,3.2-2.8,5.7-6.1,5.7s-6.1-2.6-6.1-5.7s2.7-5.7,6.1-5.7S464,290.7,464,293.9z"/>
			<path class="st5" d="M1017.3,405.6c0,3.2-2.8,5.7-6.1,5.7s-6.1-2.6-6.1-5.7c0-3.2,2.7-5.7,6.1-5.7S1017.3,402.4,1017.3,405.6z"/>
			<path class="st5" d="M461.2,589.6c0,1.7-1.5,3.1-3.3,3.1c-1.8,0-3.3-1.4-3.3-3.1c0-1.7,1.5-3.1,3.3-3.1
				C459.7,586.5,461.2,587.9,461.2,589.6z"/>
			<path class="st5" d="M932.6,191.1c0,1.7-1.5,3.1-3.3,3.1c-1.8,0-3.3-1.4-3.3-3.1c0-1.7,1.5-3.1,3.3-3.1
				C931.2,188,932.6,189.3,932.6,191.1z"/>
			<path class="st4" d="M767.5,577.2c0,1.3-1.1,2.4-2.5,2.4s-2.5-1.1-2.5-2.4c0-1.3,1.1-2.4,2.5-2.4S767.5,575.9,767.5,577.2z"/>
			<path class="st4" d="M730.4,627.1c-1.4,0-2.5-1.1-2.5-2.4s1.1-2.4,2.5-2.4s2.5,1.1,2.5,2.4S731.8,627.1,730.4,627.1z"/>
			<ellipse class="st4" cx="962.9" cy="829.2" rx="1.4" ry="1.3"/>
			<path class="st4" d="M533.8,755.3c0,0.7-0.6,1.3-1.3,1.3c-0.7,0-1.3-0.6-1.3-1.3c0-0.7,0.6-1.3,1.3-1.3
				C533.2,754,533.8,754.6,533.8,755.3z"/>
			<path class="st5" d="M1111.1,1032.9c1.1,0.8,1.2,2.2,0.4,3.2c-0.8,1-2.4,1.1-3.5,0.4c-1.1-0.8-1.2-2.2-0.4-3.2
				C1108.5,1032.3,1110.1,1032.1,1111.1,1032.9z"/>
			<path class="st5" d="M625.7,684c1.1,0.8,1.2,2.2,0.4,3.2c-0.8,1-2.4,1.1-3.5,0.4c-1.1-0.8-1.2-2.2-0.4-3.2
				C623.1,683.4,624.7,683.2,625.7,684z"/>
			<ellipse class="st4" cx="-11.5" cy="224" rx="1.4" ry="1.3"/>
			<path class="st5" d="M1500.8,191.1c0,1.3-1.1,2.3-2.5,2.3c-1.4,0-2.5-1-2.5-2.3c0-1.3,1.1-2.3,2.5-2.3
				C1499.7,188.7,1500.8,189.8,1500.8,191.1z"/>
			<path class="st4" d="M771.2,756.6c0,0.7-0.6,1.3-1.4,1.3c-0.8,0-1.4-0.6-1.4-1.3c0-0.7,0.6-1.3,1.4-1.3
				C770.6,755.3,771.2,755.9,771.2,756.6z"/>
			<path class="st4" d="M-248.9,222.6c0.1,0.7-0.5,1.3-1.2,1.4c-0.8,0.1-1.4-0.5-1.5-1.2s0.5-1.3,1.2-1.4
				C-249.7,221.4-249,221.9-248.9,222.6z"/>
			<path class="st4" d="M1135.7,1000.1c0.3,0.7,0,1.4-0.7,1.7c-0.7,0.3-1.5,0-1.8-0.7c-0.3-0.7,0-1.4,0.7-1.7
				C1134.6,999.2,1135.4,999.5,1135.7,1000.1z"/>
			<path class="st6" d="M555.6,816.9l3.2,5.6c1.1,1.9,2.8,3.6,4.8,4.6l5.8,3.1c0.2,0.1,0.2,0.4,0,0.5l-5.8,3.1
				c-2,1.1-3.7,2.7-4.8,4.6l-3.2,5.6c-0.1,0.2-0.4,0.2-0.6,0l-3.2-5.6c-1.1-1.9-2.8-3.6-4.8-4.6l-5.8-3.1c-0.2-0.1-0.2-0.4,0-0.5
				l5.8-3.1c2-1.1,3.7-2.7,4.8-4.6l3.2-5.6C555.2,816.7,555.5,816.7,555.6,816.9z"/>
			<path class="st7" d="M1239.9,847.6l3.2,5.6c1.1,1.9,2.8,3.6,4.8,4.6l5.8,3.1c0.2,0.1,0.2,0.4,0,0.5l-5.8,3.1
				c-2,1.1-3.7,2.7-4.8,4.6l-3.2,5.6c-0.1,0.2-0.4,0.2-0.6,0l-3.2-5.6c-1.1-1.9-2.8-3.6-4.8-4.6l-5.8-3.1c-0.2-0.1-0.2-0.4,0-0.5
				l5.8-3.1c2-1.1,3.7-2.7,4.8-4.6l3.2-5.6C1239.4,847.4,1239.7,847.4,1239.9,847.6z"/>
			<path class="st6" d="M659.3,305.7l3.3,5.6c1.1,1.9,2.9,3.6,5,4.6l6,3.1c0.2,0.1,0.2,0.4,0,0.5l-6,3.1c-2.1,1.1-3.8,2.7-5,4.6
				l-3.3,5.6c-0.1,0.2-0.5,0.2-0.6,0l-3.3-5.6c-1.1-1.9-2.9-3.6-5-4.6l-6-3.1c-0.2-0.1-0.2-0.4,0-0.5l6-3.1c2.1-1.1,3.8-2.7,5-4.6
				l3.3-5.6C658.9,305.5,659.2,305.5,659.3,305.7z"/>
			<path class="st7" d="M152,258.8l1.2,2.1c0.4,0.7,1.1,1.3,1.9,1.7l2.3,1.2c0.1,0,0.1,0.2,0,0.2l-2.3,1.2c-0.8,0.4-1.4,1-1.9,1.7
				l-1.2,2.1c0,0.1-0.2,0.1-0.2,0l-1.2-2.1c-0.4-0.7-1.1-1.3-1.9-1.7l-2.3-1.2c-0.1,0-0.1-0.2,0-0.2l2.3-1.2c0.8-0.4,1.4-1,1.9-1.7
				l1.2-2.1C151.8,258.7,151.9,258.7,152,258.8z"/>
			<path class="st7" d="M655.5,759.5l1.2,2.1c0.4,0.7,1.1,1.3,1.9,1.7l2.3,1.2c0.1,0,0.1,0.2,0,0.2l-2.3,1.2c-0.8,0.4-1.4,1-1.9,1.7
				l-1.2,2.1c0,0.1-0.2,0.1-0.2,0l-1.2-2.1c-0.4-0.7-1.1-1.3-1.9-1.7l-2.3-1.2c-0.1,0-0.1-0.2,0-0.2l2.3-1.2c0.8-0.4,1.4-1,1.9-1.7
				l1.2-2.1C655.3,759.5,655.4,759.5,655.5,759.5z"/>
			<path class="st7" d="M849.9,475.3l1.6,2.8c0.6,1,1.4,1.7,2.4,2.3l3,1.5c0.1,0.1,0.1,0.2,0,0.3l-3,1.5c-1,0.5-1.9,1.3-2.4,2.3
				l-1.6,2.8c-0.1,0.1-0.2,0.1-0.3,0l-1.6-2.8c-0.6-1-1.4-1.7-2.4-2.3l-3-1.5c-0.1-0.1-0.1-0.2,0-0.3l3-1.5c1-0.5,1.9-1.3,2.4-2.3
				l1.6-2.8C849.7,475.2,849.8,475.2,849.9,475.3z"/>
			<path class="st7" d="M1318.9,264l1.6,2.8c0.6,1,1.4,1.7,2.4,2.3l3,1.5c0.1,0.1,0.1,0.2,0,0.3l-3,1.5c-1,0.5-1.9,1.3-2.4,2.3
				l-1.6,2.8c-0.1,0.1-0.2,0.1-0.3,0l-1.6-2.8c-0.6-1-1.4-1.7-2.4-2.3l-3-1.5c-0.1-0.1-0.1-0.2,0-0.3l3-1.5c1-0.5,1.9-1.3,2.4-2.3
				l1.6-2.8C1318.6,263.9,1318.8,263.9,1318.9,264z"/>
			<path class="st6" d="M1212.9,712.2l2.3,3.9c0.8,1.4,2,2.5,3.5,3.2l4.2,2.1c0.2,0.1,0.2,0.3,0,0.4l-4.2,2.1
				c-1.5,0.7-2.7,1.9-3.5,3.2l-2.3,3.9c-0.1,0.2-0.3,0.2-0.4,0l-2.3-3.9c-0.8-1.4-2-2.5-3.5-3.2l-4.2-2.1c-0.2-0.1-0.2-0.3,0-0.4
				l4.2-2.1c1.5-0.7,2.7-1.9,3.5-3.2l2.3-3.9C1212.6,712.1,1212.8,712.1,1212.9,712.2z"/>
		</g>
	</g>
	<g class="st0">
		<g>
			<path class="st8" d="M1521.5,413.7c-0.5-0.5-1.4-0.5-2,0c-0.5,0.5-0.5,1.3,0,1.9c0.5,0.5,1.4,0.5,2,0
				C1522.1,415.1,1522.1,414.2,1521.5,413.7z M1515.1,419.7c-0.5-0.5-1.4-0.5-2,0c-0.5,0.5-0.5,1.3,0,1.9c0.5,0.5,1.4,0.5,2,0
				C1515.6,421.1,1515.6,420.3,1515.1,419.7z M1398.6,530.3c-0.5,0.5-1.4,0.5-2,0c-0.5-0.5-0.5-1.3,0-1.9s1.4-0.5,2,0
				S1399.1,529.8,1398.6,530.3z M1405,524.3c-0.5,0.5-1.4,0.5-2,0s-0.5-1.3,0-1.9c0.5-0.5,1.4-0.5,2,0
				C1405.6,522.9,1405.6,523.7,1405,524.3z M1411.5,518.2c-0.5,0.5-1.4,0.5-2,0c-0.5-0.5-0.5-1.3,0-1.9c0.5-0.5,1.4-0.5,2,0
				C1412,516.9,1412,517.7,1411.5,518.2z M1417.9,512.2c-0.5,0.5-1.4,0.5-2,0c-0.5-0.5-0.5-1.3,0-1.9s1.4-0.5,2,0
				C1418.5,510.9,1418.5,511.7,1417.9,512.2z M1396.8,579.7c-0.5,0.5-1.4,0.5-2,0c-0.5-0.5-0.5-1.3,0-1.9c0.5-0.5,1.4-0.5,2,0
				C1397.4,578.3,1397.4,579.2,1396.8,579.7z M1403.3,573.7c-0.5,0.5-1.4,0.5-2,0c-0.5-0.5-0.5-1.3,0-1.9s1.4-0.5,2,0
				C1403.8,572.3,1403.8,573.2,1403.3,573.7z M1409.7,567.6c-0.5,0.5-1.4,0.5-2,0s-0.5-1.3,0-1.9c0.5-0.5,1.4-0.5,2,0
				C1410.3,566.3,1410.3,567.1,1409.7,567.6z M1416.2,561.6c-0.5,0.5-1.4,0.5-2,0c-0.5-0.5-0.5-1.3,0-1.9c0.5-0.5,1.4-0.5,2,0
				S1416.7,561.1,1416.2,561.6z M1480.3,339.9c-0.5-0.5-0.5-1.3,0-1.9c0.5-0.5,1.4-0.5,2,0c0.5,0.5,0.5,1.3,0,1.9
				C1481.8,340.4,1480.9,340.4,1480.3,339.9z"/>
		</g>
	</g>
</g>
</svg>
