<?xml version="1.0" encoding="utf-8"?>
<!-- Generator: Adobe Illustrator 23.1.0, SVG Export Plug-In . SVG Version: 6.00 Build 0)  -->
<svg version="1.1" id="Layer_1" xmlns="http://www.w3.org/2000/svg" xmlns:xlink="http://www.w3.org/1999/xlink" x="0px" y="0px"
	 viewBox="0 0 1920 900" style="enable-background:new 0 0 1920 900;" xml:space="preserve">
<style type="text/css">
	.st0{clip-path:url(#SVGID_2_);fill:url(#SVGID_3_);}
	.st1{clip-path:url(#SVGID_5_);fill:url(#SVGID_6_);}
	.st2{clip-path:url(#SVGID_8_);}
	.st3{fill:url(#SVGID_9_);}
	.st4{opacity:0.1;fill:#6988F9;enable-background:new    ;}
	.st5{fill:#CBFEFE;}
	.st6{fill:#FFFFFF;}
	.st7{clip-path:url(#SVGID_11_);}
	.st8{opacity:0.4;fill:#8FE2EA;enable-background:new    ;}
	.st9{opacity:0.4;}
	.st10{fill:#E3D2B4;}
	.st11{fill:#3E1E7D;}
	.st12{opacity:0.2;}
	.st13{fill:#331D74;}
	.st14{fill:#1D1B16;}
	.st15{fill:#FFCC99;}
	.st16{fill:#763CCE;}
	.st17{fill:#8EB7FF;}
	.st18{fill:#1C6CD9;}
	.st19{fill:#7AABFF;}
</style>
<g>
	<g>
		<g>
			<defs>
				<rect id="SVGID_1_" x="196" y="-350.2" width="2010.1" height="1229.5"/>
			</defs>
			<clipPath id="SVGID_2_">
				<use xlink:href="#SVGID_1_"  style="overflow:visible;"/>
			</clipPath>
			
				<linearGradient id="SVGID_3_" gradientUnits="userSpaceOnUse" x1="2075.1128" y1="-846.0409" x2="818.4038" y2="348.1792" gradientTransform="matrix(1 0 0 1 0 280)">
				<stop  offset="2.423880e-03" style="stop-color:#A050FF"/>
				<stop  offset="0.2561" style="stop-color:#6989F8"/>
				<stop  offset="0.4957" style="stop-color:#3CB7F2"/>
				<stop  offset="0.7071" style="stop-color:#1CD8EE"/>
				<stop  offset="0.8825" style="stop-color:#08EDEB"/>
				<stop  offset="1" style="stop-color:#01F4EA"/>
			</linearGradient>
			<rect x="196" y="-350.2" class="st0" width="2010.1" height="1229.5"/>
		</g>
	</g>
	<g>
		<g>
			<defs>
				<rect id="SVGID_4_" x="196" y="-350.2" width="2010.1" height="1229.5"/>
			</defs>
			<clipPath id="SVGID_5_">
				<use xlink:href="#SVGID_4_"  style="overflow:visible;"/>
			</clipPath>
			
				<linearGradient id="SVGID_6_" gradientUnits="userSpaceOnUse" x1="377.6968" y1="-845.1545" x2="2024.4865" y2="801.6351" gradientTransform="matrix(1 0 0 1 0 280)">
				<stop  offset="3.409785e-07" style="stop-color:#000444"/>
				<stop  offset="0.9285" style="stop-color:#984CF6"/>
				<stop  offset="0.929" style="stop-color:#994DF8"/>
				<stop  offset="0.932" style="stop-color:#A050FF"/>
			</linearGradient>
			<rect x="175.4" y="-362.8" class="st1" width="2051.5" height="1242.1"/>
		</g>
	</g>
	<g>
		<g>
			<defs>
				<rect id="SVGID_7_" x="196" y="-350.2" width="2010.1" height="1229.5"/>
			</defs>
			<clipPath id="SVGID_8_">
				<use xlink:href="#SVGID_7_"  style="overflow:visible;"/>
			</clipPath>
			<g class="st2">
				
					<linearGradient id="SVGID_9_" gradientUnits="userSpaceOnUse" x1="810.5388" y1="-54.2258" x2="2226.729" y2="-54.2258" gradientTransform="matrix(1 0 0 1 0 280)">
					<stop  offset="0.4449" style="stop-color:#000959"/>
					<stop  offset="0.7252" style="stop-color:#00034B"/>
					<stop  offset="0.9883" style="stop-color:#000044"/>
				</linearGradient>
				<path class="st3" d="M2226.7,404.6v392.2c-4.8,1.2-9.4,2.3-14.2,3.4c-62.9,14.7-130.7,23.2-190.5-1.4
					c-127.9-52.7-163.8-228.7-282.7-299.6c-120.9-72-295-16-400.4-109.8c-118.2-104.8-70.6-328.8-197.1-423
					C1097.1-66.8,1038.9-76,992-106.1c-51.3-32.9-84.3-87.6-113.2-141.6c-20.9-39.5-41.4-80-68.3-115.1h667.4
					c11.8,23.6,25.7,45.5,44.1,64.3c77.6,79,207.3,72.4,299.1,133.9c93.1,62.4,129.4,180.4,164.4,287.9
					c35.2,107.3,85.5,224.2,188.9,266.9C2191.6,397.3,2209,401.9,2226.7,404.6z"/>
				<g>
					<path class="st4" d="M1123.9,30c-0.9-7.5-16.3-8.3-42.9-0.1c1.1,1.4,2,3,2.9,4.4c10.5-1.4,17.4-0.5,18.6,2.7
						c1.2,3.2-3.4,8.4-11.9,14.3c-0.2-1.1-0.5-2-0.8-3c-0.1-0.2-0.1-0.4-0.2-0.5c-0.8-2.5-1.6-5.1-2.6-7.3c0-0.1-0.1-0.2-0.1-0.3
						c-8-17.7-24.3-31-43.8-34.3l0,0c-1.5-0.2-2.9-0.4-4.5-0.5h-0.1c-1.5-0.1-3-0.2-4.7-0.2l0,0l0,0c-0.2,0-0.3,0-0.5,0
						c-2.9,0-5.7,0.2-8.6,0.6l0,0l0,0c-1.6,0.2-3,0.5-4.5,0.9c-0.2,0-0.3,0.1-0.5,0.1c-1.5,0.3-2.9,0.8-4.3,1.3h-0.2
						c-1.5,0.4-2.8,1.1-4.2,1.6c-0.1,0-0.2,0.1-0.3,0.1c-1.4,0.5-2.6,1.2-3.9,1.8c-0.2,0.1-0.4,0.2-0.5,0.3
						c-1.3,0.6-2.5,1.4-3.8,2.2c0,0-0.1,0-0.1,0.1c-1.2,0.6-2.3,1.5-3.5,2.4c-0.2,0.1-0.3,0.2-0.5,0.3c-0.3,0.2-0.6,0.4-1.1,0.8l0,0
						l0,0c-0.8,0.5-1.5,1.2-2.2,1.8c-0.2,0.1-0.4,0.3-0.5,0.4c-0.8,0.6-1.5,1.3-2.1,1.9c-0.1,0.1-0.1,0.1-0.2,0.2
						c-0.8,0.6-1.5,1.5-2.2,2.3l0,0c-2.2,2.4-4.3,5.1-6.1,7.9c-0.1,0.1-0.2,0.2-0.2,0.3c-0.5,0.8-1,1.6-1.5,2.3
						c-0.1,0.2-0.2,0.4-0.3,0.5c-0.4,0.6-0.9,1.5-1.2,2.3c-0.1,0.2-0.2,0.4-0.3,0.6c-0.4,0.8-0.8,1.6-1.2,2.4
						c-0.1,0.2-0.2,0.3-0.2,0.5c-0.6,1.5-1.2,3-1.6,4.4v0.1c-0.2,0.5-0.3,1.1-0.5,1.6c-0.1,0.2-0.1,0.4-0.2,0.6
						c-0.2,0.8-0.4,1.6-0.6,2.4c-0.1,0.3-0.2,0.6-0.2,1.1c-0.2,0.6-0.3,1.4-0.4,2.2c-0.1,0.3-0.1,0.8-0.2,1.2
						c-0.1,0.6-0.2,1.4-0.3,2l0,0v0.1c0,0.4-0.1,0.8-0.1,1.3c-0.1,0.8-0.1,1.5-0.2,2.3c0,0.3-0.1,0.6-0.1,1.1
						c-0.1,1.2-0.1,2.3-0.1,3.4c0,2,0.1,4,0.3,5.9c-21.4,11.9-34.2,22.9-32,28.8c2.2,5.9,18.9,5.6,42.9,0.1l0,0
						c3.6,5.1,8,9.6,12.9,13.2l0,0l0,0c9,6.7,20,11,31.8,11.5c1.1,0,2,0.1,3,0.1c1.2,0,2.2,0,3.4-0.1c0.3,0,0.8,0,1.1-0.1
						c0.8,0,1.5-0.1,2.2-0.2c0.4,0,0.9-0.1,1.2-0.1c0.8-0.1,1.4-0.2,2.1-0.3c0.4-0.1,0.9-0.1,1.2-0.2c0.8-0.1,1.4-0.3,2.1-0.4
						c0.3-0.1,0.8-0.1,1.1-0.2c0.9-0.2,1.6-0.4,2.4-0.6c0.2-0.1,0.4-0.1,0.6-0.2c2.1-0.6,4.1-1.4,6.1-2.3c0.2-0.1,0.4-0.2,0.5-0.2
						c0.9-0.3,1.6-0.6,2.3-1.2c0.2-0.1,0.4-0.2,0.6-0.3c0.8-0.3,1.5-0.8,2.2-1.3c0.2-0.1,0.4-0.2,0.6-0.3c0.8-0.4,1.6-0.9,2.3-1.5
						c0.1-0.1,0.2-0.1,0.4-0.2c2.7-1.8,5.3-3.9,7.7-6.1l0,0c0.6-0.5,1.3-1.3,1.8-1.8c0.1-0.1,0.2-0.2,0.3-0.3l0,0
						c0.1-0.1,0.1-0.1,0.2-0.2c0.5-0.5,1.1-1.2,1.6-1.8c0.1-0.1,0.2-0.2,0.3-0.3l0.1-0.1c0.1-0.1,0.1-0.1,0.2-0.2
						c0.5-0.5,1.1-1.3,1.6-1.9c0-0.1,0.1-0.1,0.1-0.2c7.3-9.5,11.8-21.2,12.3-33.9c0-0.9,0.1-1.9,0.1-2.8l0,0c0-1.3-0.1-2.6-0.1-3.9
						c0-0.3,0-0.6-0.1-1.1c0-0.3,0-0.6-0.1-1.1l0,0C1113.3,46.8,1124.5,36.3,1123.9,30z M974.9,73.5c0-0.3-0.1-0.5-0.1-0.9
						C974.9,72.9,974.9,73.3,974.9,73.5z M963.2,90.5c-1.3-3.3,3.5-8.4,12.1-14.4c0-0.1,0-0.1,0-0.2c0.3,1.6,0.6,3.1,1.1,4.6l0,0
						l0,0c0.3,1.4,0.8,2.6,1.3,4c0,0,0,0,0,0.1c1,2.6,2,5.2,3.1,7.5c0,0,0,0.1,0.1,0.1c0.2,0.3,0.4,0.8,0.6,1.2
						C971.1,94.6,964.4,93.7,963.2,90.5z"/>
					<path class="st4" d="M1964.6,258.8c-21.2-21.6-55.9-21.6-77.2,0c-21.2,21.6-21.2,56.7,0,78.2c21.2,21.6,55.9,21.6,77.2,0
						C1985.9,315.5,1985.9,280.3,1964.6,258.8z"/>
					<path class="st4" d="M1499.3-113.6c-21.2-21.6-55.9-21.6-77.2,0s-21.2,56.7,0,78.2c21.2,21.6,55.9,21.6,77.2,0
						C1520.6-56.8,1520.6-92,1499.3-113.6z"/>
					<path class="st4" d="M1516.7-146.4c-5-5.2-13.1-5.2-18.1,0c-5,5.2-5,13.3,0,18.3c5,5.2,13.1,5.2,18.1,0
						C1521.7-133.1,1521.7-141.2,1516.7-146.4z"/>
				</g>
				<g>
					<ellipse class="st5" cx="621.7" cy="-99.8" rx="3.5" ry="3.5"/>
					<path class="st5" d="M1060.4-124.2c0,1.9-1.6,3.5-3.5,3.5c-1.9,0-3.5-1.6-3.5-3.5s1.6-3.5,3.5-3.5
						C1058.9-127.8,1060.4-126.2,1060.4-124.2z"/>
					<path class="st5" d="M2041.1,147.9c0,1.9-1.6,3.5-3.5,3.5s-3.5-1.6-3.5-3.5s1.6-3.5,3.5-3.5S2041.1,146,2041.1,147.9z"/>
					<path class="st5" d="M1150.1,365.2c0,1.5-1.2,2.6-2.6,2.6c-1.5,0-2.6-1.2-2.6-2.6c0-1.5,1.2-2.6,2.6-2.6
						C1148.9,362.7,1150.1,363.7,1150.1,365.2z"/>
					<path class="st5" d="M1585.5-225c1.1,0.9,1.3,2.5,0.4,3.7c-0.9,1.2-2.4,1.3-3.5,0.4c-1.1-0.9-1.3-2.5-0.4-3.7
						C1582.9-225.8,1584.6-226,1585.5-225z"/>
					<path class="st5" d="M2037.7,46.2c0,3.7-2.8,6.5-6.4,6.5s-6.4-3-6.4-6.5c0-3.7,2.9-6.5,6.4-6.5
						C2034.8,39.6,2037.7,42.5,2037.7,46.2z"/>
					<path class="st5" d="M1077.2-103.2c0,3.7-2.9,6.5-6.4,6.5s-6.4-3-6.4-6.5c0-3.7,2.8-6.5,6.4-6.5
						C1074.4-109.8,1077.2-106.8,1077.2-103.2z"/>
					<path class="st5" d="M1656.3,23.8c0,3.7-2.9,6.5-6.4,6.5c-3.6,0-6.4-3-6.4-6.5c0-3.5,2.8-6.5,6.4-6.5
						C1653.5,17.4,1656.3,20.3,1656.3,23.8z"/>
					<path class="st5" d="M1074.2,233.4c0,1.9-1.6,3.5-3.5,3.5c-1.9,0-3.5-1.6-3.5-3.5c0-1.9,1.6-3.5,3.5-3.5
						C1072.6,229.9,1074.2,231.5,1074.2,233.4z"/>
					<path class="st5" d="M1567.8-220.4c0,1.9-1.6,3.5-3.5,3.5s-3.5-1.6-3.5-3.5c0-1.9,1.6-3.5,3.5-3.5S1567.8-222.3,1567.8-220.4z"
						/>
					<path class="st5" d="M1394.9,219.2c0,1.5-1.2,2.7-2.6,2.7c-1.5,0-2.6-1.3-2.6-2.7c0-1.5,1.2-2.7,2.6-2.7
						C1393.8,216.4,1394.9,217.7,1394.9,219.2z"/>
					<path class="st5" d="M1356.1,276c-1.5,0-2.6-1.3-2.6-2.7c0-1.5,1.2-2.7,2.6-2.7c1.5,0,2.6,1.3,2.6,2.7
						C1358.7,274.7,1357.6,276,1356.1,276z"/>
					<ellipse class="st5" cx="1599.5" cy="506.2" rx="1.5" ry="1.5"/>
					<path class="st5" d="M1150.3,422c0,0.8-0.6,1.5-1.4,1.5s-1.4-0.6-1.4-1.5c0-0.8,0.6-1.5,1.4-1.5
						C1149.6,420.6,1150.3,421.3,1150.3,422z"/>
					<path class="st5" d="M1754.6,738.1c1.2,0.9,1.3,2.5,0.4,3.7s-2.5,1.3-3.7,0.4c-1.2-0.9-1.3-2.5-0.4-3.7
						C1751.9,737.3,1753.5,737.2,1754.6,738.1z"/>
					<path class="st5" d="M1246.5,340.7c1.2,0.9,1.3,2.5,0.4,3.7c-0.9,1.2-2.5,1.3-3.7,0.4c-1.2-0.9-1.3-2.5-0.4-3.7
						C1243.8,340.1,1245.3,340,1246.5,340.7z"/>
					<ellipse class="st5" cx="579.4" cy="-182.9" rx="1.5" ry="1.5"/>
					<path class="st5" d="M2162.5-220.4c0,1.5-1.2,2.6-2.6,2.6s-2.6-1.2-2.6-2.6s1.2-2.6,2.6-2.6S2162.5-221.9,2162.5-220.4z"/>
					<path class="st5" d="M1398.7,423.4c0,0.8-0.6,1.5-1.5,1.5c-0.9,0-1.5-0.6-1.5-1.5c0-0.8,0.6-1.5,1.5-1.5
						C1398.1,422,1398.7,422.7,1398.7,423.4z"/>
					<path class="st5" d="M330.7-184.4c0.1,0.8-0.5,1.5-1.3,1.6c-0.8,0.1-1.5-0.5-1.6-1.4c-0.1-0.8,0.5-1.5,1.3-1.6
						C329.9-185.9,330.7-185.2,330.7-184.4z"/>
					<path class="st5" d="M1780.4,700.7c0.3,0.8,0,1.6-0.8,1.9c-0.8,0.3-1.6,0-1.8-0.8c-0.3-0.8,0-1.6,0.8-1.9
						C1779.3,699.6,1780.1,700,1780.4,700.7z"/>
					<path class="st6" d="M1173.1,492.1l3.4,6.3c1.2,2.2,2.9,4.1,5,5.3l6.1,3.5c0.2,0.1,0.2,0.4,0,0.5l-6.1,3.5
						c-2.1,1.3-3.9,3.1-5,5.3l-3.4,6.3c-0.1,0.2-0.4,0.2-0.6,0l-3.4-6.3c-1.2-2.2-2.9-4.1-5-5.3l-6.1-3.5c-0.2-0.1-0.2-0.4,0-0.5
						l6.1-3.5c2.1-1.3,3.9-3.1,5-5.3l3.4-6.3C1172.7,491.9,1173,491.9,1173.1,492.1z"/>
					<path class="st6" d="M1889.4,527.1l3.4,6.3c1.2,2.2,2.9,4.1,5,5.3l6.1,3.5c0.2,0.1,0.2,0.4,0,0.5l-6.1,3.5
						c-2.1,1.3-3.9,3.1-5,5.3l-3.4,6.3c-0.1,0.2-0.4,0.2-0.6,0l-3.4-6.3c-1.2-2.2-2.9-4.1-5-5.3l-6.1-3.5c-0.2-0.1-0.2-0.4,0-0.5
						l6.1-3.5c2.1-1.3,3.9-3.1,5-5.3l3.4-6.3C1888.9,526.9,1889.3,526.9,1889.4,527.1z"/>
					<path class="st6" d="M1281.7-89.8l3.5,6.3c1.2,2.2,3,4.1,5.2,5.3l6.3,3.5c0.2,0.1,0.2,0.4,0,0.5l-6.3,3.5
						c-2.2,1.3-4,3.1-5.2,5.3l-3.5,6.3c-0.1,0.2-0.5,0.2-0.6,0l-3.5-6.3c-1.2-2.2-3-4.1-5.2-5.3l-6.3-3.5c-0.2-0.1-0.2-0.4,0-0.5
						l6.3-3.5c2.2-1.3,4-3.1,5.2-5.3l3.5-6.3C1281.1-90.2,1281.6-90.2,1281.7-89.8z"/>
					<path class="st6" d="M750.4-143.3l1.3,2.4c0.4,0.8,1.2,1.5,2,1.9l2.4,1.4c0.1,0,0.1,0.2,0,0.2l-2.4,1.4c-0.9,0.4-1.5,1.2-2,1.9
						l-1.3,2.4c0,0.1-0.2,0.1-0.2,0l-1.3-2.4c-0.4-0.8-1.2-1.5-2-1.9l-2.4-1.3c-0.1,0-0.1-0.2,0-0.2l2.4-1.4c0.9-0.4,1.5-1.2,2-1.9
						l1.3-2.4C750.3-143.3,750.4-143.3,750.4-143.3z"/>
					<path class="st6" d="M1277.6,426.9l1.3,2.4c0.4,0.8,1.2,1.5,2,1.9l2.4,1.4c0.1,0,0.1,0.2,0,0.2l-2.4,1.4
						c-0.9,0.4-1.5,1.2-2,1.9l-1.3,2.4c0,0.1-0.2,0.1-0.2,0l-1.3-2.4c-0.4-0.8-1.2-1.5-2-1.9l-2.4-1.4c-0.1,0-0.1-0.2,0-0.2l2.4-1.4
						c0.9-0.4,1.5-1.2,2-1.9l1.3-2.4C1277.4,426.7,1277.6,426.7,1277.6,426.9z"/>
					<path class="st6" d="M1481.1,103.2l1.6,3.2c0.6,1.2,1.5,1.9,2.5,2.6l3.1,1.7c0.1,0.1,0.1,0.2,0,0.3l-3.1,1.7
						c-1.1,0.5-2,1.5-2.5,2.6l-1.6,3.2c-0.1,0.1-0.2,0.1-0.3,0l-1.6-3.2c-0.6-1.2-1.5-1.9-2.5-2.6l-3.1-1.7c-0.1-0.1-0.1-0.2,0-0.3
						l3.1-1.7c1.1-0.5,2-1.5,2.5-2.6l1.6-3.2C1480.9,103.1,1481.1,103.1,1481.1,103.2z"/>
					<path class="st6" d="M1972.1-137.3l1.6,3.2c0.6,1.2,1.5,1.9,2.5,2.6l3.1,1.7c0.1,0.1,0.1,0.2,0,0.3l-3.1,1.7
						c-1.1,0.5-2,1.5-2.5,2.6l-1.6,3.2c-0.1,0.1-0.2,0.1-0.3,0l-1.6-3.2c-0.6-1.2-1.5-1.9-2.5-2.6l-3.1-1.7c-0.1-0.1-0.1-0.2,0-0.3
						l3.1-1.7c1.1-0.5,2-1.5,2.5-2.6l1.6-3.2C1971.9-137.4,1972.1-137.4,1972.1-137.3z"/>
					<path class="st6" d="M1861.2,373l2.4,4.4c0.9,1.6,2.1,2.8,3.7,3.7l4.4,2.4c0.2,0.1,0.2,0.3,0,0.4l-4.4,2.4
						c-1.6,0.8-2.8,2.2-3.7,3.7l-2.4,4.4c-0.1,0.2-0.3,0.2-0.4,0l-2.4-4.4c-0.9-1.6-2.1-2.8-3.7-3.7l-4.4-2.4
						c-0.2-0.1-0.2-0.3,0-0.4l4.4-2.4c1.6-0.8,2.8-2.2,3.7-3.7l2.4-4.4C1860.9,372.8,1861.1,372.8,1861.2,373z"/>
				</g>
			</g>
		</g>
	</g>
	<g>
		<g>
			<defs>
				<rect id="SVGID_10_" x="196" y="-350.2" width="2010.1" height="1229.5"/>
			</defs>
			<clipPath id="SVGID_11_">
				<use xlink:href="#SVGID_10_"  style="overflow:visible;"/>
			</clipPath>
			<g class="st7">
				<path class="st6" d="M214.4-250.6c-10-23.2-25.3-67.9-22.8-130.8V897.6h2035.1V315.1c-30.4-24.2-78.3-0.5-95.5,34.7
					s-14.2,76.5-15.5,115.8c-1.5,39.3-10.4,82.9-42.2,105.2c-45.7,32.1-111.4,3.4-162.4,25.8c-44.4,19.6-64.3,70.7-85.6,114.7
					c-21.3,44.1-58.3,90.9-106.5,86.1c-74.5-7.3-73.1-79.6-147.9-107.3c-47.6-17.7-74.8,17.1-127,6.6c-13.7-2.7-20.6-7.5-27.1-15.4
					c-35.8-43.1,21.7-154.7,39.2-188.4c17-32.9,46.2-81,95.4-130.1c-3.4-2.2-6.8-4.4-10.2-6.6c-39.5,50.7-76.8,89.1-106,116.4
					c-36.3,33.9-101.4,89.7-181.2,119.4c-9.5,3.6-16.4,5-24.9,6.7c-58.6,12.3-118.7-19.8-137.7-77.3c-18.9-57.5-8-120.1-9.6-180.8
					c-1.6-60.5-23.1-129.3-78.3-152.4c-36.4-15.2-79.9-7-114.4-26c-86.1-47.4-48.4-206.8-173.2-203.5
					c-36.6,0.9-71.3,15.3-107.2,21.4c-36,6.2-77.7,2.3-101.5-25.7c-28.1-32.9-46.2-46.9-87.9-40.8c-24.1,3.5-77.8,76.5-141.7-29.5"
					/>
				<g>
					<path class="st8" d="M1802.3,109.2c-0.5,0.5-1.5,0.5-2.1,0c-0.5-0.5-0.5-1.5,0-2.2c0.5-0.5,1.5-0.5,2.1,0
						C1803,107.7,1803,108.7,1802.3,109.2z M1809.2,102.4c-0.5,0.5-1.5,0.5-2.1,0c-0.5-0.5-0.5-1.5,0-2.2c0.5-0.5,1.5-0.5,2.1,0
						C1809.7,100.9,1809.7,101.8,1809.2,102.4z M1815.9,95.5c-0.5,0.5-1.5,0.5-2.1,0c-0.5-0.5-0.5-1.5,0-2.2c0.5-0.5,1.5-0.5,2.1,0
						C1816.5,94,1816.5,95,1815.9,95.5z M1822.7,88.8c-0.5,0.5-1.5,0.5-2.1,0c-0.6-0.5-0.5-1.5,0-2.2c0.5-0.5,1.5-0.5,2.1,0
						C1823.2,87.2,1823.2,88.1,1822.7,88.8z M1829.5,81.8c-0.5,0.5-1.5,0.5-2.1,0c-0.5-0.5-0.5-1.5,0-2.2c0.5-0.7,1.5-0.5,2.1,0
						C1830.2,80.2,1830.1,81.2,1829.5,81.8z M1836.2,74.9c-0.5,0.5-1.5,0.5-2.1,0c-0.5-0.5-0.5-1.5,0-2.2c0.5-0.5,1.5-0.5,2.1,0
						C1836.9,73.5,1836.9,74.4,1836.2,74.9z M1843,68.1c-0.5,0.5-1.5,0.5-2.1,0c-0.5-0.5-0.5-1.5,0-2.2c0.5-0.5,1.5-0.5,2.1,0
						C1843.5,66.6,1843.5,67.6,1843,68.1z M1849.8,61.2c-0.5,0.5-1.5,0.5-2.1,0c-0.5-0.5-0.5-1.5,0-2.2c0.5-0.5,1.5-0.5,2.1,0
						C1850.3,59.7,1850.3,60.7,1849.8,61.2z M1856.5,54.5c-0.5,0.5-1.5,0.5-2.1,0c-0.5-0.5-0.5-1.5,0-2.2c0.5-0.5,1.5-0.5,2.1,0
						C1857,52.9,1857,53.8,1856.5,54.5z M1795.6,114c-0.5-0.5-1.5-0.5-2.1,0c-0.5,0.5-0.5,1.5,0,2.2c0.5,0.5,1.5,0.5,2.1,0
						C1796.2,115.4,1796.2,114.6,1795.6,114z M1788.9,120.8c-0.5-0.5-1.5-0.5-2.1,0c-0.5,0.5-0.5,1.5,0,2.2c0.5,0.5,1.5,0.5,2.1,0
						C1789.5,122.5,1789.5,121.4,1788.9,120.8z M1782.2,127.7c-0.5-0.5-1.5-0.5-2.1,0c-0.5,0.5-0.5,1.5,0,2.2c0.5,0.5,1.5,0.5,2.1,0
						C1782.8,129.2,1782.8,128.3,1782.2,127.7z M1660.2,253.5c-0.5,0.5-1.5,0.5-2.1,0c-0.5-0.5-0.5-1.5,0-2.2c0.5-0.6,1.5-0.5,2.1,0
						C1660.9,252,1660.8,253,1660.2,253.5z M1666.9,246.7c-0.5,0.5-1.5,0.5-2.1,0c-0.6-0.5-0.5-1.5,0-2.2c0.5-0.5,1.5-0.5,2.1,0
						C1667.6,245.1,1667.6,246.1,1666.9,246.7z M1673.7,239.8c-0.5,0.5-1.5,0.5-2.1,0c-0.5-0.5-0.5-1.5,0-2.2c0.5-0.5,1.5-0.5,2.1,0
						C1674.3,238.3,1674.3,239.2,1673.7,239.8z M1680.5,233c-0.5,0.5-1.5,0.5-2.1,0c-0.5-0.5-0.5-1.5,0-2.2c0.5-0.6,1.5-0.5,2.1,0
						C1681,231.5,1681,232.4,1680.5,233z M1658.4,309.8c-0.5,0.5-1.5,0.5-2.1,0c-0.5-0.5-0.5-1.5,0-2.2c0.5-0.5,1.5-0.5,2.1,0
						C1658.9,308.2,1658.9,309.2,1658.4,309.8z M1665.1,303c-0.5,0.5-1.5,0.5-2.1,0c-0.5-0.5-0.5-1.5,0-2.2c0.5-0.6,1.5-0.5,2.1,0
						C1665.6,301.4,1665.6,302.4,1665.1,303z M1671.8,296c-0.5,0.5-1.5,0.5-2.1,0c-0.6-0.5-0.5-1.5,0-2.2c0.5-0.5,1.5-0.5,2.1,0
						C1672.5,294.6,1672.5,295.5,1671.8,296z M1678.6,289.2c-0.5,0.5-1.5,0.5-2.1,0c-0.5-0.5-0.5-1.5,0-2.2c0.5-0.5,1.5-0.5,2.1,0
						C1679.3,287.6,1679.2,288.7,1678.6,289.2z M1745.7,36.8c-0.5-0.5-0.5-1.5,0-2.2c0.5-0.5,1.5-0.5,2.1,0c0.5,0.5,0.5,1.5,0,2.2
						C1747.4,37.4,1746.4,37.4,1745.7,36.8z M1793.6,10.1c-0.5-0.5-0.5-1.5,0-2.2c0.5-0.5,1.5-0.5,2.1,0c0.5,0.5,0.5,1.5,0,2.2
						C1795.1,10.6,1794.1,10.6,1793.6,10.1z M1796.5,13.2c-0.5-0.5-0.5-1.5,0-2.2c0.5-0.5,1.5-0.5,2.1,0c0.5,0.5,0.5,1.5,0,2.2
						C1798.1,13.7,1797.2,13.7,1796.5,13.2z"/>
					<g class="st9">
						<path class="st10" d="M1891,410.2L1891,410.2c-1.1,0-1.7-0.8-1.7-1.8v-5.3c0-1.1,0.9-1.8,1.7-1.8l0,0c1.1,0,1.7,0.8,1.7,1.8
							v5.3C1892.7,409.4,1891.9,410.2,1891,410.2z"/>
						<path class="st10" d="M1903.3,410.2L1903.3,410.2c-1.1,0-1.7-0.8-1.7-1.8v-5.3c0-1.1,0.9-1.8,1.7-1.8l0,0
							c1.1,0,1.7,0.8,1.7,1.8v5.3C1905.1,409.4,1904.3,410.2,1903.3,410.2z"/>
						<path class="st10" d="M1915.8,410.2L1915.8,410.2c-1.1,0-1.7-0.8-1.7-1.8v-5.3c0-1.1,0.9-1.8,1.7-1.8l0,0
							c1.1,0,1.7,0.8,1.7,1.8v5.3C1917.5,409.4,1916.7,410.2,1915.8,410.2z"/>
						<path class="st10" d="M1928.1,410.2L1928.1,410.2c-1.1,0-1.7-0.8-1.7-1.8v-5.3c0-1.1,0.9-1.8,1.7-1.8l0,0
							c1.1,0,1.7,0.8,1.7,1.8v5.3C1929.9,409.4,1929.2,410.2,1928.1,410.2z"/>
						<path class="st10" d="M1940.6,410.2L1940.6,410.2c-1.1,0-1.7-0.8-1.7-1.8v-5.3c0-1.1,0.9-1.8,1.7-1.8l0,0
							c1.1,0,1.7,0.8,1.7,1.8v5.3C1942.3,409.4,1941.5,410.2,1940.6,410.2z"/>
						<path class="st10" d="M1952.9,410.2L1952.9,410.2c-1.1,0-1.7-0.8-1.7-1.8v-5.3c0-1.1,0.9-1.8,1.7-1.8l0,0
							c1.1,0,1.7,0.8,1.7,1.8v5.3C1954.8,409.4,1954,410.2,1952.9,410.2z"/>
						<path class="st10" d="M1966.6,410.2h-2.4c-0.3,0-0.6-0.3-0.6-0.6v-7.5c0-0.3,0.3-0.6,0.6-0.6h2.4c0.3,0,0.6,0.3,0.6,0.6v7.5
							C1967.2,410,1966.9,410.2,1966.6,410.2z"/>
						<path class="st10" d="M1977.7,410.2L1977.7,410.2c-1.1,0-1.7-0.8-1.7-1.8v-5.3c0-1.1,0.9-1.8,1.7-1.8l0,0
							c1.1,0,1.7,0.8,1.7,1.8v5.3C1979.5,409.4,1978.8,410.2,1977.7,410.2z"/>
					</g>
					<g class="st9">
						<path class="st11" d="M1838.9,0L1838.9,0c-0.8-0.6-0.8-1.8,0-2.6l3.6-3.7c0.8-0.6,1.8-0.6,2.5,0l0,0c0.8,0.6,0.8,1.8,0,2.6
							l-3.7,3.7C1840.8,0.6,1839.7,0.6,1838.9,0z"/>
						<path class="st11" d="M1847.7,8.8L1847.7,8.8c-0.8-0.6-0.8-1.8,0-2.6l3.7-3.7c0.8-0.6,1.8-0.6,2.5,0l0,0
							c0.8,0.6,0.8,1.8,0,2.6l-3.7,3.7C1849.6,9.5,1848.5,9.5,1847.7,8.8z"/>
						<path class="st11" d="M1856.5,17.7L1856.5,17.7c-0.8-0.6-0.8-1.8,0-2.6l3.7-3.7c0.8-0.6,1.8-0.6,2.5,0l0,0
							c0.8,0.6,0.8,1.8,0,2.6l-3.7,3.7C1858.4,18.3,1857.2,18.3,1856.5,17.7z"/>
						<path class="st11" d="M1865.3,26.6L1865.3,26.6c-0.8-0.6-0.8-1.8,0-2.6l3.6-3.7c0.8-0.6,1.8-0.6,2.5,0l0,0
							c0.8,0.6,0.8,1.8,0,2.6l-3.7,3.7C1867.1,27.3,1866,27.3,1865.3,26.6z"/>
						<path class="st11" d="M1874.1,35.4L1874.1,35.4c-0.8-0.6-0.8-1.8,0-2.6l3.7-3.7c0.8-0.6,1.8-0.6,2.5,0l0,0
							c0.8,0.6,0.8,1.8,0,2.6l-3.7,3.7C1875.8,36.1,1874.8,36.1,1874.1,35.4z"/>
						<path class="st11" d="M1882.8,44.4L1882.8,44.4c-0.8-0.6-0.8-1.8,0-2.6l3.7-3.7c0.8-0.6,1.8-0.6,2.5,0l0,0
							c0.8,0.6,0.8,1.8,0,2.6l-3.7,3.7C1884.7,45.1,1883.5,45.1,1882.8,44.4z"/>
						<path class="st11" d="M1891.5,53.3L1891.5,53.3c-0.8-0.6-0.8-1.8,0-2.6l3.6-3.7c0.8-0.6,1.8-0.6,2.5,0l0,0
							c0.8,0.6,0.8,1.8,0,2.6l-3.7,3.7C1893.5,54,1892.3,54,1891.5,53.3z"/>
						<path class="st11" d="M1900.4,62.2L1900.4,62.2c-0.8-0.6-0.8-1.8,0-2.6l3.7-3.7c0.8-0.6,1.8-0.6,2.5,0l0,0
							c0.8,0.6,0.8,1.8,0,2.6l-3.7,3.7C1902.3,62.9,1901.1,62.9,1900.4,62.2z"/>
						<path class="st11" d="M1909.2,71L1909.2,71c-0.8-0.6-0.8-1.8,0-2.6l3.7-3.7c0.8-0.6,1.8-0.6,2.5,0l0,0c0.8,0.6,0.8,1.8,0,2.6
							l-3.7,3.7C1910.9,71.8,1909.9,71.8,1909.2,71z"/>
					</g>
					<g class="st12">
						<path class="st13" d="M1502,284.3l-71.3,6c-0.2,0-0.3,0.1-0.5,0.2l-17.6,18l2.3-0.2l16.2-16.6l69-5.9l-17,17.2l2.3-0.2
							l17.2-17.4c0.2-0.2,0.3-0.5,0.1-0.9C1502.5,284.4,1502.2,284.2,1502,284.3z"/>
					</g>
					<g class="st12">
						<path class="st13" d="M1719.1,340l-25.9,26.3c-0.1,0.1-0.2,0.3-0.2,0.5v66.1c-28,37.4-64.7,73.6-90,96.8l-0.2,2.3
							c24.9-22.9,61.7-58.8,90.1-96.5v18c0.5-0.6,1.1-1.4,1.6-1.9v-84.3l24.5-24.9C1719,341.6,1719,340.7,1719.1,340z"/>
						<path class="st13" d="M1605.3,499.3l-0.2,2.4l16.7-17c0.1-0.1,0.2-0.3,0.2-0.4l6-72.3c0.1-0.3-0.1-0.5-0.4-0.8
							c-0.3-0.1-0.6-0.1-0.9,0.1l-16.2,16.3l-0.2,2.4l15.9-16.1l-5.7,69.9L1605.3,499.3z"/>
					</g>
				</g>
			</g>
		</g>
	</g>
</g>
<g>
	<path class="st14" d="M1633.5,244.5c13.7-41.1-61.6-31-71.4-11.3c-9.9,19.8,0.3,29.4-17.9,29.1c-18.4-0.3-19.1,4.7-22.2,19.3
		c-3.1,14.6-19.3,20.1-19.3,20.1s12.9,24,53.6-9.3C1573.8,278,1628,261.2,1633.5,244.5z"/>
	<path class="st14" d="M1634,246.6c0,0,13.4-7.9-0.7-15c-7.9-4-45.7-9-54.2,37.8c-8.6,47.2-4.6,31.5-8.5,34.2
		c-3.3,2.3,3.6,84.5,37.1-8.3c7-19.5,11.5-43.6,13.1-46.9c1.6-3.1,14.7-5.3,14.7-5.3"/>
	<path class="st15" d="M1617,283.4c-0.3,0.1-0.9-17,2.1-20.7c2.9-3.6-9.8-9.4-9.8-9.4s-5.1,14.9-5.6,22.9
		c-0.5,7.9,15.2,5.5,15.2,5.5"/>
	<path class="st15" d="M1613.4,227.3c-0.2,0-6.2,16.1-3.3,27c2.9,10.9,11,15.7,13.8,14.6c1.2-0.5,4.1-3,6.9-7.1
		c3.9-5.7,3-9.4,5.4-20.3c0.6-2.7-1.9-5.4-4.1-7.6c-5.9-6.1-16.1-9.5-19.1-6.9"/>
	<path class="st15" d="M1609.5,243.2c0,0-4.6-3.8-4.9,5.4c-0.1,4,2.2,3.4,3.9,3.6c0.1,0,0,0-0.1,0.1c-0.2,0.2-2.7,27.4-2.7,27.4
		l3.7-4.7c0,0,3-14.6,2.7-15.5C1611.7,258.8,1611.9,244,1609.5,243.2z"/>
	<path class="st16" d="M1609.8,272.6c7.6-2.1-19-43.5-98.7,57.2c-68.9,86.9-139.2,56-142.3,56.2c-3.1,0.1-13.8,26.3,46.2,27.2
		c59.9,0.9,14.2,15.8,17,27.7c2.7,11.9,51.3,36.1,60.5,21c14.7-24.1,31.4-1.2,31.4-1.2s49.6-22.2,64.5-61.6s28.5-95.1,25.9-107.9
		C1611.7,278.4,1609.8,272.6,1609.8,272.6z"/>
	<path class="st17" d="M1624,320.8c-1.3,0.8-2.6,1.3-4,1.3c0,0-9.9,10.6-13.1,21.8c-0.5,1.4-0.7,2.9-0.9,4.3
		c-1.4,12.5-7.3,29-7.3,29s-0.1,0-0.1-0.1l-10.1-6l-35.1-20.8c0,0,3.6-13.2,30.8-23.9c17-6.7-2.6-64.5,15.7-64
		c6.9,0.2,25.8,20.4,27.3,26.9c1.4,6.4-0.5,19.9,0.9,23.4C1628.9,315.1,1627,318.8,1624,320.8z"/>
	<path class="st17" d="M1583.8,355.3c0,0-14.8,33.8-69.4,60.8c0,0-5.3,5.4-13,14.9c-0.9,1.2-2.5,2.6-4.5,4.3
		c-8.9,7.7-26,19.4-29.5,24.4c-4.4,6-10.9,18.1-19.2,24.1c-8.3,6-13.3,19.7-16.7,20.9c-3.3,1.3-5.4-1.2-8.6-4.5
		c-3.2-3.3,1.4-12.6,4.1-16c2.7-3.4,8.6-3.4,15.2-11.1c6.5-7.7,11.5-10.5,12.6-11.9c0.8-1,14.4-24.4,25.5-39.6
		c4.7-6.5,9-11.5,11.5-12.7c8.7-4.1,14.7-3.7,20.2-9.5c5.4-5.9,27.8-64.6,69.2-69C1622.7,325.7,1583.8,355.3,1583.8,355.3z"/>
	<g>
		<path class="st17" d="M1634,397.9c-0.1,0.1-0.3,0.1-0.6,0.1c-0.1,0-0.1,0-0.2,0.1c-2,0.6-6.3,1.8-11.7,3.3
			c-8.7,2.5-20.1,6-29.1,8.9c-6.5,2.2-11.7,3.9-13.5,5c-6,3.3-16.2,11-25.5,12.9c-9.3,1.8-18.9,11.4-22.3,11.1
			c-3.3-0.2-4.1-3.1-5.5-7.1c-1.4-4.1,6.1-10.1,9.8-11.9c3.6-1.8,8.6,0.5,17.1-3.4s13.8-4.5,15.4-5.1c9-3.6,15.3-8.5,20.7-13.4
			c3.1-2.8,5.9-5.5,8.8-7.9c4.2-3.4,8.6-6.2,14.3-7.6c2.3-0.6,4.9-0.9,7.8-0.9c6.1,0,10.2,1.3,14.5,1.1
			C1629.5,387.8,1627.7,394.7,1634,397.9z"/>
		<path class="st17" d="M1642.5,391.9c-0.1,2.2-3.9,4.8-8.5,6c-0.1,0.1-0.3,0.1-0.6,0.1c-0.1,0-0.1,0-0.2,0.1
			c-2.9,0.6-6.1,0.7-8.9-0.3c-0.9-1.8,3.4-6.9,1.7-8.5c-0.3-0.2-0.7-0.6-1.3-0.9c-2.7-1.8-7.4-3.5-13.1-5.7c-4-1.5-8.5-3.3-13.1-5.6
			c0,0-0.1,0-0.1-0.1c-3.3-1.7-6.8-3.7-10.1-6c-3.3-2.3-6.6-5.1-9.6-8.3c-4.9-5.1-9.2-11.5-12.3-19.4c-6.2-16.1,25-6.9,25-6.9
			s4.1,0.6,10.7,4.4c1.4,0.8,3,1.8,4.6,3c8,5.6,18.4,15.4,29.3,32.7c2.1,3.3,3.7,7,5.5,10.9C1641.7,387.4,1642.8,389.7,1642.5,391.9
			z"/>
	</g>
	<path class="st14" d="M1609.5,243.2c0,0,4.6,0.2,8.1-6.3c3.5-6.5,7.7-4.3,7.9-4.3s6.7,3.3,7.5-0.3c0.7-3.7-11.9-12.1-18.8-8.1
		c-6.9,3.9-5.6,18.5-5.6,18.5"/>
	<path class="st17" d="M1617.8,281.3c0,0,24.5-10.3,35.6-15.3c11.1-4.9,18-17.8,29.2-23.3c11.1-5.5,13.1-7.3,13.1-7.3l1.2,3.6
		c0,0-19.8,27.4-31.8,30.7c-11.9,3.3-41,30.7-42.4,31.8c-1.4,1.1-6.9-13.1-6.9-13.1"/>
	<path class="st17" d="M1602.6,279.6l-1.5,4.5c0,0-26.9,18-39,24.6c-9.3,5-15.3,15-23,22.7c0,0,0,0,0,0.1c-2.4,2.4-5,4.6-7.9,6.3
		c-2.5,1.5-4.5,2.8-6.2,3.8c-0.1,0-0.1,0-0.1,0.1c-3.1,1.4-5.4,3.1-6.9,4.8l0,0c-0.7,0.6-0.9,0.8-0.9,0.8l-1.7-3.9
		c0,0,6.3-10.3,14.1-20.3c0.6-0.7,1-1.3,1-1.3c5.9-7.3,12.6-14.2,18.1-16.2c13.3-4.9,43.6-38.6,45-40.1
		C1595.1,264.1,1602.6,279.6,1602.6,279.6z"/>
	<path class="st18" d="M1539.1,331.4L1539.1,331.4c-1.6,2.8-7.7,7.5-14.1,10.2c-0.1,0-0.1,0-0.1,0.1c-3.1,1.4-5.4,3.1-6.9,4.8l0,0
		c-1.5,1.7-2.5,3.4-3.1,4.6c-1.4,2.4-4.9,5.1-6.6,5.3c-1.7,0.1,2.3-2.2,3.4-3.7s1.1-2.6,1.1-2.6s-8.2,6.5-11.3,11
		c0,0-2.4,5.7-3.1,4.9c-0.7-0.7-1.5-8.5,1.1-11.5c2.6-3.1,5.1-6.4,12.4-11.9c3.8-2.9,14.3-15.6,17.6-19.6c0.6-0.7,1-1.3,1-1.3
		s5.8-3.1,6.7-2.6C1538.2,319.7,1540.7,328.7,1539.1,331.4z"/>
	<path class="st18" d="M1682.2,256.8L1682.2,256.8c3-1.1,8.7-6.3,12.5-12.2c0-0.1,0-0.1,0.1-0.1c1.8-2.9,3.9-4.7,5.9-6l0,0
		c2-1.3,3.8-1.9,5.1-2.3c2.6-0.9,5.9-3.9,6.3-5.6c0.3-1.7-2.5,1.9-4.1,2.8c-1.7,0.9-2.8,0.7-2.8,0.7s2.8-3.3,7.7-5.7
		c3.6-1.8,7.7-6,7-6.8s-3.7,0.2-7.9,1.3c-3.9,1-7.4,2.9-14,9.2c-3.4,3.3-28.3,17.5-27.9,18.5
		C1670.3,251.4,1679.2,257.8,1682.2,256.8z"/>
	<path class="st18" d="M1497,435.4c-8.9,7.7-26,19.4-29.5,24.4c-4.4,6-10.9,18.1-19.2,24.1c-8.3,6-13.3,19.7-16.7,20.9
		c-3.3,1.3-5.4-1.2-8.6-4.5c-3.2-3.3,1.4-12.6,4.1-16c2.7-3.4,8.6-3.4,15.2-11.1c6.5-7.7,11.5-10.5,12.6-11.9
		c0.8-1,14.4-24.3,25.5-39.6c7.9-0.3,18.9-0.2,19.3,2.3C1499.8,425.5,1498.6,430.4,1497,435.4z"/>
	<path class="st18" d="M1622.4,397.5c0.1,1.3-0.3,2.6-0.9,3.9c-15,4.4-38.2,11.5-42.5,13.8c-6,3.3-16.2,11-25.5,12.9
		c-9.3,1.8-18.9,11.4-22.3,11.1c-3.3-0.2-4.1-3.1-5.5-7.1s6.1-10.1,9.8-11.9c3.6-1.8,8.6,0.5,17.1-3.4s13.8-4.5,15.4-5.1
		c14.1-5.5,21.4-14.6,29.5-21.3C1606.5,391.4,1622.2,393.9,1622.4,397.5z"/>
	<path class="st19" d="M1642.5,391.9c-0.1,2.2-3.9,4.8-8.5,6c-0.1,0.1-0.3,0.1-0.6,0.1c-0.1,0-0.1,0-0.2,0.1
		c-2,0.6-6.3,1.8-11.7,3.3c-8.7,2.5-20.1,6-29.1,8.9c-1-3-2.4-7.3-3.9-12.2c3.1-2.8,5.9-5.5,8.8-7.9c4.2-3.4,8.6-6.2,14.3-7.6
		c-4-1.5-8.5-3.3-13.1-5.6c0,0-0.1,0-0.1-0.1c-3.3-1.7-6.8-3.7-10.1-6s-6.6-5.1-9.6-8.3c1.5-4.7,4.3-16.4-0.7-27
		c0.6,0.5,9.4,7.7,17.4,7.7c2.6,0,4.8-1,6.7-2.6c4.1-3.3,6.8-9,8-11c1.8-3,0-10.1,0-10.1s-9.6-0.9-9.2-9.5c0,0,10.5,7.8,14.6,4.7
		c4.2-3,4.3-6.2,4.3-6.2s0.2,10.3,3.9,12.2c-1.3,0.8-2.6,1.3-4,1.3c0,0-9.9,10.6-13.1,21.8c8,5.6,18.4,15.4,29.3,32.7
		c2.1,3.3,3.7,7,5.5,10.9C1641.7,387.4,1642.8,389.7,1642.5,391.9z"/>
	<path class="st16" d="M1589.2,266.1c0,0,15,0.3,19.3,6.2c4.3,5.9,8.4,7,8.4,7.5c-0.1,0.5,5.3-0.3,5.3-0.3s0.7-7.2-5-7.5
		c0,0-4.3-1.9-12.2-10.9c-7.9-9-29,5.7-40.1,14.4C1553.7,284.1,1589.2,266.1,1589.2,266.1z"/>
</g>
<rect x="94.5" y="803.9" class="st6" width="2134" height="137.5"/>
<rect x="134.6" y="-23.6" class="st6" width="120.3" height="1080"/>
</svg>
