<?xml version="1.0" encoding="utf-8"?>
<!-- Generator: Adobe Illustrator 23.1.0, SVG Export Plug-In . SVG Version: 6.00 Build 0)  -->
<svg version="1.1" id="Layer_1" xmlns="http://www.w3.org/2000/svg" xmlns:xlink="http://www.w3.org/1999/xlink" x="0px" y="0px"
	 viewBox="0 0 1920 1080" style="enable-background:new 0 0 1920 1080;" xml:space="preserve">
<style type="text/css">
	.st0{clip-path:url(#SVGID_2_);fill:url(#SVGID_3_);}
	.st1{clip-path:url(#SVGID_5_);fill:url(#SVGID_6_);}
	.st2{clip-path:url(#SVGID_8_);}
	.st3{fill:url(#SVGID_9_);}
	.st4{opacity:0.1;fill:#6988F9;enable-background:new    ;}
	.st5{fill:#CBFEFE;}
	.st6{fill:#FFFFFF;}
	.st7{clip-path:url(#SVGID_11_);}
	.st8{opacity:0.4;fill:#8FE2EA;enable-background:new    ;}
	.st9{opacity:0.4;}
	.st10{fill:#E3D2B4;}
	.st11{fill:#3E1E7D;}
	.st12{opacity:0.2;}
	.st13{fill:#331D74;}
	.st14{fill:#1D1B16;}
	.st15{fill:#FFCC99;}
	.st16{fill:#763CCE;}
	.st17{fill:#8EB7FF;}
	.st18{fill:#1C6CD9;}
	.st19{fill:#7AABFF;}
</style>
<g>
	<g>
		<defs>
			<rect id="SVGID_1_" x="-108.1" y="-26.2" width="2073.1" height="1166.1"/>
		</defs>
		<clipPath id="SVGID_2_">
			<use xlink:href="#SVGID_1_"  style="overflow:visible;"/>
		</clipPath>
		
			<linearGradient id="SVGID_3_" gradientUnits="userSpaceOnUse" x1="1803.3141" y1="1354.4769" x2="545.4882" y2="159.1955" gradientTransform="matrix(1 0 0 -1 0 1080)">
			<stop  offset="2.423880e-03" style="stop-color:#A050FF"/>
			<stop  offset="0.2561" style="stop-color:#6989F8"/>
			<stop  offset="0.4957" style="stop-color:#3CB7F2"/>
			<stop  offset="0.7071" style="stop-color:#1CD8EE"/>
			<stop  offset="0.8825" style="stop-color:#08EDEB"/>
			<stop  offset="1" style="stop-color:#01F4EA"/>
		</linearGradient>
		<rect x="-108.1" y="-26.2" class="st0" width="2073.1" height="1166.1"/>
	</g>
	<g>
		<defs>
			<rect id="SVGID_4_" x="-108.1" y="-26.2" width="2073.1" height="1166.1"/>
		</defs>
		<clipPath id="SVGID_5_">
			<use xlink:href="#SVGID_4_"  style="overflow:visible;"/>
		</clipPath>
		
			<linearGradient id="SVGID_6_" gradientUnits="userSpaceOnUse" x1="105.0278" y1="1352.5697" x2="1751.9659" y2="-294.3684" gradientTransform="matrix(1 0 0 -1 0 1080)">
			<stop  offset="3.409785e-07" style="stop-color:#000444"/>
			<stop  offset="0.9285" style="stop-color:#984CF6"/>
			<stop  offset="0.929" style="stop-color:#994DF8"/>
			<stop  offset="0.932" style="stop-color:#A050FF"/>
		</linearGradient>
		<rect x="-129.4" y="-38.2" class="st1" width="2115.8" height="1178.1"/>
	</g>
	<g>
		<defs>
			<rect id="SVGID_7_" x="-108.1" y="-26.2" width="2073.1" height="1166.1"/>
		</defs>
		<clipPath id="SVGID_8_">
			<use xlink:href="#SVGID_7_"  style="overflow:visible;"/>
		</clipPath>
		<g class="st2">
			
				<linearGradient id="SVGID_9_" gradientUnits="userSpaceOnUse" x1="525.6972" y1="559.9041" x2="1986.271" y2="559.9041" gradientTransform="matrix(1 0 0 -1 0 1080)">
				<stop  offset="0.4449" style="stop-color:#000959"/>
				<stop  offset="0.7252" style="stop-color:#00034B"/>
				<stop  offset="0.9883" style="stop-color:#000044"/>
			</linearGradient>
			<path class="st3" d="M1986.3,689.7v372c-4.9,1.1-9.7,2.2-14.6,3.2c-64.9,13.9-134.8,22-196.5-1.3
				c-131.9-50-168.9-216.9-291.6-284.2c-124.7-68.3-304.2-15.2-413-104.1c-121.9-99.4-72.8-311.9-203.3-401.2
				c-46.1-31.5-106.1-40.3-154.4-68.8C660,174.1,626,122.2,596.1,71c-21.6-37.5-42.7-75.9-70.4-109.2H1214
				c12.2,22.4,26.5,43.2,45.5,61c80,74.9,213.8,68.7,308.5,127c96,59.2,133.5,171.1,169.6,273.1c36.3,101.8,88.2,212.6,194.8,253.1
				C1950.1,682.7,1968,687.1,1986.3,689.7z"/>
			<g>
				<path class="st4" d="M848.9,334.4c-0.9-7.1-16.8-7.9-44.2-0.1c1.1,1.3,2.1,2.8,3,4.2c10.8-1.3,17.9-0.5,19.2,2.6
					c1.2,3-3.5,8-12.3,13.6c-0.2-1-0.5-1.9-0.8-2.8c-0.1-0.2-0.1-0.4-0.2-0.5c-0.8-2.4-1.7-4.8-2.7-6.9c0-0.1-0.1-0.2-0.1-0.3
					c-8.2-16.8-25.1-29.4-45.2-32.5l0,0c-1.5-0.2-3-0.4-4.6-0.5h-0.1c-1.5-0.1-3.1-0.2-4.8-0.2l0,0l0,0c-0.2,0-0.3,0-0.5,0
					c-3,0-5.9,0.2-8.9,0.6l0,0l0,0c-1.6,0.2-3.1,0.5-4.6,0.9c-0.2,0-0.3,0.1-0.5,0.1c-1.5,0.3-3,0.8-4.4,1.2H737
					c-1.5,0.4-2.9,1-4.3,1.5c-0.1,0-0.2,0.1-0.3,0.1c-1.4,0.5-2.7,1.1-4,1.7c-0.2,0.1-0.4,0.2-0.5,0.3c-1.3,0.6-2.6,1.3-3.9,2.1
					c0,0-0.1,0-0.1,0.1c-1.2,0.6-2.4,1.4-3.6,2.3c-0.2,0.1-0.3,0.2-0.5,0.3c-0.3,0.2-0.6,0.4-1.1,0.8l0,0l0,0
					c-0.8,0.5-1.5,1.1-2.3,1.7c-0.2,0.1-0.4,0.3-0.5,0.4c-0.8,0.6-1.5,1.2-2.2,1.8c-0.1,0.1-0.1,0.1-0.2,0.2
					c-0.8,0.6-1.5,1.4-2.3,2.2l0,0c-2.3,2.3-4.4,4.8-6.3,7.5c-0.1,0.1-0.2,0.2-0.2,0.3c-0.5,0.8-1,1.5-1.5,2.2
					c-0.1,0.2-0.2,0.4-0.3,0.5c-0.4,0.6-0.9,1.4-1.2,2.2c-0.1,0.2-0.2,0.4-0.3,0.6c-0.4,0.8-0.8,1.5-1.2,2.3
					c-0.1,0.2-0.2,0.3-0.2,0.5c-0.6,1.4-1.2,2.8-1.7,4.2v0.1c-0.2,0.5-0.3,1-0.5,1.5c-0.1,0.2-0.1,0.4-0.2,0.6
					c-0.2,0.8-0.4,1.5-0.6,2.3c-0.1,0.3-0.2,0.6-0.2,1c-0.2,0.6-0.3,1.3-0.4,2.1c-0.1,0.3-0.1,0.8-0.2,1.1c-0.1,0.6-0.2,1.3-0.3,1.9
					l0,0v0.1c0,0.4-0.1,0.8-0.1,1.2c-0.1,0.8-0.1,1.4-0.2,2.2c0,0.3-0.1,0.6-0.1,1c-0.1,1.1-0.1,2.2-0.1,3.2c0,1.9,0.1,3.8,0.3,5.6
					c-22.1,11.3-35.3,21.7-33,27.3c2.3,5.6,19.5,5.3,44.2,0.1l0,0c3.7,4.8,8.2,9.1,13.3,12.5l0,0l0,0c9.3,6.4,20.6,10.4,32.8,10.9
					c1.1,0,2.1,0.1,3.1,0.1c1.2,0,2.3,0,3.5-0.1c0.3,0,0.8,0,1.1-0.1c0.8,0,1.5-0.1,2.3-0.2c0.4,0,0.9-0.1,1.2-0.1
					c0.8-0.1,1.4-0.2,2.2-0.3c0.4-0.1,0.9-0.1,1.2-0.2c0.8-0.1,1.4-0.3,2.2-0.4c0.3-0.1,0.8-0.1,1.1-0.2c0.9-0.2,1.6-0.4,2.5-0.6
					c0.2-0.1,0.4-0.1,0.6-0.2c2.2-0.6,4.2-1.3,6.3-2.2c0.2-0.1,0.4-0.2,0.5-0.2c0.9-0.3,1.6-0.6,2.4-1.1c0.2-0.1,0.4-0.2,0.6-0.3
					c0.8-0.3,1.5-0.8,2.3-1.2c0.2-0.1,0.4-0.2,0.6-0.3c0.8-0.4,1.6-0.9,2.4-1.4c0.1-0.1,0.2-0.1,0.4-0.2c2.8-1.7,5.5-3.7,7.9-5.8
					l0,0c0.6-0.5,1.3-1.2,1.9-1.7c0.1-0.1,0.2-0.2,0.3-0.3l0,0c0.1-0.1,0.1-0.1,0.2-0.2c0.5-0.5,1.1-1.1,1.6-1.7
					c0.1-0.1,0.2-0.2,0.3-0.3l0.1-0.1c0.1-0.1,0.1-0.1,0.2-0.2c0.5-0.5,1.1-1.2,1.6-1.8c0-0.1,0.1-0.1,0.1-0.2
					c7.5-9,12.2-20.1,12.7-32.2c0-0.9,0.1-1.8,0.1-2.7l0,0c0-1.2-0.1-2.5-0.1-3.7c0-0.3,0-0.6-0.1-1c0-0.3,0-0.6-0.1-1l0,0
					C838,350.3,849.5,340.3,848.9,334.4z M695.2,375.6c0-0.3-0.1-0.5-0.1-0.9C695.2,375.1,695.2,375.4,695.2,375.6z M683.1,391.8
					c-1.3-3.1,3.6-8,12.5-13.7c0-0.1,0-0.1,0-0.2c0.3,1.5,0.6,2.9,1.1,4.4l0,0l0,0c0.3,1.3,0.8,2.5,1.3,3.8c0,0,0,0,0,0.1
					c1,2.5,2.1,4.9,3.2,7.1c0,0,0,0.1,0.1,0.1c0.2,0.3,0.4,0.8,0.6,1.1C691.3,395.6,684.4,394.8,683.1,391.8z"/>
				<path class="st4" d="M1716,551.4c-21.9-20.5-57.7-20.5-79.6,0c-21.9,20.5-21.9,53.8,0,74.2c21.9,20.5,57.7,20.5,79.6,0
					C1737.9,605.2,1737.9,571.8,1716,551.4z"/>
				<path class="st4" d="M1236.1,198.2c-21.9-20.5-57.7-20.5-79.6,0s-21.9,53.8,0,74.2c21.9,20.5,57.7,20.5,79.6,0
					C1258,252,1258,218.7,1236.1,198.2z"/>
				<path class="st4" d="M1254,167.1c-5.2-4.9-13.5-4.9-18.7,0s-5.2,12.6,0,17.4c5.2,4.9,13.5,4.9,18.7,0
					C1259.2,179.7,1259.2,172,1254,167.1z"/>
			</g>
			<g>
				<ellipse class="st5" cx="330.9" cy="211.3" rx="3.6" ry="3.3"/>
				<path class="st5" d="M783.4,188.1c0,1.8-1.6,3.3-3.6,3.3s-3.6-1.5-3.6-3.3c0-1.8,1.6-3.3,3.6-3.3
					C781.8,184.7,783.4,186.2,783.4,188.1z"/>
				<path class="st5" d="M1794.8,446.2c0,1.8-1.6,3.3-3.6,3.3s-3.6-1.5-3.6-3.3s1.6-3.3,3.6-3.3S1794.8,444.4,1794.8,446.2z"/>
				<path class="st5" d="M875.9,652.3c0,1.4-1.2,2.5-2.7,2.5s-2.7-1.1-2.7-2.5c0-1.4,1.2-2.5,2.7-2.5
					C874.7,649.9,875.9,650.9,875.9,652.3z"/>
				<path class="st5" d="M1325,92.5c1.1,0.9,1.3,2.4,0.4,3.5c-0.9,1.1-2.5,1.2-3.6,0.4c-1.1-0.9-1.3-2.4-0.4-3.5
					C1322.3,91.8,1324,91.6,1325,92.5z"/>
				<path class="st5" d="M1791.3,349.7c0,3.5-2.9,6.2-6.6,6.2s-6.6-2.8-6.6-6.2c0-3.5,3-6.2,6.6-6.2
					C1788.4,343.5,1791.3,346.2,1791.3,349.7z"/>
				<path class="st5" d="M800.7,208c0,3.5-3,6.2-6.6,6.2s-6.6-2.8-6.6-6.2c0-3.5,2.9-6.2,6.6-6.2S800.7,204.6,800.7,208z"/>
				<path class="st5" d="M1398,328.5c0,3.5-3,6.2-6.6,6.2c-3.7,0-6.6-2.8-6.6-6.2c0-3.3,2.9-6.2,6.6-6.2
					C1395.1,322.4,1398,325.2,1398,328.5z"/>
				<path class="st5" d="M797.6,527.3c0,1.8-1.6,3.3-3.6,3.3s-3.6-1.5-3.6-3.3c0-1.8,1.6-3.3,3.6-3.3S797.6,525.5,797.6,527.3z"/>
				<path class="st5" d="M1306.7,96.9c0,1.8-1.6,3.3-3.6,3.3s-3.6-1.5-3.6-3.3c0-1.8,1.6-3.3,3.6-3.3S1306.7,95.1,1306.7,96.9z"/>
				<path class="st5" d="M1128.4,513.8c0,1.4-1.2,2.6-2.7,2.6c-1.5,0-2.7-1.2-2.7-2.6c0-1.4,1.2-2.6,2.7-2.6
					C1127.2,511.2,1128.4,512.4,1128.4,513.8z"/>
				<path class="st5" d="M1088.4,567.7c-1.5,0-2.7-1.2-2.7-2.6c0-1.4,1.2-2.6,2.7-2.6c1.5,0,2.7,1.2,2.7,2.6
					C1091.1,566.5,1089.9,567.7,1088.4,567.7z"/>
				<ellipse class="st5" cx="1339.4" cy="786" rx="1.5" ry="1.4"/>
				<path class="st5" d="M876.1,706.2c0,0.8-0.6,1.4-1.4,1.4c-0.8,0-1.4-0.6-1.4-1.4c0-0.8,0.6-1.4,1.4-1.4
					C875.4,704.8,876.1,705.5,876.1,706.2z"/>
				<path class="st5" d="M1499.4,1006c1.2,0.9,1.3,2.4,0.4,3.5c-0.9,1.1-2.6,1.2-3.8,0.4c-1.2-0.9-1.3-2.4-0.4-3.5
					C1496.6,1005.2,1498.2,1005.1,1499.4,1006z"/>
				<path class="st5" d="M975.3,629.1c1.2,0.9,1.3,2.4,0.4,3.5c-0.9,1.1-2.6,1.2-3.8,0.4c-1.2-0.9-1.3-2.4-0.4-3.5
					C972.5,628.5,974.1,628.4,975.3,629.1z"/>
				<ellipse class="st5" cx="287.3" cy="132.4" rx="1.5" ry="1.4"/>
				<path class="st5" d="M1920.1,96.9c0,1.4-1.2,2.5-2.7,2.5s-2.7-1.1-2.7-2.5c0-1.4,1.2-2.5,2.7-2.5S1920.1,95.5,1920.1,96.9z"/>
				<path class="st5" d="M1132.3,707.5c0,0.8-0.6,1.4-1.5,1.4s-1.5-0.6-1.5-1.4c0-0.8,0.6-1.4,1.5-1.4
					C1131.7,706.2,1132.3,706.8,1132.3,707.5z"/>
				<path class="st5" d="M30.8,131c0.1,0.8-0.5,1.4-1.3,1.5c-0.8,0.1-1.5-0.5-1.6-1.3s0.5-1.4,1.3-1.5C30,129.6,30.8,130.3,30.8,131
					z"/>
				<path class="st5" d="M1526,970.5c0.3,0.8,0,1.5-0.8,1.8s-1.6,0-1.9-0.8c-0.3-0.8,0-1.5,0.8-1.8
					C1524.8,969.5,1525.7,969.8,1526,970.5z"/>
				<path class="st6" d="M899.6,772.7l3.5,6c1.2,2.1,3,3.9,5.2,5l6.3,3.3c0.2,0.1,0.2,0.4,0,0.5l-6.3,3.3c-2.2,1.2-4,2.9-5.2,5
					l-3.5,6c-0.1,0.2-0.4,0.2-0.6,0l-3.5-6c-1.2-2.1-3-3.9-5.2-5l-6.3-3.3c-0.2-0.1-0.2-0.4,0-0.5l6.3-3.3c2.2-1.2,4-2.9,5.2-5
					l3.5-6C899.2,772.5,899.5,772.5,899.6,772.7z"/>
				<path class="st6" d="M1638.4,805.9l3.5,6c1.2,2.1,3,3.9,5.2,5l6.3,3.3c0.2,0.1,0.2,0.4,0,0.5l-6.3,3.3c-2.2,1.2-4,2.9-5.2,5
					l-3.5,6c-0.1,0.2-0.4,0.2-0.6,0l-3.5-6c-1.2-2.1-3-3.9-5.2-5l-6.3-3.3c-0.2-0.1-0.2-0.4,0-0.5l6.3-3.3c2.2-1.2,4-2.9,5.2-5
					l3.5-6C1637.9,805.7,1638.3,805.7,1638.4,805.9z"/>
				<path class="st6" d="M1011.6,220.7l3.6,6c1.2,2.1,3.1,3.9,5.4,5l6.5,3.3c0.2,0.1,0.2,0.4,0,0.5l-6.5,3.3c-2.3,1.2-4.1,2.9-5.4,5
					l-3.6,6c-0.1,0.2-0.5,0.2-0.6,0l-3.6-6c-1.2-2.1-3.1-3.9-5.4-5l-6.5-3.3c-0.2-0.1-0.2-0.4,0-0.5l6.5-3.3c2.3-1.2,4.1-2.9,5.4-5
					l3.6-6C1011,220.4,1011.5,220.4,1011.6,220.7z"/>
				<path class="st6" d="M463.7,170l1.3,2.3c0.4,0.8,1.2,1.4,2.1,1.8l2.5,1.3c0.1,0,0.1,0.2,0,0.2l-2.5,1.3
					c-0.9,0.4-1.5,1.1-2.1,1.8l-1.3,2.3c0,0.1-0.2,0.1-0.2,0l-1.3-2.3c-0.4-0.8-1.2-1.4-2.1-1.8l-2.5-1.2c-0.1,0-0.1-0.2,0-0.2
					l2.5-1.3c0.9-0.4,1.5-1.1,2.1-1.8l1.3-2.3C463.6,170,463.7,170,463.7,170z"/>
				<path class="st6" d="M1007.4,710.8l1.3,2.3c0.4,0.8,1.2,1.4,2.1,1.8l2.5,1.3c0.1,0,0.1,0.2,0,0.2l-2.5,1.3
					c-0.9,0.4-1.5,1.1-2.1,1.8l-1.3,2.3c0,0.1-0.2,0.1-0.2,0l-1.3-2.3c-0.4-0.8-1.2-1.4-2.1-1.8l-2.5-1.3c-0.1,0-0.1-0.2,0-0.2
					l2.5-1.3c0.9-0.4,1.5-1.1,2.1-1.8l1.3-2.3C1007.2,710.6,1007.4,710.6,1007.4,710.8z"/>
				<path class="st6" d="M1217.3,403.8l1.7,3c0.6,1.1,1.5,1.8,2.6,2.5l3.2,1.6c0.1,0.1,0.1,0.2,0,0.3l-3.2,1.6
					c-1.1,0.5-2.1,1.4-2.6,2.5l-1.7,3c-0.1,0.1-0.2,0.1-0.3,0l-1.7-3c-0.6-1.1-1.5-1.8-2.6-2.5l-3.2-1.6c-0.1-0.1-0.1-0.2,0-0.3
					l3.2-1.6c1.1-0.5,2.1-1.4,2.6-2.5l1.7-3C1217.1,403.7,1217.3,403.7,1217.3,403.8z"/>
				<path class="st6" d="M1723.7,175.7l1.7,3c0.6,1.1,1.5,1.8,2.6,2.5l3.2,1.6c0.1,0.1,0.1,0.2,0,0.3l-3.2,1.6
					c-1.1,0.5-2.1,1.4-2.6,2.5l-1.7,3c-0.1,0.1-0.2,0.1-0.3,0l-1.7-3c-0.6-1.1-1.5-1.8-2.6-2.5l-3.2-1.6c-0.1-0.1-0.1-0.2,0-0.3
					l3.2-1.6c1.1-0.5,2.1-1.4,2.6-2.5l1.7-3C1723.5,175.6,1723.7,175.6,1723.7,175.7z"/>
				<path class="st6" d="M1609.3,659.7l2.5,4.2c0.9,1.5,2.2,2.7,3.8,3.5l4.5,2.3c0.2,0.1,0.2,0.3,0,0.4l-4.5,2.3
					c-1.6,0.8-2.9,2.1-3.8,3.5l-2.5,4.2c-0.1,0.2-0.3,0.2-0.4,0l-2.5-4.2c-0.9-1.5-2.2-2.7-3.8-3.5l-4.5-2.3c-0.2-0.1-0.2-0.3,0-0.4
					l4.5-2.3c1.6-0.8,2.9-2.1,3.8-3.5l2.5-4.2C1609,659.5,1609.2,659.5,1609.3,659.7z"/>
			</g>
		</g>
	</g>
	<g>
		<defs>
			<rect id="SVGID_10_" x="-108.1" y="-26.2" width="2073.1" height="1166.1"/>
		</defs>
		<clipPath id="SVGID_11_">
			<use xlink:href="#SVGID_10_"  style="overflow:visible;"/>
		</clipPath>
		<g class="st7">
			<path class="st6" d="M1887.8,637.7c-17.7,33.4-14.6,72.6-16,109.8c-1.5,37.3-10.7,78.6-43.5,99.8
				c-47.1,30.4-114.9,3.2-167.5,24.5c-45.8,18.6-66.3,67.1-88.3,108.8c-22,41.8-60.1,86.2-109.8,81.7
				c-76.8-6.9-75.4-75.5-152.5-101.8c-49.1-16.8-77.1,16.2-131,6.3c-14.1-2.6-21.2-7.1-28-14.6c-36.9-40.9,22.4-146.7,40.4-178.7
				c17.5-31.2,47.7-76.8,98.4-123.4c-3.5-2.1-7-4.2-10.5-6.3c-40.7,48.1-79.2,84.5-109.3,110.4c-37.4,32.2-104.6,85.1-186.9,113.2
				c-9.8,3.4-16.9,4.7-25.7,6.4c-60.4,11.7-122.4-18.8-142-73.3c-19.5-54.5-8.2-113.9-9.9-171.5c-1.7-57.4-23.8-122.6-80.8-144.5
				c-37.5-14.4-82.4-6.6-118-24.7c-88.8-45-49.9-196.1-178.6-193c-37.7,0.9-73.5,14.5-110.6,20.3c-37.1,5.9-80.1,2.2-104.7-24.4
				c-29-31.2-47.7-44.5-90.7-38.7c-24.9,3.3-80.2,72.6-146.1-28c-31.3-47.8-20-67.5-25.8-72.1c-21-16.8-30.5-36.5-39.5-55.7
				c-10.3-22-26.1-64.4-23.5-124.1v1213.2h2098.9V604.8C1954.9,581.8,1905.5,604.3,1887.8,637.7z"/>
			<g>
				<path class="st8" d="M1548.6,409.5c-0.5,0.5-1.5,0.5-2.2,0c-0.5-0.5-0.5-1.4,0-2.1c0.5-0.5,1.5-0.5,2.2,0
					C1549.3,408.1,1549.3,409,1548.6,409.5z M1555.7,403c-0.5,0.5-1.5,0.5-2.2,0c-0.5-0.5-0.5-1.4,0-2.1c0.5-0.5,1.5-0.5,2.2,0
					C1556.2,401.6,1556.2,402.5,1555.7,403z M1562.6,396.5c-0.5,0.5-1.5,0.5-2.2,0c-0.5-0.5-0.5-1.4,0-2.1c0.5-0.5,1.5-0.5,2.2,0
					C1563.2,395.1,1563.2,396,1562.6,396.5z M1569.6,390.1c-0.5,0.5-1.5,0.5-2.2,0c-0.6-0.5-0.5-1.4,0-2.1c0.5-0.5,1.5-0.5,2.2,0
					C1570.1,388.6,1570.1,389.5,1569.6,390.1z M1576.6,383.5c-0.5,0.5-1.5,0.5-2.2,0c-0.5-0.5-0.5-1.4,0-2.1s1.5-0.5,2.2,0
					C1577.3,382,1577.2,382.9,1576.6,383.5z M1583.5,377c-0.5,0.5-1.5,0.5-2.2,0c-0.5-0.5-0.5-1.4,0-2.1c0.5-0.5,1.5-0.5,2.2,0
					C1584.2,375.6,1584.2,376.5,1583.5,377z M1590.5,370.5c-0.5,0.5-1.5,0.5-2.2,0c-0.5-0.5-0.5-1.4,0-2.1c0.5-0.5,1.5-0.5,2.2,0
					C1591.1,369.1,1591.1,370,1590.5,370.5z M1597.5,364c-0.5,0.5-1.5,0.5-2.2,0c-0.5-0.5-0.5-1.4,0-2.1c0.5-0.5,1.5-0.5,2.2,0
					C1598.1,362.5,1598.1,363.5,1597.5,364z M1604.5,357.6c-0.5,0.5-1.5,0.5-2.2,0c-0.5-0.5-0.5-1.4,0-2.1c0.5-0.5,1.5-0.5,2.2,0
					C1605,356.1,1605,356.9,1604.5,357.6z M1541.7,414c-0.5-0.5-1.5-0.5-2.2,0c-0.5,0.5-0.5,1.4,0,2.1c0.5,0.5,1.5,0.5,2.2,0
					C1542.3,415.4,1542.3,414.6,1541.7,414z M1534.7,420.5c-0.5-0.5-1.5-0.5-2.2,0c-0.5,0.5-0.5,1.4,0,2.1c0.5,0.5,1.5,0.5,2.2,0
					S1535.4,421.1,1534.7,420.5z M1527.8,427c-0.5-0.5-1.5-0.5-2.2,0c-0.5,0.5-0.5,1.4,0,2.1c0.5,0.5,1.5,0.5,2.2,0
					C1528.4,428.5,1528.4,427.6,1527.8,427z M1402,546.4c-0.5,0.5-1.5,0.5-2.2,0c-0.5-0.5-0.5-1.4,0-2.1c0.5-0.6,1.5-0.5,2.2,0
					C1402.7,544.9,1402.6,545.9,1402,546.4z M1408.9,539.9c-0.5,0.5-1.5,0.5-2.2,0c-0.6-0.5-0.5-1.4,0-2.1c0.5-0.5,1.5-0.5,2.2,0
					C1409.6,538.4,1409.6,539.3,1408.9,539.9z M1415.9,533.4c-0.5,0.5-1.5,0.5-2.2,0c-0.5-0.5-0.5-1.4,0-2.1c0.5-0.5,1.5-0.5,2.2,0
					C1416.5,531.9,1416.5,532.8,1415.9,533.4z M1422.9,526.9c-0.5,0.5-1.5,0.5-2.2,0c-0.5-0.5-0.5-1.4,0-2.1c0.5-0.6,1.5-0.5,2.2,0
					C1423.5,525.5,1423.5,526.3,1422.9,526.9z M1400.1,599.8c-0.5,0.5-1.5,0.5-2.2,0c-0.5-0.5-0.5-1.4,0-2.1c0.5-0.5,1.5-0.5,2.2,0
					C1400.7,598.2,1400.7,599.2,1400.1,599.8z M1407.1,593.3c-0.5,0.5-1.5,0.5-2.2,0c-0.5-0.5-0.5-1.4,0-2.1c0.5-0.6,1.5-0.5,2.2,0
					C1407.6,591.8,1407.6,592.7,1407.1,593.3z M1414,586.7c-0.5,0.5-1.5,0.5-2.2,0c-0.6-0.5-0.5-1.4,0-2.1c0.5-0.5,1.5-0.5,2.2,0
					C1414.7,585.3,1414.7,586.2,1414,586.7z M1421,580.2c-0.5,0.5-1.5,0.5-2.2,0c-0.5-0.5-0.5-1.4,0-2.1c0.5-0.5,1.5-0.5,2.2,0
					C1421.7,578.7,1421.6,579.7,1421,580.2z M1490.2,340.8c-0.5-0.5-0.5-1.4,0-2.1c0.5-0.5,1.5-0.5,2.2,0c0.5,0.5,0.5,1.4,0,2.1
					C1491.9,341.4,1490.9,341.4,1490.2,340.8z M1539.6,315.5c-0.5-0.5-0.5-1.4,0-2.1c0.5-0.5,1.5-0.5,2.2,0c0.5,0.5,0.5,1.4,0,2.1
					C1541.1,316,1540.1,316,1539.6,315.5z M1542.6,318.4c-0.5-0.5-0.5-1.4,0-2.1c0.5-0.5,1.5-0.5,2.2,0c0.5,0.5,0.5,1.4,0,2.1
					C1544.2,318.9,1543.3,318.9,1542.6,318.4z"/>
				<g class="st9">
					<path class="st10" d="M1640,695L1640,695c-1.1,0-1.8-0.8-1.8-1.7v-5c0-1,0.9-1.7,1.8-1.7l0,0c1.1,0,1.8,0.8,1.8,1.7v5
						C1641.8,694.2,1641,695,1640,695z"/>
					<path class="st10" d="M1652.7,695L1652.7,695c-1.1,0-1.8-0.8-1.8-1.7v-5c0-1,0.9-1.7,1.8-1.7l0,0c1.1,0,1.8,0.8,1.8,1.7v5
						C1654.6,694.2,1653.8,695,1652.7,695z"/>
					<path class="st10" d="M1665.6,695L1665.6,695c-1.1,0-1.8-0.8-1.8-1.7v-5c0-1,0.9-1.7,1.8-1.7l0,0c1.1,0,1.8,0.8,1.8,1.7v5
						C1667.4,694.2,1666.6,695,1665.6,695z"/>
					<path class="st10" d="M1678.3,695L1678.3,695c-1.1,0-1.8-0.8-1.8-1.7v-5c0-1,0.9-1.7,1.8-1.7l0,0c1.1,0,1.8,0.8,1.8,1.7v5
						C1680.2,694.2,1679.4,695,1678.3,695z"/>
					<path class="st10" d="M1691.2,695L1691.2,695c-1.1,0-1.8-0.8-1.8-1.7v-5c0-1,0.9-1.7,1.8-1.7l0,0c1.1,0,1.8,0.8,1.8,1.7v5
						C1693,694.2,1692.1,695,1691.2,695z"/>
					<path class="st10" d="M1703.9,695L1703.9,695c-1.1,0-1.8-0.8-1.8-1.7v-5c0-1,0.9-1.7,1.8-1.7l0,0c1.1,0,1.8,0.8,1.8,1.7v5
						C1705.8,694.2,1705,695,1703.9,695z"/>
					<path class="st10" d="M1718,695h-2.5c-0.3,0-0.6-0.3-0.6-0.6v-7.1c0-0.3,0.3-0.6,0.6-0.6h2.5c0.3,0,0.6,0.3,0.6,0.6v7.1
						C1718.6,694.8,1718.3,695,1718,695z"/>
					<path class="st10" d="M1729.5,695L1729.5,695c-1.1,0-1.8-0.8-1.8-1.7v-5c0-1,0.9-1.7,1.8-1.7l0,0c1.1,0,1.8,0.8,1.8,1.7v5
						C1731.3,694.2,1730.6,695,1729.5,695z"/>
				</g>
				<g class="st9">
					<path class="st11" d="M1586.3,305.9L1586.3,305.9c-0.8-0.6-0.8-1.7,0-2.5l3.7-3.5c0.8-0.6,1.9-0.6,2.6,0l0,0
						c0.8,0.6,0.8,1.7,0,2.5l-3.8,3.5C1588.3,306.5,1587.1,306.5,1586.3,305.9z"/>
					<path class="st11" d="M1595.4,314.3L1595.4,314.3c-0.8-0.6-0.8-1.7,0-2.5l3.8-3.5c0.8-0.6,1.9-0.6,2.6,0l0,0
						c0.8,0.6,0.8,1.7,0,2.5l-3.8,3.5C1597.3,314.9,1596.2,314.9,1595.4,314.3z"/>
					<path class="st11" d="M1604.5,322.7L1604.5,322.7c-0.8-0.6-0.8-1.7,0-2.5l3.8-3.5c0.8-0.6,1.9-0.6,2.6,0l0,0
						c0.8,0.6,0.8,1.7,0,2.5l-3.8,3.5C1606.4,323.3,1605.2,323.3,1604.5,322.7z"/>
					<path class="st11" d="M1613.5,331.1L1613.5,331.1c-0.8-0.6-0.8-1.7,0-2.5l3.7-3.5c0.8-0.6,1.9-0.6,2.6,0l0,0
						c0.8,0.6,0.8,1.7,0,2.5l-3.8,3.5C1615.4,331.8,1614.3,331.8,1613.5,331.1z"/>
					<path class="st11" d="M1622.6,339.5L1622.6,339.5c-0.8-0.6-0.8-1.7,0-2.5l3.8-3.5c0.8-0.6,1.9-0.6,2.6,0l0,0
						c0.8,0.6,0.8,1.7,0,2.5l-3.8,3.5C1624.4,340.2,1623.3,340.2,1622.6,339.5z"/>
					<path class="st11" d="M1631.6,348L1631.6,348c-0.8-0.6-0.8-1.7,0-2.5l3.8-3.5c0.8-0.6,1.9-0.6,2.6,0l0,0c0.8,0.6,0.8,1.7,0,2.5
						l-3.8,3.5C1633.5,348.7,1632.3,348.7,1631.6,348z"/>
					<path class="st11" d="M1640.6,356.5L1640.6,356.5c-0.8-0.6-0.8-1.7,0-2.5l3.7-3.5c0.8-0.6,1.9-0.6,2.6,0l0,0
						c0.8,0.6,0.8,1.7,0,2.5l-3.8,3.5C1642.6,357.1,1641.4,357.1,1640.6,356.5z"/>
					<path class="st11" d="M1649.7,364.9L1649.7,364.9c-0.8-0.6-0.8-1.7,0-2.5l3.8-3.5c0.8-0.6,1.9-0.6,2.6,0l0,0
						c0.8,0.6,0.8,1.7,0,2.5l-3.8,3.5C1651.7,365.6,1650.5,365.6,1649.7,364.9z"/>
					<path class="st11" d="M1658.8,373.3L1658.8,373.3c-0.8-0.6-0.8-1.7,0-2.5l3.8-3.5c0.8-0.6,1.9-0.6,2.6,0l0,0
						c0.8,0.6,0.8,1.7,0,2.5l-3.8,3.5C1660.6,374,1659.5,374,1658.8,373.3z"/>
				</g>
				<g class="st12">
					<path class="st13" d="M1238.8,575.6l-73.5,5.7c-0.2,0-0.3,0.1-0.5,0.2l-18.2,17.1l2.4-0.2l16.7-15.7l71.2-5.6l-17.5,16.3
						l2.4-0.2l17.7-16.5c0.2-0.2,0.3-0.5,0.1-0.9C1239.4,575.7,1239.1,575.5,1238.8,575.6z"/>
				</g>
				<g class="st12">
					<path class="st13" d="M1462.8,628.4l-26.7,24.9c-0.1,0.1-0.2,0.3-0.2,0.5v62.7c-28.9,35.5-66.7,69.8-92.8,91.8l-0.2,2.2
						c25.7-21.7,63.6-55.8,92.9-91.5v17.1c0.5-0.6,1.1-1.3,1.6-1.8v-80l25.3-23.6C1462.7,629.9,1462.7,629.1,1462.8,628.4z"/>
					<path class="st13" d="M1345.4,779.5l-0.2,2.3l17.2-16.1c0.1-0.1,0.2-0.3,0.2-0.4l6.2-68.6c0.1-0.3-0.1-0.5-0.4-0.8
						c-0.3-0.1-0.6-0.1-0.9,0.1l-16.7,15.5l-0.2,2.3l16.4-15.3l-5.9,66.3L1345.4,779.5z"/>
				</g>
			</g>
		</g>
	</g>
</g>
<g>
	<path class="st14" d="M1589.1,264.7c24-71.9-107.7-54.3-125-19.7c-17.4,34.7,0.6,51.4-31.4,50.9c-32.2-0.5-33.5,8.2-38.9,33.8
		c-5.4,25.5-33.8,35.2-33.8,35.2s22.5,42,93.8-16.3C1484.6,323.3,1579.4,294,1589.1,264.7z"/>
	<path class="st14" d="M1590,268.5c0,0,23.4-13.9-1.3-26.3c-13.9-7-80-15.8-94.9,66.1c-15.1,82.5-8,55.1-14.8,59.8
		c-5.7,4,6.3,147.8,64.9-14.5c12.3-34.1,20.1-76.3,22.9-82c2.8-5.5,25.7-9.2,25.7-9.2"/>
	<path class="st15" d="M1560.3,332.8c-0.6,0.1-1.5-29.8,3.6-36.2c5.1-6.3-17.1-16.5-17.1-16.5s-8.9,26.1-9.8,40.1
		c-0.9,13.9,26.6,9.6,26.6,9.6"/>
	<path class="st15" d="M1553.9,234.7c-0.4,0-10.9,28.2-5.8,47.3c5.1,19.1,19.3,27.4,24.1,25.5c2.1-0.9,7.1-5.3,12-12.5
		c6.8-9.9,5.3-16.5,9.5-35.5c1.1-4.8-3.3-9.4-7.1-13.3c-10.3-10.7-28.1-16.7-33.4-12"/>
	<path class="st15" d="M1547.1,262.5c0,0-8.1-6.6-8.6,9.5c-0.2,7,3.8,5.9,6.8,6.3c0.2,0,0,0-0.2,0.2c-0.3,0.3-4.8,47.9-4.8,47.9
		l6.4-8.2c0,0,5.3-25.6,4.8-27.1C1551,289.7,1551.3,263.8,1547.1,262.5z"/>
	<path class="st16" d="M1547.7,313.9c13.3-3.7-33.3-76.1-172.7,100c-120.5,152.1-243.5,98-248.9,98.3c-5.4,0.2-24.1,46.1,80.8,47.6
		c104.8,1.6,24.9,27.7,29.7,48.5c4.8,20.8,89.7,63.2,105.8,36.7c25.8-42.2,54.9-2.1,54.9-2.1s86.8-38.8,112.8-107.7
		s49.8-166.4,45.3-188.8C1550.9,324,1547.7,313.9,1547.7,313.9z"/>
	<path class="st17" d="M1572.4,398.2c-2.2,1.4-4.5,2.3-7,2.2c0,0-17.3,18.6-23,38.1c-0.8,2.5-1.3,5-1.5,7.5
		c-2.5,21.8-12.8,50.7-12.8,50.7s-0.1,0-0.1-0.1l-17.7-10.5l-61.5-36.4c0,0,6.3-23.1,53.9-41.8c29.8-11.8-4.6-112.9,27.5-112
		c12,0.4,45.2,35.7,47.7,47c2.5,11.2-0.8,34.9,1.6,41C1581.1,388.3,1577.7,394.8,1572.4,398.2z"/>
	<path class="st17" d="M1502.1,458.6c0,0-25.9,59.2-121.4,106.4c0,0-9.2,9.5-22.8,26.1c-1.6,2.1-4.3,4.5-7.8,7.5
		c-15.5,13.4-45.5,34-51.7,42.7c-7.7,10.5-19,31.6-33.6,42.1c-14.6,10.5-23.3,34.4-29.3,36.6c-5.8,2.2-9.4-2.1-15-7.9
		c-5.6-5.8,2.5-22.1,7.1-28c4.8-5.9,15.1-5.9,26.6-19.4c11.4-13.5,20.1-18.4,22.1-20.8c1.4-1.7,25.2-42.7,44.6-69.3
		c8.2-11.3,15.7-20.2,20.2-22.2c15.3-7.1,25.7-6.4,35.3-16.6c9.5-10.3,48.7-113,121.1-120.8C1570.2,406.9,1502.1,458.6,1502.1,458.6
		z"/>
	<g>
		<path class="st17" d="M1589.9,533.1c-0.2,0.1-0.5,0.1-1,0.2c-0.1,0-0.2,0-0.3,0.1c-3.5,1-11,3.1-20.5,5.8
			c-15.2,4.4-35.2,10.5-50.9,15.5c-11.4,3.8-20.4,6.9-23.6,8.7c-10.5,5.8-28.4,19.2-44.7,22.5c-16.3,3.1-33,20-39,19.5
			c-5.8-0.4-7.1-5.4-9.6-12.5c-2.5-7.1,10.7-17.7,17.1-20.8c6.3-3.1,15,0.9,30-6c15-6.9,24.1-7.9,26.9-9
			c15.8-6.3,26.7-14.9,36.2-23.4c5.4-4.9,10.4-9.6,15.4-13.8c7.3-6,15-10.9,25.1-13.3c4.1-1,8.6-1.5,13.7-1.5
			c10.6,0,17.8,2.2,25.3,1.9C1582.1,515.5,1578.9,527.6,1589.9,533.1z"/>
		<path class="st17" d="M1604.8,522.6c-0.2,3.9-6.8,8.4-14.9,10.5c-0.2,0.1-0.5,0.1-1,0.2c-0.1,0-0.2,0-0.3,0.1
			c-5.1,1.1-10.6,1.2-15.5-0.5c-1.5-3.2,5.9-12,2.9-14.9c-0.5-0.4-1.2-1-2.2-1.6c-4.8-3.2-13-6.2-22.9-9.9c-7-2.7-14.8-5.8-22.9-9.8
			c0,0-0.1,0-0.1-0.1c-5.8-2.9-11.9-6.4-17.7-10.5c-5.8-4.1-11.6-8.9-16.8-14.5c-8.6-9-16.1-20.1-21.5-34
			c-10.9-28.2,43.7-12,43.7-12s7.2,1,18.7,7.7c2.5,1.4,5.2,3.1,8,5.2c14,9.8,32.2,27,51.3,57.2c3.7,5.7,6.5,12.3,9.6,19.1
			C1603.4,514.8,1605.4,518.8,1604.8,522.6z"/>
	</g>
	<path class="st14" d="M1547.1,262.5c0,0,8,0.4,14.1-11.1c6.2-11.4,13.5-7.5,13.9-7.6c0.4-0.1,11.8,5.7,13.1-0.5
		c1.2-6.4-20.9-21.1-32.9-14.1c-12.1,6.9-9.8,32.3-9.8,32.3"/>
	<path class="st17" d="M1561.6,329.2c0,0,42.8-18.1,62.2-26.7c19.5-8.5,31.5-31.1,51.1-40.7c19.5-9.6,22.9-12.8,22.9-12.8l2.1,6.3
		c0,0-34.7,47.9-55.7,53.8c-20.9,5.8-71.8,53.8-74.2,55.7c-2.4,1.9-12-22.9-12-22.9"/>
	<path class="st17" d="M1535.1,326.2l-2.6,7.8c0,0-47.1,31.5-68.3,43.1c-16.2,8.7-26.7,26.2-40.2,39.7c0,0,0,0,0,0.1
		c-4.2,4.2-8.7,8.1-13.8,11.1c-4.3,2.6-7.9,4.9-10.9,6.7c-0.1,0-0.1,0-0.1,0.1c-5.5,2.4-9.4,5.4-12.1,8.4l0,0
		c-1.2,1-1.6,1.4-1.6,1.4l-2.9-6.9c0,0,11-18.1,24.7-35.6c1.1-1.3,1.7-2.2,1.7-2.2c10.4-12.8,22-24.8,31.6-28.4
		c23.2-8.5,76.3-67.6,78.8-70.1C1521.9,299,1535.1,326.2,1535.1,326.2z"/>
	<path class="st18" d="M1424,416.8L1424,416.8c-2.8,4.9-13.5,13.2-24.7,17.9c-0.1,0-0.1,0-0.1,0.1c-5.5,2.4-9.4,5.4-12.1,8.4l0,0
		c-2.7,3-4.3,5.9-5.5,8.1c-2.4,4.2-8.5,9-11.6,9.2c-3,0.2,4-3.8,5.9-6.4c1.9-2.6,1.9-4.5,1.9-4.5s-14.4,11.3-19.7,19.3
		c0,0-4.2,9.9-5.4,8.6c-1.2-1.3-2.6-14.8,1.9-20.2c4.5-5.4,8.9-11.2,21.7-20.8c6.7-5,25.1-27.3,30.8-34.3c1.1-1.3,1.7-2.2,1.7-2.2
		s10.1-5.5,11.8-4.5C1422.3,396.4,1426.7,412,1424,416.8z"/>
	<path class="st18" d="M1674.3,286.3L1674.3,286.3c5.3-1.9,15.2-11.1,21.8-21.4c0-0.1,0-0.1,0.1-0.1c3.2-5.1,6.9-8.3,10.4-10.5l0,0
		c3.5-2.2,6.6-3.3,8.9-4.1c4.5-1.6,10.3-6.9,11-9.8c0.6-2.9-4.4,3.3-7.2,4.9c-2.9,1.5-4.9,1.2-4.9,1.2s4.9-5.7,13.5-10
		c6.3-3.1,13.4-10.5,12.3-11.9c-1.1-1.4-6.5,0.4-13.9,2.3c-6.9,1.7-13,5-24.5,16.1c-6,5.8-49.6,30.6-48.8,32.3
		C1653.5,276.8,1669,288.1,1674.3,286.3z"/>
	<path class="st18" d="M1350.3,598.7c-15.5,13.4-45.5,34-51.7,42.7c-7.7,10.5-19,31.6-33.6,42.1c-14.6,10.5-23.3,34.4-29.3,36.6
		c-5.8,2.2-9.4-2.1-15-7.9c-5.6-5.8,2.5-22.1,7.1-28c4.8-5.9,15.1-5.9,26.6-19.4c11.4-13.5,20.1-18.4,22.1-20.8
		c1.4-1.7,25.2-42.6,44.6-69.3c13.8-0.5,33-0.4,33.7,4C1355.2,581.4,1353,590,1350.3,598.7z"/>
	<path class="st18" d="M1569.6,532.5c0.1,2.2-0.5,4.5-1.5,6.8c-26.2,7.7-66.9,20.1-74.4,24.2c-10.5,5.8-28.4,19.2-44.7,22.5
		c-16.3,3.1-33,20-39,19.5c-5.8-0.4-7.1-5.4-9.6-12.5s10.7-17.7,17.1-20.8c6.3-3.1,15,0.9,30-6c15-6.9,24.1-7.9,26.9-9
		c24.7-9.7,37.4-25.6,51.6-37.3C1541.9,521.7,1569.4,526.1,1569.6,532.5z"/>
	<path class="st19" d="M1604.8,522.6c-0.2,3.9-6.8,8.4-14.9,10.5c-0.2,0.1-0.5,0.1-1,0.2c-0.1,0-0.2,0-0.3,0.1
		c-3.5,1-11,3.1-20.5,5.8c-15.2,4.4-35.2,10.5-50.9,15.5c-1.8-5.3-4.2-12.8-6.9-21.3c5.4-4.9,10.4-9.6,15.4-13.8
		c7.3-6,15-10.9,25.1-13.3c-7-2.7-14.8-5.8-22.9-9.8c0,0-0.1,0-0.1-0.1c-5.8-2.9-11.9-6.4-17.7-10.5c-5.8-4.1-11.6-8.9-16.8-14.5
		c2.6-8.2,7.6-28.7-1.3-47.3c1,0.8,16.5,13.5,30.4,13.5c4.5,0,8.4-1.8,11.8-4.6c7.2-5.8,11.9-15.8,14-19.3c3.1-5.2,0-17.7,0-17.7
		s-16.8-1.5-16.1-16.7c0,0,18.4,13.6,25.6,8.3c7.3-5.3,7.6-10.9,7.6-10.9s0.4,18.1,6.8,21.3c-2.2,1.4-4.5,2.3-7,2.2
		c0,0-17.3,18.6-23,38.1c14,9.8,32.2,27,51.3,57.2c3.7,5.7,6.5,12.3,9.6,19.1C1603.4,514.8,1605.4,518.8,1604.8,522.6z"/>
	<path class="st16" d="M1511.5,302.6c0,0,26.3,0.5,33.7,10.9c7.5,10.4,14.7,12.3,14.7,13.1c-0.1,0.8,9.2-0.5,9.2-0.5
		s1.2-12.6-8.7-13.1c0,0-7.5-3.3-21.3-19c-13.9-15.7-50.7,10-70.2,25.2C1449.4,334.1,1511.5,302.6,1511.5,302.6z"/>
</g>
<rect x="-129.4" y="1068.6" class="st6" width="2068.1" height="50.9"/>
</svg>
