<?xml version="1.0" encoding="utf-8"?>
<!-- Generator: Adobe Illustrator 23.1.0, SVG Export Plug-In . SVG Version: 6.00 Build 0)  -->
<svg version="1.1" id="Layer_1" xmlns="http://www.w3.org/2000/svg" xmlns:xlink="http://www.w3.org/1999/xlink" x="0px" y="0px"
	 viewBox="0 0 1920 1080" style="enable-background:new 0 0 1920 1080;" xml:space="preserve">
<style type="text/css">
	.st0{clip-path:url(#SVGID_2_);fill:url(#SVGID_3_);}
	.st1{clip-path:url(#SVGID_5_);fill:url(#SVGID_6_);}
	.st2{clip-path:url(#SVGID_8_);}
	.st3{fill:url(#SVGID_9_);}
	.st4{opacity:0.1;fill:#6988F9;enable-background:new    ;}
	.st5{fill:#CBFEFE;}
	.st6{fill:#FFFFFF;}
	.st7{clip-path:url(#SVGID_11_);}
	.st8{opacity:0.4;fill:#8FE2EA;enable-background:new    ;}
	.st9{opacity:0.4;}
	.st10{fill:#E3D2B4;}
	.st11{fill:#3E1E7D;}
	.st12{opacity:0.2;}
	.st13{fill:#331D74;}
	.st14{fill:#1D1B16;}
	.st15{fill:#FFCC99;}
	.st16{fill:#763CCE;}
	.st17{fill:#8EB7FF;}
	.st18{fill:#1C6CD9;}
	.st19{fill:#7AABFF;}
</style>
<g>
	<g>
		<defs>
			<rect id="SVGID_1_" x="-24.4" y="-26.2" width="1989.4" height="1119"/>
		</defs>
		<clipPath id="SVGID_2_">
			<use xlink:href="#SVGID_1_"  style="overflow:visible;"/>
		</clipPath>
		
			<linearGradient id="SVGID_3_" gradientUnits="userSpaceOnUse" x1="1809.8439" y1="1344.449" x2="602.8163" y2="197.4398" gradientTransform="matrix(1 0 0 -1 0 1080)">
			<stop  offset="2.423880e-03" style="stop-color:#A050FF"/>
			<stop  offset="0.2561" style="stop-color:#6989F8"/>
			<stop  offset="0.4957" style="stop-color:#3CB7F2"/>
			<stop  offset="0.7071" style="stop-color:#1CD8EE"/>
			<stop  offset="0.8825" style="stop-color:#08EDEB"/>
			<stop  offset="1" style="stop-color:#01F4EA"/>
		</linearGradient>
		<rect x="-24.4" y="-26.2" class="st0" width="1989.4" height="1119"/>
	</g>
	<g>
		<defs>
			<rect id="SVGID_4_" x="-24.4" y="-26.2" width="1989.4" height="1119"/>
		</defs>
		<clipPath id="SVGID_5_">
			<use xlink:href="#SVGID_4_"  style="overflow:visible;"/>
		</clipPath>
		
			<linearGradient id="SVGID_6_" gradientUnits="userSpaceOnUse" x1="180.1443" y1="1342.6188" x2="1760.5695" y2="-237.8065" gradientTransform="matrix(1 0 0 -1 0 1080)">
			<stop  offset="3.409785e-07" style="stop-color:#000444"/>
			<stop  offset="0.9285" style="stop-color:#984CF6"/>
			<stop  offset="0.929" style="stop-color:#994DF8"/>
			<stop  offset="0.932" style="stop-color:#A050FF"/>
		</linearGradient>
		<rect x="-44.8" y="-37.7" class="st1" width="2030.3" height="1130.5"/>
	</g>
	<g>
		<defs>
			<rect id="SVGID_7_" x="-24.4" y="-26.2" width="1989.4" height="1119"/>
		</defs>
		<clipPath id="SVGID_8_">
			<use xlink:href="#SVGID_7_"  style="overflow:visible;"/>
		</clipPath>
		<g class="st2">
			
				<linearGradient id="SVGID_9_" gradientUnits="userSpaceOnUse" x1="583.8246" y1="581.9655" x2="1985.4119" y2="581.9655" gradientTransform="matrix(1 0 0 -1 0 1080)">
				<stop  offset="0.4449" style="stop-color:#000959"/>
				<stop  offset="0.7252" style="stop-color:#00034B"/>
				<stop  offset="0.9883" style="stop-color:#000044"/>
			</linearGradient>
			<path class="st3" d="M1985.4,660.8v357c-4.7,1-9.3,2.1-14,3.1c-62.3,13.4-129.3,21.1-188.6-1.2
				c-126.6-48-162.1-208.2-279.9-272.7c-119.7-65.6-291.9-14.6-396.3-99.9c-117-95.4-69.8-299.3-195.1-385
				c-44.2-30.3-101.9-38.6-148.2-66c-50.7-29.9-83.3-79.8-112-128.9c-20.7-36-40.9-72.8-67.6-104.8h660.5
				c11.7,21.4,25.4,41.4,43.6,58.5c76.8,71.9,205.2,65.9,296,121.9c92.1,56.8,128.1,164.2,162.8,262c34.8,97.7,84.7,204,186.9,242.9
				C1950.7,654.1,1967.9,658.3,1985.4,660.8z"/>
			<g>
				<path class="st4" d="M893.9,319.8c-0.8-6.8-16.2-7.6-42.4-0.1c1,1.2,2,2.7,2.9,4c10.4-1.2,17.2-0.5,18.4,2.5
					c1.1,2.9-3.3,7.7-11.8,13.1c-0.2-0.9-0.5-1.9-0.7-2.7c-0.1-0.2-0.1-0.4-0.2-0.5c-0.7-2.3-1.7-4.6-2.6-6.6c0-0.1-0.1-0.2-0.1-0.3
					c-7.9-16.2-24-28.2-43.4-31.2l0,0c-1.5-0.2-2.9-0.4-4.5-0.5h-0.1c-1.5-0.1-3-0.2-4.6-0.2l0,0l0,0c-0.2,0-0.3,0-0.5,0
					c-2.9,0-5.7,0.2-8.5,0.6l0,0l0,0c-1.6,0.2-3,0.5-4.5,0.8c-0.2,0-0.3,0.1-0.5,0.1c-1.5,0.3-2.9,0.7-4.2,1.1h-0.1
					c-1.5,0.4-2.8,0.9-4.1,1.5c-0.1,0-0.2,0.1-0.3,0.1c-1.3,0.5-2.6,1-3.8,1.7c-0.2,0.1-0.4,0.2-0.5,0.3c-1.2,0.6-2.5,1.2-3.7,2
					c0,0-0.1,0-0.1,0.1c-1.1,0.6-2.3,1.3-3.4,2.2c-0.2,0.1-0.3,0.2-0.5,0.3c-0.3,0.2-0.6,0.4-1,0.7l0,0l0,0c-0.7,0.5-1.5,1-2.2,1.7
					c-0.2,0.1-0.4,0.3-0.5,0.4c-0.7,0.6-1.5,1.1-2.1,1.8c-0.1,0.1-0.1,0.1-0.2,0.2c-0.7,0.6-1.5,1.3-2.2,2.1l0,0
					c-2.2,2.2-4.2,4.6-6,7.1c-0.1,0.1-0.2,0.2-0.2,0.3c-0.5,0.7-0.9,1.5-1.5,2.1c-0.1,0.2-0.2,0.4-0.3,0.5c-0.4,0.6-0.8,1.3-1.1,2.1
					c-0.1,0.2-0.2,0.4-0.3,0.6c-0.4,0.7-0.7,1.5-1.1,2.2c-0.1,0.2-0.2,0.3-0.2,0.5c-0.6,1.3-1.1,2.7-1.7,4v0.1
					c-0.2,0.5-0.3,0.9-0.5,1.5c-0.1,0.2-0.1,0.4-0.2,0.6c-0.2,0.7-0.4,1.5-0.6,2.2c-0.1,0.3-0.2,0.6-0.2,0.9c-0.2,0.6-0.3,1.2-0.4,2
					c-0.1,0.3-0.1,0.7-0.2,1c-0.1,0.6-0.2,1.2-0.3,1.9l0,0v0.1c0,0.4-0.1,0.7-0.1,1.1c-0.1,0.7-0.1,1.3-0.2,2.1
					c0,0.3-0.1,0.6-0.1,0.9c-0.1,1-0.1,2.1-0.1,3.1c0,1.9,0.1,3.6,0.3,5.4c-21.2,10.9-33.9,20.8-31.7,26.2
					c2.2,5.4,18.8,5.1,42.4,0.1l0,0c3.5,4.6,7.9,8.7,12.7,12l0,0l0,0c8.9,6.1,19.8,9.9,31.5,10.5c1,0,2,0.1,3,0.1
					c1.1,0,2.2,0,3.3-0.1c0.3,0,0.7,0,1-0.1c0.7,0,1.5-0.1,2.2-0.2c0.4,0,0.8-0.1,1.1-0.1c0.7-0.1,1.3-0.2,2.1-0.3
					c0.4-0.1,0.8-0.1,1.1-0.2c0.7-0.1,1.3-0.3,2.1-0.4c0.3-0.1,0.7-0.1,1-0.2c0.8-0.2,1.6-0.4,2.4-0.6c0.2-0.1,0.4-0.1,0.6-0.2
					c2.1-0.6,4-1.2,6-2.1c0.2-0.1,0.4-0.2,0.5-0.2c0.8-0.3,1.6-0.6,2.3-1c0.2-0.1,0.4-0.2,0.6-0.3c0.7-0.3,1.5-0.7,2.2-1.1
					c0.2-0.1,0.4-0.2,0.6-0.3c0.7-0.4,1.6-0.8,2.3-1.3c0.1-0.1,0.2-0.1,0.4-0.2c2.7-1.7,5.3-3.5,7.6-5.6l0,0
					c0.6-0.5,1.2-1.1,1.9-1.7c0.1-0.1,0.2-0.2,0.3-0.3l0,0c0.1-0.1,0.1-0.1,0.2-0.2c0.5-0.5,1-1,1.6-1.7c0.1-0.1,0.2-0.2,0.3-0.3
					l0.1-0.1c0.1-0.1,0.1-0.1,0.2-0.2c0.5-0.5,1-1.1,1.6-1.8c0-0.1,0.1-0.1,0.1-0.2c7.1-8.6,11.7-19.3,12.2-30.9
					c0-0.8,0.1-1.8,0.1-2.6l0,0c0-1.1-0.1-2.4-0.1-3.5c0-0.3,0-0.6-0.1-0.9c0-0.3,0-0.6-0.1-0.9l0,0
					C883.5,335.1,894.6,325.5,893.9,319.8z M746.5,359.4c0-0.3-0.1-0.5-0.1-0.8C746.5,358.9,746.5,359.2,746.5,359.4z M734.9,374.9
					c-1.2-3,3.4-7.7,12-13.2c0-0.1,0-0.1,0-0.2c0.3,1.5,0.6,2.8,1,4.2l0,0l0,0c0.3,1.2,0.7,2.4,1.2,3.6c0,0,0,0,0,0.1
					c0.9,2.4,2,4.7,3.1,6.8c0,0,0,0.1,0.1,0.1c0.2,0.3,0.4,0.7,0.6,1C742.8,378.5,736.1,377.8,734.9,374.9z"/>
				<path class="st4" d="M1726.1,528.1c-21-19.7-55.3-19.7-76.4,0c-21,19.7-21,51.6,0,71.2c21,19.7,55.3,19.7,76.4,0
					C1747.1,579.7,1747.1,547.6,1726.1,528.1z"/>
				<path class="st4" d="M1265.5,189.1c-21-19.7-55.3-19.7-76.4,0c-21,19.7-21,51.6,0,71.2c21,19.7,55.3,19.7,76.4,0
					C1286.5,240.7,1286.5,208.8,1265.5,189.1z"/>
				<path class="st4" d="M1282.7,159.3c-5-4.7-13-4.7-17.9,0c-5,4.7-5,12.1,0,16.7c5,4.7,13,4.7,17.9,0
					C1287.7,171.4,1287.7,164,1282.7,159.3z"/>
			</g>
			<g>
				<ellipse class="st5" cx="396.9" cy="201.7" rx="3.4" ry="3.2"/>
				<path class="st5" d="M831.2,179.4c0,1.8-1.6,3.2-3.4,3.2s-3.4-1.5-3.4-3.2c0-1.8,1.6-3.2,3.4-3.2
					C829.6,176.2,831.2,177.6,831.2,179.4z"/>
				<path class="st5" d="M1801.7,427.1c0,1.8-1.6,3.2-3.4,3.2s-3.4-1.5-3.4-3.2s1.6-3.2,3.4-3.2S1801.7,425.4,1801.7,427.1z"/>
				<path class="st5" d="M919.8,624.9c0,1.3-1.1,2.4-2.6,2.4s-2.6-1-2.6-2.4s1.1-2.4,2.6-2.4C918.7,622.6,919.8,623.6,919.8,624.9z"
					/>
				<path class="st5" d="M1350.9,87.7c1,0.8,1.2,2.3,0.4,3.3c-0.8,1-2.4,1.1-3.4,0.4c-1-0.8-1.2-2.3-0.4-3.3
					C1348.3,87.1,1349.8,86.9,1350.9,87.7z"/>
				<path class="st5" d="M1798.3,334.5c0,3.3-2.8,5.9-6.3,5.9c-3.5,0-6.3-2.7-6.3-5.9c0-3.3,2.9-5.9,6.3-5.9
					C1795.5,328.6,1798.3,331.2,1798.3,334.5z"/>
				<path class="st5" d="M847.7,198.6c0,3.3-2.9,5.9-6.3,5.9s-6.3-2.7-6.3-5.9c0-3.3,2.8-5.9,6.3-5.9
					C844.9,192.7,847.7,195.3,847.7,198.6z"/>
				<path class="st5" d="M1420.9,314.2c0,3.3-2.9,5.9-6.3,5.9c-3.5,0-6.3-2.7-6.3-5.9s2.8-5.9,6.3-5.9
					C1418.1,308.3,1420.9,311,1420.9,314.2z"/>
				<path class="st5" d="M844.7,505c0,1.8-1.6,3.2-3.4,3.2s-3.4-1.5-3.4-3.2c0-1.8,1.6-3.2,3.4-3.2
					C843.2,501.7,844.7,503.2,844.7,505z"/>
				<path class="st5" d="M1333.3,91.9c0,1.8-1.6,3.2-3.4,3.2s-3.4-1.5-3.4-3.2c0-1.8,1.6-3.2,3.4-3.2S1333.3,90.2,1333.3,91.9z"/>
				<path class="st5" d="M1162.2,492c0,1.3-1.1,2.5-2.6,2.5c-1.5,0-2.6-1.1-2.6-2.5c0-1.3,1.1-2.5,2.6-2.5
					C1161.1,489.5,1162.2,490.7,1162.2,492z"/>
				<path class="st5" d="M1123.8,543.7c-1.5,0-2.6-1.1-2.6-2.5s1.1-2.5,2.6-2.5c1.5,0,2.6,1.1,2.6,2.5S1125.2,543.7,1123.8,543.7z"
					/>
				<ellipse class="st5" cx="1364.7" cy="753.2" rx="1.5" ry="1.3"/>
				<path class="st5" d="M920.1,676.6c0,0.7-0.6,1.3-1.3,1.3c-0.7,0-1.3-0.6-1.3-1.3c0-0.7,0.6-1.3,1.3-1.3
					C919.4,675.3,920.1,675.9,920.1,676.6z"/>
				<path class="st5" d="M1518.2,964.3c1.1,0.8,1.2,2.3,0.4,3.3c-0.8,1-2.5,1.1-3.6,0.4c-1.1-0.8-1.2-2.3-0.4-3.3
					C1515.5,963.6,1517.1,963.4,1518.2,964.3z"/>
				<path class="st5" d="M1015.3,602.7c1.1,0.8,1.2,2.3,0.4,3.3s-2.5,1.1-3.6,0.4c-1.1-0.8-1.2-2.3-0.4-3.3
					C1012.6,602,1014.1,601.9,1015.3,602.7z"/>
				<ellipse class="st5" cx="355" cy="126" rx="1.5" ry="1.3"/>
				<path class="st5" d="M1921.9,91.9c0,1.3-1.1,2.4-2.6,2.4c-1.5,0-2.6-1-2.6-2.4c0-1.3,1.1-2.4,2.6-2.4
					C1920.8,89.6,1921.9,90.6,1921.9,91.9z"/>
				<path class="st5" d="M1165.9,677.9c0,0.7-0.6,1.3-1.5,1.3s-1.5-0.6-1.5-1.3c0-0.7,0.6-1.3,1.5-1.3
					C1165.3,676.6,1165.9,677.2,1165.9,677.9z"/>
				<path class="st5" d="M109,124.7c0.1,0.7-0.5,1.3-1.2,1.5s-1.5-0.5-1.6-1.2s0.5-1.3,1.2-1.5C108.1,123.3,109,124,109,124.7z"/>
				<path class="st5" d="M1543.7,930.3c0.3,0.7,0,1.5-0.7,1.8c-0.7,0.3-1.6,0-1.9-0.7c-0.3-0.7,0-1.5,0.7-1.8
					C1542.6,929.3,1543.4,929.6,1543.7,930.3z"/>
				<path class="st6" d="M942.6,740.5l3.3,5.8c1.1,2,2.9,3.7,5,4.8l6,3.2c0.2,0.1,0.2,0.4,0,0.5l-6,3.2c-2.1,1.1-3.8,2.8-5,4.8
					l-3.3,5.8c-0.1,0.2-0.4,0.2-0.6,0l-3.3-5.8c-1.1-2-2.9-3.7-5-4.8l-6-3.2c-0.2-0.1-0.2-0.4,0-0.5l6-3.2c2.1-1.1,3.8-2.8,5-4.8
					l3.3-5.8C942.2,740.3,942.5,740.3,942.6,740.5z"/>
				<path class="st6" d="M1651.6,772.3l3.3,5.8c1.1,2,2.9,3.7,5,4.8l6,3.2c0.2,0.1,0.2,0.4,0,0.5l-6,3.2c-2.1,1.1-3.8,2.8-5,4.8
					l-3.3,5.8c-0.1,0.2-0.4,0.2-0.6,0l-3.3-5.8c-1.1-2-2.9-3.7-5-4.8l-6-3.2c-0.2-0.1-0.2-0.4,0-0.5l6-3.2c2.1-1.1,3.8-2.8,5-4.8
					l3.3-5.8C1651.2,772.1,1651.5,772.1,1651.6,772.3z"/>
				<path class="st6" d="M1050.1,210.7l3.4,5.8c1.1,2,3,3.7,5.2,4.8l6.2,3.2c0.2,0.1,0.2,0.4,0,0.5l-6.2,3.2
					c-2.2,1.1-3.9,2.8-5.2,4.8l-3.4,5.8c-0.1,0.2-0.5,0.2-0.6,0l-3.4-5.8c-1.1-2-3-3.7-5.2-4.8l-6.2-3.2c-0.2-0.1-0.2-0.4,0-0.5
					l6.2-3.2c2.2-1.1,3.9-2.8,5.2-4.8l3.4-5.8C1049.6,210.5,1050,210.5,1050.1,210.7z"/>
				<path class="st6" d="M524.4,162.1l1.2,2.2c0.4,0.7,1.1,1.3,2,1.8l2.4,1.2c0.1,0,0.1,0.2,0,0.2l-2.4,1.2c-0.8,0.4-1.5,1-2,1.8
					l-1.2,2.2c0,0.1-0.2,0.1-0.2,0l-1.2-2.2c-0.4-0.7-1.1-1.3-2-1.8l-2.4-1.1c-0.1,0-0.1-0.2,0-0.2l2.4-1.2c0.8-0.4,1.5-1,2-1.8
					l1.2-2.2C524.2,162.1,524.4,162.1,524.4,162.1z"/>
				<path class="st6" d="M1046,681l1.2,2.2c0.4,0.7,1.1,1.3,2,1.8l2.4,1.2c0.1,0,0.1,0.2,0,0.2l-2.4,1.2c-0.8,0.4-1.5,1-2,1.8
					l-1.2,2.2c0,0.1-0.2,0.1-0.2,0l-1.2-2.2c-0.4-0.7-1.1-1.3-2-1.8l-2.4-1.2c-0.1,0-0.1-0.2,0-0.2l2.4-1.2c0.8-0.4,1.5-1,2-1.8
					l1.2-2.2C1045.8,680.9,1046,680.9,1046,681z"/>
				<path class="st6" d="M1247.5,386.4l1.7,2.9c0.6,1,1.5,1.8,2.5,2.4l3.1,1.6c0.1,0.1,0.1,0.2,0,0.3l-3.1,1.6c-1,0.5-2,1.3-2.5,2.4
					l-1.7,2.9c-0.1,0.1-0.2,0.1-0.3,0l-1.7-2.9c-0.6-1-1.5-1.8-2.5-2.4l-3.1-1.6c-0.1-0.1-0.1-0.2,0-0.3l3.1-1.6
					c1-0.5,2-1.3,2.5-2.4l1.7-2.9C1247.3,386.3,1247.5,386.3,1247.5,386.4z"/>
				<path class="st6" d="M1733.4,167.6l1.7,2.9c0.6,1,1.5,1.8,2.5,2.4l3.1,1.6c0.1,0.1,0.1,0.2,0,0.3l-3.1,1.6c-1,0.5-2,1.3-2.5,2.4
					l-1.7,2.9c-0.1,0.1-0.2,0.1-0.3,0l-1.7-2.9c-0.6-1-1.5-1.8-2.5-2.4l-3.1-1.6c-0.1-0.1-0.1-0.2,0-0.3l3.1-1.6
					c1-0.5,2-1.3,2.5-2.4l1.7-2.9C1733.2,167.5,1733.4,167.5,1733.4,167.6z"/>
				<path class="st6" d="M1623.7,632l2.4,4c0.8,1.5,2.1,2.6,3.6,3.3l4.4,2.2c0.2,0.1,0.2,0.3,0,0.4l-4.4,2.2c-1.6,0.7-2.8,2-3.6,3.3
					l-2.4,4c-0.1,0.2-0.3,0.2-0.4,0l-2.4-4c-0.8-1.5-2.1-2.6-3.6-3.3l-4.4-2.2c-0.2-0.1-0.2-0.3,0-0.4l4.4-2.2
					c1.6-0.7,2.8-2,3.6-3.3l2.4-4C1623.4,631.8,1623.6,631.8,1623.7,632z"/>
			</g>
		</g>
	</g>
	<g>
		<defs>
			<rect id="SVGID_10_" x="-24.4" y="-26.2" width="1989.4" height="1119"/>
		</defs>
		<clipPath id="SVGID_11_">
			<use xlink:href="#SVGID_10_"  style="overflow:visible;"/>
		</clipPath>
		<g class="st7">
			<path class="st6" d="M1890.9,610.8c-17,32-14,69.6-15.3,105.4c-1.5,35.7-10.3,75.4-41.8,95.7c-45.2,29.2-110.2,3.1-160.7,23.5
				c-43.9,17.8-63.6,64.3-84.8,104.4c-21.1,40.1-57.7,82.7-105.4,78.4c-73.7-6.6-72.3-72.4-146.3-97.7c-47.1-16.2-74,15.5-125.7,6
				c-13.5-2.5-20.3-6.8-26.9-14c-35.5-39.2,21.5-140.8,38.7-171.5c16.8-29.9,45.7-73.7,94.5-118.4c-3.4-2-6.7-4.1-10.1-6.1
				c-39,46.1-76,81.1-104.9,105.9c-35.9,30.9-100.4,81.6-179.3,108.7c-9.4,3.2-16.2,4.5-24.7,6.2c-57.9,11.2-117.5-18-136.3-70.4
				c-18.8-52.3-7.9-109.3-9.5-164.5c-1.7-55.1-22.8-117.6-77.5-138.6c-36-13.8-79.1-6.3-113.3-23.7C576.6,397,613.9,252,490.4,255
				c-36.2,0.8-70.6,13.9-106.1,19.5c-35.6,5.7-76.9,2.1-100.5-23.4c-27.9-29.9-23.8-81.6-59.7-102.9c-26.4-15.7-39.4,5.9-111.4-3.2
				c-54.4-6.9-75.3-22.7-80.9-27.2C11.6,101.7,2.5,82.8-6.1,64.3C-16,43.3-31.1,2.5-28.6-54.8v1164.2h2014.2V579.3
				C1955.3,557.3,1907.9,578.8,1890.9,610.8z"/>
			<g>
				<path class="st8" d="M1565.5,391.9c-0.5,0.5-1.5,0.5-2.1,0c-0.5-0.5-0.5-1.3,0-2c0.5-0.5,1.5-0.5,2.1,0
					C1566.1,390.6,1566.1,391.4,1565.5,391.9z M1572.2,385.7c-0.5,0.5-1.5,0.5-2.1,0c-0.5-0.5-0.5-1.3,0-2c0.5-0.5,1.5-0.5,2.1,0
					C1572.7,384.3,1572.7,385.2,1572.2,385.7z M1578.8,379.5c-0.5,0.5-1.5,0.5-2.1,0c-0.5-0.5-0.5-1.3,0-2c0.5-0.5,1.5-0.5,2.1,0
					C1579.5,378.1,1579.5,379,1578.8,379.5z M1585.6,373.3c-0.5,0.5-1.5,0.5-2.1,0c-0.6-0.5-0.5-1.3,0-2c0.5-0.5,1.5-0.5,2.1,0
					C1586.1,371.8,1586.1,372.7,1585.6,373.3z M1592.3,366.9c-0.5,0.5-1.5,0.5-2.1,0c-0.5-0.5-0.5-1.3,0-2c0.5-0.6,1.5-0.5,2.1,0
					C1592.9,365.5,1592.8,366.4,1592.3,366.9z M1598.9,360.7c-0.5,0.5-1.5,0.5-2.1,0c-0.5-0.5-0.5-1.3,0-2c0.5-0.5,1.5-0.5,2.1,0
					C1599.6,359.4,1599.6,360.2,1598.9,360.7z M1605.7,354.5c-0.5,0.5-1.5,0.5-2.1,0c-0.5-0.5-0.5-1.3,0-2c0.5-0.5,1.5-0.5,2.1,0
					C1606.2,353.2,1606.2,354,1605.7,354.5z M1612.3,348.3c-0.5,0.5-1.5,0.5-2.1,0c-0.5-0.5-0.5-1.3,0-2c0.5-0.5,1.5-0.5,2.1,0
					S1612.9,347.8,1612.3,348.3z M1619,342.1c-0.5,0.5-1.5,0.5-2.1,0c-0.5-0.5-0.5-1.3,0-2c0.5-0.5,1.5-0.5,2.1,0
					C1619.6,340.6,1619.6,341.5,1619,342.1z M1558.8,396.3c-0.5-0.5-1.5-0.5-2.1,0c-0.5,0.5-0.5,1.3,0,2c0.5,0.5,1.5,0.5,2.1,0
					C1559.4,397.6,1559.4,396.8,1558.8,396.3z M1552.1,402.5c-0.5-0.5-1.5-0.5-2.1,0c-0.5,0.5-0.5,1.3,0,2c0.5,0.5,1.5,0.5,2.1,0
					C1552.7,403.9,1552.7,403,1552.1,402.5z M1545.5,408.7c-0.5-0.5-1.5-0.5-2.1,0c-0.5,0.5-0.5,1.3,0,2c0.5,0.5,1.5,0.5,2.1,0
					C1546,410.1,1546,409.3,1545.5,408.7z M1424.8,523.3c-0.5,0.5-1.5,0.5-2.1,0c-0.5-0.5-0.5-1.3,0-2c0.5-0.6,1.5-0.5,2.1,0
					C1425.4,521.8,1425.3,522.8,1424.8,523.3z M1431.4,517.1c-0.5,0.5-1.5,0.5-2.1,0c-0.6-0.5-0.5-1.3,0-2c0.5-0.5,1.5-0.5,2.1,0
					C1432,515.6,1432,516.5,1431.4,517.1z M1438.1,510.8c-0.5,0.5-1.5,0.5-2.1,0c-0.5-0.5-0.5-1.3,0-2c0.5-0.5,1.5-0.5,2.1,0
					C1438.6,509.4,1438.6,510.2,1438.1,510.8z M1444.8,504.5c-0.5,0.5-1.5,0.5-2.1,0c-0.5-0.5-0.5-1.3,0-2c0.5-0.6,1.5-0.5,2.1,0
					C1445.4,503.2,1445.4,504,1444.8,504.5z M1422.9,574.5c-0.5,0.5-1.5,0.5-2.1,0c-0.5-0.5-0.5-1.3,0-2c0.5-0.5,1.5-0.5,2.1,0
					C1423.5,573,1423.5,574,1422.9,574.5z M1429.6,568.3c-0.5,0.5-1.5,0.5-2.1,0c-0.5-0.5-0.5-1.3,0-2c0.5-0.6,1.5-0.5,2.1,0
					C1430.1,566.8,1430.1,567.7,1429.6,568.3z M1436.3,561.9c-0.5,0.5-1.5,0.5-2.1,0c-0.6-0.5-0.5-1.3,0-2c0.5-0.5,1.5-0.5,2.1,0
					C1436.9,560.6,1436.9,561.4,1436.3,561.9z M1443,555.7c-0.5,0.5-1.5,0.5-2.1,0c-0.5-0.5-0.5-1.3,0-2c0.5-0.5,1.5-0.5,2.1,0
					C1443.6,554.3,1443.5,555.2,1443,555.7z M1509.4,326c-0.5-0.5-0.5-1.3,0-2c0.5-0.5,1.5-0.5,2.1,0c0.5,0.5,0.5,1.3,0,2
					C1511,326.5,1510,326.5,1509.4,326z M1556.8,301.7c-0.5-0.5-0.5-1.3,0-2c0.5-0.5,1.5-0.5,2.1,0c0.5,0.5,0.5,1.3,0,2
					C1558.2,302.2,1557.3,302.2,1556.8,301.7z M1559.7,304.5c-0.5-0.5-0.5-1.3,0-2c0.5-0.5,1.5-0.5,2.1,0c0.5,0.5,0.5,1.3,0,2
					C1561.2,305,1560.3,305,1559.7,304.5z"/>
				<g class="st9">
					<path class="st10" d="M1653.1,665.9L1653.1,665.9c-1,0-1.8-0.7-1.8-1.7v-4.8c0-0.9,0.8-1.7,1.8-1.7l0,0c1,0,1.8,0.7,1.8,1.7
						v4.8C1654.9,665.1,1654.1,665.9,1653.1,665.9z"/>
					<path class="st10" d="M1665.3,665.9L1665.3,665.9c-1,0-1.8-0.7-1.8-1.7v-4.8c0-0.9,0.8-1.7,1.8-1.7l0,0c1,0,1.8,0.7,1.8,1.7
						v4.8C1667.1,665.1,1666.4,665.9,1665.3,665.9z"/>
					<path class="st10" d="M1677.7,665.9L1677.7,665.9c-1,0-1.8-0.7-1.8-1.7v-4.8c0-0.9,0.8-1.7,1.8-1.7l0,0c1,0,1.8,0.7,1.8,1.7
						v4.8C1679.4,665.1,1678.6,665.9,1677.7,665.9z"/>
					<path class="st10" d="M1689.9,665.9L1689.9,665.9c-1,0-1.8-0.7-1.8-1.7v-4.8c0-0.9,0.8-1.7,1.8-1.7l0,0c1,0,1.8,0.7,1.8,1.7
						v4.8C1691.7,665.1,1690.9,665.9,1689.9,665.9z"/>
					<path class="st10" d="M1702.2,665.9L1702.2,665.9c-1,0-1.8-0.7-1.8-1.7v-4.8c0-0.9,0.8-1.7,1.8-1.7l0,0c1,0,1.8,0.7,1.8,1.7
						v4.8C1704,665.1,1703.2,665.9,1702.2,665.9z"/>
					<path class="st10" d="M1714.5,665.9L1714.5,665.9c-1,0-1.8-0.7-1.8-1.7v-4.8c0-0.9,0.8-1.7,1.8-1.7l0,0c1,0,1.8,0.7,1.8,1.7
						v4.8C1716.2,665.1,1715.5,665.9,1714.5,665.9z"/>
					<path class="st10" d="M1727.9,665.9h-2.4c-0.3,0-0.6-0.3-0.6-0.6v-6.8c0-0.3,0.3-0.6,0.6-0.6h2.4c0.3,0,0.6,0.3,0.6,0.6v6.8
						C1728.6,665.7,1728.2,665.9,1727.9,665.9z"/>
					<path class="st10" d="M1739,665.9L1739,665.9c-1,0-1.8-0.7-1.8-1.7v-4.8c0-0.9,0.8-1.7,1.8-1.7l0,0c1,0,1.8,0.7,1.8,1.7v4.8
						C1740.8,665.1,1740.1,665.9,1739,665.9z"/>
				</g>
				<g class="st9">
					<path class="st11" d="M1601.6,292.4L1601.6,292.4c-0.7-0.6-0.7-1.7,0-2.4l3.5-3.3c0.7-0.6,1.9-0.6,2.5,0l0,0
						c0.7,0.6,0.7,1.7,0,2.4l-3.6,3.3C1603.5,293.1,1602.4,293.1,1601.6,292.4z"/>
					<path class="st11" d="M1610.3,300.5L1610.3,300.5c-0.7-0.6-0.7-1.7,0-2.4l3.6-3.3c0.7-0.6,1.9-0.6,2.5,0l0,0
						c0.7,0.6,0.7,1.7,0,2.4l-3.6,3.3C1612.2,301.1,1611.1,301.1,1610.3,300.5z"/>
					<path class="st11" d="M1619,308.6L1619,308.6c-0.7-0.6-0.7-1.7,0-2.4l3.6-3.3c0.7-0.6,1.9-0.6,2.5,0l0,0c0.7,0.6,0.7,1.7,0,2.4
						l-3.6,3.3C1620.9,309.2,1619.8,309.2,1619,308.6z"/>
					<path class="st11" d="M1627.7,316.7L1627.7,316.7c-0.7-0.6-0.7-1.7,0-2.4l3.5-3.3c0.7-0.6,1.9-0.6,2.5,0l0,0
						c0.7,0.6,0.7,1.7,0,2.4l-3.6,3.3C1629.5,317.3,1628.5,317.3,1627.7,316.7z"/>
					<path class="st11" d="M1636.4,324.8L1636.4,324.8c-0.7-0.6-0.7-1.7,0-2.4l3.6-3.3c0.7-0.6,1.9-0.6,2.5,0l0,0
						c0.7,0.6,0.7,1.7,0,2.4l-3.6,3.3C1638.2,325.4,1637.1,325.4,1636.4,324.8z"/>
					<path class="st11" d="M1645,332.9L1645,332.9c-0.7-0.6-0.7-1.7,0-2.4l3.6-3.3c0.7-0.6,1.9-0.6,2.5,0l0,0c0.7,0.6,0.7,1.7,0,2.4
						l-3.6,3.3C1646.9,333.6,1645.8,333.6,1645,332.9z"/>
					<path class="st11" d="M1653.7,341L1653.7,341c-0.7-0.6-0.7-1.7,0-2.4l3.5-3.3c0.7-0.6,1.9-0.6,2.5,0l0,0c0.7,0.6,0.7,1.7,0,2.4
						l-3.6,3.3C1655.6,341.7,1654.5,341.7,1653.7,341z"/>
					<path class="st11" d="M1662.4,349.1L1662.4,349.1c-0.7-0.6-0.7-1.7,0-2.4l3.6-3.3c0.7-0.6,1.9-0.6,2.5,0l0,0
						c0.7,0.6,0.7,1.7,0,2.4l-3.6,3.3C1664.3,349.7,1663.2,349.7,1662.4,349.1z"/>
					<path class="st11" d="M1671.2,357.2L1671.2,357.2c-0.7-0.6-0.7-1.7,0-2.4l3.6-3.3c0.7-0.6,1.9-0.6,2.5,0l0,0
						c0.7,0.6,0.7,1.7,0,2.4l-3.6,3.3C1672.9,357.8,1671.9,357.8,1671.2,357.2z"/>
				</g>
				<g class="st12">
					<path class="st13" d="M1268.1,551.3l-70.6,5.5c-0.2,0-0.3,0.1-0.5,0.2l-17.5,16.4l2.3-0.2l16.1-15l68.3-5.4l-16.8,15.6l2.3-0.2
						l17-15.9c0.2-0.2,0.3-0.5,0.1-0.8C1268.7,551.4,1268.4,551.2,1268.1,551.3z"/>
				</g>
				<g class="st12">
					<path class="st13" d="M1483.1,601.9l-25.6,23.9c-0.1,0.1-0.2,0.3-0.2,0.5v60.2c-27.8,34.1-64,66.9-89,88.1l-0.2,2.1
						c24.7-20.8,61-53.6,89.1-87.8v16.4c0.5-0.6,1-1.2,1.6-1.8v-76.8l24.2-22.7C1483,603.4,1483,602.7,1483.1,601.9z"/>
					<path class="st13" d="M1370.5,747l-0.2,2.2l16.5-15.4c0.1-0.1,0.2-0.3,0.2-0.4l5.9-65.8c0.1-0.3-0.1-0.5-0.4-0.7
						c-0.3-0.1-0.6-0.1-0.8,0.1l-16.1,14.9l-0.2,2.2l15.7-14.7l-5.7,63.6L1370.5,747z"/>
				</g>
			</g>
		</g>
	</g>
</g>
<g>
	<path class="st14" d="M1604.3,252.9c23-69-103.3-52.1-120-18.9c-16.7,33.3,0.6,49.3-30.2,48.8c-30.9-0.5-32.1,7.9-37.3,32.4
		c-5.2,24.5-32.4,33.8-32.4,33.8s21.6,40.3,90-15.6C1504,309.2,1595,281,1604.3,252.9z"/>
	<path class="st14" d="M1605.1,256.6c0,0,22.5-13.4-1.2-25.3c-13.4-6.7-76.8-15.1-91.1,63.4c-14.5,79.2-7.7,52.8-14.2,57.4
		c-5.5,3.8,6,141.8,62.3-13.9c11.8-32.7,19.3-73.3,22-78.6c2.7-5.3,24.7-8.8,24.7-8.8"/>
	<path class="st15" d="M1576.6,318.3c-0.6,0.1-1.5-28.6,3.4-34.7c4.9-6-16.4-15.9-16.4-15.9s-8.5,25.1-9.4,38.4
		c-0.8,13.4,25.5,9.2,25.5,9.2"/>
	<path class="st15" d="M1570.5,224.1c-0.4,0-10.5,27-5.6,45.4c4.9,18.3,18.5,26.3,23.1,24.5c2-0.8,6.8-5.1,11.5-12
		c6.5-9.5,5.1-15.9,9.1-34.1c1-4.6-3.2-9-6.8-12.7c-9.8-10.3-26.9-16.1-32-11.5"/>
	<path class="st15" d="M1564,250.9c0,0-7.8-6.3-8.3,9.1c-0.2,6.7,3.6,5.7,6.5,6c0.2,0,0,0-0.2,0.2c-0.3,0.3-4.6,46-4.6,46l6.1-7.9
		c0,0,5.1-24.6,4.6-26C1567.7,277,1568,252.1,1564,250.9z"/>
	<path class="st16" d="M1564.5,300.2c12.7-3.5-31.9-73-165.7,95.9c-115.6,146-233.6,94.1-238.8,94.3s-23.1,44.2,77.5,45.7
		c100.6,1.6,23.9,26.6,28.5,46.5c4.6,20,86.1,60.6,101.5,35.2c24.8-40.5,52.6-2,52.6-2s83.3-37.2,108.3-103.3s47.8-159.7,43.5-181.2
		C1567.6,309.8,1564.5,300.2,1564.5,300.2z"/>
	<path class="st17" d="M1588.2,381c-2.1,1.3-4.4,2.2-6.7,2.1c0,0-16.6,17.8-22.1,36.6c-0.7,2.4-1.2,4.8-1.5,7.1
		c-2.4,20.9-12.3,48.7-12.3,48.7s-0.1,0-0.1-0.1l-17-10.1l-59.1-34.9c0,0,6-22.2,51.7-40.1c28.6-11.3-4.5-108.4,26.4-107.4
		c11.5,0.4,43.4,34.3,45.8,45.1c2.4,10.8-0.7,33.5,1.6,39.4C1596.6,371.6,1593.3,377.8,1588.2,381z"/>
	<path class="st17" d="M1520.8,439c0,0-24.9,56.8-116.5,102.1c0,0-8.8,9.1-21.9,25.1c-1.6,2-4.1,4.4-7.5,7.1
		c-14.9,12.8-43.6,32.6-49.6,40.9c-7.4,10.1-18.2,30.4-32.2,40.4s-22.4,33.1-28.1,35.1c-5.6,2.1-9-2-14.4-7.6
		c-5.4-5.6,2.4-21.2,6.8-26.8c4.6-5.7,14.5-5.7,25.5-18.7c11-13,19.3-17.6,21.2-20c1.3-1.7,24.1-40.9,42.8-66.5
		c7.9-10.9,15-19.4,19.4-21.3c14.7-6.8,24.7-6.1,33.9-16c9.1-9.8,46.7-108.5,116.3-115.9C1586.2,389.4,1520.8,439,1520.8,439z"/>
	<g>
		<path class="st17" d="M1605,510.5c-0.2,0.1-0.5,0.1-0.9,0.2c-0.1,0-0.2,0-0.3,0.1c-3.3,0.9-10.6,3-19.7,5.6
			c-14.6,4.2-33.8,10.1-48.8,14.9c-11,3.6-19.6,6.6-22.7,8.4c-10.1,5.6-27.3,18.4-42.9,21.6c-15.6,3-31.7,19.2-37.4,18.8
			c-5.6-0.4-6.8-5.2-9.2-12s10.3-17,16.4-20c6-3,14.4,0.8,28.8-5.8s23.1-7.6,25.8-8.6c15.1-6,25.6-14.3,34.7-22.5
			c5.2-4.7,9.9-9.2,14.8-13.3c7-5.8,14.4-10.5,24-12.7c3.9-0.9,8.3-1.5,13.2-1.5c10.2,0,17.1,2.1,24.2,1.9
			C1597.6,493.6,1594.5,505.2,1605,510.5z"/>
		<path class="st17" d="M1619.3,500.5c-0.2,3.7-6.5,8.1-14.3,10.1c-0.2,0.1-0.5,0.1-0.9,0.2c-0.1,0-0.2,0-0.3,0.1
			c-4.9,1-10.2,1.1-14.9-0.5c-1.5-3.1,5.7-11.5,2.8-14.3c-0.5-0.4-1.1-0.9-2.1-1.6c-4.6-3.1-12.4-5.9-22-9.5
			c-6.7-2.6-14.2-5.6-22-9.4c0,0-0.1,0-0.1-0.1c-5.6-2.8-11.4-6.1-17-10.1c-5.6-3.9-11.1-8.5-16.2-13.9
			c-8.3-8.6-15.4-19.3-20.6-32.6c-10.5-27,42-11.5,42-11.5s6.9,0.9,17.9,7.4c2.4,1.3,5,3,7.7,5c13.5,9.4,30.9,25.9,49.2,54.9
			c3.5,5.5,6.2,11.8,9.2,18.3C1618,492.9,1619.9,496.8,1619.3,500.5z"/>
	</g>
	<path class="st14" d="M1564,250.9c0,0,7.7,0.4,13.6-10.7c5.9-11,13-7.1,13.4-7.3c0.4-0.1,11.3,5.5,12.5-0.5
		c1.1-6.1-20.1-20.2-31.6-13.6c-11.6,6.6-9.4,31-9.4,31"/>
	<path class="st17" d="M1577.9,314.8c0,0,41-17.4,59.7-25.6c18.8-8.2,30.3-29.8,49-39.1c18.8-9.2,22-12.3,22-12.3l2,6
		c0,0-33.3,46-53.5,51.6c-20.1,5.6-68.9,51.6-71.2,53.5c-2.3,1.9-11.5-22-11.5-22"/>
	<path class="st17" d="M1552.5,312l-2.5,7.5c0,0-45.2,30.3-65.6,41.3c-15.5,8.4-25.6,25.2-38.5,38.1c0,0,0,0,0,0.1
		c-4,4-8.4,7.8-13.3,10.7c-4.1,2.5-7.6,4.7-10.5,6.4c-0.1,0-0.1,0-0.1,0.1c-5.3,2.3-9,5.2-11.6,8.1l0,0c-1.1,0.9-1.6,1.3-1.6,1.3
		l-2.8-6.6c0,0,10.6-17.4,23.7-34.2c1-1.2,1.7-2.1,1.7-2.1c9.9-12.3,21.1-23.8,30.4-27.3c22.3-8.2,73.3-64.9,75.6-67.2
		C1539.7,285.9,1552.5,312,1552.5,312z"/>
	<path class="st18" d="M1445.9,398.9L1445.9,398.9c-2.7,4.7-13,12.6-23.7,17.2c-0.1,0-0.1,0-0.1,0.1c-5.3,2.3-9,5.2-11.6,8.1l0,0
		c-2.6,2.9-4.1,5.7-5.3,7.8c-2.3,4-8.2,8.6-11.1,8.8c-2.9,0.2,3.8-3.6,5.7-6.1c1.9-2.5,1.9-4.4,1.9-4.4s-13.8,10.9-18.9,18.5
		c0,0-4,9.5-5.2,8.3c-1.1-1.2-2.5-14.2,1.9-19.4s8.5-10.8,20.8-20c6.4-4.8,24-26.2,29.5-32.9c1-1.2,1.7-2.1,1.7-2.1
		s9.7-5.3,11.3-4.4C1444.2,379.4,1448.5,394.3,1445.9,398.9z"/>
	<path class="st18" d="M1686.1,273.7L1686.1,273.7c5.1-1.9,14.6-10.7,20.9-20.5c0-0.1,0-0.1,0.1-0.1c3.1-4.9,6.6-8,9.9-10.1l0,0
		c3.3-2.1,6.3-3.2,8.5-3.9c4.4-1.6,9.8-6.6,10.6-9.4c0.6-2.8-4.2,3.2-6.9,4.7c-2.8,1.5-4.7,1.1-4.7,1.1s4.7-5.5,13-9.6
		c6-3,12.8-10.1,11.8-11.4c-1-1.3-6.2,0.4-13.4,2.2c-6.6,1.7-12.4,4.8-23.5,15.4c-5.8,5.6-47.6,29.3-46.8,31
		C1666.1,264.6,1681,275.4,1686.1,273.7z"/>
	<path class="st18" d="M1375.1,573.4c-14.9,12.8-43.6,32.6-49.6,40.9c-7.4,10.1-18.2,30.4-32.2,40.4c-14,10.1-22.4,33.1-28.1,35.1
		c-5.6,2.1-9-2-14.4-7.6c-5.4-5.6,2.4-21.2,6.8-26.8c4.6-5.7,14.5-5.7,25.5-18.7c11-13,19.3-17.6,21.2-20
		c1.3-1.7,24.1-40.9,42.8-66.5c13.3-0.5,31.7-0.4,32.3,3.8C1379.9,556.8,1377.7,565.1,1375.1,573.4z"/>
	<path class="st18" d="M1585.5,509.9c0.1,2.1-0.5,4.4-1.5,6.5c-25.2,7.4-64.2,19.3-71.4,23.2c-10.1,5.6-27.3,18.4-42.9,21.6
		c-15.6,3-31.7,19.2-37.4,18.8c-5.6-0.4-6.8-5.2-9.2-12s10.3-17,16.4-20c6-3,14.4,0.8,28.8-5.8c14.4-6.6,23.1-7.6,25.8-8.6
		c23.7-9.3,35.9-24.6,49.5-35.7C1559,499.6,1585.3,503.8,1585.5,509.9z"/>
	<path class="st19" d="M1619.3,500.5c-0.2,3.7-6.5,8.1-14.3,10.1c-0.2,0.1-0.5,0.1-0.9,0.2c-0.1,0-0.2,0-0.3,0.1
		c-3.3,0.9-10.6,3-19.7,5.6c-14.6,4.2-33.8,10.1-48.8,14.9c-1.8-5.1-4-12.3-6.6-20.4c5.2-4.7,9.9-9.2,14.8-13.3
		c7-5.8,14.4-10.5,24-12.7c-6.7-2.6-14.2-5.6-22-9.4c0,0-0.1,0-0.1-0.1c-5.6-2.8-11.4-6.1-17-10.1c-5.6-3.9-11.1-8.5-16.2-13.9
		c2.5-7.9,7.3-27.6-1.2-45.4c0.9,0.7,15.9,13,29.2,13c4.4,0,8.1-1.8,11.3-4.5c6.9-5.6,11.4-15.1,13.5-18.5c3-5,0-17,0-17
		s-16.2-1.5-15.4-16.1c0,0,17.6,13.1,24.6,8c7-5.1,7.3-10.5,7.3-10.5s0.4,17.4,6.5,20.4c-2.1,1.3-4.4,2.2-6.7,2.1
		c0,0-16.6,17.8-22.1,36.6c13.5,9.4,30.9,25.9,49.2,54.9c3.5,5.5,6.2,11.8,9.2,18.3C1618,492.9,1619.9,496.8,1619.3,500.5z"/>
	<path class="st16" d="M1529.8,289.3c0,0,25.3,0.5,32.3,10.5c7.1,9.9,14.1,11.8,14.1,12.5c-0.1,0.7,8.8-0.5,8.8-0.5
		s1.1-12.1-8.4-12.5c0,0-7.1-3.2-20.4-18.2c-13.4-15-48.7,9.6-67.3,24.1C1470.2,319.6,1529.8,289.3,1529.8,289.3z"/>
</g>
</svg>
