<?xml version="1.0" encoding="utf-8"?>
<!-- Generator: Adobe Illustrator 23.1.0, SVG Export Plug-In . SVG Version: 6.00 Build 0)  -->
<svg version="1.1" id="Layer_1" xmlns="http://www.w3.org/2000/svg" xmlns:xlink="http://www.w3.org/1999/xlink" x="0px" y="0px"
	 viewBox="0 0 1920 1080" style="enable-background:new 0 0 1920 1080;" xml:space="preserve">
<style type="text/css">
	.st0{clip-path:url(#SVGID_2_);fill:url(#SVGID_3_);}
	.st1{clip-path:url(#SVGID_2_);fill:url(#SVGID_4_);}
	.st2{clip-path:url(#SVGID_2_);}
	.st3{fill:url(#SVGID_5_);}
	.st4{opacity:0.1;fill:#6988F9;}
	.st5{fill:#CBFEFE;}
	.st6{fill:#FFFFFF;}
	.st7{opacity:0.4;fill:#8FE2EA;}
	.st8{opacity:0.4;}
	.st9{fill:#E3D2B4;}
	.st10{fill:#3E1E7D;}
	.st11{opacity:0.2;}
	.st12{fill:#331D74;}
	.st13{fill:#1D1B16;}
	.st14{fill:#FFCC99;}
	.st15{fill:#763CCE;}
	.st16{fill:#8EB7FF;}
	.st17{fill:#1C6CD9;}
	.st18{fill:#7AABFF;}
</style>
<g>
	<defs>
		<rect id="SVGID_1_" width="1920" height="1080"/>
	</defs>
	<clipPath id="SVGID_2_">
		<use xlink:href="#SVGID_1_"  style="overflow:visible;"/>
	</clipPath>
	<linearGradient id="SVGID_3_" gradientUnits="userSpaceOnUse" x1="1770.2557" y1="-229.9664" x2="605.3293" y2="877.0349">
		<stop  offset="2.423880e-03" style="stop-color:#A050FF"/>
		<stop  offset="0.2561" style="stop-color:#6989F8"/>
		<stop  offset="0.4957" style="stop-color:#3CB7F2"/>
		<stop  offset="0.7071" style="stop-color:#1CD8EE"/>
		<stop  offset="0.8825" style="stop-color:#08EDEB"/>
		<stop  offset="1" style="stop-color:#01F4EA"/>
	</linearGradient>
	<rect class="st0" width="1920" height="1080"/>
	<linearGradient id="SVGID_4_" gradientUnits="userSpaceOnUse" x1="197.3472" y1="-228.2115" x2="1722.6501" y2="1297.0914">
		<stop  offset="3.409785e-07" style="stop-color:#000444"/>
		<stop  offset="0.9285" style="stop-color:#984CF6"/>
		<stop  offset="0.929" style="stop-color:#994DF8"/>
		<stop  offset="0.932" style="stop-color:#A050FF"/>
	</linearGradient>
	<rect x="-19.7" y="-11.1" class="st1" width="1959.5" height="1091.1"/>
	<g class="st2">
		<linearGradient id="SVGID_5_" gradientUnits="userSpaceOnUse" x1="586.9956" y1="505.8946" x2="1939.7416" y2="505.8946">
			<stop  offset="0.4449" style="stop-color:#000959"/>
			<stop  offset="0.7252" style="stop-color:#00034B"/>
			<stop  offset="0.9883" style="stop-color:#000044"/>
		</linearGradient>
		<path class="st3" d="M1939.7,663v344.5c-4.5,1-9,2-13.5,3c-60.1,12.9-124.8,20.4-182-1.2c-122.2-46.3-156.4-200.9-270.1-263.2
			c-115.5-63.3-281.7-14.1-382.5-96.4c-112.9-92.1-67.4-288.9-188.3-371.6c-42.7-29.2-98.3-37.3-143-63.7
			c-48.9-28.9-80.4-77-108.1-124.4C632.2,55.3,612.7,19.7,587-11.1h637.5c11.3,20.7,24.5,40,42.1,56.5
			c74.1,69.4,198,63.6,285.7,117.6c88.9,54.8,123.6,158.5,157.1,252.9c33.6,94.3,81.7,196.9,180.4,234.4
			C1906.2,656.5,1922.8,660.6,1939.7,663z"/>
		<g>
			<path class="st4" d="M886.3,333.9c-0.8-6.6-15.6-7.3-40.9-0.1c1,1.2,1.9,2.6,2.8,3.9c10-1.2,16.6-0.5,17.8,2.4
				c1.1,2.8-3.2,7.4-11.4,12.6c-0.2-0.9-0.5-1.8-0.7-2.6c-0.1-0.2-0.1-0.4-0.2-0.5c-0.7-2.2-1.6-4.4-2.5-6.4c0-0.1-0.1-0.2-0.1-0.3
				c-7.6-15.6-23.2-27.2-41.9-30.1c0,0,0,0,0,0c-1.4-0.2-2.8-0.4-4.3-0.5c0,0-0.1,0-0.1,0c-1.4-0.1-2.9-0.2-4.4-0.2c0,0,0,0,0,0h0
				c-0.2,0-0.3,0-0.5,0c-2.8,0-5.5,0.2-8.2,0.6l0,0c0,0,0,0,0,0c-1.5,0.2-2.9,0.5-4.3,0.8c-0.2,0-0.3,0.1-0.5,0.1
				c-1.4,0.3-2.8,0.7-4.1,1.1c0,0-0.1,0-0.1,0c-1.4,0.4-2.7,0.9-4,1.4c-0.1,0-0.2,0.1-0.3,0.1c-1.3,0.5-2.5,1-3.7,1.6
				c-0.2,0.1-0.4,0.2-0.5,0.3c-1.2,0.6-2.4,1.2-3.6,1.9c0,0-0.1,0-0.1,0.1c-1.1,0.6-2.2,1.3-3.3,2.1c-0.2,0.1-0.3,0.2-0.5,0.3
				c-0.3,0.2-0.6,0.4-1,0.7c0,0,0,0,0,0c0,0,0,0,0,0c-0.7,0.5-1.4,1-2.1,1.6c-0.2,0.1-0.4,0.3-0.5,0.4c-0.7,0.6-1.4,1.1-2,1.7
				c-0.1,0.1-0.1,0.1-0.2,0.2c-0.7,0.6-1.4,1.3-2.1,2c0,0,0,0,0,0c-2.1,2.1-4.1,4.4-5.8,6.9c-0.1,0.1-0.2,0.2-0.2,0.3
				c-0.5,0.7-0.9,1.4-1.4,2c-0.1,0.2-0.2,0.4-0.3,0.5c-0.4,0.6-0.8,1.3-1.1,2c-0.1,0.2-0.2,0.4-0.3,0.6c-0.4,0.7-0.7,1.4-1.1,2.1
				c-0.1,0.2-0.2,0.3-0.2,0.5c-0.6,1.3-1.1,2.6-1.6,3.9c0,0,0,0.1,0,0.1c-0.2,0.5-0.3,0.9-0.5,1.4c-0.1,0.2-0.1,0.4-0.2,0.6
				c-0.2,0.7-0.4,1.4-0.6,2.1c-0.1,0.3-0.2,0.6-0.2,0.9c-0.2,0.6-0.3,1.2-0.4,1.9c-0.1,0.3-0.1,0.7-0.2,1c-0.1,0.6-0.2,1.2-0.3,1.8
				c0,0,0,0,0,0c0,0,0,0.1,0,0.1c0,0.4-0.1,0.7-0.1,1.1c-0.1,0.7-0.1,1.3-0.2,2c0,0.3-0.1,0.6-0.1,0.9c-0.1,1-0.1,2-0.1,3
				c0,1.8,0.1,3.5,0.3,5.2c-20.5,10.5-32.7,20.1-30.6,25.3c2.1,5.2,18.1,4.9,40.9,0.1c0,0,0,0,0,0c3.4,4.4,7.6,8.4,12.3,11.6l0,0
				c0,0,0,0,0,0c8.6,5.9,19.1,9.6,30.4,10.1c1,0,1.9,0.1,2.9,0.1c1.1,0,2.1,0,3.2-0.1c0.3,0,0.7,0,1-0.1c0.7,0,1.4-0.1,2.1-0.2
				c0.4,0,0.8-0.1,1.1-0.1c0.7-0.1,1.3-0.2,2-0.3c0.4-0.1,0.8-0.1,1.1-0.2c0.7-0.1,1.3-0.3,2-0.4c0.3-0.1,0.7-0.1,1-0.2
				c0.8-0.2,1.5-0.4,2.3-0.6c0.2-0.1,0.4-0.1,0.6-0.2c2-0.6,3.9-1.2,5.8-2c0.2-0.1,0.4-0.2,0.5-0.2c0.8-0.3,1.5-0.6,2.2-1
				c0.2-0.1,0.4-0.2,0.6-0.3c0.7-0.3,1.4-0.7,2.1-1.1c0.2-0.1,0.4-0.2,0.6-0.3c0.7-0.4,1.5-0.8,2.2-1.3c0.1-0.1,0.2-0.1,0.4-0.2
				c2.6-1.6,5.1-3.4,7.3-5.4c0,0,0,0,0,0c0.6-0.5,1.2-1.1,1.8-1.6c0.1-0.1,0.2-0.2,0.3-0.3c0,0,0,0,0,0c0.1-0.1,0.1-0.1,0.2-0.2
				c0.5-0.5,1-1,1.5-1.6c0.1-0.1,0.2-0.2,0.3-0.3c0,0,0.1-0.1,0.1-0.1c0.1-0.1,0.1-0.1,0.2-0.2c0.5-0.5,1-1.1,1.5-1.7
				c0-0.1,0.1-0.1,0.1-0.2c6.9-8.3,11.3-18.6,11.8-29.8c0-0.8,0.1-1.7,0.1-2.5c0,0,0,0,0,0c0-1.1-0.1-2.3-0.1-3.4
				c0-0.3,0-0.6-0.1-0.9c0-0.3,0-0.6-0.1-0.9c0,0,0,0,0,0C876.2,348.7,886.9,339.4,886.3,333.9z M744,372.1c0-0.3-0.1-0.5-0.1-0.8
				C744,371.6,744,371.9,744,372.1z M732.8,387.1c-1.2-2.9,3.3-7.4,11.6-12.7c0-0.1,0-0.1,0-0.2c0.3,1.4,0.6,2.7,1,4.1l0,0
				c0,0,0,0,0,0c0.3,1.2,0.7,2.3,1.2,3.5c0,0,0,0,0,0.1c0.9,2.3,1.9,4.5,3,6.6c0,0,0,0.1,0.1,0.1c0.2,0.3,0.4,0.7,0.6,1
				C740.4,390.6,734,389.9,732.8,387.1z"/>
			<path class="st4" d="M1689.4,534.9c-20.3-19-53.4-19-73.7,0c-20.3,19-20.3,49.8,0,68.7c20.3,19,53.4,19,73.7,0
				C1709.7,584.7,1709.7,553.8,1689.4,534.9z"/>
			<path class="st4" d="M1244.9,207.8c-20.3-19-53.4-19-73.7,0c-20.3,19-20.3,49.8,0,68.7c20.3,19,53.4,19,73.7,0
				C1265.2,257.6,1265.2,226.8,1244.9,207.8z"/>
			<path class="st4" d="M1261.5,179c-4.8-4.5-12.5-4.5-17.3,0c-4.8,4.5-4.8,11.7,0,16.1c4.8,4.5,12.5,4.5,17.3,0
				C1266.3,190.7,1266.3,183.5,1261.5,179z"/>
		</g>
		<g>
			<ellipse class="st5" cx="406.6" cy="219.9" rx="3.3" ry="3.1"/>
			<path class="st5" d="M825.7,198.4c0,1.7-1.5,3.1-3.3,3.1c-1.8,0-3.3-1.4-3.3-3.1c0-1.7,1.5-3.1,3.3-3.1
				C824.2,195.3,825.7,196.7,825.7,198.4z"/>
			<path class="st5" d="M1762.4,437.5c0,1.7-1.5,3.1-3.3,3.1c-1.8,0-3.3-1.4-3.3-3.1c0-1.7,1.5-3.1,3.3-3.1
				C1760.9,434.4,1762.4,435.8,1762.4,437.5z"/>
			<path class="st5" d="M911.3,628.4c0,1.3-1.1,2.3-2.5,2.3c-1.4,0-2.5-1-2.5-2.3c0-1.3,1.1-2.3,2.5-2.3
				C910.2,626.1,911.3,627.1,911.3,628.4z"/>
			<path class="st5" d="M1327.3,109.9c1,0.8,1.2,2.2,0.4,3.2s-2.3,1.1-3.3,0.4c-1-0.8-1.2-2.2-0.4-3.2
				C1324.8,109.3,1326.3,109.1,1327.3,109.9z"/>
			<path class="st5" d="M1759.1,348.1c0,3.2-2.7,5.7-6.1,5.7c-3.4,0-6.1-2.6-6.1-5.7c0-3.2,2.8-5.7,6.1-5.7
				C1756.4,342.4,1759.1,344.9,1759.1,348.1z"/>
			<path class="st5" d="M841.7,216.9c0,3.2-2.8,5.7-6.1,5.7s-6.1-2.6-6.1-5.7c0-3.2,2.7-5.7,6.1-5.7S841.7,213.7,841.7,216.9z"/>
			<path class="st5" d="M1394.9,328.5c0,3.2-2.8,5.7-6.1,5.7c-3.4,0-6.1-2.6-6.1-5.7s2.7-5.7,6.1-5.7
				C1392.2,322.8,1394.9,325.4,1394.9,328.5z"/>
			<path class="st5" d="M838.8,512.6c0,1.7-1.5,3.1-3.3,3.1c-1.8,0-3.3-1.4-3.3-3.1c0-1.7,1.5-3.1,3.3-3.1
				C837.3,509.5,838.8,510.9,838.8,512.6z"/>
			<path class="st5" d="M1310.3,114c0,1.7-1.5,3.1-3.3,3.1c-1.8,0-3.3-1.4-3.3-3.1c0-1.7,1.5-3.1,3.3-3.1
				C1308.8,110.9,1310.3,112.3,1310.3,114z"/>
			<path class="st5" d="M1145.2,500.1c0,1.3-1.1,2.4-2.5,2.4s-2.5-1.1-2.5-2.4c0-1.3,1.1-2.4,2.5-2.4S1145.2,498.8,1145.2,500.1z"/>
			<path class="st5" d="M1108.1,550c-1.4,0-2.5-1.1-2.5-2.4s1.1-2.4,2.5-2.4c1.4,0,2.5,1.1,2.5,2.4S1109.5,550,1108.1,550z"/>
			<ellipse class="st5" cx="1340.6" cy="752.2" rx="1.4" ry="1.3"/>
			<path class="st5" d="M911.5,678.3c0,0.7-0.6,1.3-1.3,1.3c-0.7,0-1.3-0.6-1.3-1.3c0-0.7,0.6-1.3,1.3-1.3
				C910.9,677,911.5,677.6,911.5,678.3z"/>
			<path class="st5" d="M1488.8,955.9c1.1,0.8,1.2,2.2,0.4,3.2c-0.8,1-2.4,1.1-3.5,0.4c-1.1-0.8-1.2-2.2-0.4-3.2
				C1486.2,955.2,1487.7,955.1,1488.8,955.9z"/>
			<path class="st5" d="M1003.4,606.9c1.1,0.8,1.2,2.2,0.4,3.2c-0.8,1-2.4,1.1-3.5,0.4c-1.1-0.8-1.2-2.2-0.4-3.2
				C1000.8,606.3,1002.3,606.2,1003.4,606.9z"/>
			<ellipse class="st5" cx="366.2" cy="146.9" rx="1.4" ry="1.3"/>
			<path class="st5" d="M1878.4,114c0,1.3-1.1,2.3-2.5,2.3c-1.4,0-2.5-1-2.5-2.3c0-1.3,1.1-2.3,2.5-2.3
				C1877.3,111.7,1878.4,112.7,1878.4,114z"/>
			<path class="st5" d="M1148.8,679.5c0,0.7-0.6,1.3-1.4,1.3c-0.8,0-1.4-0.6-1.4-1.3c0-0.7,0.6-1.3,1.4-1.3
				C1148.2,678.3,1148.8,678.8,1148.8,679.5z"/>
			<path class="st5" d="M128.7,145.6c0.1,0.7-0.5,1.3-1.2,1.4s-1.4-0.5-1.5-1.2c-0.1-0.7,0.5-1.3,1.2-1.4S128.7,144.9,128.7,145.6z"
				/>
			<path class="st5" d="M1513.4,923.1c0.3,0.7,0,1.4-0.7,1.7c-0.7,0.3-1.5,0-1.8-0.7c-0.3-0.7,0-1.4,0.7-1.7
				C1512.3,922.1,1513.1,922.4,1513.4,923.1z"/>
			<path class="st6" d="M933.3,739.9l3.2,5.6c1.1,1.9,2.8,3.6,4.8,4.6l5.8,3.1c0.2,0.1,0.2,0.4,0,0.5l-5.8,3.1
				c-2,1.1-3.7,2.7-4.8,4.6l-3.2,5.6c-0.1,0.2-0.4,0.2-0.6,0l-3.2-5.6c-1.1-1.9-2.8-3.6-4.8-4.6l-5.8-3.1c-0.2-0.1-0.2-0.4,0-0.5
				l5.8-3.1c2-1.1,3.7-2.7,4.8-4.6l3.2-5.6C932.9,739.7,933.2,739.7,933.3,739.9z"/>
			<path class="st6" d="M1617.5,770.6l3.2,5.6c1.1,1.9,2.8,3.6,4.8,4.6l5.8,3.1c0.2,0.1,0.2,0.4,0,0.5l-5.8,3.1
				c-2,1.1-3.7,2.7-4.8,4.6l-3.2,5.6c-0.1,0.2-0.4,0.2-0.6,0l-3.2-5.6c-1.1-1.9-2.8-3.6-4.8-4.6l-5.8-3.1c-0.2-0.1-0.2-0.4,0-0.5
				l5.8-3.1c2-1.1,3.7-2.7,4.8-4.6l3.2-5.6C1617.1,770.4,1617.4,770.4,1617.5,770.6z"/>
			<path class="st6" d="M1037,228.6l3.3,5.6c1.1,1.9,2.9,3.6,5,4.6l6,3.1c0.2,0.1,0.2,0.4,0,0.5l-6,3.1c-2.1,1.1-3.8,2.7-5,4.6
				l-3.3,5.6c-0.1,0.2-0.5,0.2-0.6,0l-3.3-5.6c-1.1-1.9-2.9-3.6-5-4.6l-6-3.1c-0.2-0.1-0.2-0.4,0-0.5l6-3.1c2.1-1.1,3.8-2.7,5-4.6
				l3.3-5.6C1036.5,228.4,1036.9,228.4,1037,228.6z"/>
			<path class="st6" d="M529.6,181.7l1.2,2.1c0.4,0.7,1.1,1.3,1.9,1.7l2.3,1.2c0.1,0,0.1,0.2,0,0.2l-2.3,1.2c-0.8,0.4-1.4,1-1.9,1.7
				l-1.2,2.1c0,0.1-0.2,0.1-0.2,0l-1.2-2.1c-0.4-0.7-1.1-1.3-1.9-1.7L524,187c-0.1,0-0.1-0.2,0-0.2l2.3-1.2c0.8-0.4,1.4-1,1.9-1.7
				l1.2-2.1C529.5,181.7,529.6,181.7,529.6,181.7z"/>
			<path class="st6" d="M1033.1,682.5l1.2,2.1c0.4,0.7,1.1,1.3,1.9,1.7l2.3,1.2c0.1,0,0.1,0.2,0,0.2l-2.3,1.2
				c-0.8,0.4-1.4,1-1.9,1.7l-1.2,2.1c0,0.1-0.2,0.1-0.2,0l-1.2-2.1c-0.4-0.7-1.1-1.3-1.9-1.7l-2.3-1.2c-0.1,0-0.1-0.2,0-0.2l2.3-1.2
				c0.8-0.4,1.4-1,1.9-1.7l1.2-2.1C1032.9,682.4,1033.1,682.4,1033.1,682.5z"/>
			<path class="st6" d="M1227.5,398.2l1.6,2.8c0.6,1,1.4,1.7,2.4,2.3l3,1.5c0.1,0.1,0.1,0.2,0,0.3l-3,1.5c-1,0.5-1.9,1.3-2.4,2.3
				l-1.6,2.8c-0.1,0.1-0.2,0.1-0.3,0l-1.6-2.8c-0.6-1-1.4-1.7-2.4-2.3l-3-1.5c-0.1-0.1-0.1-0.2,0-0.3l3-1.5c1-0.5,1.9-1.3,2.4-2.3
				l1.6-2.8C1227.3,398.1,1227.5,398.1,1227.5,398.2z"/>
			<path class="st6" d="M1696.5,187l1.6,2.8c0.6,1,1.4,1.7,2.4,2.3l3,1.5c0.1,0.1,0.1,0.2,0,0.3l-3,1.5c-1,0.5-1.9,1.3-2.4,2.3
				l-1.6,2.8c-0.1,0.1-0.2,0.1-0.3,0l-1.6-2.8c-0.6-1-1.4-1.7-2.4-2.3l-3-1.5c-0.1-0.1-0.1-0.2,0-0.3l3-1.5c1-0.5,1.9-1.3,2.4-2.3
				l1.6-2.8C1696.3,186.9,1696.5,186.9,1696.5,187z"/>
			<path class="st6" d="M1590.6,635.2l2.3,3.9c0.8,1.4,2,2.5,3.5,3.2l4.2,2.1c0.2,0.1,0.2,0.3,0,0.4l-4.2,2.1
				c-1.5,0.7-2.7,1.9-3.5,3.2l-2.3,3.9c-0.1,0.2-0.3,0.2-0.4,0l-2.3-3.9c-0.8-1.4-2-2.5-3.5-3.2l-4.2-2.1c-0.2-0.1-0.2-0.3,0-0.4
				l4.2-2.1c1.5-0.7,2.7-1.9,3.5-3.2l2.3-3.9C1590.3,635,1590.5,635,1590.6,635.2z"/>
		</g>
	</g>
	<g class="st2">
		<path class="st6" d="M1848.5,614.8c-16.4,30.9-13.5,67.2-14.8,101.7c-1.4,34.5-9.9,72.8-40.3,92.4c-43.6,28.2-106.4,3-155.1,22.7
			c-42.4,17.2-61.4,62.1-81.8,100.8s-55.7,79.8-101.7,75.7c-71.1-6.4-69.8-69.9-141.2-94.3c-45.5-15.6-71.4,15-121.3,5.8
			c-118.6-21.9,102.6-293.3,102.6-293.3c0,0-6.2-15.4-6.2-15.4s-206.9,204.4-301.7,222.6c-55.9,10.8-113.4-17.4-131.5-67.9
			c-18.1-50.5-7.6-105.5-9.2-158.8c-1.6-53.2-22-113.5-74.8-133.8c-34.7-13.3-76.3-6.1-109.3-22.9
			c-82.2-41.7-46.2-181.6-165.4-178.7c-34.9,0.8-68.1,13.4-102.4,18.8c-34.4,5.5-74.2,2-97-22.6c-26.9-28.9-23-78.8-57.6-99.3
			c-30.8-18.3-71-0.9-107.5-3.1c-32.1-1.9-62.5-20.7-76.7-47.6C31.4,72.4,76.3,24.2,33.1-16.1C23.6-24.9,8.8-29.4-4.1-27.6v1123.6
			h1943.9V584.4C1910.6,563.1,1864.9,583.9,1848.5,614.8z"/>
		<g>
			<path class="st7" d="M1534.4,403.5c-0.5,0.5-1.4,0.5-2,0c-0.5-0.5-0.5-1.3,0-1.9c0.5-0.5,1.4-0.5,2,0
				C1535,402.2,1535,403,1534.4,403.5z M1540.9,397.5c-0.5,0.5-1.4,0.5-2,0c-0.5-0.5-0.5-1.3,0-1.9c0.5-0.5,1.4-0.5,2,0
				C1541.4,396.2,1541.4,397,1540.9,397.5z M1547.3,391.5c-0.5,0.5-1.4,0.5-2,0c-0.5-0.5-0.5-1.3,0-1.9c0.5-0.5,1.4-0.5,2,0
				C1547.9,390.2,1547.9,391,1547.3,391.5z M1553.8,385.5c-0.5,0.5-1.4,0.5-2,0s-0.5-1.3,0-1.9c0.5-0.5,1.4-0.5,2,0
				C1554.3,384.1,1554.3,385,1553.8,385.5z M1560.3,379.4c-0.5,0.5-1.4,0.5-2,0c-0.5-0.5-0.5-1.3,0-1.9s1.4-0.5,2,0
				S1560.8,378.9,1560.3,379.4z M1566.7,373.4c-0.5,0.5-1.4,0.5-2,0c-0.5-0.5-0.5-1.3,0-1.9c0.5-0.5,1.4-0.5,2,0
				C1567.3,372.1,1567.3,372.9,1566.7,373.4z M1573.2,367.4c-0.5,0.5-1.4,0.5-2,0c-0.5-0.5-0.5-1.3,0-1.9c0.5-0.5,1.4-0.5,2,0
				C1573.7,366.1,1573.7,366.9,1573.2,367.4z M1579.6,361.4c-0.5,0.5-1.4,0.5-2,0c-0.5-0.5-0.5-1.3,0-1.9c0.5-0.5,1.4-0.5,2,0
				C1580.2,360,1580.2,360.9,1579.6,361.4z M1586.1,355.4c-0.5,0.5-1.4,0.5-2,0c-0.5-0.5-0.5-1.3,0-1.9c0.5-0.5,1.4-0.5,2,0
				C1586.6,354,1586.6,354.8,1586.1,355.4z M1528,407.7c-0.5-0.5-1.4-0.5-2,0c-0.5,0.5-0.5,1.3,0,1.9c0.5,0.5,1.4,0.5,2,0
				C1528.5,409,1528.5,408.2,1528,407.7z M1521.5,413.7c-0.5-0.5-1.4-0.5-2,0c-0.5,0.5-0.5,1.3,0,1.9c0.5,0.5,1.4,0.5,2,0
				C1522.1,415.1,1522.1,414.2,1521.5,413.7z M1515.1,419.7c-0.5-0.5-1.4-0.5-2,0c-0.5,0.5-0.5,1.3,0,1.9c0.5,0.5,1.4,0.5,2,0
				C1515.6,421.1,1515.6,420.3,1515.1,419.7z M1398.6,530.3c-0.5,0.5-1.4,0.5-2,0c-0.5-0.5-0.5-1.3,0-1.9s1.4-0.5,2,0
				S1399.1,529.8,1398.6,530.3z M1405,524.3c-0.5,0.5-1.4,0.5-2,0s-0.5-1.3,0-1.9c0.5-0.5,1.4-0.5,2,0
				C1405.6,522.9,1405.6,523.7,1405,524.3z M1411.5,518.2c-0.5,0.5-1.4,0.5-2,0c-0.5-0.5-0.5-1.3,0-1.9c0.5-0.5,1.4-0.5,2,0
				C1412,516.9,1412,517.7,1411.5,518.2z M1417.9,512.2c-0.5,0.5-1.4,0.5-2,0c-0.5-0.5-0.5-1.3,0-1.9s1.4-0.5,2,0
				C1418.5,510.9,1418.5,511.7,1417.9,512.2z M1396.8,579.7c-0.5,0.5-1.4,0.5-2,0c-0.5-0.5-0.5-1.3,0-1.9c0.5-0.5,1.4-0.5,2,0
				C1397.4,578.3,1397.4,579.2,1396.8,579.7z M1403.3,573.7c-0.5,0.5-1.4,0.5-2,0c-0.5-0.5-0.5-1.3,0-1.9s1.4-0.5,2,0
				C1403.8,572.3,1403.8,573.2,1403.3,573.7z M1409.7,567.6c-0.5,0.5-1.4,0.5-2,0s-0.5-1.3,0-1.9c0.5-0.5,1.4-0.5,2,0
				C1410.3,566.3,1410.3,567.1,1409.7,567.6z M1416.2,561.6c-0.5,0.5-1.4,0.5-2,0c-0.5-0.5-0.5-1.3,0-1.9c0.5-0.5,1.4-0.5,2,0
				S1416.7,561.1,1416.2,561.6z M1480.3,339.9c-0.5-0.5-0.5-1.3,0-1.9c0.5-0.5,1.4-0.5,2,0c0.5,0.5,0.5,1.3,0,1.9
				C1481.8,340.4,1480.9,340.4,1480.3,339.9z M1526,316.4c-0.5-0.5-0.5-1.3,0-1.9c0.5-0.5,1.4-0.5,2,0c0.5,0.5,0.5,1.3,0,1.9
				C1527.4,316.9,1526.5,316.9,1526,316.4z M1528.8,319.1c-0.5-0.5-0.5-1.3,0-1.9c0.5-0.5,1.4-0.5,2,0c0.5,0.5,0.5,1.3,0,1.9
				C1530.3,319.6,1529.4,319.6,1528.8,319.1z"/>
			<g class="st8">
				<path class="st9" d="M1619,667.9L1619,667.9c-1,0-1.7-0.7-1.7-1.6v-4.6c0-0.9,0.8-1.6,1.7-1.6l0,0c1,0,1.7,0.7,1.7,1.6v4.6
					C1620.7,667.2,1619.9,667.9,1619,667.9z"/>
				<path class="st9" d="M1630.8,667.9L1630.8,667.9c-1,0-1.7-0.7-1.7-1.6v-4.6c0-0.9,0.8-1.6,1.7-1.6l0,0c1,0,1.7,0.7,1.7,1.6v4.6
					C1632.5,667.2,1631.8,667.9,1630.8,667.9z"/>
				<path class="st9" d="M1642.7,667.9L1642.7,667.9c-1,0-1.7-0.7-1.7-1.6v-4.6c0-0.9,0.8-1.6,1.7-1.6l0,0c1,0,1.7,0.7,1.7,1.6v4.6
					C1644.4,667.2,1643.6,667.9,1642.7,667.9z"/>
				<path class="st9" d="M1654.5,667.9L1654.5,667.9c-1,0-1.7-0.7-1.7-1.6v-4.6c0-0.9,0.8-1.6,1.7-1.6l0,0c1,0,1.7,0.7,1.7,1.6v4.6
					C1656.2,667.2,1655.5,667.9,1654.5,667.9z"/>
				<path class="st9" d="M1666.4,667.9L1666.4,667.9c-1,0-1.7-0.7-1.7-1.6v-4.6c0-0.9,0.8-1.6,1.7-1.6l0,0c1,0,1.7,0.7,1.7,1.6v4.6
					C1668.1,667.2,1667.3,667.9,1666.4,667.9z"/>
				<path class="st9" d="M1678.2,667.9L1678.2,667.9c-1,0-1.7-0.7-1.7-1.6v-4.6c0-0.9,0.8-1.6,1.7-1.6l0,0c1,0,1.7,0.7,1.7,1.6v4.6
					C1679.9,667.2,1679.2,667.9,1678.2,667.9z"/>
				<path class="st9" d="M1691.2,667.9h-2.3c-0.3,0-0.6-0.3-0.6-0.6v-6.6c0-0.3,0.3-0.6,0.6-0.6h2.3c0.3,0,0.6,0.3,0.6,0.6v6.6
					C1691.8,667.7,1691.5,667.9,1691.2,667.9z"/>
				<path class="st9" d="M1701.9,667.9L1701.9,667.9c-1,0-1.7-0.7-1.7-1.6v-4.6c0-0.9,0.8-1.6,1.7-1.6l0,0c1,0,1.7,0.7,1.7,1.6v4.6
					C1703.6,667.2,1702.9,667.9,1701.9,667.9z"/>
			</g>
			<g class="st8">
				<path class="st10" d="M1569.3,307.5L1569.3,307.5c-0.7-0.6-0.7-1.6,0-2.3l3.4-3.2c0.7-0.6,1.8-0.6,2.4,0l0,0
					c0.7,0.6,0.7,1.6,0,2.3l-3.5,3.2C1571.1,308.1,1570,308.1,1569.3,307.5z"/>
				<path class="st10" d="M1577.7,315.3L1577.7,315.3c-0.7-0.6-0.7-1.6,0-2.3l3.5-3.2c0.7-0.6,1.8-0.6,2.4,0l0,0
					c0.7,0.6,0.7,1.6,0,2.3l-3.5,3.2C1579.5,315.9,1578.4,315.9,1577.7,315.3z"/>
				<path class="st10" d="M1586.1,323.1L1586.1,323.1c-0.7-0.6-0.7-1.6,0-2.3l3.5-3.2c0.7-0.6,1.8-0.6,2.4,0l0,0
					c0.7,0.6,0.7,1.6,0,2.3l-3.5,3.2C1587.9,323.7,1586.8,323.7,1586.1,323.1z"/>
				<path class="st10" d="M1594.5,330.9L1594.5,330.9c-0.7-0.6-0.7-1.6,0-2.3l3.4-3.2c0.7-0.6,1.8-0.6,2.4,0l0,0
					c0.7,0.6,0.7,1.6,0,2.3l-3.5,3.2C1596.2,331.5,1595.2,331.5,1594.5,330.9z"/>
				<path class="st10" d="M1602.9,338.7L1602.9,338.7c-0.7-0.6-0.7-1.6,0-2.3l3.5-3.2c0.7-0.6,1.8-0.6,2.4,0l0,0
					c0.7,0.6,0.7,1.6,0,2.3l-3.5,3.2C1604.6,339.3,1603.5,339.3,1602.9,338.7z"/>
				<path class="st10" d="M1611.2,346.5L1611.2,346.5c-0.7-0.6-0.7-1.6,0-2.3l3.5-3.2c0.7-0.6,1.8-0.6,2.4,0l0,0
					c0.7,0.6,0.7,1.6,0,2.3l-3.5,3.2C1613,347.2,1611.9,347.2,1611.2,346.5z"/>
				<path class="st10" d="M1619.6,354.4L1619.6,354.4c-0.7-0.6-0.7-1.6,0-2.3l3.4-3.2c0.7-0.6,1.8-0.6,2.4,0l0,0
					c0.7,0.6,0.7,1.6,0,2.3l-3.5,3.2C1621.4,355,1620.3,355,1619.6,354.4z"/>
				<path class="st10" d="M1628,362.2L1628,362.2c-0.7-0.6-0.7-1.6,0-2.3l3.5-3.2c0.7-0.6,1.8-0.6,2.4,0l0,0c0.7,0.6,0.7,1.6,0,2.3
					l-3.5,3.2C1629.8,362.8,1628.7,362.8,1628,362.2z"/>
				<path class="st10" d="M1636.4,370L1636.4,370c-0.7-0.6-0.7-1.6,0-2.3l3.5-3.2c0.7-0.6,1.8-0.6,2.4,0l0,0c0.7,0.6,0.7,1.6,0,2.3
					l-3.5,3.2C1638.1,370.6,1637.1,370.6,1636.4,370z"/>
			</g>
			<g class="st11">
				<path class="st12" d="M1247.4,557.3l-68.1,5.3c-0.2,0-0.3,0.1-0.5,0.2l-16.9,15.8l2.2-0.2l15.5-14.5l65.9-5.2l-16.2,15.1
					l2.2-0.2l16.4-15.3c0.2-0.2,0.3-0.5,0.1-0.8C1248,557.4,1247.7,557.2,1247.4,557.3z"/>
			</g>
			<g class="st11">
				<path class="st12" d="M1454.9,606.2l-24.7,23.1c-0.1,0.1-0.2,0.3-0.2,0.5v58.1c-26.8,32.9-61.8,64.6-85.9,85l-0.2,2
					c23.8-20.1,58.9-51.7,86-84.7v15.8c0.5-0.6,1-1.2,1.5-1.7v-74.1l23.4-21.9C1454.8,607.6,1454.8,606.9,1454.9,606.2z"/>
				<path class="st12" d="M1346.2,746.2l-0.2,2.1l15.9-14.9c0.1-0.1,0.2-0.3,0.2-0.4l5.7-63.5c0.1-0.3-0.1-0.5-0.4-0.7
					c-0.3-0.1-0.6-0.1-0.8,0.1l-15.5,14.4l-0.2,2.1l15.2-14.2l-5.5,61.4L1346.2,746.2z"/>
			</g>
		</g>
	</g>
</g>
<rect y="1003.1" class="st6" width="1920" height="111.1"/>
<g>
	<path class="st13" d="M1618.1,217c22.2-66.6-99.7-50.3-115.8-18.2c-16.1,32.1,0.6,47.6-29.1,47.1c-29.8-0.5-31,7.6-36,31.3
		c-5,23.6-31.3,32.6-31.3,32.6s20.8,38.9,86.9-15.1C1521.3,271.3,1609.1,244.1,1618.1,217z"/>
	<path class="st13" d="M1618.9,220.5c0,0,21.7-12.9-1.2-24.4c-12.9-6.5-74.1-14.6-87.9,61.2c-14,76.4-7.4,51-13.7,55.4
		c-5.3,3.7,5.8,136.9,60.1-13.4c11.4-31.6,18.6-70.7,21.2-75.9c2.6-5.1,23.8-8.5,23.8-8.5"/>
	<path class="st14" d="M1591.4,280.1c-0.6,0.1-1.4-27.6,3.3-33.5c4.7-5.8-15.8-15.3-15.8-15.3s-8.2,24.2-9.1,37.1
		c-0.8,12.9,24.6,8.9,24.6,8.9"/>
	<path class="st14" d="M1585.5,189.2c-0.4,0-10.1,26.1-5.4,43.8c4.7,17.7,17.9,25.4,22.3,23.6c1.9-0.8,6.6-4.9,11.1-11.6
		c6.3-9.2,4.9-15.3,8.8-32.9c1-4.4-3.1-8.7-6.6-12.3c-9.5-9.9-26-15.5-30.9-11.1"/>
	<path class="st14" d="M1579.2,215c0,0-7.5-6.1-8,8.8c-0.2,6.5,3.5,5.5,6.3,5.8c0.2,0,0,0-0.2,0.2c-0.3,0.3-4.4,44.4-4.4,44.4
		l5.9-7.6c0,0,4.9-23.7,4.4-25.1C1582.8,240.2,1583.1,216.2,1579.2,215z"/>
	<path class="st15" d="M1579.7,262.6c12.3-3.4-30.8-70.5-159.9,92.6c-111.6,140.9-225.5,90.8-230.5,91c-5,0.2-22.3,42.7,74.8,44.1
		c97.1,1.5,23.1,25.7,27.5,44.9c4.4,19.3,83.1,58.5,98,34c23.9-39.1,50.8-1.9,50.8-1.9s80.4-35.9,104.5-99.7
		c24.1-63.8,46.1-154.1,42-174.9C1582.7,271.9,1579.7,262.6,1579.7,262.6z"/>
	<path class="st16" d="M1602.6,340.6c-2,1.3-4.2,2.1-6.5,2c0,0-16,17.2-21.3,35.3c-0.7,2.3-1.2,4.6-1.4,6.9
		c-2.3,20.2-11.9,47-11.9,47c0,0-0.1,0-0.1-0.1l-16.4-9.7l-57-33.7c0,0,5.8-21.4,49.9-38.7c27.6-10.9-4.3-104.6,25.5-103.7
		c11.1,0.4,41.9,33.1,44.2,43.5c2.3,10.4-0.7,32.3,1.5,38C1610.7,331.5,1607.5,337.5,1602.6,340.6z"/>
	<path class="st16" d="M1537.5,396.6c0,0-24,54.8-112.4,98.5c0,0-8.5,8.8-21.1,24.2c-1.5,1.9-4,4.2-7.2,6.9
		c-14.4,12.4-42.1,31.5-47.9,39.5c-7.1,9.7-17.6,29.3-31.1,39c-13.5,9.7-21.6,31.9-27.1,33.9c-5.4,2-8.7-1.9-13.9-7.3
		c-5.2-5.4,2.3-20.5,6.6-25.9c4.4-5.5,14-5.5,24.6-18c10.6-12.5,18.6-17,20.5-19.3c1.3-1.6,23.3-39.5,41.3-64.2
		c7.6-10.5,14.5-18.7,18.7-20.6c14.2-6.6,23.8-5.9,32.7-15.4c8.8-9.5,45.1-104.7,112.2-111.9
		C1600.6,348.7,1537.5,396.6,1537.5,396.6z"/>
	<g>
		<path class="st16" d="M1618.8,465.6c-0.2,0.1-0.5,0.1-0.9,0.2c-0.1,0-0.2,0-0.3,0.1c-3.2,0.9-10.2,2.9-19,5.4
			c-14.1,4.1-32.6,9.7-47.1,14.4c-10.6,3.5-18.9,6.4-21.9,8.1c-9.7,5.4-26.3,17.8-41.4,20.8c-15.1,2.9-30.6,18.5-36.1,18.1
			c-5.4-0.4-6.6-5-8.9-11.6c-2.3-6.6,9.9-16.4,15.8-19.3c5.8-2.9,13.9,0.8,27.8-5.6c13.9-6.4,22.3-7.3,24.9-8.3
			c14.6-5.8,24.7-13.8,33.5-21.7c5-4.5,9.6-8.9,14.3-12.8c6.8-5.6,13.9-10.1,23.2-12.3c3.8-0.9,8-1.4,12.7-1.4
			c9.8,0,16.5,2,23.4,1.8C1611.6,449.3,1608.6,460.5,1618.8,465.6z"/>
		<path class="st16" d="M1632.6,455.9c-0.2,3.6-6.3,7.8-13.8,9.7c-0.2,0.1-0.5,0.1-0.9,0.2c-0.1,0-0.2,0-0.3,0.1
			c-4.7,1-9.8,1.1-14.4-0.5c-1.4-3,5.5-11.1,2.7-13.8c-0.5-0.4-1.1-0.9-2-1.5c-4.4-3-12-5.7-21.2-9.2c-6.5-2.5-13.7-5.4-21.2-9.1
			c0,0-0.1,0-0.1-0.1c-5.4-2.7-11-5.9-16.4-9.7c-5.4-3.8-10.7-8.2-15.6-13.4c-8-8.3-14.9-18.6-19.9-31.5
			c-10.1-26.1,40.5-11.1,40.5-11.1s6.7,0.9,17.3,7.1c2.3,1.3,4.8,2.9,7.4,4.8c13,9.1,29.8,25,47.5,53c3.4,5.3,6,11.4,8.9,17.7
			C1631.3,448.6,1633.2,452.3,1632.6,455.9z"/>
	</g>
	<path class="st13" d="M1579.2,215c0,0,7.4,0.4,13.1-10.3c5.7-10.6,12.5-6.9,12.9-7c0.4-0.1,10.9,5.3,12.1-0.5
		c1.1-5.9-19.4-19.5-30.5-13.1c-11.2,6.4-9.1,29.9-9.1,29.9"/>
	<path class="st16" d="M1592.6,276.7c0,0,39.6-16.8,57.6-24.7c18.1-7.9,29.2-28.8,47.3-37.7c18.1-8.9,21.2-11.9,21.2-11.9l1.9,5.8
		c0,0-32.1,44.4-51.6,49.8c-19.4,5.4-66.5,49.8-68.7,51.6c-2.2,1.8-11.1-21.2-11.1-21.2"/>
	<path class="st16" d="M1568.1,274l-2.4,7.2c0,0-43.6,29.2-63.3,39.9c-15,8.1-24.7,24.3-37.2,36.8c0,0,0,0,0,0.1
		c-3.9,3.9-8.1,7.5-12.8,10.3c-4,2.4-7.3,4.5-10.1,6.2c-0.1,0-0.1,0-0.1,0.1c-5.1,2.2-8.7,5-11.2,7.8l0,0c-1.1,0.9-1.5,1.3-1.5,1.3
		l-2.7-6.4c0,0,10.2-16.8,22.9-33c1-1.2,1.6-2,1.6-2c9.6-11.9,20.4-23,29.3-26.3c21.5-7.9,70.7-62.6,73-64.9
		C1555.8,248.8,1568.1,274,1568.1,274z"/>
	<path class="st17" d="M1465.2,357.9C1465.2,357.9,1465.2,357.9,1465.2,357.9c-2.6,4.5-12.5,12.2-22.9,16.6c-0.1,0-0.1,0-0.1,0.1
		c-5.1,2.2-8.7,5-11.2,7.8l0,0c-2.5,2.8-4,5.5-5.1,7.5c-2.2,3.9-7.9,8.3-10.7,8.5c-2.8,0.2,3.7-3.5,5.5-5.9c1.8-2.4,1.8-4.2,1.8-4.2
		s-13.3,10.5-18.2,17.9c0,0-3.9,9.2-5,8c-1.1-1.2-2.4-13.7,1.8-18.7c4.2-5,8.2-10.4,20.1-19.3c6.2-4.6,23.2-25.3,28.5-31.8
		c1-1.2,1.6-2,1.6-2s9.4-5.1,10.9-4.2C1463.6,339,1467.7,353.4,1465.2,357.9z"/>
	<path class="st17" d="M1697,237C1697,237,1697,237,1697,237c4.9-1.8,14.1-10.3,20.2-19.8c0-0.1,0-0.1,0.1-0.1
		c3-4.7,6.4-7.7,9.6-9.7l0,0c3.2-2,6.1-3.1,8.2-3.8c4.2-1.5,9.5-6.4,10.2-9.1c0.6-2.7-4.1,3.1-6.7,4.5c-2.7,1.4-4.5,1.1-4.5,1.1
		s4.5-5.3,12.5-9.3c5.8-2.9,12.4-9.7,11.4-11c-1-1.3-6,0.4-12.9,2.1c-6.4,1.6-12,4.6-22.7,14.9c-5.6,5.4-45.9,28.3-45.2,29.9
		C1677.7,228.2,1692.1,238.7,1697,237z"/>
	<path class="st17" d="M1396.9,526.3c-14.4,12.4-42.1,31.5-47.9,39.5c-7.1,9.7-17.6,29.3-31.1,39c-13.5,9.7-21.6,31.9-27.1,33.9
		c-5.4,2-8.7-1.9-13.9-7.3c-5.2-5.4,2.3-20.5,6.6-25.9c4.4-5.5,14-5.5,24.6-18c10.6-12.5,18.6-17,20.5-19.3
		c1.3-1.6,23.3-39.5,41.3-64.2c12.8-0.5,30.6-0.4,31.2,3.7C1401.5,510.3,1399.4,518.3,1396.9,526.3z"/>
	<path class="st17" d="M1600,465c0.1,2-0.5,4.2-1.4,6.3c-24.3,7.1-62,18.6-68.9,22.4c-9.7,5.4-26.3,17.8-41.4,20.8
		c-15.1,2.9-30.6,18.5-36.1,18.1c-5.4-0.4-6.6-5-8.9-11.6c-2.3-6.6,9.9-16.4,15.8-19.3c5.8-2.9,13.9,0.8,27.8-5.6
		c13.9-6.4,22.3-7.3,24.9-8.3c22.9-9,34.6-23.7,47.8-34.5C1574.4,455,1599.8,459.1,1600,465z"/>
	<path class="st18" d="M1632.6,455.9c-0.2,3.6-6.3,7.8-13.8,9.7c-0.2,0.1-0.5,0.1-0.9,0.2c-0.1,0-0.2,0-0.3,0.1
		c-3.2,0.9-10.2,2.9-19,5.4c-14.1,4.1-32.6,9.7-47.1,14.4c-1.7-4.9-3.9-11.9-6.4-19.7c5-4.5,9.6-8.9,14.3-12.8
		c6.8-5.6,13.9-10.1,23.2-12.3c-6.5-2.5-13.7-5.4-21.2-9.1c0,0-0.1,0-0.1-0.1c-5.4-2.7-11-5.9-16.4-9.7c-5.4-3.8-10.7-8.2-15.6-13.4
		c2.4-7.6,7-26.6-1.2-43.8c0.9,0.7,15.3,12.5,28.2,12.5c4.2,0,7.8-1.7,10.9-4.3c6.7-5.4,11-14.6,13-17.9c2.9-4.8,0-16.4,0-16.4
		s-15.6-1.4-14.9-15.5c0,0,17,12.6,23.7,7.7c6.8-4.9,7-10.1,7-10.1s0.4,16.8,6.3,19.7c-2,1.3-4.2,2.1-6.5,2c0,0-16,17.2-21.3,35.3
		c13,9.1,29.8,25,47.5,53c3.4,5.3,6,11.4,8.9,17.7C1631.3,448.6,1633.2,452.3,1632.6,455.9z"/>
	<path class="st15" d="M1546.2,252.1c0,0,24.4,0.5,31.2,10.1c6.9,9.6,13.6,11.4,13.6,12.1c-0.1,0.7,8.5-0.5,8.5-0.5
		s1.1-11.7-8.1-12.1c0,0-6.9-3.1-19.7-17.6c-12.9-14.5-47,9.3-65,23.3C1488.7,281.3,1546.2,252.1,1546.2,252.1z"/>
</g>
</svg>
