<?xml version="1.0" encoding="utf-8"?>
<!-- Generator: Adobe Illustrator 23.1.0, SVG Export Plug-In . SVG Version: 6.00 Build 0)  -->
<svg version="1.1" id="Layer_1" xmlns="http://www.w3.org/2000/svg" xmlns:xlink="http://www.w3.org/1999/xlink" x="0px" y="0px"
	 viewBox="0 0 1920 1080" style="enable-background:new 0 0 1920 1080;" xml:space="preserve">
<style type="text/css">
	.st0{clip-path:url(#SVGID_2_);fill:url(#SVGID_3_);}
	.st1{clip-path:url(#SVGID_5_);fill:url(#SVGID_6_);}
	.st2{clip-path:url(#SVGID_8_);}
	.st3{fill:url(#SVGID_9_);}
	.st4{opacity:0.1;fill:#6988F9;enable-background:new    ;}
	.st5{fill:#CBFEFE;}
	.st6{fill:#FFFFFF;}
	.st7{clip-path:url(#SVGID_11_);}
	.st8{opacity:0.4;fill:#8FE2EA;enable-background:new    ;}
	.st9{opacity:0.4;}
	.st10{fill:#E3D2B4;}
	.st11{fill:#3E1E7D;}
	.st12{opacity:0.2;}
	.st13{fill:#331D74;}
	.st14{fill:#1D1B16;}
	.st15{fill:#FFCC99;}
	.st16{fill:#763CCE;}
	.st17{fill:#8EB7FF;}
	.st18{fill:#1C6CD9;}
	.st19{fill:#7AABFF;}
</style>
<g>
	<g>
		<g>
			<defs>
				<rect id="SVGID_1_" x="-202.7" y="-213.6" width="2134.8" height="1305.7"/>
			</defs>
			<clipPath id="SVGID_2_">
				<use xlink:href="#SVGID_1_"  style="overflow:visible;"/>
			</clipPath>
			
				<linearGradient id="SVGID_3_" gradientUnits="userSpaceOnUse" x1="1792.9318" y1="-722.9071" x2="458.262" y2="545.3973" gradientTransform="matrix(1 0 0 1 0 280)">
				<stop  offset="2.423880e-03" style="stop-color:#A050FF"/>
				<stop  offset="0.2561" style="stop-color:#6989F8"/>
				<stop  offset="0.4957" style="stop-color:#3CB7F2"/>
				<stop  offset="0.7071" style="stop-color:#1CD8EE"/>
				<stop  offset="0.8825" style="stop-color:#08EDEB"/>
				<stop  offset="1" style="stop-color:#01F4EA"/>
			</linearGradient>
			<rect x="-202.7" y="-213.6" class="st0" width="2134.8" height="1305.7"/>
		</g>
	</g>
	<g>
		<g>
			<defs>
				<rect id="SVGID_4_" x="-202.7" y="-213.6" width="2134.8" height="1305.7"/>
			</defs>
			<clipPath id="SVGID_5_">
				<use xlink:href="#SVGID_4_"  style="overflow:visible;"/>
			</clipPath>
			
				<linearGradient id="SVGID_6_" gradientUnits="userSpaceOnUse" x1="-9.7846" y1="-721.9658" x2="1739.1648" y2="1026.9836" gradientTransform="matrix(1 0 0 1 0 280)">
				<stop  offset="3.409785e-07" style="stop-color:#000444"/>
				<stop  offset="0.9285" style="stop-color:#984CF6"/>
				<stop  offset="0.929" style="stop-color:#994DF8"/>
				<stop  offset="0.932" style="stop-color:#A050FF"/>
			</linearGradient>
			<rect x="-224.7" y="-227.1" class="st1" width="2178.7" height="1319.2"/>
		</g>
	</g>
	<g>
		<g>
			<defs>
				<rect id="SVGID_7_" x="-202.7" y="-213.6" width="2134.8" height="1305.7"/>
			</defs>
			<clipPath id="SVGID_8_">
				<use xlink:href="#SVGID_7_"  style="overflow:visible;"/>
			</clipPath>
			<g class="st2">
				
					<linearGradient id="SVGID_9_" gradientUnits="userSpaceOnUse" x1="449.909" y1="118.0289" x2="1953.9536" y2="118.0289" gradientTransform="matrix(1 0 0 1 0 280)">
					<stop  offset="0.4449" style="stop-color:#000959"/>
					<stop  offset="0.7252" style="stop-color:#00034B"/>
					<stop  offset="0.9883" style="stop-color:#000044"/>
				</linearGradient>
				<path class="st3" d="M1954,588v416.5c-5,1.2-10,2.5-15,3.6c-66.8,15.6-138.8,24.6-202.3-1.5c-135.8-56-173.9-242.9-300.3-318.2
					c-128.4-76.5-313.2-17-425.3-116.6c-125.5-111.3-75-349.2-209.3-449.2c-47.5-35.3-109.3-45.1-159-77
					c-54.5-34.9-89.5-93.1-120.3-150.4c-22.2-42-44-85-72.5-122.3h708.8c12.6,25.1,27.3,48.4,46.9,68.3
					c82.4,83.9,220.2,76.9,317.7,142.2c98.9,66.3,137.5,191.6,174.6,305.8c37.4,114,90.8,238.1,200.6,283.4
					C1916.7,580.1,1935.1,585.1,1954,588z"/>
				<g>
					<path class="st4" d="M782.7,190.1c-0.9-8-17.3-8.8-45.5-0.1c1.1,1.5,2.2,3.1,3.1,4.7c11.1-1.5,18.4-0.6,19.8,2.9
						c1.2,3.4-3.6,9-12.7,15.2c-0.2-1.1-0.5-2.1-0.8-3.1c-0.1-0.2-0.1-0.4-0.2-0.6c-0.8-2.7-1.8-5.4-2.8-7.7c0-0.1-0.1-0.2-0.1-0.3
						c-8.4-18.8-25.8-32.9-46.5-36.4l0,0c-1.5-0.2-3.1-0.4-4.7-0.6h-0.1c-1.5-0.1-3.2-0.2-4.9-0.2l0,0l0,0c-0.2,0-0.3,0-0.5,0
						c-3.1,0-6.1,0.2-9.2,0.7l0,0l0,0c-1.6,0.2-3.2,0.6-4.7,1c-0.2,0-0.3,0.1-0.5,0.1c-1.5,0.3-3.1,0.9-4.5,1.3h-0.2
						c-1.5,0.4-3,1.1-4.4,1.7c-0.1,0-0.2,0.1-0.3,0.1c-1.4,0.6-2.8,1.2-4.1,1.9c-0.2,0.1-0.4,0.2-0.5,0.3c-1.3,0.7-2.7,1.5-4,2.4
						c0,0-0.1,0-0.1,0.1c-1.2,0.7-2.5,1.6-3.7,2.6c-0.2,0.1-0.3,0.2-0.5,0.3c-0.3,0.2-0.6,0.4-1.1,0.9l0,0l0,0
						c-0.8,0.6-1.5,1.2-2.4,1.9c-0.2,0.1-0.4,0.3-0.5,0.4c-0.8,0.7-1.5,1.3-2.3,2c-0.1,0.1-0.1,0.1-0.2,0.2
						c-0.8,0.7-1.5,1.6-2.4,2.5l0,0c-2.4,2.6-4.5,5.4-6.5,8.4c-0.1,0.1-0.2,0.2-0.2,0.3c-0.5,0.9-1,1.7-1.5,2.5
						c-0.1,0.2-0.2,0.4-0.3,0.6c-0.4,0.7-0.9,1.6-1.2,2.5c-0.1,0.2-0.2,0.4-0.3,0.7c-0.4,0.9-0.8,1.7-1.2,2.6
						c-0.1,0.2-0.2,0.3-0.2,0.6c-0.6,1.6-1.2,3.1-1.8,4.7v0.1c-0.2,0.6-0.3,1.1-0.5,1.7c-0.1,0.2-0.1,0.4-0.2,0.7
						c-0.2,0.9-0.4,1.7-0.6,2.6c-0.1,0.3-0.2,0.7-0.2,1.1c-0.2,0.7-0.3,1.5-0.4,2.4c-0.1,0.3-0.1,0.9-0.2,1.2
						c-0.1,0.7-0.2,1.5-0.3,2.1l0,0v0.1c0,0.4-0.1,0.9-0.1,1.3c-0.1,0.9-0.1,1.6-0.2,2.5c0,0.3-0.1,0.7-0.1,1.1
						c-0.1,1.2-0.1,2.5-0.1,3.6c0,2.1,0.1,4.3,0.3,6.3c-22.8,12.7-36.3,24.3-34,30.6c2.4,6.3,20.1,5.9,45.5,0.1l0,0
						c3.8,5.4,8.4,10.2,13.7,14l0,0l0,0c9.6,7.2,21.2,11.6,33.8,12.2c1.1,0,2.2,0.1,3.2,0.1c1.2,0,2.4,0,3.6-0.1
						c0.3,0,0.8,0,1.1-0.1c0.8,0,1.5-0.1,2.4-0.2c0.4,0,0.9-0.1,1.2-0.1c0.8-0.1,1.4-0.2,2.3-0.3c0.4-0.1,0.9-0.1,1.2-0.2
						c0.8-0.1,1.4-0.3,2.3-0.4c0.3-0.1,0.8-0.1,1.1-0.2c0.9-0.2,1.6-0.4,2.6-0.7c0.2-0.1,0.4-0.1,0.6-0.2c2.3-0.7,4.3-1.5,6.5-2.5
						c0.2-0.1,0.4-0.2,0.5-0.2c0.9-0.3,1.6-0.7,2.5-1.2c0.2-0.1,0.4-0.2,0.6-0.3c0.8-0.3,1.5-0.9,2.4-1.3c0.2-0.1,0.4-0.2,0.6-0.3
						c0.8-0.4,1.6-1,2.5-1.6c0.1-0.1,0.2-0.1,0.4-0.2c2.9-1.9,5.7-4.1,8.1-6.5l0,0c0.6-0.6,1.3-1.3,2-1.9c0.1-0.1,0.2-0.2,0.3-0.3
						l0,0c0.1-0.1,0.1-0.1,0.2-0.2c0.5-0.6,1.1-1.2,1.6-1.9c0.1-0.1,0.2-0.2,0.3-0.3l0.1-0.1c0.1-0.1,0.1-0.1,0.2-0.2
						c0.5-0.6,1.1-1.3,1.6-2c0-0.1,0.1-0.1,0.1-0.2c7.7-10.1,12.6-22.5,13.1-36.1c0-1,0.1-2,0.1-3l0,0c0-1.3-0.1-2.8-0.1-4.1
						c0-0.3,0-0.7-0.1-1.1c0-0.3,0-0.7-0.1-1.1l0,0C771.5,207.9,783.3,196.7,782.7,190.1z M624.5,236.3c0-0.3-0.1-0.6-0.1-1
						C624.5,235.7,624.5,236.1,624.5,236.3z M612,254.4c-1.3-3.5,3.7-9,12.9-15.3c0-0.1,0-0.1,0-0.2c0.3,1.7,0.6,3.2,1.1,4.9l0,0
						l0,0c0.3,1.5,0.8,2.8,1.3,4.3c0,0,0,0,0,0.1c1,2.8,2.2,5.5,3.3,8c0,0,0,0.1,0.1,0.1c0.2,0.3,0.4,0.9,0.6,1.2
						C620.4,258.7,613.3,257.8,612,254.4z"/>
					<path class="st4" d="M1675.6,433.1c-22.6-23-59.4-23-82,0c-22.6,23-22.6,60.2,0,83.1c22.6,23,59.4,23,82,0
						C1698.2,493.4,1698.2,456,1675.6,433.1z"/>
					<path class="st4" d="M1181.4,37.6c-22.6-23-59.4-23-82,0c-22.6,23-22.6,60.2,0,83.1c22.6,23,59.4,23,82,0
						C1204,97.9,1204,60.6,1181.4,37.6z"/>
					<path class="st4" d="M1199.9,2.8c-5.4-5.5-13.9-5.5-19.3,0s-5.4,14.1,0,19.5c5.4,5.5,13.9,5.5,19.3,0
						C1205.2,16.9,1205.2,8.3,1199.9,2.8z"/>
				</g>
				<g>
					<ellipse class="st5" cx="249.3" cy="52.3" rx="3.7" ry="3.7"/>
					<path class="st5" d="M715.3,26.3c0,2-1.6,3.7-3.7,3.7s-3.7-1.7-3.7-3.7s1.6-3.7,3.7-3.7C713.6,22.5,715.3,24.2,715.3,26.3z"/>
					<path class="st5" d="M1756.8,315.3c0,2-1.6,3.7-3.7,3.7s-3.7-1.7-3.7-3.7c0-2,1.6-3.7,3.7-3.7S1756.8,313.3,1756.8,315.3z"/>
					<path class="st5" d="M810.5,546.1c0,1.6-1.2,2.8-2.8,2.8s-2.8-1.2-2.8-2.8c0-1.6,1.2-2.8,2.8-2.8
						C809.3,543.4,810.5,544.5,810.5,546.1z"/>
					<path class="st5" d="M1273-80.7c1.1,1,1.3,2.7,0.4,3.9c-0.9,1.2-2.6,1.3-3.7,0.4c-1.1-1-1.3-2.7-0.4-3.9S1272-81.7,1273-80.7z"
						/>
					<path class="st5" d="M1753.2,207.3c0,3.9-3,6.9-6.8,6.9c-3.8,0-6.8-3.1-6.8-6.9c0-3.9,3.1-6.9,6.8-6.9
						C1750.2,200.3,1753.2,203.4,1753.2,207.3z"/>
					<path class="st5" d="M733.1,48.6c0,3.9-3.1,6.9-6.8,6.9c-3.7,0-6.8-3.1-6.8-6.9c0-3.9,3-6.9,6.8-6.9S733.1,44.8,733.1,48.6z"/>
					<path class="st5" d="M1348.2,183.5c0,3.9-3.1,6.9-6.8,6.9c-3.8,0-6.8-3.1-6.8-6.9c0-3.7,3-6.9,6.8-6.9
						C1345.2,176.7,1348.2,179.8,1348.2,183.5z"/>
					<path class="st5" d="M729.9,406.1c0,2-1.6,3.7-3.7,3.7s-3.7-1.7-3.7-3.7c0-2,1.6-3.7,3.7-3.7S729.9,404.1,729.9,406.1z"/>
					<path class="st5" d="M1254.1-75.8c0,2-1.6,3.7-3.7,3.7s-3.7-1.7-3.7-3.7s1.6-3.7,3.7-3.7S1254.1-77.8,1254.1-75.8z"/>
					<path class="st5" d="M1070.5,391c0,1.6-1.2,2.9-2.8,2.9c-1.5,0-2.8-1.3-2.8-2.9c0-1.6,1.2-2.9,2.8-2.9
						C1069.3,388.1,1070.5,389.5,1070.5,391z"/>
					<path class="st5" d="M1029.3,451.4c-1.5,0-2.8-1.3-2.8-2.9c0-1.6,1.2-2.9,2.8-2.9c1.5,0,2.8,1.3,2.8,2.9
						S1030.9,451.4,1029.3,451.4z"/>
					<ellipse class="st5" cx="1287.8" cy="695.8" rx="1.5" ry="1.6"/>
					<path class="st5" d="M810.7,606.5c0,0.9-0.6,1.6-1.4,1.6s-1.4-0.7-1.4-1.6s0.6-1.6,1.4-1.6C810,604.9,810.7,605.7,810.7,606.5z
						"/>
					<path class="st5" d="M1452.6,942.2c1.2,1,1.3,2.7,0.4,3.9c-0.9,1.2-2.7,1.3-3.9,0.4c-1.2-1-1.3-2.7-0.4-3.9
						C1449.7,941.3,1451.3,941.2,1452.6,942.2z"/>
					<path class="st5" d="M912.9,520.1c1.2,1,1.3,2.7,0.4,3.9c-0.9,1.2-2.7,1.3-3.9,0.4c-1.2-1-1.3-2.7-0.4-3.9
						C910,519.5,911.6,519.3,912.9,520.1z"/>
					<ellipse class="st5" cx="204.4" cy="-36" rx="1.5" ry="1.6"/>
					<path class="st5" d="M1885.8-75.8c0,1.6-1.2,2.8-2.8,2.8c-1.5,0-2.8-1.2-2.8-2.8c0-1.6,1.2-2.8,2.8-2.8
						C1884.5-78.6,1885.8-77.4,1885.8-75.8z"/>
					<path class="st5" d="M1074.6,607.9c0,0.9-0.6,1.6-1.5,1.6c-0.9,0-1.5-0.7-1.5-1.6c0-0.9,0.6-1.6,1.5-1.6
						C1073.9,606.5,1074.6,607.1,1074.6,607.9z"/>
					<path class="st5" d="M-59.7-37.6c0.1,0.9-0.5,1.6-1.3,1.7s-1.5-0.6-1.6-1.5c-0.1-0.9,0.5-1.6,1.3-1.7
						C-60.5-39.2-59.7-38.4-59.7-37.6z"/>
					<path class="st5" d="M1480,902.4c0.3,0.9,0,1.7-0.8,2c-0.8,0.3-1.6,0-2-0.9c-0.3-0.9,0-1.7,0.8-2
						C1478.7,901.3,1479.7,901.6,1480,902.4z"/>
					<path class="st6" d="M834.9,680.9l3.6,6.7c1.2,2.4,3.1,4.4,5.4,5.6l6.5,3.7c0.2,0.1,0.2,0.4,0,0.6l-6.5,3.7
						c-2.3,1.3-4.1,3.2-5.4,5.6l-3.6,6.7c-0.1,0.2-0.4,0.2-0.6,0l-3.6-6.7c-1.2-2.4-3.1-4.4-5.4-5.6l-6.5-3.7
						c-0.2-0.1-0.2-0.4,0-0.6l6.5-3.7c2.3-1.3,4.1-3.2,5.4-5.6l3.6-6.7C834.5,680.7,834.8,680.7,834.9,680.9z"/>
					<path class="st6" d="M1595.7,718.1l3.6,6.7c1.2,2.4,3.1,4.4,5.4,5.6l6.5,3.7c0.2,0.1,0.2,0.4,0,0.6l-6.5,3.7
						c-2.3,1.3-4.1,3.2-5.4,5.6l-3.6,6.7c-0.1,0.2-0.4,0.2-0.6,0l-3.6-6.7c-1.2-2.4-3.1-4.4-5.4-5.6l-6.5-3.7
						c-0.2-0.1-0.2-0.4,0-0.6l6.5-3.7c2.3-1.3,4.1-3.2,5.4-5.6l3.6-6.7C1595.2,717.9,1595.6,717.9,1595.7,718.1z"/>
					<path class="st6" d="M950.3,62.8l3.7,6.7c1.2,2.4,3.2,4.4,5.6,5.6l6.7,3.7c0.2,0.1,0.2,0.4,0,0.6l-6.7,3.7
						c-2.4,1.3-4.2,3.2-5.6,5.6l-3.7,6.7c-0.1,0.2-0.5,0.2-0.6,0l-3.7-6.7c-1.2-2.4-3.2-4.4-5.6-5.6l-6.7-3.7
						c-0.2-0.1-0.2-0.4,0-0.6l6.7-3.7c2.4-1.3,4.2-3.2,5.6-5.6l3.7-6.7C949.6,62.5,950.2,62.5,950.3,62.8z"/>
					<path class="st6" d="M386.1,6.1l1.3,2.6c0.4,0.9,1.2,1.6,2.2,2l2.6,1.5c0.1,0,0.1,0.2,0,0.2l-2.6,1.5c-0.9,0.4-1.5,1.2-2.2,2
						l-1.3,2.6c0,0.1-0.2,0.1-0.2,0l-1.3-2.6c-0.4-0.9-1.2-1.6-2.2-2l-2.6-1.3c-0.1,0-0.1-0.2,0-0.2l2.6-1.5c0.9-0.4,1.5-1.2,2.2-2
						l1.3-2.6C386,6.1,386.1,6.1,386.1,6.1z"/>
					<path class="st6" d="M945.9,611.6l1.3,2.6c0.4,0.9,1.2,1.6,2.2,2l2.6,1.5c0.1,0,0.1,0.2,0,0.2l-2.6,1.5c-0.9,0.4-1.5,1.2-2.2,2
						l-1.3,2.6c0,0.1-0.2,0.1-0.2,0l-1.3-2.6c-0.4-0.9-1.2-1.6-2.2-2l-2.6-1.5c-0.1,0-0.1-0.2,0-0.2l2.6-1.5c0.9-0.4,1.5-1.2,2.2-2
						l1.3-2.6C945.7,611.4,945.9,611.4,945.9,611.6z"/>
					<path class="st6" d="M1162.1,267.9l1.8,3.4c0.6,1.2,1.5,2,2.7,2.8l3.3,1.8c0.1,0.1,0.1,0.2,0,0.3l-3.3,1.8
						c-1.1,0.6-2.2,1.6-2.7,2.8l-1.8,3.4c-0.1,0.1-0.2,0.1-0.3,0l-1.8-3.4c-0.6-1.2-1.5-2-2.7-2.8l-3.3-1.8c-0.1-0.1-0.1-0.2,0-0.3
						l3.3-1.8c1.1-0.6,2.2-1.6,2.7-2.8l1.8-3.4C1161.9,267.7,1162.1,267.7,1162.1,267.9z"/>
					<path class="st6" d="M1683.5,12.4l1.8,3.4c0.6,1.2,1.5,2,2.7,2.8l3.3,1.8c0.1,0.1,0.1,0.2,0,0.3l-3.3,1.8
						c-1.1,0.6-2.2,1.6-2.7,2.8l-1.8,3.4c-0.1,0.1-0.2,0.1-0.3,0l-1.8-3.4c-0.6-1.2-1.5-2-2.7-2.8l-3.3-1.8c-0.1-0.1-0.1-0.2,0-0.3
						l3.3-1.8c1.1-0.6,2.2-1.6,2.7-2.8l1.8-3.4C1683.3,12.3,1683.5,12.3,1683.5,12.4z"/>
					<path class="st6" d="M1565.7,554.4l2.6,4.7c0.9,1.7,2.3,3,3.9,3.9l4.6,2.6c0.2,0.1,0.2,0.3,0,0.4l-4.6,2.6
						c-1.6,0.9-3,2.4-3.9,3.9l-2.6,4.7c-0.1,0.2-0.3,0.2-0.4,0l-2.6-4.7c-0.9-1.7-2.3-3-3.9-3.9l-4.6-2.6c-0.2-0.1-0.2-0.3,0-0.4
						l4.6-2.6c1.6-0.9,3-2.4,3.9-3.9l2.6-4.7C1565.4,554.2,1565.6,554.2,1565.7,554.4z"/>
				</g>
			</g>
		</g>
	</g>
	<g>
		<g>
			<defs>
				<rect id="SVGID_10_" x="-202.7" y="-213.6" width="2134.8" height="1305.7"/>
			</defs>
			<clipPath id="SVGID_11_">
				<use xlink:href="#SVGID_10_"  style="overflow:visible;"/>
			</clipPath>
			<g class="st7">
				<path class="st6" d="M1852.5,529.8c-18.2,37.4-15,81.3-16.5,122.9c-1.5,41.8-11,88-44.8,111.8c-48.5,34-118.3,3.6-172.5,27.4
					c-47.2,20.8-68.3,75.1-90.9,121.8c-22.7,46.8-61.9,96.5-113.1,91.5c-79.1-7.7-77.6-84.5-157-114c-50.6-18.8-79.4,18.1-134.9,7.1
					c-14.5-2.9-21.8-8-28.8-16.3c-38-45.8,23.1-164.3,41.6-200.1c18-34.9,49.1-86,101.3-138.2c-3.6-2.4-7.2-4.7-10.8-7.1
					c-41.9,53.9-81.6,94.6-112.6,123.6c-38.5,36.1-107.7,95.3-192.5,126.8c-10.1,3.8-17.4,5.3-26.5,7.2
					c-62.2,13.1-126-21.1-146.2-82.1c-20.1-61-8.4-127.5-10.2-192c-1.8-64.3-24.5-137.3-83.2-161.8c-38.6-16.1-84.9-7.4-121.5-27.7
					c-91.4-50.4-51.4-219.6-183.9-216.1c-38.8,1-75.7,16.2-113.9,22.7c-38.2,6.6-82.5,2.5-107.8-27.3C98,74.9,78.8,60,34.5,66.5
					c-25.6,3.7-82.6,81.3-150.4-31.4c-32.2-53.5-20.6-75.6-26.6-80.7c-21.6-18.8-31.4-40.9-40.7-62.4c-10.6-24.6-26.9-72.1-24.2-139
					v1358.5H1954V492.9C1921.6,467.2,1870.8,492.4,1852.5,529.8z"/>
				<g>
					<path class="st8" d="M1503.2,274.2c-0.5,0.6-1.5,0.6-2.3,0c-0.5-0.6-0.5-1.6,0-2.4c0.5-0.6,1.5-0.6,2.3,0
						C1504,272.7,1504,273.7,1503.2,274.2z M1510.5,267c-0.5,0.6-1.5,0.6-2.3,0c-0.5-0.6-0.5-1.6,0-2.4c0.5-0.6,1.5-0.6,2.3,0
						C1511.1,265.4,1511.1,266.4,1510.5,267z M1517.7,259.7c-0.5,0.6-1.5,0.6-2.3,0c-0.5-0.6-0.5-1.6,0-2.4c0.5-0.6,1.5-0.6,2.3,0
						C1518.3,258.1,1518.3,259.1,1517.7,259.7z M1524.9,252.5c-0.5,0.6-1.5,0.6-2.3,0c-0.6-0.6-0.5-1.6,0-2.4c0.5-0.6,1.5-0.6,2.3,0
						C1525.4,250.8,1525.4,251.8,1524.9,252.5z M1532.1,245.1c-0.5,0.6-1.5,0.6-2.3,0c-0.5-0.6-0.5-1.6,0-2.4s1.5-0.6,2.3,0
						C1532.8,243.4,1532.7,244.4,1532.1,245.1z M1539.2,237.8c-0.5,0.6-1.5,0.6-2.3,0c-0.5-0.6-0.5-1.6,0-2.4c0.5-0.6,1.5-0.6,2.3,0
						C1539.9,236.3,1539.9,237.3,1539.2,237.8z M1546.4,230.6c-0.5,0.6-1.5,0.6-2.3,0c-0.5-0.6-0.5-1.6,0-2.4c0.5-0.6,1.5-0.6,2.3,0
						C1547,229,1547,230,1546.4,230.6z M1553.6,223.3c-0.5,0.6-1.5,0.6-2.3,0c-0.5-0.6-0.5-1.6,0-2.4c0.5-0.6,1.5-0.6,2.3,0
						C1554.2,221.6,1554.2,222.7,1553.6,223.3z M1560.8,216.1c-0.5,0.6-1.5,0.6-2.3,0c-0.5-0.6-0.5-1.6,0-2.4c0.5-0.6,1.5-0.6,2.3,0
						C1561.3,214.4,1561.3,215.3,1560.8,216.1z M1496.1,279.3c-0.5-0.6-1.5-0.6-2.3,0c-0.5,0.6-0.5,1.6,0,2.4c0.5,0.6,1.5,0.6,2.3,0
						C1496.7,280.8,1496.7,279.9,1496.1,279.3z M1488.9,286.6c-0.5-0.6-1.5-0.6-2.3,0c-0.5,0.6-0.5,1.6,0,2.4c0.5,0.6,1.5,0.6,2.3,0
						C1489.6,288.3,1489.6,287.2,1488.9,286.6z M1481.8,293.8c-0.5-0.6-1.5-0.6-2.3,0c-0.5,0.6-0.5,1.6,0,2.4c0.5,0.6,1.5,0.6,2.3,0
						C1482.4,295.5,1482.4,294.5,1481.8,293.8z M1352.3,427.5c-0.5,0.6-1.5,0.6-2.3,0c-0.5-0.6-0.5-1.6,0-2.4c0.5-0.7,1.5-0.6,2.3,0
						C1353,425.8,1352.9,427,1352.3,427.5z M1359.4,420.2c-0.5,0.6-1.5,0.6-2.3,0c-0.6-0.6-0.5-1.6,0-2.4c0.5-0.6,1.5-0.6,2.3,0
						C1360.1,418.6,1360.1,419.6,1359.4,420.2z M1366.6,413c-0.5,0.6-1.5,0.6-2.3,0c-0.5-0.6-0.5-1.6,0-2.4c0.5-0.6,1.5-0.6,2.3,0
						C1367.2,411.3,1367.2,412.3,1366.6,413z M1373.8,405.7c-0.5,0.6-1.5,0.6-2.3,0c-0.5-0.6-0.5-1.6,0-2.4c0.5-0.7,1.5-0.6,2.3,0
						C1374.4,404.1,1374.4,405,1373.8,405.7z M1350.3,487.3c-0.5,0.6-1.5,0.6-2.3,0c-0.5-0.6-0.5-1.6,0-2.4c0.5-0.6,1.5-0.6,2.3,0
						C1350.9,485.5,1350.9,486.6,1350.3,487.3z M1357.5,480c-0.5,0.6-1.5,0.6-2.3,0c-0.5-0.6-0.5-1.6,0-2.4c0.5-0.7,1.5-0.6,2.3,0
						C1358,478.4,1358,479.4,1357.5,480z M1364.6,472.7c-0.5,0.6-1.5,0.6-2.3,0c-0.6-0.6-0.5-1.6,0-2.4c0.5-0.6,1.5-0.6,2.3,0
						C1365.4,471.1,1365.4,472.1,1364.6,472.7z M1371.8,465.4c-0.5,0.6-1.5,0.6-2.3,0c-0.5-0.6-0.5-1.6,0-2.4c0.5-0.6,1.5-0.6,2.3,0
						C1372.6,463.7,1372.5,464.8,1371.8,465.4z M1443.1,197.3c-0.5-0.6-0.5-1.6,0-2.4c0.5-0.6,1.5-0.6,2.3,0c0.5,0.6,0.5,1.6,0,2.4
						C1444.8,198,1443.8,198,1443.1,197.3z M1494,169c-0.5-0.6-0.5-1.6,0-2.4c0.5-0.6,1.5-0.6,2.3,0c0.5,0.6,0.5,1.6,0,2.4
						C1495.5,169.5,1494.5,169.5,1494,169z M1497.1,172.2c-0.5-0.6-0.5-1.6,0-2.4c0.5-0.6,1.5-0.6,2.3,0c0.5,0.6,0.5,1.6,0,2.4
						C1498.7,172.8,1497.8,172.8,1497.1,172.2z"/>
					<g class="st9">
						<path class="st10" d="M1597.4,593.9L1597.4,593.9c-1.1,0-1.9-0.9-1.9-1.9v-5.6c0-1.1,0.9-1.9,1.9-1.9l0,0
							c1.1,0,1.9,0.9,1.9,1.9v5.6C1599.2,593,1598.4,593.9,1597.4,593.9z"/>
						<path class="st10" d="M1610.4,593.9L1610.4,593.9c-1.1,0-1.9-0.9-1.9-1.9v-5.6c0-1.1,0.9-1.9,1.9-1.9l0,0
							c1.1,0,1.9,0.9,1.9,1.9v5.6C1612.4,593,1611.6,593.9,1610.4,593.9z"/>
						<path class="st10" d="M1623.7,593.9L1623.7,593.9c-1.1,0-1.9-0.9-1.9-1.9v-5.6c0-1.1,0.9-1.9,1.9-1.9l0,0
							c1.1,0,1.9,0.9,1.9,1.9v5.6C1625.6,593,1624.7,593.9,1623.7,593.9z"/>
						<path class="st10" d="M1636.8,593.9L1636.8,593.9c-1.1,0-1.9-0.9-1.9-1.9v-5.6c0-1.1,0.9-1.9,1.9-1.9l0,0
							c1.1,0,1.9,0.9,1.9,1.9v5.6C1638.7,593,1637.9,593.9,1636.8,593.9z"/>
						<path class="st10" d="M1650.1,593.9L1650.1,593.9c-1.1,0-1.9-0.9-1.9-1.9v-5.6c0-1.1,0.9-1.9,1.9-1.9l0,0
							c1.1,0,1.9,0.9,1.9,1.9v5.6C1651.9,593,1651,593.9,1650.1,593.9z"/>
						<path class="st10" d="M1663.2,593.9L1663.2,593.9c-1.1,0-1.9-0.9-1.9-1.9v-5.6c0-1.1,0.9-1.9,1.9-1.9l0,0
							c1.1,0,1.9,0.9,1.9,1.9v5.6C1665.1,593,1664.3,593.9,1663.2,593.9z"/>
						<path class="st10" d="M1677.7,593.9h-2.6c-0.3,0-0.6-0.3-0.6-0.7v-8c0-0.3,0.3-0.7,0.6-0.7h2.6c0.3,0,0.6,0.3,0.6,0.7v8
							C1678.3,593.7,1678,593.9,1677.7,593.9z"/>
						<path class="st10" d="M1689.5,593.9L1689.5,593.9c-1.1,0-1.9-0.9-1.9-1.9v-5.6c0-1.1,0.9-1.9,1.9-1.9l0,0
							c1.1,0,1.9,0.9,1.9,1.9v5.6C1691.4,593,1690.6,593.9,1689.5,593.9z"/>
					</g>
					<g class="st9">
						<path class="st11" d="M1542.1,158.2L1542.1,158.2c-0.8-0.7-0.8-1.9,0-2.8l3.8-3.9c0.8-0.7,2-0.7,2.7,0l0,0
							c0.8,0.7,0.8,1.9,0,2.8l-3.9,3.9C1544.1,158.9,1542.9,158.9,1542.1,158.2z"/>
						<path class="st11" d="M1551.4,167.6L1551.4,167.6c-0.8-0.7-0.8-1.9,0-2.8l3.9-3.9c0.8-0.7,2-0.7,2.7,0l0,0
							c0.8,0.7,0.8,1.9,0,2.8l-3.9,3.9C1553.4,168.3,1552.3,168.3,1551.4,167.6z"/>
						<path class="st11" d="M1560.8,177L1560.8,177c-0.8-0.7-0.8-1.9,0-2.8l3.9-3.9c0.8-0.7,2-0.7,2.7,0l0,0c0.8,0.7,0.8,1.9,0,2.8
							l-3.9,3.9C1562.8,177.7,1561.5,177.7,1560.8,177z"/>
						<path class="st11" d="M1570.1,186.4L1570.1,186.4c-0.8-0.7-0.8-1.9,0-2.8l3.8-3.9c0.8-0.7,2-0.7,2.7,0l0,0
							c0.8,0.7,0.8,1.9,0,2.8l-3.9,3.9C1572,187.2,1570.9,187.2,1570.1,186.4z"/>
						<path class="st11" d="M1579.4,195.9L1579.4,195.9c-0.8-0.7-0.8-1.9,0-2.8l3.9-3.9c0.8-0.7,2-0.7,2.7,0l0,0
							c0.8,0.7,0.8,1.9,0,2.8l-3.9,3.9C1581.3,196.6,1580.2,196.6,1579.4,195.9z"/>
						<path class="st11" d="M1588.7,205.4L1588.7,205.4c-0.8-0.7-0.8-1.9,0-2.8l3.9-3.9c0.8-0.7,2-0.7,2.7,0l0,0
							c0.8,0.7,0.8,1.9,0,2.8l-3.9,3.9C1590.7,206.2,1589.4,206.2,1588.7,205.4z"/>
						<path class="st11" d="M1598,214.9L1598,214.9c-0.8-0.7-0.8-1.9,0-2.8l3.8-3.9c0.8-0.7,2-0.7,2.7,0l0,0c0.8,0.7,0.8,1.9,0,2.8
							l-3.9,3.9C1600,215.6,1598.8,215.6,1598,214.9z"/>
						<path class="st11" d="M1607.3,224.3L1607.3,224.3c-0.8-0.7-0.8-1.9,0-2.8l3.9-3.9c0.8-0.7,2-0.7,2.7,0l0,0
							c0.8,0.7,0.8,1.9,0,2.8l-3.9,3.9C1609.4,225.1,1608.2,225.1,1607.3,224.3z"/>
						<path class="st11" d="M1616.7,233.7L1616.7,233.7c-0.8-0.7-0.8-1.9,0-2.8l3.9-3.9c0.8-0.7,2-0.7,2.7,0l0,0
							c0.8,0.7,0.8,1.9,0,2.8l-3.9,3.9C1618.6,234.5,1617.4,234.5,1616.7,233.7z"/>
					</g>
					<g class="st12">
						<path class="st13" d="M1184.2,460.2l-75.7,6.4c-0.2,0-0.3,0.1-0.5,0.2l-18.7,19.1l2.5-0.2l17.2-17.6l73.3-6.3l-18,18.3
							l2.5-0.2l18.2-18.5c0.2-0.2,0.3-0.6,0.1-1C1184.8,460.3,1184.5,460.1,1184.2,460.2z"/>
					</g>
					<g class="st12">
						<path class="st13" d="M1414.9,519.3l-27.5,27.9c-0.1,0.1-0.2,0.3-0.2,0.6V618c-29.8,39.8-68.7,78.2-95.6,102.8l-0.2,2.5
							c26.5-24.3,65.5-62.5,95.7-102.5v19.1c0.5-0.7,1.1-1.5,1.6-2v-89.6l26.1-26.4C1414.8,521,1414.8,520.1,1414.9,519.3z"/>
						<path class="st13" d="M1294,688.5l-0.2,2.6l17.7-18c0.1-0.1,0.2-0.3,0.2-0.4l6.4-76.8c0.1-0.3-0.1-0.6-0.4-0.9
							c-0.3-0.1-0.6-0.1-0.9,0.1l-17.2,17.4l-0.2,2.6l16.9-17.1l-6.1,74.2L1294,688.5z"/>
					</g>
				</g>
			</g>
		</g>
	</g>
</g>
<g>
	<path class="st14" d="M1561.9,72.8c23.6-70.8-106-53.5-123.1-19.4c-17.1,34.2,0.6,50.6-30.9,50.1c-31.7-0.5-33,8.1-38.3,33.3
		c-5.3,25.1-33.3,34.7-33.3,34.7s22.2,41.4,92.4-16C1459,130.5,1552.4,101.6,1561.9,72.8z"/>
	<path class="st14" d="M1562.8,76.5c0,0,23-13.7-1.3-25.9c-13.7-6.9-78.8-15.6-93.4,65.1c-14.9,81.2-7.9,54.2-14.6,58.9
		c-5.6,3.9,6.2,145.5,63.9-14.3c12.1-33.6,19.8-75.1,22.5-80.7c2.8-5.4,25.3-9.1,25.3-9.1"/>
	<path class="st15" d="M1533.6,139.8c-0.6,0.1-1.5-29.3,3.5-35.6c5-6.2-16.8-16.2-16.8-16.2s-8.8,25.7-9.6,39.5
		c-0.9,13.7,26.2,9.5,26.2,9.5"/>
	<path class="st15" d="M1527.3,43.2c-0.4,0-10.7,27.8-5.7,46.6c5,18.8,19,27,23.7,25.1c2.1-0.9,7-5.2,11.8-12.3
		c6.7-9.7,5.2-16.2,9.4-35c1.1-4.7-3.2-9.3-7-13.1c-10.1-10.5-27.7-16.4-32.9-11.8"/>
	<path class="st15" d="M1520.6,70.6c0,0-8-6.5-8.5,9.4c-0.2,6.9,3.7,5.8,6.7,6.2c0.2,0,0,0-0.2,0.2c-0.3,0.3-4.7,47.2-4.7,47.2
		l6.3-8.1c0,0,5.2-25.2,4.7-26.7C1524.4,97.4,1524.7,71.9,1520.6,70.6z"/>
	<path class="st16" d="M1521.2,121.2c13.1-3.6-32.8-74.9-170,98.5c-118.6,149.7-239.7,96.5-245.1,96.8c-5.3,0.2-23.7,45.4,79.6,46.9
		c103.2,1.6,24.5,27.3,29.2,47.8c4.7,20.5,88.3,62.2,104.2,36.1c25.4-41.5,54.1-2.1,54.1-2.1s85.5-38.2,111.1-106
		s49-163.8,44.6-185.9C1524.3,131.2,1521.2,121.2,1521.2,121.2z"/>
	<path class="st17" d="M1545.5,204.2c-2.2,1.4-4.4,2.3-6.9,2.2c0,0-17,18.3-22.6,37.5c-0.8,2.5-1.3,4.9-1.5,7.4
		c-2.5,21.5-12.6,49.9-12.6,49.9s-0.1,0-0.1-0.1l-17.4-10.3l-60.5-35.8c0,0,6.2-22.7,53.1-41.2c29.3-11.6-4.5-111.2,27.1-110.3
		c11.8,0.4,44.5,35.1,47,46.3c2.5,11-0.8,34.4,1.6,40.4C1554.1,194.5,1550.7,200.9,1545.5,204.2z"/>
	<path class="st17" d="M1476.3,263.7c0,0-25.5,58.3-119.5,104.8c0,0-9.1,9.4-22.4,25.7c-1.6,2.1-4.2,4.4-7.7,7.4
		c-15.3,13.2-44.8,33.5-50.9,42c-7.6,10.3-18.7,31.1-33.1,41.4c-14.4,10.3-22.9,33.9-28.8,36c-5.7,2.2-9.3-2.1-14.8-7.8
		c-5.5-5.7,2.5-21.8,7-27.6c4.7-5.8,14.9-5.8,26.2-19.1c11.2-13.3,19.8-18.1,21.8-20.5c1.4-1.7,24.8-42,43.9-68.2
		c8.1-11.1,15.5-19.9,19.9-21.9c15.1-7,25.3-6.3,34.8-16.3c9.4-10.1,47.9-111.3,119.2-118.9C1543.3,212.8,1476.3,263.7,1476.3,263.7
		z"/>
	<g>
		<path class="st17" d="M1562.7,337c-0.2,0.1-0.5,0.1-1,0.2c-0.1,0-0.2,0-0.3,0.1c-3.4,1-10.8,3.1-20.2,5.7
			c-15,4.3-34.7,10.3-50.1,15.3c-11.2,3.7-20.1,6.8-23.2,8.6c-10.3,5.7-28,18.9-44,22.2c-16,3.1-32.5,19.7-38.4,19.2
			c-5.7-0.4-7-5.3-9.5-12.3c-2.5-7,10.5-17.4,16.8-20.5c6.2-3.1,14.8,0.9,29.5-5.9c14.8-6.8,23.7-7.8,26.5-8.9
			c15.6-6.2,26.3-14.7,35.6-23c5.3-4.8,10.2-9.5,15.2-13.6c7.2-5.9,14.8-10.7,24.7-13.1c4-1,8.5-1.5,13.5-1.5
			c10.4,0,17.5,2.2,24.9,1.9C1555,319.7,1551.9,331.6,1562.7,337z"/>
		<path class="st17" d="M1577.4,326.7c-0.2,3.8-6.7,8.3-14.7,10.3c-0.2,0.1-0.5,0.1-1,0.2c-0.1,0-0.2,0-0.3,0.1
			c-5,1.1-10.4,1.2-15.3-0.5c-1.5-3.2,5.8-11.8,2.9-14.7c-0.5-0.4-1.2-1-2.2-1.6c-4.7-3.2-12.8-6.1-22.5-9.7
			c-6.9-2.7-14.6-5.7-22.5-9.6c0,0-0.1,0-0.1-0.1c-5.7-2.9-11.7-6.3-17.4-10.3s-11.4-8.8-16.5-14.3c-8.5-8.9-15.9-19.8-21.2-33.5
			c-10.7-27.8,43-11.8,43-11.8s7.1,1,18.4,7.6c2.5,1.4,5.1,3.1,7.9,5.1c13.8,9.6,31.7,26.6,50.5,56.3c3.6,5.6,6.4,12.1,9.5,18.8
			C1576,319,1578,322.9,1577.4,326.7z"/>
	</g>
	<path class="st14" d="M1520.6,70.6c0,0,7.9,0.4,13.9-10.9c6.1-11.2,13.3-7.4,13.7-7.5s11.6,5.6,12.9-0.5
		c1.2-6.3-20.6-20.8-32.4-13.9c-11.9,6.8-9.6,31.8-9.6,31.8"/>
	<path class="st17" d="M1534.9,136.3c0,0,42.1-17.8,61.2-26.3c19.2-8.4,31-30.6,50.3-40.1c19.2-9.5,22.5-12.6,22.5-12.6l2.1,6.2
		c0,0-34.2,47.2-54.8,53c-20.6,5.7-70.7,53-73.1,54.8c-2.4,1.9-11.8-22.5-11.8-22.5"/>
	<path class="st17" d="M1508.8,133.3l-2.6,7.7c0,0-46.4,31-67.2,42.4c-15.9,8.6-26.3,25.8-39.6,39.1c0,0,0,0,0,0.1
		c-4.1,4.1-8.6,8-13.6,10.9c-4.2,2.6-7.8,4.8-10.7,6.6c-0.1,0-0.1,0-0.1,0.1c-5.4,2.4-9.3,5.3-11.9,8.3l0,0c-1.2,1-1.6,1.4-1.6,1.4
		l-2.9-6.8c0,0,10.8-17.8,24.3-35c1.1-1.3,1.7-2.2,1.7-2.2c10.2-12.6,21.7-24.4,31.1-28c22.8-8.4,75.1-66.6,77.6-69
		C1495.8,106.5,1508.8,133.3,1508.8,133.3z"/>
	<path class="st18" d="M1399.4,222.5L1399.4,222.5c-2.8,4.8-13.3,13-24.3,17.6c-0.1,0-0.1,0-0.1,0.1c-5.4,2.4-9.3,5.3-11.9,8.3l0,0
		c-2.7,3-4.2,5.8-5.4,8c-2.4,4.1-8.4,8.9-11.4,9.1c-3,0.2,3.9-3.7,5.8-6.3c1.9-2.6,1.9-4.4,1.9-4.4s-14.2,11.1-19.4,19
		c0,0-4.1,9.7-5.3,8.5c-1.2-1.3-2.6-14.6,1.9-19.9c4.4-5.3,8.8-11,21.4-20.5c6.6-4.9,24.7-26.9,30.3-33.8c1.1-1.3,1.7-2.2,1.7-2.2
		s9.9-5.4,11.6-4.4C1397.7,202.4,1402,217.8,1399.4,222.5z"/>
	<path class="st18" d="M1645.8,94L1645.8,94c5.2-1.9,15-10.9,21.5-21.1c0-0.1,0-0.1,0.1-0.1c3.2-5,6.8-8.2,10.2-10.3l0,0
		c3.4-2.2,6.5-3.2,8.8-4c4.4-1.6,10.1-6.8,10.8-9.6c0.6-2.9-4.3,3.2-7.1,4.8c-2.9,1.5-4.8,1.2-4.8,1.2s4.8-5.6,13.3-9.8
		c6.2-3.1,13.2-10.3,12.1-11.7c-1.1-1.4-6.4,0.4-13.7,2.3c-6.8,1.7-12.8,4.9-24.1,15.9c-5.9,5.7-48.8,30.1-48,31.8
		C1625.3,84.7,1640.6,95.8,1645.8,94z"/>
	<path class="st18" d="M1326.8,401.6c-15.3,13.2-44.8,33.5-50.9,42c-7.6,10.3-18.7,31.1-33.1,41.4c-14.4,10.3-22.9,33.9-28.8,36
		c-5.7,2.2-9.3-2.1-14.8-7.8s2.5-21.8,7-27.6c4.7-5.8,14.9-5.8,26.2-19.1c11.2-13.3,19.8-18.1,21.8-20.5
		c1.4-1.7,24.8-41.9,43.9-68.2c13.6-0.5,32.5-0.4,33.2,3.9C1331.6,384.6,1329.5,393,1326.8,401.6z"/>
	<path class="st18" d="M1542.7,336.4c0.1,2.2-0.5,4.4-1.5,6.7c-25.8,7.6-65.9,19.8-73.3,23.8c-10.3,5.7-28,18.9-44,22.2
		c-16,3.1-32.5,19.7-38.4,19.2c-5.7-0.4-7-5.3-9.5-12.3c-2.5-7,10.5-17.4,16.8-20.5c6.2-3.1,14.8,0.9,29.5-5.9
		c14.8-6.8,23.7-7.8,26.5-8.9c24.3-9.6,36.8-25.2,50.8-36.7C1515.5,325.8,1542.5,330.1,1542.7,336.4z"/>
	<path class="st19" d="M1577.4,326.7c-0.2,3.8-6.7,8.3-14.7,10.3c-0.2,0.1-0.5,0.1-1,0.2c-0.1,0-0.2,0-0.3,0.1
		c-3.4,1-10.8,3.1-20.2,5.7c-15,4.3-34.7,10.3-50.1,15.3c-1.8-5.2-4.1-12.6-6.8-21c5.3-4.8,10.2-9.5,15.2-13.6
		c7.2-5.9,14.8-10.7,24.7-13.1c-6.9-2.7-14.6-5.7-22.5-9.6c0,0-0.1,0-0.1-0.1c-5.7-2.9-11.7-6.3-17.4-10.3
		c-5.7-4-11.4-8.8-16.5-14.3c2.6-8.1,7.5-28.3-1.3-46.6c1,0.8,16.2,13.3,29.9,13.3c4.4,0,8.3-1.8,11.6-4.5
		c7.1-5.7,11.7-15.6,13.8-19c3.1-5.1,0-17.4,0-17.4s-16.5-1.5-15.9-16.4c0,0,18.1,13.4,25.2,8.2c7.2-5.2,7.5-10.7,7.5-10.7
		s0.4,17.8,6.7,21c-2.2,1.4-4.4,2.3-6.9,2.2c0,0-17,18.3-22.6,37.5c13.8,9.6,31.7,26.6,50.5,56.3c3.6,5.6,6.4,12.1,9.5,18.8
		C1576,319,1578,322.9,1577.4,326.7z"/>
	<path class="st16" d="M1485.5,110.1c0,0,25.9,0.5,33.2,10.7c7.4,10.2,14.5,12.1,14.5,12.9c-0.1,0.8,9.1-0.5,9.1-0.5
		s1.2-12.4-8.6-12.9c0,0-7.4-3.2-21-18.7c-13.7-15.5-49.9,9.8-69.1,24.8C1424.4,141.1,1485.5,110.1,1485.5,110.1z"/>
</g>
<rect x="-130" y="1067" class="st6" width="2036.1" height="50.1"/>
</svg>
