<?xml version="1.0" encoding="utf-8"?>
<!-- Generator: Adobe Illustrator 23.1.0, SVG Export Plug-In . SVG Version: 6.00 Build 0)  -->
<svg version="1.1" id="Layer_1" xmlns="http://www.w3.org/2000/svg" xmlns:xlink="http://www.w3.org/1999/xlink" x="0px" y="0px"
	 viewBox="0 0 1920 1080" style="enable-background:new 0 0 1920 1080;" xml:space="preserve">
<style type="text/css">
	.st0{clip-path:url(#SVGID_2_);fill:url(#SVGID_3_);}
	.st1{clip-path:url(#SVGID_5_);fill:url(#SVGID_6_);}
	.st2{clip-path:url(#SVGID_8_);}
	.st3{fill:url(#SVGID_9_);}
	.st4{opacity:0.1;fill:#6988F9;enable-background:new    ;}
	.st5{fill:#CBFEFE;}
	.st6{fill:#FFFFFF;}
	.st7{clip-path:url(#SVGID_11_);}
	.st8{opacity:0.4;fill:#8FE2EA;enable-background:new    ;}
	.st9{opacity:0.4;}
	.st10{fill:#E3D2B4;}
	.st11{fill:#3E1E7D;}
	.st12{opacity:0.2;}
	.st13{fill:#331D74;}
	.st14{fill:#1D1B16;}
	.st15{fill:#FFCC99;}
	.st16{fill:#763CCE;}
	.st17{fill:#8EB7FF;}
	.st18{fill:#1C6CD9;}
	.st19{fill:#7AABFF;}
</style>
<g>
	<g>
		<g>
			<g>
				<defs>
					<rect id="SVGID_1_" x="-212.7" y="-152.6" width="2134.8" height="1305.7"/>
				</defs>
				<clipPath id="SVGID_2_">
					<use xlink:href="#SVGID_1_"  style="overflow:visible;"/>
				</clipPath>
				
					<linearGradient id="SVGID_3_" gradientUnits="userSpaceOnUse" x1="1782.9722" y1="1741.8646" x2="448.3024" y2="473.5602" gradientTransform="matrix(1 0 0 -1 0 1360)">
					<stop  offset="2.423880e-03" style="stop-color:#A050FF"/>
					<stop  offset="0.2561" style="stop-color:#6989F8"/>
					<stop  offset="0.4957" style="stop-color:#3CB7F2"/>
					<stop  offset="0.7071" style="stop-color:#1CD8EE"/>
					<stop  offset="0.8825" style="stop-color:#08EDEB"/>
					<stop  offset="1" style="stop-color:#01F4EA"/>
				</linearGradient>
				<rect x="-212.7" y="-152.6" class="st0" width="2134.8" height="1305.7"/>
			</g>
		</g>
	</g>
	<g>
		<g>
			<g>
				<defs>
					<rect id="SVGID_4_" x="-212.7" y="-152.6" width="2134.8" height="1305.7"/>
				</defs>
				<clipPath id="SVGID_5_">
					<use xlink:href="#SVGID_4_"  style="overflow:visible;"/>
				</clipPath>
				
					<linearGradient id="SVGID_6_" gradientUnits="userSpaceOnUse" x1="-19.8249" y1="1740.9751" x2="1729.1249" y2="-7.975" gradientTransform="matrix(1 0 0 -1 0 1360)">
					<stop  offset="3.409785e-07" style="stop-color:#000444"/>
					<stop  offset="0.9285" style="stop-color:#984CF6"/>
					<stop  offset="0.929" style="stop-color:#994DF8"/>
					<stop  offset="0.932" style="stop-color:#A050FF"/>
				</linearGradient>
				<rect x="-234.7" y="-166.1" class="st1" width="2178.7" height="1319.2"/>
			</g>
		</g>
	</g>
	<g>
		<g>
			<g>
				<defs>
					<rect id="SVGID_7_" x="-212.7" y="-152.6" width="2134.8" height="1305.7"/>
				</defs>
				<clipPath id="SVGID_8_">
					<use xlink:href="#SVGID_7_"  style="overflow:visible;"/>
				</clipPath>
				<g class="st2">
					
						<linearGradient id="SVGID_9_" gradientUnits="userSpaceOnUse" x1="439.9999" y1="900.9943" x2="1944" y2="900.9943" gradientTransform="matrix(1 0 0 -1 0 1360)">
						<stop  offset="0.4449" style="stop-color:#000959"/>
						<stop  offset="0.7252" style="stop-color:#00034B"/>
						<stop  offset="0.9883" style="stop-color:#000044"/>
					</linearGradient>
					<path class="st3" d="M1944,649v416.5c-5,1.2-10,2.5-15,3.6c-66.8,15.6-138.8,24.6-202.3-1.5c-135.8-56-173.9-242.9-300.3-318.2
						c-128.4-76.5-313.2-17-425.3-116.6c-125.5-111.3-75-349.2-209.3-449.2c-47.5-35.3-109.3-45.1-159-77
						c-54.5-34.9-89.5-93.1-120.3-150.4c-22.2-42-44-85-72.5-122.3h708.8c12.6,25.1,27.3,48.4,46.9,68.3
						c82.4,83.9,220.2,76.9,317.7,142.2c98.9,66.3,137.5,191.6,174.6,305.8c37.4,114,90.8,238.1,200.6,283.4
						C1906.7,641.1,1925.1,646.1,1944,649z"/>
					<g>
						<path class="st4" d="M772.7,251.1c-0.9-8-17.3-8.8-45.5-0.1c1.1,1.5,2.2,3.1,3.1,4.7c11.1-1.5,18.4-0.6,19.8,2.9
							c1.2,3.4-3.6,9-12.7,15.2c-0.2-1.1-0.5-2.1-0.8-3.1c-0.1-0.2-0.1-0.4-0.2-0.6c-0.8-2.7-1.8-5.4-2.8-7.7c0-0.1-0.1-0.2-0.1-0.3
							c-8.4-18.8-25.8-32.9-46.5-36.4l0,0c-1.5-0.2-3.1-0.4-4.7-0.6h-0.1c-1.5-0.1-3.2-0.2-4.9-0.2l0,0l0,0c-0.2,0-0.3,0-0.5,0
							c-3.1,0-6.1,0.2-9.2,0.7l0,0l0,0c-1.6,0.2-3.2,0.6-4.7,1c-0.2,0-0.3,0.1-0.5,0.1c-1.5,0.3-3.1,0.9-4.5,1.3h-0.2
							c-1.5,0.4-3,1.1-4.4,1.7c-0.1,0-0.2,0.1-0.3,0.1c-1.4,0.6-2.8,1.2-4.1,1.9c-0.2,0.1-0.4,0.2-0.5,0.3c-1.3,0.7-2.7,1.5-4,2.4
							c0,0-0.1,0-0.1,0.1c-1.2,0.7-2.5,1.6-3.7,2.6c-0.2,0.1-0.3,0.2-0.5,0.3c-0.3,0.2-0.6,0.4-1.1,0.9l0,0l0,0
							c-0.8,0.6-1.5,1.2-2.4,1.9c-0.2,0.1-0.4,0.3-0.5,0.4c-0.8,0.7-1.5,1.3-2.3,2c-0.1,0.1-0.1,0.1-0.2,0.2
							c-0.8,0.7-1.5,1.6-2.4,2.5l0,0c-2.4,2.6-4.5,5.4-6.5,8.4c-0.1,0.1-0.2,0.2-0.2,0.3c-0.5,0.9-1,1.7-1.5,2.5
							c-0.1,0.2-0.2,0.4-0.3,0.6c-0.4,0.7-0.9,1.6-1.2,2.5c-0.1,0.2-0.2,0.4-0.3,0.7c-0.4,0.9-0.8,1.7-1.2,2.6
							c-0.1,0.2-0.2,0.3-0.2,0.6c-0.6,1.6-1.2,3.1-1.8,4.7v0.1c-0.2,0.6-0.3,1.1-0.5,1.7c-0.1,0.2-0.1,0.4-0.2,0.7
							c-0.2,0.9-0.4,1.7-0.6,2.6c-0.1,0.3-0.2,0.7-0.2,1.1c-0.2,0.7-0.3,1.5-0.4,2.4c-0.1,0.3-0.1,0.9-0.2,1.2
							c-0.1,0.7-0.2,1.5-0.3,2.1l0,0v0.1c0,0.4-0.1,0.9-0.1,1.3c-0.1,0.9-0.1,1.6-0.2,2.5c0,0.3-0.1,0.7-0.1,1.1
							c-0.1,1.2-0.1,2.5-0.1,3.6c0,2.1,0.1,4.3,0.3,6.3c-22.8,12.7-36.3,24.3-34,30.6c2.4,6.3,20.1,5.9,45.5,0.1l0,0
							c3.8,5.4,8.4,10.2,13.7,14l0,0l0,0c9.6,7.2,21.2,11.6,33.8,12.2c1.1,0,2.2,0.1,3.2,0.1c1.2,0,2.4,0,3.6-0.1
							c0.3,0,0.8,0,1.1-0.1c0.8,0,1.5-0.1,2.4-0.2c0.4,0,0.9-0.1,1.2-0.1c0.8-0.1,1.4-0.2,2.3-0.3c0.4-0.1,0.9-0.1,1.2-0.2
							c0.8-0.1,1.4-0.3,2.3-0.4c0.3-0.1,0.8-0.1,1.1-0.2c0.9-0.2,1.6-0.4,2.6-0.7c0.2-0.1,0.4-0.1,0.6-0.2c2.3-0.7,4.3-1.5,6.5-2.5
							c0.2-0.1,0.4-0.2,0.5-0.2c0.9-0.3,1.6-0.7,2.5-1.2c0.2-0.1,0.4-0.2,0.6-0.3c0.8-0.3,1.5-0.9,2.4-1.3c0.2-0.1,0.4-0.2,0.6-0.3
							c0.8-0.4,1.6-1,2.5-1.6c0.1-0.1,0.2-0.1,0.4-0.2c2.9-1.9,5.7-4.1,8.1-6.5l0,0c0.6-0.6,1.3-1.3,2-1.9c0.1-0.1,0.2-0.2,0.3-0.3
							l0,0c0.1-0.1,0.1-0.1,0.2-0.2c0.5-0.6,1.1-1.2,1.6-1.9c0.1-0.1,0.2-0.2,0.3-0.3l0.1-0.1c0.1-0.1,0.1-0.1,0.2-0.2
							c0.5-0.6,1.1-1.3,1.6-2c0-0.1,0.1-0.1,0.1-0.2c7.7-10.1,12.6-22.5,13.1-36.1c0-1,0.1-2,0.1-3l0,0c0-1.3-0.1-2.8-0.1-4.1
							c0-0.3,0-0.7-0.1-1.1c0-0.3,0-0.7-0.1-1.1l0,0C761.5,268.9,773.3,257.7,772.7,251.1z M614.5,297.3c0-0.3-0.1-0.6-0.1-1
							C614.5,296.7,614.5,297.1,614.5,297.3z M602,315.4c-1.3-3.5,3.7-9,12.9-15.3c0-0.1,0-0.1,0-0.2c0.3,1.7,0.6,3.2,1.1,4.9l0,0
							l0,0c0.3,1.5,0.8,2.8,1.3,4.3c0,0,0,0,0,0.1c1,2.8,2.2,5.5,3.3,8c0,0,0,0.1,0.1,0.1c0.2,0.3,0.4,0.9,0.6,1.2
							C610.4,319.7,603.3,318.8,602,315.4z"/>
						<path class="st4" d="M1665.6,494.1c-22.6-23-59.4-23-82,0c-22.6,23-22.6,60.2,0,83.1c22.6,23,59.4,23,82,0
							C1688.2,554.4,1688.2,517,1665.6,494.1z"/>
						<path class="st4" d="M1171.4,98.6c-22.6-23-59.4-23-82,0s-22.6,60.2,0,83.1c22.6,23,59.4,23,82,0
							C1194,158.9,1194,121.6,1171.4,98.6z"/>
						<path class="st4" d="M1189.9,63.8c-5.4-5.5-13.9-5.5-19.3,0s-5.4,14.1,0,19.5c5.4,5.5,13.9,5.5,19.3,0
							C1195.2,77.9,1195.2,69.3,1189.9,63.8z"/>
					</g>
					<g>
						<ellipse class="st5" cx="239.3" cy="113.3" rx="3.7" ry="3.7"/>
						<path class="st5" d="M705.3,87.3c0,2-1.6,3.7-3.7,3.7s-3.7-1.7-3.7-3.7s1.6-3.7,3.7-3.7C703.6,83.5,705.3,85.2,705.3,87.3z"/>
						<path class="st5" d="M1746.8,376.3c0,2-1.6,3.7-3.7,3.7s-3.7-1.7-3.7-3.7s1.6-3.7,3.7-3.7S1746.8,374.3,1746.8,376.3z"/>
						<path class="st5" d="M800.5,607.1c0,1.6-1.2,2.8-2.8,2.8s-2.8-1.2-2.8-2.8s1.2-2.8,2.8-2.8
							C799.3,604.4,800.5,605.5,800.5,607.1z"/>
						<path class="st5" d="M1263-19.7c1.1,1,1.3,2.7,0.4,3.9c-0.9,1.2-2.6,1.3-3.7,0.4c-1.1-1-1.3-2.7-0.4-3.9S1262-20.7,1263-19.7z
							"/>
						<path class="st5" d="M1743.2,268.3c0,3.9-3,6.9-6.8,6.9s-6.8-3.1-6.8-6.9c0-3.9,3.1-6.9,6.8-6.9
							C1740.2,261.3,1743.2,264.4,1743.2,268.3z"/>
						<path class="st5" d="M723.1,109.6c0,3.9-3.1,6.9-6.8,6.9s-6.8-3.1-6.8-6.9c0-3.9,3-6.9,6.8-6.9S723.1,105.8,723.1,109.6z"/>
						<path class="st5" d="M1338.2,244.5c0,3.9-3.1,6.9-6.8,6.9c-3.8,0-6.8-3.1-6.8-6.9c0-3.7,3-6.9,6.8-6.9
							C1335.2,237.7,1338.2,240.8,1338.2,244.5z"/>
						<path class="st5" d="M719.9,467.1c0,2-1.6,3.7-3.7,3.7s-3.7-1.7-3.7-3.7s1.6-3.7,3.7-3.7S719.9,465.1,719.9,467.1z"/>
						<path class="st5" d="M1244.1-14.8c0,2-1.6,3.7-3.7,3.7s-3.7-1.7-3.7-3.7s1.6-3.7,3.7-3.7S1244.1-16.8,1244.1-14.8z"/>
						<path class="st5" d="M1060.5,452c0,1.6-1.2,2.9-2.8,2.9c-1.5,0-2.8-1.3-2.8-2.9s1.2-2.9,2.8-2.9S1060.5,450.5,1060.5,452z"/>
						<path class="st5" d="M1019.3,512.4c-1.5,0-2.8-1.3-2.8-2.9s1.2-2.9,2.8-2.9c1.5,0,2.8,1.3,2.8,2.9S1020.9,512.4,1019.3,512.4z
							"/>
						<ellipse class="st5" cx="1277.8" cy="756.8" rx="1.5" ry="1.6"/>
						<path class="st5" d="M800.7,667.5c0,0.9-0.6,1.6-1.4,1.6s-1.4-0.7-1.4-1.6s0.6-1.6,1.4-1.6C800,665.9,800.7,666.7,800.7,667.5
							z"/>
						<path class="st5" d="M1442.6,1003.2c1.2,1,1.3,2.7,0.4,3.9s-2.7,1.3-3.9,0.4c-1.2-1-1.3-2.7-0.4-3.9
							C1439.7,1002.3,1441.3,1002.2,1442.6,1003.2z"/>
						<path class="st5" d="M902.9,581.1c1.2,1,1.3,2.7,0.4,3.9c-0.9,1.2-2.7,1.3-3.9,0.4c-1.2-1-1.3-2.7-0.4-3.9
							C900,580.5,901.6,580.3,902.9,581.1z"/>
						<ellipse class="st5" cx="194.4" cy="25" rx="1.5" ry="1.6"/>
						<path class="st5" d="M1875.8-14.8c0,1.6-1.2,2.8-2.8,2.8c-1.5,0-2.8-1.2-2.8-2.8c0-1.6,1.2-2.8,2.8-2.8
							C1874.5-17.6,1875.8-16.4,1875.8-14.8z"/>
						<path class="st5" d="M1064.6,668.9c0,0.9-0.6,1.6-1.5,1.6s-1.5-0.7-1.5-1.6c0-0.9,0.6-1.6,1.5-1.6
							C1063.9,667.5,1064.6,668.1,1064.6,668.9z"/>
						<path class="st5" d="M-69.7,23.4c0.1,0.9-0.5,1.6-1.3,1.7s-1.5-0.6-1.6-1.5s0.5-1.6,1.3-1.7C-70.5,21.8-69.7,22.6-69.7,23.4z"
							/>
						<path class="st5" d="M1470,963.4c0.3,0.9,0,1.7-0.8,2s-1.6,0-2-0.9c-0.3-0.9,0-1.7,0.8-2
							C1468.7,962.3,1469.7,962.6,1470,963.4z"/>
						<path class="st6" d="M824.9,741.9l3.6,6.7c1.2,2.4,3.1,4.4,5.4,5.6l6.5,3.7c0.2,0.1,0.2,0.4,0,0.6l-6.5,3.7
							c-2.3,1.3-4.1,3.2-5.4,5.6l-3.6,6.7c-0.1,0.2-0.4,0.2-0.6,0l-3.6-6.7c-1.2-2.4-3.1-4.4-5.4-5.6l-6.5-3.7
							c-0.2-0.1-0.2-0.4,0-0.6l6.5-3.7c2.3-1.3,4.1-3.2,5.4-5.6l3.6-6.7C824.5,741.7,824.8,741.7,824.9,741.9z"/>
						<path class="st6" d="M1585.7,779.1l3.6,6.7c1.2,2.4,3.1,4.4,5.4,5.6l6.5,3.7c0.2,0.1,0.2,0.4,0,0.6l-6.5,3.7
							c-2.3,1.3-4.1,3.2-5.4,5.6l-3.6,6.7c-0.1,0.2-0.4,0.2-0.6,0l-3.6-6.7c-1.2-2.4-3.1-4.4-5.4-5.6l-6.5-3.7
							c-0.2-0.1-0.2-0.4,0-0.6l6.5-3.7c2.3-1.3,4.1-3.2,5.4-5.6l3.6-6.7C1585.2,778.9,1585.6,778.9,1585.7,779.1z"/>
						<path class="st6" d="M940.3,123.8l3.7,6.7c1.2,2.4,3.2,4.4,5.6,5.6l6.7,3.7c0.2,0.1,0.2,0.4,0,0.6l-6.7,3.7
							c-2.4,1.3-4.2,3.2-5.6,5.6l-3.7,6.7c-0.1,0.2-0.5,0.2-0.6,0l-3.7-6.7c-1.2-2.4-3.2-4.4-5.6-5.6l-6.7-3.7
							c-0.2-0.1-0.2-0.4,0-0.6l6.7-3.7c2.4-1.3,4.2-3.2,5.6-5.6l3.7-6.7C939.6,123.5,940.2,123.5,940.3,123.8z"/>
						<path class="st6" d="M376.1,67.1l1.3,2.6c0.4,0.9,1.2,1.6,2.2,2l2.6,1.5c0.1,0,0.1,0.2,0,0.2l-2.6,1.5c-0.9,0.4-1.5,1.2-2.2,2
							l-1.3,2.6c0,0.1-0.2,0.1-0.2,0l-1.3-2.6c-0.4-0.9-1.2-1.6-2.2-2l-2.6-1.3c-0.1,0-0.1-0.2,0-0.2l2.6-1.5c0.9-0.4,1.5-1.2,2.2-2
							l1.3-2.6C376,67.1,376.1,67.1,376.1,67.1z"/>
						<path class="st6" d="M935.9,672.6l1.3,2.6c0.4,0.9,1.2,1.6,2.2,2l2.6,1.5c0.1,0,0.1,0.2,0,0.2l-2.6,1.5
							c-0.9,0.4-1.5,1.2-2.2,2l-1.3,2.6c0,0.1-0.2,0.1-0.2,0l-1.3-2.6c-0.4-0.9-1.2-1.6-2.2-2l-2.6-1.5c-0.1,0-0.1-0.2,0-0.2
							l2.6-1.5c0.9-0.4,1.5-1.2,2.2-2l1.3-2.6C935.7,672.4,935.9,672.4,935.9,672.6z"/>
						<path class="st6" d="M1152.1,328.9l1.8,3.4c0.6,1.2,1.5,2,2.7,2.8l3.3,1.8c0.1,0.1,0.1,0.2,0,0.3l-3.3,1.8
							c-1.1,0.6-2.2,1.6-2.7,2.8l-1.8,3.4c-0.1,0.1-0.2,0.1-0.3,0l-1.8-3.4c-0.6-1.2-1.5-2-2.7-2.8l-3.3-1.8c-0.1-0.1-0.1-0.2,0-0.3
							l3.3-1.8c1.1-0.6,2.2-1.6,2.7-2.8l1.8-3.4C1151.9,328.7,1152.1,328.7,1152.1,328.9z"/>
						<path class="st6" d="M1673.5,73.4l1.8,3.4c0.6,1.2,1.5,2,2.7,2.8l3.3,1.8c0.1,0.1,0.1,0.2,0,0.3l-3.3,1.8
							c-1.1,0.6-2.2,1.6-2.7,2.8l-1.8,3.4c-0.1,0.1-0.2,0.1-0.3,0l-1.8-3.4c-0.6-1.2-1.5-2-2.7-2.8l-3.3-1.8c-0.1-0.1-0.1-0.2,0-0.3
							l3.3-1.8c1.1-0.6,2.2-1.6,2.7-2.8l1.8-3.4C1673.3,73.3,1673.5,73.3,1673.5,73.4z"/>
						<path class="st6" d="M1555.7,615.4l2.6,4.7c0.9,1.7,2.3,3,3.9,3.9l4.6,2.6c0.2,0.1,0.2,0.3,0,0.4l-4.6,2.6
							c-1.6,0.9-3,2.4-3.9,3.9l-2.6,4.7c-0.1,0.2-0.3,0.2-0.4,0l-2.6-4.7c-0.9-1.7-2.3-3-3.9-3.9l-4.6-2.6c-0.2-0.1-0.2-0.3,0-0.4
							l4.6-2.6c1.6-0.9,3-2.4,3.9-3.9l2.6-4.7C1555.4,615.2,1555.6,615.2,1555.7,615.4z"/>
					</g>
				</g>
			</g>
		</g>
	</g>
	<g>
		<g>
			<g>
				<defs>
					<rect id="SVGID_10_" x="-212.7" y="-152.6" width="2134.8" height="1305.7"/>
				</defs>
				<clipPath id="SVGID_11_">
					<use xlink:href="#SVGID_10_"  style="overflow:visible;"/>
				</clipPath>
				<g class="st7">
					<path class="st6" d="M1842.5,590.8c-18.2,37.4-15,81.3-16.5,122.9c-1.5,41.8-11,88-44.8,111.8c-48.5,34-118.3,3.6-172.5,27.4
						c-47.2,20.8-68.3,75.1-90.9,121.8c-22.7,46.8-61.9,96.5-113.1,91.5c-79.1-7.7-77.6-84.5-157-114
						c-50.6-18.8-79.4,18.1-134.9,7.1c-14.5-2.9-21.8-8-28.8-16.3c-38-45.8,23.1-164.3,41.6-200.1c18-34.9,49.1-86,101.3-138.2
						c-3.6-2.4-7.2-4.7-10.8-7.1c-41.9,53.9-81.6,94.6-112.6,123.6C1065,757.3,995.8,816.5,911,848c-10.1,3.8-17.4,5.3-26.5,7.2
						c-62.2,13.1-126-21.1-146.2-82.1c-20.1-61-8.4-127.5-10.2-192c-1.8-64.3-24.5-137.3-83.2-161.8c-51.1-21.3-67.7-1.4-121.5-27.7
						c-72.1-35.3-83.3-126.7-148.1-164.7c-21.6-12.7-59-24.6-123.4-8.2c-36.2,5.5-66.3,7-88.5,7.2c-17.6,0.2-32.3-0.5-41.7-1
						c-20.6-1.2-37.8-3.3-50.4-5.1c-13.5-1-24.5-3.8-32.8-6.5C22.9,208,9.9,203.6,0,191.9c-10.7-12.7-6.7-21.2-17.1-26.7
						c-3.1-1.7-4.4-1.4-26.6-6.1c0,0-2.9,0-11-2.4c-40.7-12.2-64-48.5-71.2-60.5c-32.2-53.5-20.6-75.6-26.6-80.7
						c-21.6-18.8-31.4-40.9-40.7-62.4c-10.6-24.6-26.9-72.1-24.2-139v1358.5H1944V553.9C1911.6,528.2,1860.8,553.4,1842.5,590.8z"/>
					<g>
						<path class="st8" d="M1493.2,335.2c-0.5,0.6-1.5,0.6-2.3,0c-0.5-0.6-0.5-1.6,0-2.4c0.5-0.6,1.5-0.6,2.3,0
							C1494,333.7,1494,334.7,1493.2,335.2z M1500.5,328c-0.5,0.6-1.5,0.6-2.3,0c-0.5-0.6-0.5-1.6,0-2.4c0.5-0.6,1.5-0.6,2.3,0
							C1501.1,326.4,1501.1,327.4,1500.5,328z M1507.7,320.7c-0.5,0.6-1.5,0.6-2.3,0c-0.5-0.6-0.5-1.6,0-2.4c0.5-0.6,1.5-0.6,2.3,0
							C1508.3,319.1,1508.3,320.1,1507.7,320.7z M1514.9,313.5c-0.5,0.6-1.5,0.6-2.3,0c-0.6-0.6-0.5-1.6,0-2.4
							c0.5-0.6,1.5-0.6,2.3,0C1515.4,311.8,1515.4,312.8,1514.9,313.5z M1522.1,306.1c-0.5,0.6-1.5,0.6-2.3,0
							c-0.5-0.6-0.5-1.6,0-2.4s1.5-0.6,2.3,0C1522.8,304.4,1522.7,305.4,1522.1,306.1z M1529.2,298.8c-0.5,0.6-1.5,0.6-2.3,0
							c-0.5-0.6-0.5-1.6,0-2.4c0.5-0.6,1.5-0.6,2.3,0C1529.9,297.3,1529.9,298.3,1529.2,298.8z M1536.4,291.6
							c-0.5,0.6-1.5,0.6-2.3,0c-0.5-0.6-0.5-1.6,0-2.4c0.5-0.6,1.5-0.6,2.3,0C1537,290,1537,291,1536.4,291.6z M1543.6,284.3
							c-0.5,0.6-1.5,0.6-2.3,0c-0.5-0.6-0.5-1.6,0-2.4c0.5-0.6,1.5-0.6,2.3,0C1544.2,282.6,1544.2,283.7,1543.6,284.3z
							 M1550.8,277.1c-0.5,0.6-1.5,0.6-2.3,0c-0.5-0.6-0.5-1.6,0-2.4c0.5-0.6,1.5-0.6,2.3,0C1551.3,275.4,1551.3,276.3,1550.8,277.1
							z M1486.1,340.3c-0.5-0.6-1.5-0.6-2.3,0c-0.5,0.6-0.5,1.6,0,2.4c0.5,0.6,1.5,0.6,2.3,0
							C1486.7,341.8,1486.7,340.9,1486.1,340.3z M1478.9,347.6c-0.5-0.6-1.5-0.6-2.3,0c-0.5,0.6-0.5,1.6,0,2.4
							c0.5,0.6,1.5,0.6,2.3,0C1479.6,349.3,1479.6,348.2,1478.9,347.6z M1471.8,354.8c-0.5-0.6-1.5-0.6-2.3,0
							c-0.5,0.6-0.5,1.6,0,2.4c0.5,0.6,1.5,0.6,2.3,0C1472.4,356.5,1472.4,355.5,1471.8,354.8z M1342.3,488.5
							c-0.5,0.6-1.5,0.6-2.3,0c-0.5-0.6-0.5-1.6,0-2.4c0.5-0.7,1.5-0.6,2.3,0C1343,486.8,1342.9,488,1342.3,488.5z M1349.4,481.2
							c-0.5,0.6-1.5,0.6-2.3,0c-0.6-0.6-0.5-1.6,0-2.4c0.5-0.6,1.5-0.6,2.3,0C1350.1,479.6,1350.1,480.6,1349.4,481.2z M1356.6,474
							c-0.5,0.6-1.5,0.6-2.3,0c-0.5-0.6-0.5-1.6,0-2.4c0.5-0.6,1.5-0.6,2.3,0C1357.2,472.3,1357.2,473.3,1356.6,474z M1363.8,466.7
							c-0.5,0.6-1.5,0.6-2.3,0c-0.5-0.6-0.5-1.6,0-2.4c0.5-0.7,1.5-0.6,2.3,0C1364.4,465.1,1364.4,466,1363.8,466.7z M1340.3,548.3
							c-0.5,0.6-1.5,0.6-2.3,0c-0.5-0.6-0.5-1.6,0-2.4c0.5-0.6,1.5-0.6,2.3,0C1340.9,546.5,1340.9,547.6,1340.3,548.3z M1347.5,541
							c-0.5,0.6-1.5,0.6-2.3,0c-0.5-0.6-0.5-1.6,0-2.4c0.5-0.7,1.5-0.6,2.3,0C1348,539.4,1348,540.4,1347.5,541z M1354.6,533.7
							c-0.5,0.6-1.5,0.6-2.3,0c-0.6-0.6-0.5-1.6,0-2.4c0.5-0.6,1.5-0.6,2.3,0C1355.4,532.1,1355.4,533.1,1354.6,533.7z
							 M1361.8,526.4c-0.5,0.6-1.5,0.6-2.3,0c-0.5-0.6-0.5-1.6,0-2.4c0.5-0.6,1.5-0.6,2.3,0C1362.6,524.7,1362.5,525.8,1361.8,526.4
							z M1433.1,258.3c-0.5-0.6-0.5-1.6,0-2.4c0.5-0.6,1.5-0.6,2.3,0c0.5,0.6,0.5,1.6,0,2.4C1434.8,259,1433.8,259,1433.1,258.3z
							 M1484,230c-0.5-0.6-0.5-1.6,0-2.4c0.5-0.6,1.5-0.6,2.3,0c0.5,0.6,0.5,1.6,0,2.4C1485.5,230.5,1484.5,230.5,1484,230z
							 M1487.1,233.2c-0.5-0.6-0.5-1.6,0-2.4c0.5-0.6,1.5-0.6,2.3,0c0.5,0.6,0.5,1.6,0,2.4C1488.7,233.8,1487.8,233.8,1487.1,233.2z
							"/>
						<g class="st9">
							<path class="st10" d="M1587.4,654.9L1587.4,654.9c-1.1,0-1.9-0.9-1.9-1.9v-5.6c0-1.1,0.9-1.9,1.9-1.9l0,0
								c1.1,0,1.9,0.9,1.9,1.9v5.6C1589.2,654,1588.4,654.9,1587.4,654.9z"/>
							<path class="st10" d="M1600.4,654.9L1600.4,654.9c-1.1,0-1.9-0.9-1.9-1.9v-5.6c0-1.1,0.9-1.9,1.9-1.9l0,0
								c1.1,0,1.9,0.9,1.9,1.9v5.6C1602.4,654,1601.6,654.9,1600.4,654.9z"/>
							<path class="st10" d="M1613.7,654.9L1613.7,654.9c-1.1,0-1.9-0.9-1.9-1.9v-5.6c0-1.1,0.9-1.9,1.9-1.9l0,0
								c1.1,0,1.9,0.9,1.9,1.9v5.6C1615.6,654,1614.7,654.9,1613.7,654.9z"/>
							<path class="st10" d="M1626.8,654.9L1626.8,654.9c-1.1,0-1.9-0.9-1.9-1.9v-5.6c0-1.1,0.9-1.9,1.9-1.9l0,0
								c1.1,0,1.9,0.9,1.9,1.9v5.6C1628.7,654,1627.9,654.9,1626.8,654.9z"/>
							<path class="st10" d="M1640.1,654.9L1640.1,654.9c-1.1,0-1.9-0.9-1.9-1.9v-5.6c0-1.1,0.9-1.9,1.9-1.9l0,0
								c1.1,0,1.9,0.9,1.9,1.9v5.6C1641.9,654,1641,654.9,1640.1,654.9z"/>
							<path class="st10" d="M1653.2,654.9L1653.2,654.9c-1.1,0-1.9-0.9-1.9-1.9v-5.6c0-1.1,0.9-1.9,1.9-1.9l0,0
								c1.1,0,1.9,0.9,1.9,1.9v5.6C1655.1,654,1654.3,654.9,1653.2,654.9z"/>
							<path class="st10" d="M1667.7,654.9h-2.6c-0.3,0-0.6-0.3-0.6-0.7v-8c0-0.3,0.3-0.7,0.6-0.7h2.6c0.3,0,0.6,0.3,0.6,0.7v8
								C1668.3,654.7,1668,654.9,1667.7,654.9z"/>
							<path class="st10" d="M1679.5,654.9L1679.5,654.9c-1.1,0-1.9-0.9-1.9-1.9v-5.6c0-1.1,0.9-1.9,1.9-1.9l0,0
								c1.1,0,1.9,0.9,1.9,1.9v5.6C1681.4,654,1680.6,654.9,1679.5,654.9z"/>
						</g>
						<g class="st9">
							<path class="st11" d="M1532.1,219.2L1532.1,219.2c-0.8-0.7-0.8-1.9,0-2.8l3.8-3.9c0.8-0.7,2-0.7,2.7,0l0,0
								c0.8,0.7,0.8,1.9,0,2.8l-3.9,3.9C1534.1,219.9,1532.9,219.9,1532.1,219.2z"/>
							<path class="st11" d="M1541.4,228.6L1541.4,228.6c-0.8-0.7-0.8-1.9,0-2.8l3.9-3.9c0.8-0.7,2-0.7,2.7,0l0,0
								c0.8,0.7,0.8,1.9,0,2.8l-3.9,3.9C1543.4,229.3,1542.3,229.3,1541.4,228.6z"/>
							<path class="st11" d="M1550.8,238L1550.8,238c-0.8-0.7-0.8-1.9,0-2.8l3.9-3.9c0.8-0.7,2-0.7,2.7,0l0,0c0.8,0.7,0.8,1.9,0,2.8
								l-3.9,3.9C1552.8,238.7,1551.5,238.7,1550.8,238z"/>
							<path class="st11" d="M1560.1,247.4L1560.1,247.4c-0.8-0.7-0.8-1.9,0-2.8l3.8-3.9c0.8-0.7,2-0.7,2.7,0l0,0
								c0.8,0.7,0.8,1.9,0,2.8l-3.9,3.9C1562,248.2,1560.9,248.2,1560.1,247.4z"/>
							<path class="st11" d="M1569.4,256.9L1569.4,256.9c-0.8-0.7-0.8-1.9,0-2.8l3.9-3.9c0.8-0.7,2-0.7,2.7,0l0,0
								c0.8,0.7,0.8,1.9,0,2.8l-3.9,3.9C1571.3,257.6,1570.2,257.6,1569.4,256.9z"/>
							<path class="st11" d="M1578.7,266.4L1578.7,266.4c-0.8-0.7-0.8-1.9,0-2.8l3.9-3.9c0.8-0.7,2-0.7,2.7,0l0,0
								c0.8,0.7,0.8,1.9,0,2.8l-3.9,3.9C1580.7,267.2,1579.4,267.2,1578.7,266.4z"/>
							<path class="st11" d="M1588,275.9L1588,275.9c-0.8-0.7-0.8-1.9,0-2.8l3.8-3.9c0.8-0.7,2-0.7,2.7,0l0,0c0.8,0.7,0.8,1.9,0,2.8
								l-3.9,3.9C1590,276.6,1588.8,276.6,1588,275.9z"/>
							<path class="st11" d="M1597.3,285.3L1597.3,285.3c-0.8-0.7-0.8-1.9,0-2.8l3.9-3.9c0.8-0.7,2-0.7,2.7,0l0,0
								c0.8,0.7,0.8,1.9,0,2.8l-3.9,3.9C1599.4,286.1,1598.2,286.1,1597.3,285.3z"/>
							<path class="st11" d="M1606.7,294.7L1606.7,294.7c-0.8-0.7-0.8-1.9,0-2.8l3.9-3.9c0.8-0.7,2-0.7,2.7,0l0,0
								c0.8,0.7,0.8,1.9,0,2.8l-3.9,3.9C1608.6,295.5,1607.4,295.5,1606.7,294.7z"/>
						</g>
						<g class="st12">
							<path class="st13" d="M1174.2,521.2l-75.7,6.4c-0.2,0-0.3,0.1-0.5,0.2l-18.7,19.1l2.5-0.2l17.2-17.6l73.3-6.3l-18,18.3
								l2.5-0.2l18.2-18.5c0.2-0.2,0.3-0.6,0.1-1C1174.8,521.3,1174.5,521.1,1174.2,521.2z"/>
						</g>
						<g class="st12">
							<path class="st13" d="M1404.9,580.3l-27.5,27.9c-0.1,0.1-0.2,0.3-0.2,0.6V679c-29.8,39.8-68.7,78.2-95.6,102.8l-0.2,2.5
								c26.5-24.3,65.5-62.5,95.7-102.5v19.1c0.5-0.7,1.1-1.5,1.6-2v-89.6l26.1-26.4C1404.8,582,1404.8,581.1,1404.9,580.3z"/>
							<path class="st13" d="M1284,749.5l-0.2,2.6l17.7-18c0.1-0.1,0.2-0.3,0.2-0.4l6.4-76.8c0.1-0.3-0.1-0.6-0.4-0.9
								c-0.3-0.1-0.6-0.1-0.9,0.1l-17.2,17.4l-0.2,2.6l16.9-17.1l-6.1,74.2L1284,749.5z"/>
						</g>
					</g>
				</g>
			</g>
		</g>
	</g>
</g>
<g>
	<path class="st14" d="M1476.5,297.6c18-54.1-81-40.9-94-14.8c-13.1,26.1,0.5,38.7-23.6,38.3c-24.2-0.4-25.2,6.2-29.3,25.4
		c-4,19.2-25.4,26.5-25.4,26.5s17,31.6,70.6-12.2C1397.9,341.7,1469.2,319.6,1476.5,297.6z"/>
	<path class="st14" d="M1477.2,300.4c0,0,17.6-10.5-1-19.8c-10.5-5.3-60.2-11.9-71.4,49.7c-11.4,62-6,41.4-11.2,45
		c-4.3,3,4.7,111.2,48.8-10.9c9.2-25.7,15.1-57.4,17.2-61.6c2.1-4.1,19.3-7,19.3-7"/>
	<path class="st15" d="M1454.9,348.8c-0.5,0.1-1.1-22.4,2.7-27.2c3.8-4.7-12.8-12.4-12.8-12.4s-6.7,19.6-7.3,30.2
		c-0.7,10.5,20,7.3,20,7.3"/>
	<path class="st15" d="M1450.1,275c-0.3,0-8.2,21.2-4.4,35.6s14.5,20.6,18.1,19.2c1.6-0.7,5.3-4,9-9.4c5.1-7.4,4-12.4,7.2-26.7
		c0.8-3.6-2.4-7.1-5.3-10c-7.7-8-21.2-12.5-25.1-9"/>
	<path class="st15" d="M1445,295.9c0,0-6.1-5-6.5,7.2c-0.2,5.3,2.8,4.4,5.1,4.7c0.2,0,0,0-0.2,0.2c-0.2,0.2-3.6,36.1-3.6,36.1
		l4.8-6.2c0,0,4-19.3,3.6-20.4C1447.9,316.4,1448.1,296.9,1445,295.9z"/>
	<path class="st16" d="M1445.4,334.6c10-2.8-25.1-57.2-129.9,75.2c-90.6,114.4-183.1,73.7-187.2,73.9c-4,0.2-18.1,34.7,60.8,35.8
		c78.8,1.2,18.7,20.9,22.3,36.5c3.6,15.7,67.5,47.5,79.6,27.6c19.4-31.7,41.3-1.6,41.3-1.6s65.3-29.2,84.9-81
		c19.6-51.8,37.4-125.1,34.1-142C1447.8,342.2,1445.4,334.6,1445.4,334.6z"/>
	<path class="st17" d="M1464,398c-1.7,1.1-3.4,1.8-5.3,1.7c0,0-13,14-17.3,28.6c-0.6,1.9-1,3.7-1.1,5.7c-1.9,16.4-9.6,38.1-9.6,38.1
		s-0.1,0-0.1-0.1l-13.3-7.9l-46.2-27.3c0,0,4.7-17.3,40.6-31.5c22.4-8.9-3.4-85,20.7-84.3c9,0.3,34,26.8,35.9,35.4
		c1.9,8.4-0.6,26.3,1.2,30.9C1470.5,390.6,1467.9,395.4,1464,398z"/>
	<path class="st17" d="M1411.1,443.4c0,0-19.5,44.5-91.3,80.1c0,0-7,7.2-17.1,19.6c-1.2,1.6-3.2,3.4-5.9,5.7
		c-11.7,10.1-34.2,25.6-38.9,32.1c-5.8,7.9-14.3,23.8-25.3,31.6c-11,7.9-17.5,25.9-22,27.5c-4.4,1.7-7.1-1.6-11.3-6
		c-4.2-4.4,1.9-16.7,5.3-21.1c3.6-4.4,11.4-4.4,20-14.6c8.6-10.2,15.1-13.8,16.7-15.7c1.1-1.3,18.9-32.1,33.5-52.1
		c6.2-8.5,11.8-15.2,15.2-16.7c11.5-5.3,19.3-4.8,26.6-12.5c7.2-7.7,36.6-85,91.1-90.8C1462.3,404.5,1411.1,443.4,1411.1,443.4z"/>
	<g>
		<path class="st17" d="M1477.1,499.4c-0.2,0.1-0.4,0.1-0.8,0.2c-0.1,0-0.2,0-0.2,0.1c-2.6,0.8-8.3,2.4-15.4,4.4
			c-11.5,3.3-26.5,7.9-38.3,11.7c-8.6,2.8-15.4,5.2-17.7,6.6c-7.9,4.4-21.4,14.4-33.6,17c-12.2,2.4-24.8,15-29.3,14.7
			c-4.4-0.3-5.3-4-7.3-9.4c-1.9-5.3,8-13.3,12.8-15.7c4.7-2.4,11.3,0.7,22.5-4.5c11.3-5.2,18.1-6,20.2-6.8
			c11.9-4.7,20.1-11.2,27.2-17.6c4-3.7,7.8-7.3,11.6-10.4c5.5-4.5,11.3-8.2,18.9-10c3.1-0.8,6.5-1.1,10.3-1.1c7.9,0,13.4,1.7,19,1.5
			C1471.2,486.2,1468.9,495.3,1477.1,499.4z"/>
		<path class="st17" d="M1488.3,491.5c-0.2,2.9-5.1,6.3-11.2,7.9c-0.2,0.1-0.4,0.1-0.8,0.2c-0.1,0-0.2,0-0.2,0.1
			c-3.8,0.8-7.9,0.9-11.7-0.4c-1.1-2.4,4.4-9,2.2-11.2c-0.4-0.3-0.9-0.8-1.7-1.2c-3.6-2.4-9.8-4.7-17.2-7.4
			c-5.3-2.1-11.2-4.4-17.2-7.3c0,0-0.1,0-0.1-0.1c-4.4-2.2-8.9-4.8-13.3-7.9s-8.7-6.7-12.6-10.9c-6.5-6.8-12.1-15.1-16.2-25.6
			c-8.2-21.2,32.8-9,32.8-9s5.4,0.8,14.1,5.8c1.9,1.1,3.9,2.4,6,3.9c10.5,7.3,24.2,20.3,38.6,43c2.8,4.3,4.9,9.2,7.3,14.4
			C1487.3,485.7,1488.8,488.6,1488.3,491.5z"/>
	</g>
	<path class="st14" d="M1445,295.9c0,0,6,0.3,10.6-8.3c4.7-8.6,10.2-5.7,10.5-5.7c0.3-0.1,8.9,4.3,9.9-0.4
		c0.9-4.8-15.7-15.9-24.8-10.6c-9.1,5.2-7.3,24.3-7.3,24.3"/>
	<path class="st17" d="M1455.9,346.1c0,0,32.2-13.6,46.8-20.1c14.7-6.4,23.7-23.4,38.4-30.6c14.7-7.3,17.2-9.6,17.2-9.6l1.6,4.7
		c0,0-26.1,36.1-41.9,40.5c-15.7,4.4-54,40.5-55.8,41.9c-1.8,1.5-9-17.2-9-17.2"/>
	<path class="st17" d="M1435.9,343.8l-2,5.9c0,0-35.4,23.7-51.3,32.4c-12.1,6.6-20.1,19.7-30.3,29.9c0,0,0,0,0,0.1
		c-3.1,3.1-6.6,6.1-10.4,8.3c-3.2,2-6,3.7-8.2,5c-0.1,0-0.1,0-0.1,0.1c-4.1,1.8-7.1,4-9.1,6.3l0,0c-0.9,0.8-1.2,1.1-1.2,1.1
		l-2.2-5.2c0,0,8.3-13.6,18.6-26.7c0.8-1,1.3-1.7,1.3-1.7c7.8-9.6,16.6-18.6,23.8-21.4c17.4-6.4,57.4-50.9,59.3-52.7
		C1426,323.3,1435.9,343.8,1435.9,343.8z"/>
	<path class="st18" d="M1352.4,411.9L1352.4,411.9c-2.1,3.7-10.2,9.9-18.6,13.4c-0.1,0-0.1,0-0.1,0.1c-4.1,1.8-7.1,4-9.1,6.3l0,0
		c-2.1,2.3-3.2,4.4-4.1,6.1c-1.8,3.1-6.4,6.8-8.7,7c-2.3,0.2,3-2.8,4.4-4.8c1.5-2,1.5-3.4,1.5-3.4s-10.8,8.5-14.8,14.5
		c0,0-3.1,7.4-4,6.5c-0.9-1-2-11.2,1.5-15.2c3.4-4,6.7-8.4,16.3-15.7c5-3.7,18.9-20.5,23.1-25.8c0.8-1,1.3-1.7,1.3-1.7
		s7.6-4.1,8.9-3.4C1351.1,396.6,1354.4,408.4,1352.4,411.9z"/>
	<path class="st18" d="M1540.6,313.8L1540.6,313.8c4-1.5,11.5-8.3,16.4-16.1c0-0.1,0-0.1,0.1-0.1c2.4-3.8,5.2-6.3,7.8-7.9l0,0
		c2.6-1.7,5-2.4,6.7-3.1c3.4-1.2,7.7-5.2,8.3-7.3c0.5-2.2-3.3,2.4-5.4,3.7c-2.2,1.1-3.7,0.9-3.7,0.9s3.7-4.3,10.2-7.5
		c4.7-2.4,10.1-7.9,9.2-8.9c-0.8-1.1-4.9,0.3-10.5,1.8c-5.2,1.3-9.8,3.7-18.4,12.1c-4.5,4.4-37.3,23-36.7,24.3
		C1524.9,306.7,1536.6,315.2,1540.6,313.8z"/>
	<path class="st18" d="M1296.9,548.8c-11.7,10.1-34.2,25.6-38.9,32.1c-5.8,7.9-14.3,23.8-25.3,31.6c-11,7.9-17.5,25.9-22,27.5
		c-4.4,1.7-7.1-1.6-11.3-6c-4.2-4.4,1.9-16.7,5.3-21.1c3.6-4.4,11.4-4.4,20-14.6c8.6-10.2,15.1-13.8,16.7-15.7
		c1.1-1.3,18.9-32,33.5-52.1c10.4-0.4,24.8-0.3,25.4,3C1300.6,535.8,1299,542.2,1296.9,548.8z"/>
	<path class="st18" d="M1461.8,499c0.1,1.7-0.4,3.4-1.1,5.1c-19.7,5.8-50.3,15.1-56,18.2c-7.9,4.4-21.4,14.4-33.6,17
		c-12.2,2.4-24.8,15-29.3,14.7c-4.4-0.3-5.3-4-7.3-9.4c-1.9-5.3,8-13.3,12.8-15.7c4.7-2.4,11.3,0.7,22.5-4.5
		c11.3-5.2,18.1-6,20.2-6.8c18.6-7.3,28.1-19.3,38.8-28C1441.1,490.9,1461.7,494.1,1461.8,499z"/>
	<path class="st19" d="M1488.3,491.5c-0.2,2.9-5.1,6.3-11.2,7.9c-0.2,0.1-0.4,0.1-0.8,0.2c-0.1,0-0.2,0-0.2,0.1
		c-2.6,0.8-8.3,2.4-15.4,4.4c-11.5,3.3-26.5,7.9-38.3,11.7c-1.4-4-3.1-9.6-5.2-16c4-3.7,7.8-7.3,11.6-10.4c5.5-4.5,11.3-8.2,18.9-10
		c-5.3-2.1-11.2-4.4-17.2-7.3c0,0-0.1,0-0.1-0.1c-4.4-2.2-8.9-4.8-13.3-7.9s-8.7-6.7-12.6-10.9c2-6.2,5.7-21.6-1-35.6
		c0.8,0.6,12.4,10.2,22.8,10.2c3.4,0,6.3-1.4,8.9-3.4c5.4-4.4,8.9-11.9,10.5-14.5c2.4-3.9,0-13.3,0-13.3s-12.6-1.1-12.1-12.5
		c0,0,13.8,10.2,19.3,6.3c5.5-4,5.7-8.2,5.7-8.2s0.3,13.6,5.1,16c-1.7,1.1-3.4,1.8-5.3,1.7c0,0-13,14-17.3,28.6
		c10.5,7.3,24.2,20.3,38.6,43c2.8,4.3,4.9,9.2,7.3,14.4C1487.3,485.7,1488.8,488.6,1488.3,491.5z"/>
	<path class="st16" d="M1418.1,326.1c0,0,19.8,0.4,25.4,8.2c5.7,7.8,11.1,9.2,11.1,9.9c-0.1,0.6,7-0.4,7-0.4s0.9-9.5-6.6-9.9
		c0,0-5.7-2.4-16-14.3c-10.5-11.8-38.1,7.5-52.8,18.9C1371.5,349.8,1418.1,326.1,1418.1,326.1z"/>
</g>
<rect x="-130" y="1067" class="st6" width="2096.5" height="50.1"/>
<path class="st6" d="M-255.2,235.1"/>
</svg>
