<?xml version="1.0" encoding="utf-8"?>
<!-- Generator: Adobe Illustrator 23.1.0, SVG Export Plug-In . SVG Version: 6.00 Build 0)  -->
<svg version="1.1" id="Layer_1" xmlns="http://www.w3.org/2000/svg" xmlns:xlink="http://www.w3.org/1999/xlink" x="0px" y="0px"
	 viewBox="0 0 1920 900" style="enable-background:new 0 0 1920 900;" xml:space="preserve">
<style type="text/css">
	.st0{clip-path:url(#SVGID_2_);fill:url(#SVGID_3_);}
	.st1{clip-path:url(#SVGID_5_);fill:url(#SVGID_6_);}
	.st2{clip-path:url(#SVGID_8_);}
	.st3{fill:url(#SVGID_9_);}
	.st4{opacity:0.1;fill:#6988F9;enable-background:new    ;}
	.st5{fill:#CBFEFE;}
	.st6{fill:#FFFFFF;}
	.st7{clip-path:url(#SVGID_11_);}
	.st8{opacity:0.4;fill:#8FE2EA;enable-background:new    ;}
	.st9{opacity:0.4;}
	.st10{fill:#E3D2B4;}
	.st11{fill:#3E1E7D;}
	.st12{opacity:0.2;}
	.st13{fill:#331D74;}
	.st14{fill:#1D1B16;}
	.st15{fill:#FFCC99;}
	.st16{fill:#763CCE;}
	.st17{fill:#8EB7FF;}
	.st18{fill:#1C6CD9;}
	.st19{fill:#7AABFF;}
</style>
<g>
	<g>
		<g>
			<g>
				<g>
					<defs>
						<rect id="SVGID_1_" x="164" y="-410.2" width="2010.1" height="1229.5"/>
					</defs>
					<clipPath id="SVGID_2_">
						<use xlink:href="#SVGID_1_"  style="overflow:visible;"/>
					</clipPath>
					
						<linearGradient id="SVGID_3_" gradientUnits="userSpaceOnUse" x1="2043.1079" y1="-1746.046" x2="786.399" y2="-551.8259" gradientTransform="matrix(1 0 0 1 0 1120)">
						<stop  offset="2.423880e-03" style="stop-color:#A050FF"/>
						<stop  offset="0.2561" style="stop-color:#6989F8"/>
						<stop  offset="0.4957" style="stop-color:#3CB7F2"/>
						<stop  offset="0.7071" style="stop-color:#1CD8EE"/>
						<stop  offset="0.8825" style="stop-color:#08EDEB"/>
						<stop  offset="1" style="stop-color:#01F4EA"/>
					</linearGradient>
					<rect x="164" y="-410.2" class="st0" width="2010.1" height="1229.5"/>
				</g>
			</g>
		</g>
	</g>
	<g>
		<g>
			<g>
				<g>
					<defs>
						<rect id="SVGID_4_" x="164" y="-410.2" width="2010.1" height="1229.5"/>
					</defs>
					<clipPath id="SVGID_5_">
						<use xlink:href="#SVGID_4_"  style="overflow:visible;"/>
					</clipPath>
					
						<linearGradient id="SVGID_6_" gradientUnits="userSpaceOnUse" x1="345.7499" y1="-1745.1499" x2="1992.5499" y2="-98.3501" gradientTransform="matrix(1 0 0 1 0 1120)">
						<stop  offset="3.409785e-07" style="stop-color:#000444"/>
						<stop  offset="0.9285" style="stop-color:#984CF6"/>
						<stop  offset="0.929" style="stop-color:#994DF8"/>
						<stop  offset="0.932" style="stop-color:#A050FF"/>
					</linearGradient>
					<rect x="143.4" y="-422.8" class="st1" width="2051.5" height="1242.1"/>
				</g>
			</g>
		</g>
	</g>
	<g>
		<g>
			<g>
				<g>
					<defs>
						<rect id="SVGID_7_" x="164" y="-410.2" width="2010.1" height="1229.5"/>
					</defs>
					<clipPath id="SVGID_8_">
						<use xlink:href="#SVGID_7_"  style="overflow:visible;"/>
					</clipPath>
					<g class="st2">
						
							<linearGradient id="SVGID_9_" gradientUnits="userSpaceOnUse" x1="778.5001" y1="-954.2223" x2="2194.7" y2="-954.2223" gradientTransform="matrix(1 0 0 1 0 1120)">
							<stop  offset="0.4449" style="stop-color:#000959"/>
							<stop  offset="0.7252" style="stop-color:#00034B"/>
							<stop  offset="0.9883" style="stop-color:#000044"/>
						</linearGradient>
						<path class="st3" d="M2194.7,344.6v392.2c-4.8,1.2-9.4,2.3-14.2,3.4c-62.9,14.7-130.7,23.2-190.5-1.4
							c-127.9-52.7-163.8-228.7-282.7-299.6c-120.9-72-295-16-400.4-109.8c-118.2-104.8-70.6-328.8-197.1-423
							c-44.7-33.2-102.9-42.4-149.8-72.5c-51.3-32.9-84.3-87.6-113.2-141.6c-20.9-39.5-41.4-80-68.3-115.1h667.4
							c11.8,23.6,25.7,45.5,44.1,64.3c77.6,79,207.3,72.4,299.1,133.9c93.1,62.4,129.4,180.4,164.4,287.9
							c35.2,107.3,85.5,224.2,188.9,266.9C2159.6,337.3,2177,341.9,2194.7,344.6z"/>
						<g>
							<path class="st4" d="M1091.9-30c-0.9-7.5-16.3-8.3-42.9-0.1c1.1,1.4,2,3,2.9,4.4c10.5-1.4,17.4-0.5,18.6,2.7
								s-3.4,8.4-11.9,14.3c-0.2-1.1-0.5-2-0.8-3c-0.1-0.2-0.1-0.4-0.2-0.5c-0.8-2.5-1.6-5.1-2.6-7.3c0-0.1-0.1-0.2-0.1-0.3
								c-8-17.7-24.3-31-43.8-34.3l0,0c-1.5-0.2-2.9-0.4-4.5-0.5h-0.1c-1.5-0.1-3-0.2-4.7-0.2l0,0l0,0c-0.2,0-0.3,0-0.5,0
								c-2.9,0-5.7,0.2-8.6,0.6l0,0l0,0c-1.6,0.2-3,0.5-4.5,0.9c-0.2,0-0.3,0.1-0.5,0.1c-1.5,0.3-2.9,0.8-4.3,1.3h-0.2
								c-1.5,0.4-2.8,1.1-4.2,1.6c-0.1,0-0.2,0.1-0.3,0.1c-1.4,0.5-2.6,1.2-3.9,1.8c-0.2,0.1-0.4,0.2-0.5,0.3
								c-1.3,0.6-2.5,1.4-3.8,2.2c0,0-0.1,0-0.1,0.1c-1.2,0.6-2.3,1.5-3.5,2.4c-0.2,0.1-0.3,0.2-0.5,0.3c-0.3,0.2-0.6,0.4-1.1,0.8
								l0,0l0,0c-0.8,0.5-1.5,1.2-2.2,1.8c-0.2,0.1-0.4,0.3-0.5,0.4c-0.8,0.6-1.5,1.3-2.1,1.9c-0.1,0.1-0.1,0.1-0.2,0.2
								c-0.8,0.6-1.5,1.5-2.2,2.3l0,0c-2.2,2.4-4.3,5.1-6.1,7.9c-0.1,0.1-0.2,0.2-0.2,0.3c-0.5,0.8-1,1.6-1.5,2.3
								c-0.1,0.2-0.2,0.4-0.3,0.5c-0.4,0.6-0.9,1.5-1.2,2.3c-0.1,0.2-0.2,0.4-0.3,0.6c-0.4,0.8-0.8,1.6-1.2,2.4
								c-0.1,0.2-0.2,0.3-0.2,0.5c-0.6,1.5-1.2,3-1.6,4.4v0.1c-0.2,0.5-0.3,1.1-0.5,1.6c-0.1,0.2-0.1,0.4-0.2,0.6
								c-0.2,0.8-0.4,1.6-0.6,2.4c-0.1,0.3-0.2,0.6-0.2,1.1c-0.2,0.6-0.3,1.4-0.4,2.2c-0.1,0.3-0.1,0.8-0.2,1.2
								c-0.1,0.6-0.2,1.4-0.3,2l0,0v0.1c0,0.4-0.1,0.8-0.1,1.3c-0.1,0.8-0.1,1.5-0.2,2.3c0,0.3-0.1,0.6-0.1,1.1
								c-0.1,1.2-0.1,2.3-0.1,3.4c0,2,0.1,4,0.3,5.9c-21.4,11.9-34.2,22.9-32,28.8s18.9,5.6,42.9,0.1l0,0c3.6,5.1,8,9.6,12.9,13.2
								l0,0l0,0c9,6.7,20,11,31.8,11.5c1.1,0,2,0.1,3,0.1c1.2,0,2.2,0,3.4-0.1c0.3,0,0.8,0,1.1-0.1c0.8,0,1.5-0.1,2.2-0.2
								c0.4,0,0.9-0.1,1.2-0.1c0.8-0.1,1.4-0.2,2.1-0.3c0.4-0.1,0.9-0.1,1.2-0.2c0.8-0.1,1.4-0.3,2.1-0.4c0.3-0.1,0.8-0.1,1.1-0.2
								c0.9-0.2,1.6-0.4,2.4-0.6c0.2-0.1,0.4-0.1,0.6-0.2c2.1-0.6,4.1-1.4,6.1-2.3c0.2-0.1,0.4-0.2,0.5-0.2c0.9-0.3,1.6-0.6,2.3-1.2
								c0.2-0.1,0.4-0.2,0.6-0.3c0.8-0.3,1.5-0.8,2.2-1.3c0.2-0.1,0.4-0.2,0.6-0.3c0.8-0.4,1.6-0.9,2.3-1.5c0.1-0.1,0.2-0.1,0.4-0.2
								c2.7-1.8,5.3-3.9,7.7-6.1l0,0c0.6-0.5,1.3-1.3,1.8-1.8c0.1-0.1,0.2-0.2,0.3-0.3l0,0c0.1-0.1,0.1-0.1,0.2-0.2
								c0.5-0.5,1.1-1.2,1.6-1.8c0.1-0.1,0.2-0.2,0.3-0.3l0.1-0.1c0.1-0.1,0.1-0.1,0.2-0.2c0.5-0.5,1.1-1.3,1.6-1.9
								c0-0.1,0.1-0.1,0.1-0.2c7.3-9.5,11.8-21.2,12.3-33.9c0-0.9,0.1-1.9,0.1-2.8l0,0c0-1.3-0.1-2.6-0.1-3.9c0-0.3,0-0.6-0.1-1.1
								c0-0.3,0-0.6-0.1-1.1l0,0C1081.3-13.2,1092.5-23.7,1091.9-30z M942.9,13.5c0-0.3-0.1-0.5-0.1-0.9
								C942.9,12.9,942.9,13.3,942.9,13.5z M931.2,30.5c-1.3-3.3,3.5-8.4,12.1-14.4c0-0.1,0-0.1,0-0.2c0.3,1.6,0.6,3.1,1.1,4.6l0,0
								l0,0c0.3,1.4,0.8,2.6,1.3,4c0,0,0,0,0,0.1c1,2.6,2,5.2,3.1,7.5c0,0,0,0.1,0.1,0.1c0.2,0.3,0.4,0.8,0.6,1.2
								C939.1,34.6,932.4,33.7,931.2,30.5z"/>
							<path class="st4" d="M1932.6,198.8c-21.2-21.6-55.9-21.6-77.2,0c-21.2,21.6-21.2,56.7,0,78.2c21.2,21.6,55.9,21.6,77.2,0
								C1953.9,255.5,1953.9,220.3,1932.6,198.8z"/>
							<path class="st4" d="M1467.3-173.6c-21.2-21.6-55.9-21.6-77.2,0s-21.2,56.7,0,78.2c21.2,21.6,55.9,21.6,77.2,0
								C1488.6-116.8,1488.6-152,1467.3-173.6z"/>
							<path class="st4" d="M1484.7-206.4c-5-5.2-13.1-5.2-18.1,0s-5,13.3,0,18.3c5,5.2,13.1,5.2,18.1,0
								C1489.7-193.1,1489.7-201.2,1484.7-206.4z"/>
						</g>
						<g>
							<ellipse class="st5" cx="589.7" cy="-159.8" rx="3.5" ry="3.5"/>
							<path class="st5" d="M1028.4-184.2c0,1.9-1.6,3.5-3.5,3.5s-3.5-1.6-3.5-3.5s1.6-3.5,3.5-3.5
								C1026.9-187.8,1028.4-186.2,1028.4-184.2z"/>
							<path class="st5" d="M2009.1,87.9c0,1.9-1.6,3.5-3.5,3.5s-3.5-1.6-3.5-3.5s1.6-3.5,3.5-3.5S2009.1,86,2009.1,87.9z"/>
							<path class="st5" d="M1118.1,305.2c0,1.5-1.2,2.6-2.6,2.6c-1.5,0-2.6-1.2-2.6-2.6c0-1.5,1.2-2.6,2.6-2.6
								C1116.9,302.7,1118.1,303.7,1118.1,305.2z"/>
							<path class="st5" d="M1553.5-285c1.1,0.9,1.3,2.5,0.4,3.7s-2.4,1.3-3.5,0.4s-1.3-2.5-0.4-3.7S1552.6-286,1553.5-285z"/>
							<path class="st5" d="M2005.7-13.8c0,3.7-2.8,6.5-6.4,6.5s-6.4-3-6.4-6.5c0-3.7,2.9-6.5,6.4-6.5
								C2002.8-20.4,2005.7-17.5,2005.7-13.8z"/>
							<path class="st5" d="M1045.2-163.2c0,3.7-2.9,6.5-6.4,6.5s-6.4-3-6.4-6.5c0-3.7,2.8-6.5,6.4-6.5
								C1042.4-169.8,1045.2-166.8,1045.2-163.2z"/>
							<path class="st5" d="M1624.3-36.2c0,3.7-2.9,6.5-6.4,6.5c-3.6,0-6.4-3-6.4-6.5s2.8-6.5,6.4-6.5
								C1621.5-42.6,1624.3-39.7,1624.3-36.2z"/>
							<path class="st5" d="M1042.2,173.4c0,1.9-1.6,3.5-3.5,3.5s-3.5-1.6-3.5-3.5s1.6-3.5,3.5-3.5S1042.2,171.5,1042.2,173.4z"/>
							<path class="st5" d="M1535.8-280.4c0,1.9-1.6,3.5-3.5,3.5s-3.5-1.6-3.5-3.5s1.6-3.5,3.5-3.5S1535.8-282.3,1535.8-280.4z"/>
							<path class="st5" d="M1362.9,159.2c0,1.5-1.2,2.7-2.6,2.7c-1.5,0-2.6-1.3-2.6-2.7c0-1.5,1.2-2.7,2.6-2.7
								C1361.8,156.4,1362.9,157.7,1362.9,159.2z"/>
							<path class="st5" d="M1324.1,216c-1.5,0-2.6-1.3-2.6-2.7c0-1.5,1.2-2.7,2.6-2.7c1.5,0,2.6,1.3,2.6,2.7S1325.6,216,1324.1,216
								z"/>
							<ellipse class="st5" cx="1567.5" cy="446.2" rx="1.5" ry="1.5"/>
							<path class="st5" d="M1118.3,362c0,0.8-0.6,1.5-1.4,1.5s-1.4-0.6-1.4-1.5c0-0.8,0.6-1.5,1.4-1.5
								C1117.6,360.6,1118.3,361.3,1118.3,362z"/>
							<path class="st5" d="M1722.6,678.1c1.2,0.9,1.3,2.5,0.4,3.7s-2.5,1.3-3.7,0.4c-1.2-0.9-1.3-2.5-0.4-3.7
								C1719.9,677.3,1721.5,677.2,1722.6,678.1z"/>
							<path class="st5" d="M1214.5,280.7c1.2,0.9,1.3,2.5,0.4,3.7s-2.5,1.3-3.7,0.4s-1.3-2.5-0.4-3.7
								C1211.8,280.1,1213.3,280,1214.5,280.7z"/>
							<ellipse class="st5" cx="547.4" cy="-242.9" rx="1.5" ry="1.5"/>
							<path class="st5" d="M2130.5-280.4c0,1.5-1.2,2.6-2.6,2.6s-2.6-1.2-2.6-2.6s1.2-2.6,2.6-2.6S2130.5-281.9,2130.5-280.4z"/>
							<path class="st5" d="M1366.7,363.4c0,0.8-0.6,1.5-1.5,1.5s-1.5-0.6-1.5-1.5c0-0.8,0.6-1.5,1.5-1.5
								C1366.1,362,1366.7,362.7,1366.7,363.4z"/>
							<path class="st5" d="M298.7-244.4c0.1,0.8-0.5,1.5-1.3,1.6s-1.5-0.5-1.6-1.4c-0.1-0.8,0.5-1.5,1.3-1.6
								S298.7-245.2,298.7-244.4z"/>
							<path class="st5" d="M1748.4,640.7c0.3,0.8,0,1.6-0.8,1.9c-0.8,0.3-1.6,0-1.8-0.8c-0.3-0.8,0-1.6,0.8-1.9
								C1747.3,639.6,1748.1,640,1748.4,640.7z"/>
							<path class="st6" d="M1141.1,432.1l3.4,6.3c1.2,2.2,2.9,4.1,5,5.3l6.1,3.5c0.2,0.1,0.2,0.4,0,0.5l-6.1,3.5
								c-2.1,1.3-3.9,3.1-5,5.3l-3.4,6.3c-0.1,0.2-0.4,0.2-0.6,0l-3.4-6.3c-1.2-2.2-2.9-4.1-5-5.3l-6.1-3.5c-0.2-0.1-0.2-0.4,0-0.5
								l6.1-3.5c2.1-1.3,3.9-3.1,5-5.3l3.4-6.3C1140.7,431.9,1141,431.9,1141.1,432.1z"/>
							<path class="st6" d="M1857.4,467.1l3.4,6.3c1.2,2.2,2.9,4.1,5,5.3l6.1,3.5c0.2,0.1,0.2,0.4,0,0.5l-6.1,3.5
								c-2.1,1.3-3.9,3.1-5,5.3l-3.4,6.3c-0.1,0.2-0.4,0.2-0.6,0l-3.4-6.3c-1.2-2.2-2.9-4.1-5-5.3l-6.1-3.5c-0.2-0.1-0.2-0.4,0-0.5
								l6.1-3.5c2.1-1.3,3.9-3.1,5-5.3l3.4-6.3C1856.9,466.9,1857.3,466.9,1857.4,467.1z"/>
							<path class="st6" d="M1249.7-149.8l3.5,6.3c1.2,2.2,3,4.1,5.2,5.3l6.3,3.5c0.2,0.1,0.2,0.4,0,0.5l-6.3,3.5
								c-2.2,1.3-4,3.1-5.2,5.3l-3.5,6.3c-0.1,0.2-0.5,0.2-0.6,0l-3.5-6.3c-1.2-2.2-3-4.1-5.2-5.3l-6.3-3.5c-0.2-0.1-0.2-0.4,0-0.5
								l6.3-3.5c2.2-1.3,4-3.1,5.2-5.3l3.5-6.3C1249.1-150.2,1249.6-150.2,1249.7-149.8z"/>
							<path class="st6" d="M718.4-203.3l1.3,2.4c0.4,0.8,1.2,1.5,2,1.9l2.4,1.4c0.1,0,0.1,0.2,0,0.2l-2.4,1.4
								c-0.9,0.4-1.5,1.2-2,1.9l-1.3,2.4c0,0.1-0.2,0.1-0.2,0l-1.3-2.4c-0.4-0.8-1.2-1.5-2-1.9l-2.4-1.3c-0.1,0-0.1-0.2,0-0.2
								l2.4-1.4c0.9-0.4,1.5-1.2,2-1.9l1.3-2.4C718.3-203.3,718.4-203.3,718.4-203.3z"/>
							<path class="st6" d="M1245.6,366.9l1.3,2.4c0.4,0.8,1.2,1.5,2,1.9l2.4,1.4c0.1,0,0.1,0.2,0,0.2l-2.4,1.4
								c-0.9,0.4-1.5,1.2-2,1.9l-1.3,2.4c0,0.1-0.2,0.1-0.2,0l-1.3-2.4c-0.4-0.8-1.2-1.5-2-1.9l-2.4-1.4c-0.1,0-0.1-0.2,0-0.2
								l2.4-1.4c0.9-0.4,1.5-1.2,2-1.9l1.3-2.4C1245.4,366.7,1245.6,366.7,1245.6,366.9z"/>
							<path class="st6" d="M1940.1-197.3l1.6,3.2c0.6,1.2,1.5,1.9,2.5,2.6l3.1,1.7c0.1,0.1,0.1,0.2,0,0.3l-3.1,1.7
								c-1.1,0.5-2,1.5-2.5,2.6l-1.6,3.2c-0.1,0.1-0.2,0.1-0.3,0l-1.6-3.2c-0.6-1.2-1.5-1.9-2.5-2.6l-3.1-1.7
								c-0.1-0.1-0.1-0.2,0-0.3l3.1-1.7c1.1-0.5,2-1.5,2.5-2.6l1.6-3.2C1939.9-197.4,1940.1-197.4,1940.1-197.3z"/>
							<path class="st6" d="M1829.2,313l2.4,4.4c0.9,1.6,2.1,2.8,3.7,3.7l4.4,2.4c0.2,0.1,0.2,0.3,0,0.4l-4.4,2.4
								c-1.6,0.8-2.8,2.2-3.7,3.7l-2.4,4.4c-0.1,0.2-0.3,0.2-0.4,0l-2.4-4.4c-0.9-1.6-2.1-2.8-3.7-3.7l-4.4-2.4
								c-0.2-0.1-0.2-0.3,0-0.4l4.4-2.4c1.6-0.8,2.8-2.2,3.7-3.7l2.4-4.4C1828.9,312.8,1829.1,312.8,1829.2,313z"/>
						</g>
					</g>
				</g>
			</g>
		</g>
	</g>
	<g>
		<g>
			<g>
				<g>
					<defs>
						<rect id="SVGID_10_" x="164" y="-410.2" width="2010.1" height="1229.5"/>
					</defs>
					<clipPath id="SVGID_11_">
						<use xlink:href="#SVGID_10_"  style="overflow:visible;"/>
					</clipPath>
					<g class="st7">
						<path class="st6" d="M182.4-310.6c-10-23.2-25.3-67.9-22.8-130.8v1279h2035.1V255.1c-30.4-24.2-78.3-0.5-95.5,34.7
							s-14.2,76.5-15.5,115.8c-1.5,39.3-10.4,82.9-42.2,105.2c-45.7,32.1-111.4,3.4-162.4,25.8c-44.4,19.6-64.3,70.7-85.6,114.7
							c-21.3,44.1-58.3,90.9-106.5,86.1c-74.5-7.3-73.1-79.6-147.9-107.3c-47.6-17.7-74.8,17.1-127,6.6
							c-13.7-2.7-20.6-7.5-27.1-15.4c-35.8-43.1,21.7-154.7,39.2-188.4c17-32.9,46.2-81,95.4-130.1c-3.4-2.2-6.8-4.4-10.2-6.6
							c-39.5,50.7-76.8,89.1-106,116.4c-36.3,33.9-101.4,89.7-181.2,119.4c-9.5,3.6-16.4,5-24.9,6.7
							c-58.6,12.3-118.7-19.8-137.7-77.3c-18.9-57.5-8-120.1-9.6-180.8c-1.6-60.5-23.1-129.3-78.3-152.4c-36.4-15.2-79.9-7-114.4-26
							c-86.1-47.4-48.4-206.8-173.2-203.5c-36.6,0.9-71.3,15.3-107.2,21.4c-36,6.2-77.7,2.3-101.5-25.7
							c-28.1-32.9-46.2-46.9-87.9-40.8c-24.1,3.5-77.8,76.5-141.7-29.5"/>
						<g>
							<path class="st8" d="M1770.3,49.2c-0.5,0.5-1.5,0.5-2.1,0c-0.5-0.5-0.5-1.5,0-2.2c0.5-0.5,1.5-0.5,2.1,0
								C1771,47.7,1771,48.7,1770.3,49.2z M1777.2,42.4c-0.5,0.5-1.5,0.5-2.1,0c-0.5-0.5-0.5-1.5,0-2.2c0.5-0.5,1.5-0.5,2.1,0
								C1777.7,40.9,1777.7,41.8,1777.2,42.4z M1783.9,35.5c-0.5,0.5-1.5,0.5-2.1,0c-0.5-0.5-0.5-1.5,0-2.2c0.5-0.5,1.5-0.5,2.1,0
								C1784.5,34,1784.5,35,1783.9,35.5z M1790.7,28.8c-0.5,0.5-1.5,0.5-2.1,0s-0.5-1.5,0-2.2c0.5-0.5,1.5-0.5,2.1,0
								C1791.2,27.2,1791.2,28.1,1790.7,28.8z M1797.5,21.8c-0.5,0.5-1.5,0.5-2.1,0c-0.5-0.5-0.5-1.5,0-2.2s1.5-0.5,2.1,0
								C1798.2,20.2,1798.1,21.2,1797.5,21.8z M1804.2,14.9c-0.5,0.5-1.5,0.5-2.1,0c-0.5-0.5-0.5-1.5,0-2.2c0.5-0.5,1.5-0.5,2.1,0
								C1804.9,13.5,1804.9,14.4,1804.2,14.9z M1811,8.1c-0.5,0.5-1.5,0.5-2.1,0c-0.5-0.5-0.5-1.5,0-2.2c0.5-0.5,1.5-0.5,2.1,0
								C1811.5,6.6,1811.5,7.6,1811,8.1z M1817.8,1.2c-0.5,0.5-1.5,0.5-2.1,0c-0.5-0.5-0.5-1.5,0-2.2c0.5-0.5,1.5-0.5,2.1,0
								C1818.3-0.3,1818.3,0.7,1817.8,1.2z M1824.5-5.5c-0.5,0.5-1.5,0.5-2.1,0c-0.5-0.5-0.5-1.5,0-2.2c0.5-0.5,1.5-0.5,2.1,0
								C1825-7.1,1825-6.2,1824.5-5.5z M1763.6,54c-0.5-0.5-1.5-0.5-2.1,0c-0.5,0.5-0.5,1.5,0,2.2c0.5,0.5,1.5,0.5,2.1,0
								C1764.2,55.4,1764.2,54.6,1763.6,54z M1756.9,60.8c-0.5-0.5-1.5-0.5-2.1,0c-0.5,0.5-0.5,1.5,0,2.2c0.5,0.5,1.5,0.5,2.1,0
								S1757.5,61.4,1756.9,60.8z M1750.2,67.7c-0.5-0.5-1.5-0.5-2.1,0c-0.5,0.5-0.5,1.5,0,2.2c0.5,0.5,1.5,0.5,2.1,0
								C1750.8,69.2,1750.8,68.3,1750.2,67.7z M1628.2,193.5c-0.5,0.5-1.5,0.5-2.1,0c-0.5-0.5-0.5-1.5,0-2.2c0.5-0.6,1.5-0.5,2.1,0
								C1628.9,192,1628.8,193,1628.2,193.5z M1634.9,186.7c-0.5,0.5-1.5,0.5-2.1,0s-0.5-1.5,0-2.2c0.5-0.5,1.5-0.5,2.1,0
								C1635.6,185.1,1635.6,186.1,1634.9,186.7z M1641.7,179.8c-0.5,0.5-1.5,0.5-2.1,0c-0.5-0.5-0.5-1.5,0-2.2
								c0.5-0.5,1.5-0.5,2.1,0C1642.3,178.3,1642.3,179.2,1641.7,179.8z M1648.5,173c-0.5,0.5-1.5,0.5-2.1,0c-0.5-0.5-0.5-1.5,0-2.2
								c0.5-0.6,1.5-0.5,2.1,0C1649,171.5,1649,172.4,1648.5,173z M1626.4,249.8c-0.5,0.5-1.5,0.5-2.1,0c-0.5-0.5-0.5-1.5,0-2.2
								c0.5-0.5,1.5-0.5,2.1,0C1626.9,248.2,1626.9,249.2,1626.4,249.8z M1633.1,243c-0.5,0.5-1.5,0.5-2.1,0c-0.5-0.5-0.5-1.5,0-2.2
								c0.5-0.6,1.5-0.5,2.1,0C1633.6,241.4,1633.6,242.4,1633.1,243z M1639.8,236c-0.5,0.5-1.5,0.5-2.1,0s-0.5-1.5,0-2.2
								c0.5-0.5,1.5-0.5,2.1,0C1640.5,234.6,1640.5,235.5,1639.8,236z M1646.6,229.2c-0.5,0.5-1.5,0.5-2.1,0c-0.5-0.5-0.5-1.5,0-2.2
								c0.5-0.5,1.5-0.5,2.1,0C1647.3,227.6,1647.2,228.7,1646.6,229.2z M1713.7-23.2c-0.5-0.5-0.5-1.5,0-2.2c0.5-0.5,1.5-0.5,2.1,0
								c0.5,0.5,0.5,1.5,0,2.2C1715.4-22.6,1714.4-22.6,1713.7-23.2z M1761.6-49.9c-0.5-0.5-0.5-1.5,0-2.2c0.5-0.5,1.5-0.5,2.1,0
								c0.5,0.5,0.5,1.5,0,2.2C1763.1-49.4,1762.1-49.4,1761.6-49.9z M1764.5-46.8c-0.5-0.5-0.5-1.5,0-2.2c0.5-0.5,1.5-0.5,2.1,0
								c0.5,0.5,0.5,1.5,0,2.2C1766.1-46.3,1765.2-46.3,1764.5-46.8z"/>
							<g class="st9">
								<path class="st10" d="M1859,350.2L1859,350.2c-1.1,0-1.7-0.8-1.7-1.8v-5.3c0-1.1,0.9-1.8,1.7-1.8l0,0c1.1,0,1.7,0.8,1.7,1.8
									v5.3C1860.7,349.4,1859.9,350.2,1859,350.2z"/>
								<path class="st10" d="M1871.3,350.2L1871.3,350.2c-1.1,0-1.7-0.8-1.7-1.8v-5.3c0-1.1,0.9-1.8,1.7-1.8l0,0
									c1.1,0,1.7,0.8,1.7,1.8v5.3C1873.1,349.4,1872.3,350.2,1871.3,350.2z"/>
								<path class="st10" d="M1883.8,350.2L1883.8,350.2c-1.1,0-1.7-0.8-1.7-1.8v-5.3c0-1.1,0.9-1.8,1.7-1.8l0,0
									c1.1,0,1.7,0.8,1.7,1.8v5.3C1885.5,349.4,1884.7,350.2,1883.8,350.2z"/>
								<path class="st10" d="M1896.1,350.2L1896.1,350.2c-1.1,0-1.7-0.8-1.7-1.8v-5.3c0-1.1,0.9-1.8,1.7-1.8l0,0
									c1.1,0,1.7,0.8,1.7,1.8v5.3C1897.9,349.4,1897.2,350.2,1896.1,350.2z"/>
								<path class="st10" d="M1908.6,350.2L1908.6,350.2c-1.1,0-1.7-0.8-1.7-1.8v-5.3c0-1.1,0.9-1.8,1.7-1.8l0,0
									c1.1,0,1.7,0.8,1.7,1.8v5.3C1910.3,349.4,1909.5,350.2,1908.6,350.2z"/>
								<path class="st10" d="M1920.9,350.2L1920.9,350.2c-1.1,0-1.7-0.8-1.7-1.8v-5.3c0-1.1,0.9-1.8,1.7-1.8l0,0
									c1.1,0,1.7,0.8,1.7,1.8v5.3C1922.8,349.4,1922,350.2,1920.9,350.2z"/>
								<path class="st10" d="M1934.6,350.2h-2.4c-0.3,0-0.6-0.3-0.6-0.6v-7.5c0-0.3,0.3-0.6,0.6-0.6h2.4c0.3,0,0.6,0.3,0.6,0.6v7.5
									C1935.2,350,1934.9,350.2,1934.6,350.2z"/>
								<path class="st10" d="M1945.7,350.2L1945.7,350.2c-1.1,0-1.7-0.8-1.7-1.8v-5.3c0-1.1,0.9-1.8,1.7-1.8l0,0
									c1.1,0,1.7,0.8,1.7,1.8v5.3C1947.5,349.4,1946.8,350.2,1945.7,350.2z"/>
							</g>
							<g class="st9">
								<path class="st11" d="M1806.9-60L1806.9-60c-0.8-0.6-0.8-1.8,0-2.6l3.6-3.7c0.8-0.6,1.8-0.6,2.5,0l0,0
									c0.8,0.6,0.8,1.8,0,2.6l-3.7,3.7C1808.8-59.4,1807.7-59.4,1806.9-60z"/>
								<path class="st11" d="M1815.7-51.2L1815.7-51.2c-0.8-0.6-0.8-1.8,0-2.6l3.7-3.7c0.8-0.6,1.8-0.6,2.5,0l0,0
									c0.8,0.6,0.8,1.8,0,2.6l-3.7,3.7C1817.6-50.5,1816.5-50.5,1815.7-51.2z"/>
								<path class="st11" d="M1824.5-42.3L1824.5-42.3c-0.8-0.6-0.8-1.8,0-2.6l3.7-3.7c0.8-0.6,1.8-0.6,2.5,0l0,0
									c0.8,0.6,0.8,1.8,0,2.6l-3.7,3.7C1826.4-41.7,1825.2-41.7,1824.5-42.3z"/>
								<path class="st11" d="M1833.3-33.4L1833.3-33.4c-0.8-0.6-0.8-1.8,0-2.6l3.6-3.7c0.8-0.6,1.8-0.6,2.5,0l0,0
									c0.8,0.6,0.8,1.8,0,2.6l-3.7,3.7C1835.1-32.7,1834-32.7,1833.3-33.4z"/>
								<path class="st11" d="M1842.1-24.6L1842.1-24.6c-0.8-0.6-0.8-1.8,0-2.6l3.7-3.7c0.8-0.6,1.8-0.6,2.5,0l0,0
									c0.8,0.6,0.8,1.8,0,2.6l-3.7,3.7C1843.8-23.9,1842.8-23.9,1842.1-24.6z"/>
								<path class="st11" d="M1850.8-15.6L1850.8-15.6c-0.8-0.6-0.8-1.8,0-2.6l3.7-3.7c0.8-0.6,1.8-0.6,2.5,0l0,0
									c0.8,0.6,0.8,1.8,0,2.6l-3.7,3.7C1852.7-14.9,1851.5-14.9,1850.8-15.6z"/>
								<path class="st11" d="M1859.5-6.7L1859.5-6.7c-0.8-0.6-0.8-1.8,0-2.6l3.6-3.7c0.8-0.6,1.8-0.6,2.5,0l0,0
									c0.8,0.6,0.8,1.8,0,2.6l-3.7,3.7C1861.5-6,1860.3-6,1859.5-6.7z"/>
								<path class="st11" d="M1868.4,2.2L1868.4,2.2c-0.8-0.6-0.8-1.8,0-2.6l3.7-3.7c0.8-0.6,1.8-0.6,2.5,0l0,0
									c0.8,0.6,0.8,1.8,0,2.6l-3.7,3.7C1870.3,2.9,1869.1,2.9,1868.4,2.2z"/>
								<path class="st11" d="M1877.2,11L1877.2,11c-0.8-0.6-0.8-1.8,0-2.6l3.7-3.7c0.8-0.6,1.8-0.6,2.5,0l0,0
									c0.8,0.6,0.8,1.8,0,2.6l-3.7,3.7C1878.9,11.8,1877.9,11.8,1877.2,11z"/>
							</g>
							<g class="st12">
								<path class="st13" d="M1470,224.3l-71.3,6c-0.2,0-0.3,0.1-0.5,0.2l-17.6,18l2.3-0.2l16.2-16.6l69-5.9l-17,17.2l2.3-0.2
									l17.2-17.4c0.2-0.2,0.3-0.5,0.1-0.9C1470.5,224.4,1470.2,224.2,1470,224.3z"/>
							</g>
							<g class="st12">
								<path class="st13" d="M1687.1,280l-25.9,26.3c-0.1,0.1-0.2,0.3-0.2,0.5v66.1c-28,37.4-64.7,73.6-90,96.8l-0.2,2.3
									c24.9-22.9,61.7-58.8,90.1-96.5v18c0.5-0.6,1.1-1.4,1.6-1.9v-84.3l24.5-24.9C1687,281.6,1687,280.7,1687.1,280z"/>
								<path class="st13" d="M1573.3,439.3l-0.2,2.4l16.7-17c0.1-0.1,0.2-0.3,0.2-0.4l6-72.3c0.1-0.3-0.1-0.5-0.4-0.8
									c-0.3-0.1-0.6-0.1-0.9,0.1l-16.2,16.3l-0.2,2.4l15.9-16.1l-5.7,69.9L1573.3,439.3z"/>
							</g>
						</g>
					</g>
				</g>
			</g>
		</g>
	</g>
</g>
<g>
	<path class="st14" d="M1534.8,259.9c12.3-37-55.5-27.9-64.3-10.2c-8.9,17.8,0.3,26.5-16.1,26.2c-16.6-0.3-17.2,4.2-20,17.4
		c-2.8,13.2-17.4,18.1-17.4,18.1s11.6,21.6,48.3-8.4C1481,290.1,1529.8,275,1534.8,259.9z"/>
	<path class="st14" d="M1535.2,261.8c0,0,12.1-7.1-0.6-13.5c-7.1-3.6-41.2-8.1-48.8,34.1c-7.8,42.5-4.1,28.4-7.7,30.8
		c-3,2.1,3.2,76.2,33.4-7.5c6.3-17.6,10.4-39.3,11.8-42.3c1.4-2.8,13.2-4.8,13.2-4.8"/>
	<path class="st15" d="M1519.9,295c-0.3,0.1-0.8-15.3,1.9-18.7c2.6-3.2-8.8-8.5-8.8-8.5s-4.6,13.4-5,20.6c-0.5,7.1,13.7,5,13.7,5"/>
	<path class="st15" d="M1516.7,244.4c-0.2,0-5.6,14.5-3,24.3s9.9,14.1,12.4,13.2c1.1-0.5,3.7-2.7,6.2-6.4c3.5-5.1,2.7-8.5,4.9-18.3
		c0.5-2.4-1.7-4.9-3.7-6.8c-5.3-5.5-14.5-8.6-17.2-6.2"/>
	<path class="st15" d="M1513.1,258.8c0,0-4.1-3.4-4.4,4.9c-0.1,3.6,2,3.1,3.5,3.2c0.1,0,0,0-0.1,0.1c-0.2,0.2-2.4,24.7-2.4,24.7
		l3.3-4.2c0,0,2.7-13.2,2.4-14C1515.1,272.8,1515.3,259.5,1513.1,258.8z"/>
	<path class="st16" d="M1513.4,285.3c6.8-1.9-17.1-39.2-89,51.6c-62.1,78.3-125.5,50.5-128.2,50.6c-2.8,0.1-12.4,23.7,41.6,24.5
		s12.8,14.2,15.3,25c2.4,10.7,46.2,32.5,54.5,18.9c13.2-21.7,28.3-1.1,28.3-1.1s44.7-20,58.1-55.5s25.7-85.7,23.3-97.2
		C1515.1,290.5,1513.4,285.3,1513.4,285.3z"/>
	<path class="st17" d="M1526.2,328.7c-1.2,0.7-2.3,1.2-3.6,1.2c0,0-8.9,9.6-11.8,19.6c-0.5,1.3-0.6,2.6-0.8,3.9
		c-1.3,11.3-6.6,26.1-6.6,26.1s-0.1,0-0.1-0.1l-9.1-5.4l-31.6-18.7c0,0,3.2-11.9,27.8-21.5c15.3-6-2.3-58.1,14.1-57.7
		c6.2,0.2,23.3,18.4,24.6,24.2c1.3,5.8-0.5,17.9,0.8,21.1C1530.6,323.6,1528.9,326.9,1526.2,328.7z"/>
	<path class="st17" d="M1490,359.8c0,0-13.3,30.5-62.5,54.8c0,0-4.8,4.9-11.7,13.4c-0.8,1.1-2.3,2.3-4.1,3.9
		c-8,6.9-23.4,17.5-26.6,22c-4,5.4-9.8,16.3-17.3,21.7c-7.5,5.4-12,17.8-15.1,18.8c-3,1.2-4.9-1.1-7.8-4.1s1.3-11.4,3.7-14.4
		c2.4-3.1,7.8-3.1,13.7-10c5.9-6.9,10.4-9.5,11.4-10.7c0.7-0.9,13-22,23-35.7c4.2-5.9,8.1-10.4,10.4-11.4c7.8-3.7,13.2-3.3,18.2-8.6
		c4.9-5.3,25.1-58.2,62.4-62.2C1525,333.1,1490,359.8,1490,359.8z"/>
	<g>
		<path class="st17" d="M1535.2,398.2c-0.1,0.1-0.3,0.1-0.5,0.1c-0.1,0-0.1,0-0.2,0.1c-1.8,0.5-5.7,1.6-10.5,3
			c-7.8,2.3-18.1,5.4-26.2,8c-5.9,2-10.5,3.5-12.2,4.5c-5.4,3-14.6,9.9-23,11.6c-8.4,1.6-17,10.3-20.1,10c-3-0.2-3.7-2.8-5-6.4
			c-1.3-3.7,5.5-9.1,8.8-10.7c3.2-1.6,7.8,0.5,15.4-3.1s12.4-4.1,13.9-4.6c8.1-3.2,13.8-7.7,18.7-12.1c2.8-2.5,5.3-5,7.9-7.1
			c3.8-3.1,7.8-5.6,12.9-6.8c2.1-0.5,4.4-0.8,7-0.8c5.5,0,9.2,1.2,13.1,1C1531.2,389.1,1529.5,395.3,1535.2,398.2z"/>
		<path class="st17" d="M1542.9,392.8c-0.1,2-3.5,4.3-7.7,5.4c-0.1,0.1-0.3,0.1-0.5,0.1c-0.1,0-0.1,0-0.2,0.1
			c-2.6,0.5-5.5,0.6-8-0.3c-0.8-1.6,3.1-6.2,1.5-7.7c-0.3-0.2-0.6-0.5-1.2-0.8c-2.4-1.6-6.7-3.2-11.8-5.1c-3.6-1.4-7.7-3-11.8-5
			c0,0-0.1,0-0.1-0.1c-3-1.5-6.1-3.3-9.1-5.4s-5.9-4.6-8.7-7.5c-4.4-4.6-8.3-10.4-11.1-17.5c-5.6-14.5,22.5-6.2,22.5-6.2
			s3.7,0.5,9.6,4c1.3,0.7,2.7,1.6,4.1,2.7c7.2,5,16.6,13.9,26.4,29.5c1.9,3,3.3,6.3,5,9.8C1542.2,388.7,1543.2,390.8,1542.9,392.8z"
			/>
	</g>
	<path class="st14" d="M1513.1,258.8c0,0,4.1,0.2,7.3-5.7c3.2-5.9,6.9-3.9,7.1-3.9s6,3,6.8-0.3c0.6-3.3-10.7-10.9-16.9-7.3
		c-6.2,3.5-5,16.7-5,16.7"/>
	<path class="st17" d="M1520.6,293.1c0,0,22.1-9.3,32.1-13.8c10-4.4,16.2-16,26.3-21c10-5,11.8-6.6,11.8-6.6l1.1,3.2
		c0,0-17.8,24.7-28.7,27.7c-10.7,3-37,27.7-38.2,28.7c-1.3,1-6.2-11.8-6.2-11.8"/>
	<path class="st17" d="M1506.9,291.6l-1.4,4.1c0,0-24.2,16.2-35.1,22.2c-8.4,4.5-13.8,13.5-20.7,20.5c0,0,0,0,0,0.1
		c-2.2,2.2-4.5,4.1-7.1,5.7c-2.3,1.4-4.1,2.5-5.6,3.4c-0.1,0-0.1,0-0.1,0.1c-2.8,1.3-4.9,2.8-6.2,4.3l0,0c-0.6,0.5-0.8,0.7-0.8,0.7
		l-1.5-3.5c0,0,5.7-9.3,12.7-18.3c0.5-0.6,0.9-1.2,0.9-1.2c5.3-6.6,11.4-12.8,16.3-14.6c12-4.4,39.3-34.8,40.6-36.1
		C1500.2,277.6,1506.9,291.6,1506.9,291.6z"/>
	<path class="st18" d="M1449.7,338.3L1449.7,338.3c-1.4,2.5-6.9,6.8-12.7,9.2c-0.1,0-0.1,0-0.1,0.1c-2.8,1.3-4.9,2.8-6.2,4.3l0,0
		c-1.4,1.5-2.3,3.1-2.8,4.1c-1.3,2.2-4.4,4.6-5.9,4.8c-1.5,0.1,2.1-2,3.1-3.3c1-1.4,1-2.3,1-2.3s-7.4,5.9-10.2,9.9
		c0,0-2.2,5.1-2.8,4.4c-0.6-0.6-1.4-7.7,1-10.4c2.3-2.8,4.6-5.8,11.2-10.7c3.4-2.6,12.9-14.1,15.9-17.7c0.5-0.6,0.9-1.2,0.9-1.2
		s5.2-2.8,6-2.3C1448.9,327.7,1451.1,335.8,1449.7,338.3z"/>
	<path class="st18" d="M1578.7,271L1578.7,271c2.7-1,7.8-5.7,11.3-11c0-0.1,0-0.1,0.1-0.1c1.6-2.6,3.5-4.2,5.3-5.4l0,0
		c1.8-1.2,3.4-1.7,4.6-2.1c2.3-0.8,5.3-3.5,5.7-5c0.3-1.5-2.3,1.7-3.7,2.5c-1.5,0.8-2.5,0.6-2.5,0.6s2.5-3,6.9-5.1
		c3.2-1.6,6.9-5.4,6.3-6.1c-0.6-0.7-3.3,0.2-7.1,1.2c-3.5,0.9-6.7,2.6-12.6,8.3c-3.1,3-25.5,15.8-25.1,16.7
		C1567.9,266.2,1576,271.9,1578.7,271z"/>
	<path class="st18" d="M1411.8,432c-8,6.9-23.4,17.5-26.6,22c-4,5.4-9.8,16.3-17.3,21.7c-7.5,5.4-12,17.8-15.1,18.8
		c-3,1.2-4.9-1.1-7.8-4.1s1.3-11.4,3.7-14.4c2.4-3.1,7.8-3.1,13.7-10c5.9-6.9,10.4-9.5,11.4-10.7c0.7-0.9,13-21.9,23-35.7
		c7.1-0.3,17-0.2,17.4,2.1C1414.3,423.1,1413.2,427.5,1411.8,432z"/>
	<path class="st18" d="M1524.8,397.8c0.1,1.2-0.3,2.3-0.8,3.5c-13.5,4-34.4,10.4-38.3,12.4c-5.4,3-14.6,9.9-23,11.6
		c-8.4,1.6-17,10.3-20.1,10c-3-0.2-3.7-2.8-5-6.4s5.5-9.1,8.8-10.7c3.2-1.6,7.8,0.5,15.4-3.1c7.7-3.5,12.4-4.1,13.9-4.6
		c12.7-5,19.3-13.2,26.6-19.2C1510.4,392.3,1524.6,394.6,1524.8,397.8z"/>
	<path class="st19" d="M1542.9,392.8c-0.1,2-3.5,4.3-7.7,5.4c-0.1,0.1-0.3,0.1-0.5,0.1c-0.1,0-0.1,0-0.2,0.1
		c-1.8,0.5-5.7,1.6-10.5,3c-7.8,2.3-18.1,5.4-26.2,8c-0.9-2.7-2.2-6.6-3.5-11c2.8-2.5,5.3-5,7.9-7.1c3.8-3.1,7.8-5.6,12.9-6.8
		c-3.6-1.4-7.7-3-11.8-5c0,0-0.1,0-0.1-0.1c-3-1.5-6.1-3.3-9.1-5.4s-5.9-4.6-8.7-7.5c1.4-4.2,3.9-14.8-0.6-24.3
		c0.5,0.5,8.5,6.9,15.7,6.9c2.3,0,4.3-0.9,6-2.3c3.7-3,6.1-8.1,7.2-9.9c1.6-2.7,0-9.1,0-9.1s-8.7-0.8-8.3-8.6c0,0,9.5,7,13.2,4.2
		c3.8-2.7,3.9-5.6,3.9-5.6s0.2,9.3,3.5,11c-1.2,0.7-2.3,1.2-3.6,1.2c0,0-8.9,9.6-11.8,19.6c7.2,5,16.6,13.9,26.4,29.5
		c1.9,3,3.3,6.3,5,9.8C1542.2,388.7,1543.2,390.8,1542.9,392.8z"/>
	<path class="st16" d="M1494.8,279.4c0,0,13.5,0.3,17.4,5.6c3.9,5.3,7.6,6.3,7.6,6.8c-0.1,0.5,4.8-0.3,4.8-0.3s0.6-6.5-4.5-6.8
		c0,0-3.9-1.7-11-9.8c-7.1-8.1-26.1,5.1-36.1,13C1462.9,295.6,1494.8,279.4,1494.8,279.4z"/>
</g>
<rect x="72.8" y="805.6" class="st6" width="2134" height="137.5"/>
<rect x="102.6" y="-83.6" class="st6" width="120.3" height="1080"/>
</svg>
