<?xml version="1.0" encoding="utf-8"?>
<!-- Generator: Adobe Illustrator 23.1.0, SVG Export Plug-In . SVG Version: 6.00 Build 0)  -->
<svg version="1.1" id="Layer_1" xmlns="http://www.w3.org/2000/svg" xmlns:xlink="http://www.w3.org/1999/xlink" x="0px" y="0px"
	 viewBox="0 0 1920 1080" style="enable-background:new 0 0 1920 1080;" xml:space="preserve">
<style type="text/css">
	.st0{clip-path:url(#SVGID_2_);fill:url(#SVGID_3_);}
	.st1{clip-path:url(#SVGID_5_);fill:url(#SVGID_6_);}
	.st2{clip-path:url(#SVGID_8_);}
	.st3{fill:url(#SVGID_9_);}
	.st4{opacity:0.1;fill:#6988F9;enable-background:new    ;}
	.st5{fill:#CBFEFE;}
	.st6{fill:#FFFFFF;}
	.st7{clip-path:url(#SVGID_11_);}
	.st8{opacity:0.4;fill:#8FE2EA;enable-background:new    ;}
	.st9{opacity:0.4;}
	.st10{fill:#E3D2B4;}
	.st11{fill:#3E1E7D;}
	.st12{opacity:0.2;}
	.st13{fill:#331D74;}
	.st14{fill:#1D1B16;}
	.st15{fill:#FFCC99;}
	.st16{fill:#763CCE;}
	.st17{fill:#8EB7FF;}
	.st18{fill:#1C6CD9;}
	.st19{fill:#7AABFF;}
</style>
<g>
	<g>
		<g>
			<g>
				<g>
					<defs>
						<rect id="SVGID_1_" x="-222.1" y="-196.8" width="2134.8" height="1305.7"/>
					</defs>
					<clipPath id="SVGID_2_">
						<use xlink:href="#SVGID_1_"  style="overflow:visible;"/>
					</clipPath>
					
						<linearGradient id="SVGID_3_" gradientUnits="userSpaceOnUse" x1="1773.5741" y1="-1516.0168" x2="438.9043" y2="-247.7124" gradientTransform="matrix(1 0 0 1 0 1090)">
						<stop  offset="2.423880e-03" style="stop-color:#A050FF"/>
						<stop  offset="0.2561" style="stop-color:#6989F8"/>
						<stop  offset="0.4957" style="stop-color:#3CB7F2"/>
						<stop  offset="0.7071" style="stop-color:#1CD8EE"/>
						<stop  offset="0.8825" style="stop-color:#08EDEB"/>
						<stop  offset="1" style="stop-color:#01F4EA"/>
					</linearGradient>
					<rect x="-222.1" y="-196.8" class="st0" width="2134.8" height="1305.7"/>
				</g>
			</g>
		</g>
	</g>
	<g>
		<g>
			<g>
				<g>
					<defs>
						<rect id="SVGID_4_" x="-222.1" y="-196.8" width="2134.8" height="1305.7"/>
					</defs>
					<clipPath id="SVGID_5_">
						<use xlink:href="#SVGID_4_"  style="overflow:visible;"/>
					</clipPath>
					
						<linearGradient id="SVGID_6_" gradientUnits="userSpaceOnUse" x1="-29.2231" y1="-1515.1273" x2="1719.7268" y2="233.8228" gradientTransform="matrix(1 0 0 1 0 1090)">
						<stop  offset="3.409785e-07" style="stop-color:#000444"/>
						<stop  offset="0.9285" style="stop-color:#984CF6"/>
						<stop  offset="0.929" style="stop-color:#994DF8"/>
						<stop  offset="0.932" style="stop-color:#A050FF"/>
					</linearGradient>
					<rect x="-244.1" y="-210.3" class="st1" width="2178.7" height="1319.2"/>
				</g>
			</g>
		</g>
	</g>
	<g>
		<g>
			<g>
				<g>
					<defs>
						<rect id="SVGID_7_" x="-222.1" y="-196.8" width="2134.8" height="1305.7"/>
					</defs>
					<clipPath id="SVGID_8_">
						<use xlink:href="#SVGID_7_"  style="overflow:visible;"/>
					</clipPath>
					<g class="st2">
						
							<linearGradient id="SVGID_9_" gradientUnits="userSpaceOnUse" x1="430.6018" y1="-675.1465" x2="1934.6018" y2="-675.1465" gradientTransform="matrix(1 0 0 1 0 1090)">
							<stop  offset="0.4449" style="stop-color:#000959"/>
							<stop  offset="0.7252" style="stop-color:#00034B"/>
							<stop  offset="0.9883" style="stop-color:#000044"/>
						</linearGradient>
						<path class="st3" d="M1934.6,604.8v416.5c-5,1.2-10,2.5-15,3.6c-66.8,15.6-138.8,24.6-202.3-1.5
							c-135.8-56-173.9-242.9-300.3-318.2c-128.4-76.5-313.2-17-425.3-116.6c-125.5-111.3-75-349.2-209.3-449.2
							c-47.5-35.3-109.3-45.1-159-77C568.9,27.5,533.9-30.7,503.1-88c-22.2-42-44-85-72.5-122.3h708.8
							c12.6,25.1,27.3,48.4,46.9,68.3c82.4,83.9,220.2,76.9,317.7,142.2c98.9,66.3,137.5,191.6,174.6,305.8
							c37.4,114,90.8,238.1,200.6,283.4C1897.3,596.9,1915.7,601.9,1934.6,604.8z"/>
						<g>
							<path class="st4" d="M763.3,206.9c-0.9-8-17.3-8.8-45.5-0.1c1.1,1.5,2.2,3.1,3.1,4.7c11.1-1.5,18.4-0.6,19.8,2.9
								c1.2,3.4-3.6,9-12.7,15.2c-0.2-1.1-0.5-2.1-0.8-3.1c-0.1-0.2-0.1-0.4-0.2-0.6c-0.8-2.7-1.8-5.4-2.8-7.7
								c0-0.1-0.1-0.2-0.1-0.3c-8.4-18.8-25.8-32.9-46.5-36.4l0,0c-1.5-0.2-3.1-0.4-4.7-0.6h-0.1c-1.5-0.1-3.2-0.2-4.9-0.2l0,0l0,0
								c-0.2,0-0.3,0-0.5,0c-3.1,0-6.1,0.2-9.2,0.7l0,0l0,0c-1.6,0.2-3.2,0.6-4.7,1c-0.2,0-0.3,0.1-0.5,0.1
								c-1.5,0.3-3.1,0.9-4.5,1.3h-0.2c-1.5,0.4-3,1.1-4.4,1.7c-0.1,0-0.2,0.1-0.3,0.1c-1.4,0.6-2.8,1.2-4.1,1.9
								c-0.2,0.1-0.4,0.2-0.5,0.3c-1.3,0.7-2.7,1.5-4,2.4c0,0-0.1,0-0.1,0.1c-1.2,0.7-2.5,1.6-3.7,2.6c-0.2,0.1-0.3,0.2-0.5,0.3
								c-0.3,0.2-0.6,0.4-1.1,0.9l0,0l0,0c-0.8,0.6-1.5,1.2-2.4,1.9c-0.2,0.1-0.4,0.3-0.5,0.4c-0.8,0.7-1.5,1.3-2.3,2
								c-0.1,0.1-0.1,0.1-0.2,0.2c-0.8,0.7-1.5,1.6-2.4,2.5l0,0c-2.4,2.6-4.5,5.4-6.5,8.4c-0.1,0.1-0.2,0.2-0.2,0.3
								c-0.5,0.9-1,1.7-1.5,2.5c-0.1,0.2-0.2,0.4-0.3,0.6c-0.4,0.7-0.9,1.6-1.2,2.5c-0.1,0.2-0.2,0.4-0.3,0.7
								c-0.4,0.9-0.8,1.7-1.2,2.6c-0.1,0.2-0.2,0.3-0.2,0.6c-0.6,1.6-1.2,3.1-1.8,4.7v0.1c-0.2,0.6-0.3,1.1-0.5,1.7
								c-0.1,0.2-0.1,0.4-0.2,0.7c-0.2,0.9-0.4,1.7-0.6,2.6c-0.1,0.3-0.2,0.7-0.2,1.1c-0.2,0.7-0.3,1.5-0.4,2.4
								c-0.1,0.3-0.1,0.9-0.2,1.2c-0.1,0.7-0.2,1.5-0.3,2.1l0,0v0.1c0,0.4-0.1,0.9-0.1,1.3c-0.1,0.9-0.1,1.6-0.2,2.5
								c0,0.3-0.1,0.7-0.1,1.1c-0.1,1.2-0.1,2.5-0.1,3.6c0,2.1,0.1,4.3,0.3,6.3c-22.8,12.7-36.3,24.3-34,30.6
								c2.4,6.3,20.1,5.9,45.5,0.1l0,0c3.8,5.4,8.4,10.2,13.7,14l0,0l0,0c9.6,7.2,21.2,11.6,33.8,12.2c1.1,0,2.2,0.1,3.2,0.1
								c1.2,0,2.4,0,3.6-0.1c0.3,0,0.8,0,1.1-0.1c0.8,0,1.5-0.1,2.4-0.2c0.4,0,0.9-0.1,1.2-0.1c0.8-0.1,1.4-0.2,2.3-0.3
								c0.4-0.1,0.9-0.1,1.2-0.2c0.8-0.1,1.4-0.3,2.3-0.4c0.3-0.1,0.8-0.1,1.1-0.2c0.9-0.2,1.6-0.4,2.6-0.7c0.2-0.1,0.4-0.1,0.6-0.2
								c2.3-0.7,4.3-1.5,6.5-2.5c0.2-0.1,0.4-0.2,0.5-0.2c0.9-0.3,1.6-0.7,2.5-1.2c0.2-0.1,0.4-0.2,0.6-0.3c0.8-0.3,1.5-0.9,2.4-1.3
								c0.2-0.1,0.4-0.2,0.6-0.3c0.8-0.4,1.6-1,2.5-1.6c0.1-0.1,0.2-0.1,0.4-0.2c2.9-1.9,5.7-4.1,8.1-6.5l0,0c0.6-0.6,1.3-1.3,2-1.9
								c0.1-0.1,0.2-0.2,0.3-0.3l0,0c0.1-0.1,0.1-0.1,0.2-0.2c0.5-0.6,1.1-1.2,1.6-1.9c0.1-0.1,0.2-0.2,0.3-0.3l0.1-0.1
								c0.1-0.1,0.1-0.1,0.2-0.2c0.5-0.6,1.1-1.3,1.6-2c0-0.1,0.1-0.1,0.1-0.2c7.7-10.1,12.6-22.5,13.1-36.1c0-1,0.1-2,0.1-3l0,0
								c0-1.3-0.1-2.8-0.1-4.1c0-0.3,0-0.7-0.1-1.1c0-0.3,0-0.7-0.1-1.1l0,0C752.1,224.7,763.9,213.5,763.3,206.9z M605.1,253.1
								c0-0.3-0.1-0.6-0.1-1C605.1,252.5,605.1,252.9,605.1,253.1z M592.6,271.2c-1.3-3.5,3.7-9,12.9-15.3c0-0.1,0-0.1,0-0.2
								c0.3,1.7,0.6,3.2,1.1,4.9l0,0l0,0c0.3,1.5,0.8,2.8,1.3,4.3c0,0,0,0,0,0.1c1,2.8,2.2,5.5,3.3,8c0,0,0,0.1,0.1,0.1
								c0.2,0.3,0.4,0.9,0.6,1.2C601,275.5,593.9,274.6,592.6,271.2z"/>
							<path class="st4" d="M1656.2,449.9c-22.6-23-59.4-23-82,0c-22.6,23-22.6,60.2,0,83.1c22.6,23,59.4,23,82,0
								C1678.8,510.2,1678.8,472.8,1656.2,449.9z"/>
							<path class="st4" d="M1162,54.4c-22.6-23-59.4-23-82,0s-22.6,60.2,0,83.1c22.6,23,59.4,23,82,0
								C1184.6,114.7,1184.6,77.4,1162,54.4z"/>
							<path class="st4" d="M1180.5,19.6c-5.4-5.5-13.9-5.5-19.3,0s-5.4,14.1,0,19.5c5.4,5.5,13.9,5.5,19.3,0
								C1185.8,33.7,1185.8,25.1,1180.5,19.6z"/>
						</g>
						<g>
							<ellipse class="st5" cx="229.9" cy="69.1" rx="3.7" ry="3.7"/>
							<path class="st5" d="M695.9,43.1c0,2-1.6,3.7-3.7,3.7s-3.7-1.7-3.7-3.7s1.6-3.7,3.7-3.7C694.2,39.3,695.9,41,695.9,43.1z"/>
							<path class="st5" d="M1737.4,332.1c0,2-1.6,3.7-3.7,3.7s-3.7-1.7-3.7-3.7s1.6-3.7,3.7-3.7S1737.4,330.1,1737.4,332.1z"/>
							<path class="st5" d="M791.1,562.9c0,1.6-1.2,2.8-2.8,2.8s-2.8-1.2-2.8-2.8s1.2-2.8,2.8-2.8
								C789.9,560.2,791.1,561.3,791.1,562.9z"/>
							<path class="st5" d="M1253.6-63.9c1.1,1,1.3,2.7,0.4,3.9s-2.6,1.3-3.7,0.4c-1.1-1-1.3-2.7-0.4-3.9
								C1250.8-64.7,1252.6-64.9,1253.6-63.9z"/>
							<path class="st5" d="M1733.8,224.1c0,3.9-3,6.9-6.8,6.9s-6.8-3.1-6.8-6.9c0-3.9,3.1-6.9,6.8-6.9
								C1730.8,217.1,1733.8,220.2,1733.8,224.1z"/>
							<path class="st5" d="M713.7,65.4c0,3.9-3.1,6.9-6.8,6.9s-6.8-3.1-6.8-6.9c0-3.9,3-6.9,6.8-6.9S713.7,61.6,713.7,65.4z"/>
							<path class="st5" d="M1328.8,200.3c0,3.9-3.1,6.9-6.8,6.9c-3.8,0-6.8-3.1-6.8-6.9c0-3.7,3-6.9,6.8-6.9
								C1325.8,193.5,1328.8,196.6,1328.8,200.3z"/>
							<path class="st5" d="M710.5,422.9c0,2-1.6,3.7-3.7,3.7s-3.7-1.7-3.7-3.7s1.6-3.7,3.7-3.7S710.5,420.9,710.5,422.9z"/>
							<path class="st5" d="M1234.7-59c0,2-1.6,3.7-3.7,3.7s-3.7-1.7-3.7-3.7s1.6-3.7,3.7-3.7S1234.7-61,1234.7-59z"/>
							<path class="st5" d="M1051.1,407.8c0,1.6-1.2,2.9-2.8,2.9c-1.5,0-2.8-1.3-2.8-2.9s1.2-2.9,2.8-2.9S1051.1,406.3,1051.1,407.8
								z"/>
							<path class="st5" d="M1009.9,468.2c-1.5,0-2.8-1.3-2.8-2.9s1.2-2.9,2.8-2.9c1.5,0,2.8,1.3,2.8,2.9S1011.5,468.2,1009.9,468.2
								z"/>
							<ellipse class="st5" cx="1268.4" cy="712.6" rx="1.5" ry="1.6"/>
							<path class="st5" d="M791.3,623.3c0,0.9-0.6,1.6-1.4,1.6s-1.4-0.7-1.4-1.6s0.6-1.6,1.4-1.6
								C790.6,621.7,791.3,622.5,791.3,623.3z"/>
							<path class="st5" d="M1433.2,959c1.2,1,1.3,2.7,0.4,3.9s-2.7,1.3-3.9,0.4c-1.2-1-1.3-2.7-0.4-3.9
								C1430.3,958.1,1431.9,958,1433.2,959z"/>
							<path class="st5" d="M893.5,536.9c1.2,1,1.3,2.7,0.4,3.9c-0.9,1.2-2.7,1.3-3.9,0.4c-1.2-1-1.3-2.7-0.4-3.9
								C890.6,536.3,892.2,536.1,893.5,536.9z"/>
							<ellipse class="st5" cx="185" cy="-19.2" rx="1.5" ry="1.6"/>
							<path class="st5" d="M1866.4-59c0,1.6-1.2,2.8-2.8,2.8c-1.5,0-2.8-1.2-2.8-2.8c0-1.6,1.2-2.8,2.8-2.8
								C1865.1-61.8,1866.4-60.6,1866.4-59z"/>
							<path class="st5" d="M1055.2,624.7c0,0.9-0.6,1.6-1.5,1.6s-1.5-0.7-1.5-1.6c0-0.9,0.6-1.6,1.5-1.6
								C1054.5,623.3,1055.2,623.9,1055.2,624.7z"/>
							<path class="st5" d="M-79.1-20.8c0.1,0.9-0.5,1.6-1.3,1.7s-1.5-0.6-1.6-1.5s0.5-1.6,1.3-1.7C-79.9-22.4-79.1-21.6-79.1-20.8z
								"/>
							<path class="st5" d="M1460.6,919.2c0.3,0.9,0,1.7-0.8,2s-1.6,0-2-0.9c-0.3-0.9,0-1.7,0.8-2
								C1459.3,918.1,1460.3,918.4,1460.6,919.2z"/>
							<path class="st6" d="M815.5,697.7l3.6,6.7c1.2,2.4,3.1,4.4,5.4,5.6l6.5,3.7c0.2,0.1,0.2,0.4,0,0.6l-6.5,3.7
								c-2.3,1.3-4.1,3.2-5.4,5.6l-3.6,6.7c-0.1,0.2-0.4,0.2-0.6,0l-3.6-6.7c-1.2-2.4-3.1-4.4-5.4-5.6l-6.5-3.7
								c-0.2-0.1-0.2-0.4,0-0.6l6.5-3.7c2.3-1.3,4.1-3.2,5.4-5.6l3.6-6.7C815.1,697.5,815.4,697.5,815.5,697.7z"/>
							<path class="st6" d="M1576.3,734.9l3.6,6.7c1.2,2.4,3.1,4.4,5.4,5.6l6.5,3.7c0.2,0.1,0.2,0.4,0,0.6l-6.5,3.7
								c-2.3,1.3-4.1,3.2-5.4,5.6l-3.6,6.7c-0.1,0.2-0.4,0.2-0.6,0l-3.6-6.7c-1.2-2.4-3.1-4.4-5.4-5.6l-6.5-3.7
								c-0.2-0.1-0.2-0.4,0-0.6l6.5-3.7c2.3-1.3,4.1-3.2,5.4-5.6l3.6-6.7C1575.8,734.7,1576.2,734.7,1576.3,734.9z"/>
							<path class="st6" d="M930.9,79.6l3.7,6.7c1.2,2.4,3.2,4.4,5.6,5.6l6.7,3.7c0.2,0.1,0.2,0.4,0,0.6l-6.7,3.7
								c-2.4,1.3-4.2,3.2-5.6,5.6l-3.7,6.7c-0.1,0.2-0.5,0.2-0.6,0l-3.7-6.7c-1.2-2.4-3.2-4.4-5.6-5.6l-6.7-3.7
								c-0.2-0.1-0.2-0.4,0-0.6l6.7-3.7c2.4-1.3,4.2-3.2,5.6-5.6l3.7-6.7C930.2,79.3,930.8,79.3,930.9,79.6z"/>
							<path class="st6" d="M366.7,22.9l1.3,2.6c0.4,0.9,1.2,1.6,2.2,2l2.6,1.5c0.1,0,0.1,0.2,0,0.2l-2.6,1.5
								c-0.9,0.4-1.5,1.2-2.2,2l-1.3,2.6c0,0.1-0.2,0.1-0.2,0l-1.3-2.6c-0.4-0.9-1.2-1.6-2.2-2l-2.6-1.3c-0.1,0-0.1-0.2,0-0.2
								l2.6-1.5c0.9-0.4,1.5-1.2,2.2-2l1.3-2.6C366.6,22.9,366.7,22.9,366.7,22.9z"/>
							<path class="st6" d="M926.5,628.4l1.3,2.6c0.4,0.9,1.2,1.6,2.2,2l2.6,1.5c0.1,0,0.1,0.2,0,0.2l-2.6,1.5
								c-0.9,0.4-1.5,1.2-2.2,2l-1.3,2.6c0,0.1-0.2,0.1-0.2,0l-1.3-2.6c-0.4-0.9-1.2-1.6-2.2-2l-2.6-1.5c-0.1,0-0.1-0.2,0-0.2
								l2.6-1.5c0.9-0.4,1.5-1.2,2.2-2l1.3-2.6C926.3,628.2,926.5,628.2,926.5,628.4z"/>
							<path class="st6" d="M1142.7,284.7l1.8,3.4c0.6,1.2,1.5,2,2.7,2.8l3.3,1.8c0.1,0.1,0.1,0.2,0,0.3l-3.3,1.8
								c-1.1,0.6-2.2,1.6-2.7,2.8l-1.8,3.4c-0.1,0.1-0.2,0.1-0.3,0l-1.8-3.4c-0.6-1.2-1.5-2-2.7-2.8l-3.3-1.8
								c-0.1-0.1-0.1-0.2,0-0.3l3.3-1.8c1.1-0.6,2.2-1.6,2.7-2.8l1.8-3.4C1142.5,284.5,1142.7,284.5,1142.7,284.7z"/>
							<path class="st6" d="M1664.1,29.2l1.8,3.4c0.6,1.2,1.5,2,2.7,2.8l3.3,1.8c0.1,0.1,0.1,0.2,0,0.3l-3.3,1.8
								c-1.1,0.6-2.2,1.6-2.7,2.8l-1.8,3.4c-0.1,0.1-0.2,0.1-0.3,0l-1.8-3.4c-0.6-1.2-1.5-2-2.7-2.8l-3.3-1.8
								c-0.1-0.1-0.1-0.2,0-0.3l3.3-1.8c1.1-0.6,2.2-1.6,2.7-2.8l1.8-3.4C1663.9,29.1,1664.1,29.1,1664.1,29.2z"/>
							<path class="st6" d="M1546.3,571.2l2.6,4.7c0.9,1.7,2.3,3,3.9,3.9l4.6,2.6c0.2,0.1,0.2,0.3,0,0.4l-4.6,2.6
								c-1.6,0.9-3,2.4-3.9,3.9l-2.6,4.7c-0.1,0.2-0.3,0.2-0.4,0l-2.6-4.7c-0.9-1.7-2.3-3-3.9-3.9l-4.6-2.6c-0.2-0.1-0.2-0.3,0-0.4
								l4.6-2.6c1.6-0.9,3-2.4,3.9-3.9l2.6-4.7C1546,571,1546.2,571,1546.3,571.2z"/>
						</g>
					</g>
				</g>
			</g>
		</g>
	</g>
	<g>
		<g>
			<g>
				<g>
					<defs>
						<rect id="SVGID_10_" x="-222.1" y="-139.6" width="2134.8" height="1305.7"/>
					</defs>
					<clipPath id="SVGID_11_">
						<use xlink:href="#SVGID_10_"  style="overflow:visible;"/>
					</clipPath>
					<g class="st7">
						<path class="st6" d="M1833.1,603.8c-18.2,37.4-15,81.3-16.5,122.9c-1.5,41.8-11,88-44.8,111.8c-48.5,34-118.3,3.6-172.5,27.4
							c-47.2,20.8-68.3,75.1-90.9,121.8c-22.7,46.8-61.9,96.5-113.1,91.5c-79.1-7.7-77.6-84.5-157-114
							c-50.6-18.8-79.4,18.1-134.9,7.1c-14.5-2.9-21.8-8-28.8-16.3c-38-45.8,23.1-164.3,41.6-200.1c18-34.9,49.1-86,101.3-138.2
							c-3.6-2.4-7.2-4.7-10.8-7.1c-41.9,53.9-81.6,94.6-112.6,123.6c-38.5,36.1-107.7,95.3-192.5,126.8c-10.1,3.8-17.4,5.3-26.5,7.2
							c-62.2,13.1-126-21.1-146.2-82.1c-20.1-61-8.4-127.5-10.2-192c-1.8-64.3-24.5-137.3-83.2-161.8
							c-51.1-21.3-67.7-1.4-121.5-27.7c-72.1-35.3-83.3-126.7-148.1-164.7c-21.6-12.7-59-24.6-123.4-8.2c-36.2,5.5-66.3,7-88.5,7.2
							c-17.6,0.2-32.3-0.5-41.7-1c-20.6-1.2-37.8-3.3-50.4-5.1c-13.5-1-24.5-3.8-32.8-6.5c-15.6-5.3-28.6-9.7-38.5-21.4
							c-10.7-12.7-6.7-21.2-17.1-26.7c-3.1-1.7-4.4-1.4-26.6-6.1c0,0-2.9,0-11-2.4c-40.7-12.2-64-48.5-71.2-60.5
							c-32.2-53.5-20.6-75.6-26.6-80.7c-21.6-18.8-31.4-40.9-40.7-62.4c-10.6-24.6-26.9-72.1-24.2-139v1358.5h2161.4V566.9
							C1902.2,541.2,1851.4,566.4,1833.1,603.8z"/>
						<g>
							<path class="st8" d="M1483.8,348.2c-0.5,0.6-1.5,0.6-2.3,0c-0.5-0.6-0.5-1.6,0-2.4c0.5-0.6,1.5-0.6,2.3,0
								C1484.6,346.7,1484.6,347.7,1483.8,348.2z M1491.1,341c-0.5,0.6-1.5,0.6-2.3,0c-0.5-0.6-0.5-1.6,0-2.4c0.5-0.6,1.5-0.6,2.3,0
								C1491.7,339.4,1491.7,340.4,1491.1,341z M1498.3,333.7c-0.5,0.6-1.5,0.6-2.3,0c-0.5-0.6-0.5-1.6,0-2.4c0.5-0.6,1.5-0.6,2.3,0
								C1498.9,332.1,1498.9,333.1,1498.3,333.7z M1505.5,326.5c-0.5,0.6-1.5,0.6-2.3,0c-0.6-0.6-0.5-1.6,0-2.4
								c0.5-0.6,1.5-0.6,2.3,0C1506,324.8,1506,325.8,1505.5,326.5z M1512.7,319.1c-0.5,0.6-1.5,0.6-2.3,0c-0.5-0.6-0.5-1.6,0-2.4
								s1.5-0.6,2.3,0C1513.4,317.4,1513.3,318.4,1512.7,319.1z M1519.8,311.8c-0.5,0.6-1.5,0.6-2.3,0c-0.5-0.6-0.5-1.6,0-2.4
								c0.5-0.6,1.5-0.6,2.3,0C1520.5,310.3,1520.5,311.3,1519.8,311.8z M1527,304.6c-0.5,0.6-1.5,0.6-2.3,0c-0.5-0.6-0.5-1.6,0-2.4
								c0.5-0.6,1.5-0.6,2.3,0C1527.6,303,1527.6,304,1527,304.6z M1534.2,297.3c-0.5,0.6-1.5,0.6-2.3,0c-0.5-0.6-0.5-1.6,0-2.4
								c0.5-0.6,1.5-0.6,2.3,0C1534.8,295.6,1534.8,296.7,1534.2,297.3z M1541.4,290.1c-0.5,0.6-1.5,0.6-2.3,0
								c-0.5-0.6-0.5-1.6,0-2.4c0.5-0.6,1.5-0.6,2.3,0C1541.9,288.4,1541.9,289.3,1541.4,290.1z M1476.7,353.3
								c-0.5-0.6-1.5-0.6-2.3,0c-0.5,0.6-0.5,1.6,0,2.4c0.5,0.6,1.5,0.6,2.3,0C1477.3,354.8,1477.3,353.9,1476.7,353.3z
								 M1469.5,360.6c-0.5-0.6-1.5-0.6-2.3,0c-0.5,0.6-0.5,1.6,0,2.4c0.5,0.6,1.5,0.6,2.3,0
								C1470.2,362.3,1470.2,361.2,1469.5,360.6z M1462.4,367.8c-0.5-0.6-1.5-0.6-2.3,0c-0.5,0.6-0.5,1.6,0,2.4
								c0.5,0.6,1.5,0.6,2.3,0C1463,369.5,1463,368.5,1462.4,367.8z M1332.9,501.5c-0.5,0.6-1.5,0.6-2.3,0c-0.5-0.6-0.5-1.6,0-2.4
								c0.5-0.7,1.5-0.6,2.3,0C1333.6,499.8,1333.5,501,1332.9,501.5z M1340,494.2c-0.5,0.6-1.5,0.6-2.3,0c-0.6-0.6-0.5-1.6,0-2.4
								c0.5-0.6,1.5-0.6,2.3,0C1340.7,492.6,1340.7,493.6,1340,494.2z M1347.2,487c-0.5,0.6-1.5,0.6-2.3,0c-0.5-0.6-0.5-1.6,0-2.4
								c0.5-0.6,1.5-0.6,2.3,0C1347.8,485.3,1347.8,486.3,1347.2,487z M1354.4,479.7c-0.5,0.6-1.5,0.6-2.3,0c-0.5-0.6-0.5-1.6,0-2.4
								c0.5-0.7,1.5-0.6,2.3,0C1355,478.1,1355,479,1354.4,479.7z M1330.9,561.3c-0.5,0.6-1.5,0.6-2.3,0c-0.5-0.6-0.5-1.6,0-2.4
								c0.5-0.6,1.5-0.6,2.3,0C1331.5,559.5,1331.5,560.6,1330.9,561.3z M1338.1,554c-0.5,0.6-1.5,0.6-2.3,0c-0.5-0.6-0.5-1.6,0-2.4
								c0.5-0.7,1.5-0.6,2.3,0C1338.6,552.4,1338.6,553.4,1338.1,554z M1345.2,546.7c-0.5,0.6-1.5,0.6-2.3,0c-0.6-0.6-0.5-1.6,0-2.4
								c0.5-0.6,1.5-0.6,2.3,0C1346,545.1,1346,546.1,1345.2,546.7z M1352.4,539.4c-0.5,0.6-1.5,0.6-2.3,0c-0.5-0.6-0.5-1.6,0-2.4
								c0.5-0.6,1.5-0.6,2.3,0C1353.2,537.7,1353.1,538.8,1352.4,539.4z M1423.7,271.3c-0.5-0.6-0.5-1.6,0-2.4
								c0.5-0.6,1.5-0.6,2.3,0c0.5,0.6,0.5,1.6,0,2.4C1425.4,272,1424.4,272,1423.7,271.3z M1474.6,243c-0.5-0.6-0.5-1.6,0-2.4
								c0.5-0.6,1.5-0.6,2.3,0c0.5,0.6,0.5,1.6,0,2.4C1476.1,243.5,1475.1,243.5,1474.6,243z M1477.7,246.2c-0.5-0.6-0.5-1.6,0-2.4
								c0.5-0.6,1.5-0.6,2.3,0c0.5,0.6,0.5,1.6,0,2.4C1479.3,246.8,1478.4,246.8,1477.7,246.2z"/>
							<g class="st9">
								<path class="st10" d="M1578,667.9L1578,667.9c-1.1,0-1.9-0.9-1.9-1.9v-5.6c0-1.1,0.9-1.9,1.9-1.9l0,0c1.1,0,1.9,0.9,1.9,1.9
									v5.6C1579.8,667,1579,667.9,1578,667.9z"/>
								<path class="st10" d="M1591,667.9L1591,667.9c-1.1,0-1.9-0.9-1.9-1.9v-5.6c0-1.1,0.9-1.9,1.9-1.9l0,0c1.1,0,1.9,0.9,1.9,1.9
									v5.6C1593,667,1592.2,667.9,1591,667.9z"/>
								<path class="st10" d="M1604.3,667.9L1604.3,667.9c-1.1,0-1.9-0.9-1.9-1.9v-5.6c0-1.1,0.9-1.9,1.9-1.9l0,0
									c1.1,0,1.9,0.9,1.9,1.9v5.6C1606.2,667,1605.3,667.9,1604.3,667.9z"/>
								<path class="st10" d="M1617.4,667.9L1617.4,667.9c-1.1,0-1.9-0.9-1.9-1.9v-5.6c0-1.1,0.9-1.9,1.9-1.9l0,0
									c1.1,0,1.9,0.9,1.9,1.9v5.6C1619.3,667,1618.5,667.9,1617.4,667.9z"/>
								<path class="st10" d="M1630.7,667.9L1630.7,667.9c-1.1,0-1.9-0.9-1.9-1.9v-5.6c0-1.1,0.9-1.9,1.9-1.9l0,0
									c1.1,0,1.9,0.9,1.9,1.9v5.6C1632.5,667,1631.6,667.9,1630.7,667.9z"/>
								<path class="st10" d="M1643.8,667.9L1643.8,667.9c-1.1,0-1.9-0.9-1.9-1.9v-5.6c0-1.1,0.9-1.9,1.9-1.9l0,0
									c1.1,0,1.9,0.9,1.9,1.9v5.6C1645.7,667,1644.9,667.9,1643.8,667.9z"/>
								<path class="st10" d="M1658.3,667.9h-2.6c-0.3,0-0.6-0.3-0.6-0.7v-8c0-0.3,0.3-0.7,0.6-0.7h2.6c0.3,0,0.6,0.3,0.6,0.7v8
									C1658.9,667.7,1658.6,667.9,1658.3,667.9z"/>
								<path class="st10" d="M1670.1,667.9L1670.1,667.9c-1.1,0-1.9-0.9-1.9-1.9v-5.6c0-1.1,0.9-1.9,1.9-1.9l0,0
									c1.1,0,1.9,0.9,1.9,1.9v5.6C1672,667,1671.2,667.9,1670.1,667.9z"/>
							</g>
							<g class="st9">
								<path class="st11" d="M1522.7,232.2L1522.7,232.2c-0.8-0.7-0.8-1.9,0-2.8l3.8-3.9c0.8-0.7,2-0.7,2.7,0l0,0
									c0.8,0.7,0.8,1.9,0,2.8l-3.9,3.9C1524.7,232.9,1523.5,232.9,1522.7,232.2z"/>
								<path class="st11" d="M1532,241.6L1532,241.6c-0.8-0.7-0.8-1.9,0-2.8l3.9-3.9c0.8-0.7,2-0.7,2.7,0l0,0
									c0.8,0.7,0.8,1.9,0,2.8l-3.9,3.9C1534,242.3,1532.9,242.3,1532,241.6z"/>
								<path class="st11" d="M1541.4,251L1541.4,251c-0.8-0.7-0.8-1.9,0-2.8l3.9-3.9c0.8-0.7,2-0.7,2.7,0l0,0
									c0.8,0.7,0.8,1.9,0,2.8l-3.9,3.9C1543.4,251.7,1542.1,251.7,1541.4,251z"/>
								<path class="st11" d="M1550.7,260.4L1550.7,260.4c-0.8-0.7-0.8-1.9,0-2.8l3.8-3.9c0.8-0.7,2-0.7,2.7,0l0,0
									c0.8,0.7,0.8,1.9,0,2.8l-3.9,3.9C1552.6,261.2,1551.5,261.2,1550.7,260.4z"/>
								<path class="st11" d="M1560,269.9L1560,269.9c-0.8-0.7-0.8-1.9,0-2.8l3.9-3.9c0.8-0.7,2-0.7,2.7,0l0,0
									c0.8,0.7,0.8,1.9,0,2.8l-3.9,3.9C1561.9,270.6,1560.8,270.6,1560,269.9z"/>
								<path class="st11" d="M1569.3,279.4L1569.3,279.4c-0.8-0.7-0.8-1.9,0-2.8l3.9-3.9c0.8-0.7,2-0.7,2.7,0l0,0
									c0.8,0.7,0.8,1.9,0,2.8l-3.9,3.9C1571.3,280.2,1570,280.2,1569.3,279.4z"/>
								<path class="st11" d="M1578.6,288.9L1578.6,288.9c-0.8-0.7-0.8-1.9,0-2.8l3.8-3.9c0.8-0.7,2-0.7,2.7,0l0,0
									c0.8,0.7,0.8,1.9,0,2.8l-3.9,3.9C1580.6,289.6,1579.4,289.6,1578.6,288.9z"/>
								<path class="st11" d="M1587.9,298.3L1587.9,298.3c-0.8-0.7-0.8-1.9,0-2.8l3.9-3.9c0.8-0.7,2-0.7,2.7,0l0,0
									c0.8,0.7,0.8,1.9,0,2.8l-3.9,3.9C1590,299.1,1588.8,299.1,1587.9,298.3z"/>
								<path class="st11" d="M1597.3,307.7L1597.3,307.7c-0.8-0.7-0.8-1.9,0-2.8l3.9-3.9c0.8-0.7,2-0.7,2.7,0l0,0
									c0.8,0.7,0.8,1.9,0,2.8l-3.9,3.9C1599.2,308.5,1598,308.5,1597.3,307.7z"/>
							</g>
							<g class="st12">
								<path class="st13" d="M1164.8,534.2l-75.7,6.4c-0.2,0-0.3,0.1-0.5,0.2l-18.7,19.1l2.5-0.2l17.2-17.6l73.3-6.3l-18,18.3
									l2.5-0.2l18.2-18.5c0.2-0.2,0.3-0.6,0.1-1C1165.4,534.3,1165.1,534.1,1164.8,534.2z"/>
							</g>
							<g class="st12">
								<path class="st13" d="M1395.5,593.3l-27.5,27.9c-0.1,0.1-0.2,0.3-0.2,0.6V692c-29.8,39.8-68.7,78.2-95.6,102.8l-0.2,2.5
									c26.5-24.3,65.5-62.5,95.7-102.5v19.1c0.5-0.7,1.1-1.5,1.6-2v-89.6l26.1-26.4C1395.4,595,1395.4,594.1,1395.5,593.3z"/>
								<path class="st13" d="M1274.6,762.5l-0.2,2.6l17.7-18c0.1-0.1,0.2-0.3,0.2-0.4l6.4-76.8c0.1-0.3-0.1-0.6-0.4-0.9
									c-0.3-0.1-0.6-0.1-0.9,0.1l-17.2,17.4l-0.2,2.6l16.9-17.1l-6.1,74.2L1274.6,762.5z"/>
							</g>
						</g>
					</g>
				</g>
			</g>
		</g>
	</g>
</g>
<g>
	<path class="st14" d="M1404.9,310.4c18-54.1-81-40.9-94-14.8c-13.1,26.1,0.5,38.7-23.6,38.3c-24.2-0.4-25.2,6.2-29.3,25.4
		c-4,19.2-25.4,26.5-25.4,26.5s17,31.6,70.6-12.2C1326.3,354.5,1397.6,332.4,1404.9,310.4z"/>
	<path class="st14" d="M1405.5,313.2c0,0,17.6-10.5-1-19.8c-10.5-5.3-60.2-11.9-71.4,49.7c-11.4,62-6,41.4-11.2,45
		c-4.3,3,4.7,111.2,48.8-10.9c9.2-25.7,15.1-57.4,17.2-61.6c2.1-4.1,19.3-7,19.3-7"/>
	<path class="st15" d="M1383.2,361.6c-0.5,0.1-1.1-22.4,2.7-27.2c3.8-4.7-12.8-12.4-12.8-12.4s-6.7,19.6-7.3,30.2
		c-0.7,10.5,20,7.3,20,7.3"/>
	<path class="st15" d="M1378.4,287.8c-0.3,0-8.2,21.2-4.4,35.6c3.8,14.4,14.5,20.6,18.1,19.2c1.6-0.7,5.3-4,9-9.4
		c5.1-7.4,4-12.4,7.2-26.7c0.8-3.6-2.4-7.1-5.3-10c-7.7-8-21.2-12.5-25.1-9"/>
	<path class="st15" d="M1373.3,308.7c0,0-6.1-5-6.5,7.2c-0.2,5.3,2.8,4.4,5.1,4.7c0.2,0,0,0-0.2,0.2s-3.6,36.1-3.6,36.1l4.8-6.2
		c0,0,4-19.3,3.6-20.4C1376.2,329.2,1376.4,309.7,1373.3,308.7z"/>
	<path class="st16" d="M1373.8,347.4c10-2.8-25.1-57.2-129.9,75.2c-90.6,114.4-183.1,73.7-187.2,73.9c-4,0.2-18.1,34.7,60.8,35.8
		c78.8,1.2,18.7,20.9,22.3,36.5c3.6,15.7,67.5,47.5,79.6,27.6c19.4-31.7,41.3-1.6,41.3-1.6s65.3-29.2,84.9-81s37.4-125.1,34.1-142
		C1376.1,355,1373.8,347.4,1373.8,347.4z"/>
	<path class="st17" d="M1392.3,410.8c-1.7,1.1-3.4,1.8-5.3,1.7c0,0-13,14-17.3,28.6c-0.6,1.9-1,3.7-1.1,5.7
		c-1.9,16.4-9.6,38.1-9.6,38.1s-0.1,0-0.1-0.1l-13.3-7.9l-46.2-27.3c0,0,4.7-17.3,40.6-31.5c22.4-8.9-3.4-85,20.7-84.3
		c9,0.3,34,26.8,35.9,35.4c1.9,8.4-0.6,26.3,1.2,30.9C1398.9,403.4,1396.3,408.3,1392.3,410.8z"/>
	<path class="st17" d="M1339.5,456.2c0,0-19.5,44.5-91.3,80.1c0,0-7,7.2-17.1,19.6c-1.2,1.6-3.2,3.4-5.9,5.7
		c-11.7,10.1-34.2,25.6-38.9,32.1c-5.8,7.9-14.3,23.8-25.3,31.6c-11,7.9-17.5,25.9-22,27.5c-4.4,1.7-7.1-1.6-11.3-6
		c-4.2-4.4,1.9-16.7,5.3-21.1c3.6-4.4,11.4-4.4,20-14.6c8.6-10.2,15.1-13.8,16.7-15.7c1.1-1.3,18.9-32.1,33.5-52.1
		c6.2-8.5,11.8-15.2,15.2-16.7c11.5-5.3,19.3-4.8,26.6-12.5c7.2-7.7,36.6-85,91.1-90.8C1390.7,417.4,1339.5,456.2,1339.5,456.2z"/>
	<g>
		<path class="st17" d="M1405.5,512.2c-0.2,0.1-0.4,0.1-0.8,0.2c-0.1,0-0.2,0-0.2,0.1c-2.6,0.8-8.3,2.4-15.4,4.4
			c-11.5,3.3-26.5,7.9-38.3,11.7c-8.6,2.8-15.4,5.2-17.7,6.6c-7.9,4.4-21.4,14.4-33.6,17c-12.2,2.4-24.8,15-29.3,14.7
			c-4.4-0.3-5.3-4-7.3-9.4c-1.9-5.3,8-13.3,12.8-15.7c4.7-2.4,11.3,0.7,22.5-4.5c11.3-5.2,18.1-6,20.2-6.8
			c11.9-4.7,20.1-11.2,27.2-17.6c4-3.7,7.8-7.3,11.6-10.4c5.5-4.5,11.3-8.2,18.9-10c3.1-0.8,6.5-1.1,10.3-1.1c7.9,0,13.4,1.7,19,1.5
			C1399.6,499,1397.2,508.1,1405.5,512.2z"/>
		<path class="st17" d="M1416.7,504.4c-0.2,2.9-5.1,6.3-11.2,7.9c-0.2,0.1-0.4,0.1-0.8,0.2c-0.1,0-0.2,0-0.2,0.1
			c-3.8,0.8-7.9,0.9-11.7-0.4c-1.1-2.4,4.4-9,2.2-11.2c-0.4-0.3-0.9-0.8-1.7-1.2c-3.6-2.4-9.8-4.7-17.2-7.4
			c-5.3-2.1-11.2-4.4-17.2-7.3c0,0-0.1,0-0.1-0.1c-4.4-2.2-8.9-4.8-13.3-7.9s-8.7-6.7-12.6-10.9c-6.5-6.8-12.1-15.1-16.2-25.6
			c-8.2-21.2,32.8-9,32.8-9s5.4,0.8,14.1,5.8c1.9,1.1,3.9,2.4,6,3.9c10.5,7.3,24.2,20.3,38.6,43c2.8,4.3,4.9,9.2,7.3,14.4
			C1415.6,498.5,1417.2,501.5,1416.7,504.4z"/>
	</g>
	<path class="st14" d="M1373.3,308.7c0,0,6,0.3,10.6-8.3c4.7-8.6,10.2-5.7,10.5-5.7c0.3-0.1,8.9,4.3,9.9-0.4
		c0.9-4.8-15.7-15.9-24.8-10.6c-9.1,5.2-7.3,24.3-7.3,24.3"/>
	<path class="st17" d="M1384.2,358.9c0,0,32.2-13.6,46.8-20.1c14.7-6.4,23.7-23.4,38.4-30.6c14.7-7.3,17.2-9.6,17.2-9.6l1.6,4.7
		c0,0-26.1,36.1-41.9,40.5c-15.7,4.4-54,40.5-55.8,41.9c-1.8,1.5-9-17.2-9-17.2"/>
	<path class="st17" d="M1364.3,356.6l-2,5.9c0,0-35.4,23.7-51.3,32.4c-12.1,6.6-20.1,19.7-30.3,29.9c0,0,0,0,0,0.1
		c-3.1,3.1-6.6,6.1-10.4,8.3c-3.2,2-6,3.7-8.2,5c-0.1,0-0.1,0-0.1,0.1c-4.1,1.8-7.1,4-9.1,6.3l0,0c-0.9,0.8-1.2,1.1-1.2,1.1
		l-2.2-5.2c0,0,8.3-13.6,18.6-26.7c0.8-1,1.3-1.7,1.3-1.7c7.8-9.6,16.6-18.6,23.8-21.4c17.4-6.4,57.4-50.9,59.3-52.7
		C1354.4,336.2,1364.3,356.6,1364.3,356.6z"/>
	<path class="st18" d="M1280.7,424.8L1280.7,424.8c-2.1,3.7-10.2,9.9-18.6,13.4c-0.1,0-0.1,0-0.1,0.1c-4.1,1.8-7.1,4-9.1,6.3l0,0
		c-2.1,2.3-3.2,4.4-4.1,6.1c-1.8,3.1-6.4,6.8-8.7,7c-2.3,0.2,3-2.8,4.4-4.8s1.5-3.4,1.5-3.4s-10.8,8.5-14.8,14.5c0,0-3.1,7.4-4,6.5
		c-0.9-1-2-11.2,1.5-15.2c3.4-4,6.7-8.4,16.3-15.7c5-3.7,18.9-20.5,23.1-25.8c0.8-1,1.3-1.7,1.3-1.7s7.6-4.1,8.9-3.4
		C1279.4,409.4,1282.7,421.2,1280.7,424.8z"/>
	<path class="st18" d="M1469,326.6L1469,326.6c4-1.5,11.5-8.3,16.4-16.1c0-0.1,0-0.1,0.1-0.1c2.4-3.8,5.2-6.3,7.8-7.9l0,0
		c2.6-1.7,5-2.4,6.7-3.1c3.4-1.2,7.7-5.2,8.3-7.3c0.5-2.2-3.3,2.4-5.4,3.7c-2.2,1.1-3.7,0.9-3.7,0.9s3.7-4.3,10.2-7.5
		c4.7-2.4,10.1-7.9,9.2-8.9s-4.9,0.3-10.5,1.8c-5.2,1.3-9.8,3.7-18.4,12.1c-4.5,4.4-37.3,23-36.7,24.3
		C1453.3,319.5,1465,328,1469,326.6z"/>
	<path class="st18" d="M1225.3,561.6c-11.7,10.1-34.2,25.6-38.9,32.1c-5.8,7.9-14.3,23.8-25.3,31.6c-11,7.9-17.5,25.9-22,27.5
		c-4.4,1.7-7.1-1.6-11.3-6c-4.2-4.4,1.9-16.7,5.3-21.1c3.6-4.4,11.4-4.4,20-14.6c8.6-10.2,15.1-13.8,16.7-15.7
		c1.1-1.3,18.9-32,33.5-52.1c10.4-0.4,24.8-0.3,25.4,3C1228.9,548.6,1227.3,555,1225.3,561.6z"/>
	<path class="st18" d="M1390.2,511.8c0.1,1.7-0.4,3.4-1.1,5.1c-19.7,5.8-50.3,15.1-56,18.2c-7.9,4.4-21.4,14.4-33.6,17
		c-12.2,2.4-24.8,15-29.3,14.7c-4.4-0.3-5.3-4-7.3-9.4c-1.9-5.3,8-13.3,12.8-15.7c4.7-2.4,11.3,0.7,22.5-4.5
		c11.3-5.2,18.1-6,20.2-6.8c18.6-7.3,28.1-19.3,38.8-28C1369.4,503.7,1390,507,1390.2,511.8z"/>
	<path class="st19" d="M1416.7,504.4c-0.2,2.9-5.1,6.3-11.2,7.9c-0.2,0.1-0.4,0.1-0.8,0.2c-0.1,0-0.2,0-0.2,0.1
		c-2.6,0.8-8.3,2.4-15.4,4.4c-11.5,3.3-26.5,7.9-38.3,11.7c-1.4-4-3.1-9.6-5.2-16c4-3.7,7.8-7.3,11.6-10.4c5.5-4.5,11.3-8.2,18.9-10
		c-5.3-2.1-11.2-4.4-17.2-7.3c0,0-0.1,0-0.1-0.1c-4.4-2.2-8.9-4.8-13.3-7.9s-8.7-6.7-12.6-10.9c2-6.2,5.7-21.6-1-35.6
		c0.8,0.6,12.4,10.2,22.8,10.2c3.4,0,6.3-1.4,8.9-3.4c5.4-4.4,8.9-11.9,10.5-14.5c2.4-3.9,0-13.3,0-13.3s-12.6-1.1-12.1-12.5
		c0,0,13.8,10.2,19.3,6.3c5.5-4,5.7-8.2,5.7-8.2s0.3,13.6,5.1,16c-1.7,1.1-3.4,1.8-5.3,1.7c0,0-13,14-17.3,28.6
		c10.5,7.3,24.2,20.3,38.6,43c2.8,4.3,4.9,9.2,7.3,14.4C1415.6,498.5,1417.2,501.5,1416.7,504.4z"/>
	<path class="st16" d="M1346.5,338.9c0,0,19.8,0.4,25.4,8.2c5.7,7.8,11.1,9.2,11.1,9.9c-0.1,0.6,7-0.4,7-0.4s0.9-9.5-6.6-9.9
		c0,0-5.7-2.4-16-14.3c-10.5-11.8-38.1,7.5-52.8,18.9C1299.8,362.6,1346.5,338.9,1346.5,338.9z"/>
</g>
<path class="st6" d="M-742.6,337.8"/>
</svg>
